<?xml version="1.0" encoding="UTF-8"?><!DOCTYPE svg PUBLIC "-//W3C//DTD SVG 1.1//EN" "http://www.w3.org/Graphics/SVG/1.1/DTD/svg11.dtd"><svg xmlns="http://www.w3.org/2000/svg" xmlns:xlink="http://www.w3.org/1999/xlink"><defs><clipPath id="a"><path fill="#fff" transform="scale(-1 1) rotate(-32.772 -12.81 347.248)" d="M0 0h89.3v212.3H0z"/></clipPath><clipPath id="a"><path fill="#fff" transform="rotate(-32.772 82.193 24.169)" d="M0 0h89.3v212.3H0z"/></clipPath><clipPath id="a"><path fill="#fff" d="M0 0h30v30H0z"/></clipPath><clipPath id="a"><path fill="#fff" transform="matrix(1 0 0 -1 0 36)" d="M0 0h36v36H0z"/></clipPath><clipPath id="a"><path fill="#fff" d="M0 0h45v45H0z"/></clipPath><clipPath id="a"><path fill="#fff" d="M0 0h33v33H0z"/></clipPath><clipPath id="a"><path fill="#fff" d="M0 0h33v33H0z"/></clipPath><clipPath id="a"><path fill="#fff" d="M0 0h33v33H0z"/></clipPath><clipPath id="a"><path fill="#fff" d="M0 0h32.75v32.75H0z"/></clipPath></defs><symbol id="arrow_to_bottom_left"><g clip-path="url(#a)"><path d="M36.318 182.503c3.749-8.409 8.086-16.44 13.234-24.067.541-.841 1.803-.029 1.346.866a298.736 298.736 0 0 0-10.54 20.806c56.912-29.843 94.965-87.289 103.687-150.534.073-.667 1.1-.6 1.028.067-5.245 63.938-46.494 122.656-102.77 152.433 6.891.75 14.263 2.046 20.383 4.916 1.286.59.732 2.374-.686 2.175-8.237-1.616-15.986-3.988-24.487-4.823-.835-.18-1.598-1.028-1.195-1.839Z" fill="#2A2623"/></g></symbol><symbol id="arrow_to_bottom_right"><g clip-path="url(#a)"><path d="M153.686 182.503c-3.749-8.409-8.086-16.44-13.234-24.067-.542-.841-1.803-.029-1.346.866a299.009 299.009 0 0 1 10.541 20.806C92.734 150.265 54.681 92.819 45.958 29.574c-.072-.667-1.1-.6-1.027.067 5.245 63.938 46.494 122.656 102.77 152.433-6.891.75-14.263 2.046-20.383 4.916-1.286.59-.732 2.374.686 2.175 8.237-1.616 15.986-3.988 24.487-4.823.835-.18 1.598-1.028 1.195-1.839Z" fill="#2A2623"/></g></symbol><symbol id="arrows" viewBox="0 0 28 28"><path fill-rule="evenodd" clip-rule="evenodd" d="M13.124.015c-2.658.23-4.822.968-6.891 2.348C3.45 4.22 1.39 7.07.513 10.273c-.428 1.561-.646 3.686-.426 4.15.262.553 1.149.62 1.51.112.103-.145.125-.274.162-.965.125-2.35.78-4.414 1.978-6.245 1.95-2.977 4.994-4.918 8.567-5.46.85-.13 2.534-.131 3.365-.003 1.4.215 2.477.551 3.717 1.16 1.29.632 2.513 1.518 3.425 2.48l.402.424-2.241.027c-2.24.027-2.242.027-2.42.155a.9.9 0 0 0 .107 1.52c.122.064.688.078 3.227.077 1.98 0 3.153-.02 3.286-.057.298-.083.56-.336.635-.612.046-.173.052-1.051.02-3.366-.04-3.044-.045-3.136-.154-3.283-.213-.285-.39-.377-.726-.377-.38 0-.63.155-.78.487-.093.204-.102.387-.103 2.001l-.002 1.776-.45-.438C21.628 1.909 18.867.569 15.998.142c-.681-.102-2.33-.175-2.875-.127ZM26.7 13.216c-.351.18-.413.34-.46 1.197-.053.954-.121 1.471-.297 2.264a12.249 12.249 0 0 1-8.112 8.96 12.185 12.185 0 0 1-12.445-2.95l-.603-.603 2.243-.027c2.24-.027 2.242-.028 2.42-.155.5-.356.479-1.125-.038-1.475l-.183-.123H6.129c-1.991 0-3.17.021-3.302.058-.284.08-.574.348-.64.593-.035.132-.04 1.305-.014 3.36.039 3.07.043 3.16.153 3.308.212.285.39.377.725.377.381 0 .63-.155.78-.488.093-.204.102-.387.104-1.998v-1.775l.48.461c2.047 1.972 4.815 3.288 7.78 3.698.93.13 2.737.129 3.636-.001 4.102-.592 7.569-2.766 9.82-6.156 1.312-1.977 2.072-4.149 2.294-6.558.117-1.274.06-1.653-.29-1.902-.222-.159-.707-.192-.955-.065Z"/></symbol><symbol id="black_star"><path d="m20 7.969-7.267-.502L9.996.242 7.259 7.467 0 7.969l5.568 4.967-1.827 7.535 6.255-4.154 6.255 4.154-1.827-7.535L20 7.969Z" fill="#2A2623"/></symbol><symbol id="bonnet"><mask id="a" fill="#fff"><path fill-rule="evenodd" clip-rule="evenodd" d="M29.062.223c-4.545 1.122-17.58 5.14-18.017 5.554-.152.144-.277.395-.277.558 0 .33.487.858.791.858.108 0 2.06-.59 4.337-1.31A322.686 322.686 0 0 1 27.91 2.314C31.347 1.37 30.822 1.297 40 4.001c5.268 1.552 11.464 3.585 16.32 5.355 3.47 1.264 3.728 1.428 3.836 2.428.066.613-.223 1.195-.763 1.535-.59.372-6.543 2.514-11.249 4.048l-1.815.591-.434-.23c-.88-.467-14.481-6.546-14.776-6.604-.347-.068-.901.28-.997.626-.033.118.008.364.09.546.132.293.92.677 6.89 3.354 3.707 1.663 6.74 3.037 6.74 3.054 0 .083-6.375 1.972-9.97 2.953-2.628.717-3.106.713-5.91-.056-9.509-2.604-24.416-7.517-25.554-8.42-.69-.55-.772-1.643-.172-2.316.299-.336 1.887-.986 5.2-2.13 1.622-.56 2.077-1.06 1.578-1.733-.406-.547-.498-.527-4.667 1.001-2.503.918-2.631.98-3.292 1.6-.826.773-1.138 1.565-1.036 2.628.14 1.453.918 2.357 2.606 3.024 1.196.473 5.945 2.166 8.35 2.977l1.601.54.035 5.107.035 5.107.334.536c.183.295.483.637.666.76 1.182.794 11.276 4.195 16.198 5.456 1.105.284 1.262.298 1.878.17 1.701-.355 7.827-2.219 11.138-3.389a65.163 65.163 0 0 1 1.787-.616c.023 0 .043.588.043 1.306v1.305l-.543.248c-.737.337-1.561 1.226-1.772 1.911-.123.4-.169 1.275-.169 3.22 0 2.668 0 2.67.286 2.888.264.202.51.219 3.12.219 2.7 0 2.845-.011 3.083-.236.241-.228.248-.335.212-3.174l-.038-2.94-.328-.527c-.4-.642-1.022-1.175-1.605-1.374l-.435-.148.033-1.71.034-1.711.848-.338c1.124-.449 1.449-.681 1.845-1.319.289-.465.337-.68.375-1.68.04-1.038.02-1.174-.218-1.46a.88.88 0 0 0-1.315-.05c-.223.225-.263.4-.263 1.14 0 .48-.06.997-.133 1.149-.12.248-.789.65-1.083.65-.073 0-.117-1.784-.117-4.787V19.7l.497-.141c.274-.077.574-.168.666-.202.142-.051.17.305.17 2.156 0 2.405.053 2.628.664 2.773.353.084.964-.173 1.078-.452.04-.102.075-1.301.075-2.665V18.69l.818-.267c1.457-.476 7.814-2.737 8.9-3.167 1.688-.667 2.467-1.57 2.606-3.024.102-1.063-.21-1.855-1.036-2.628-.643-.603-.824-.695-2.808-1.426-6.437-2.374-13.523-4.673-20.85-6.765C35.395.872 33.411.33 32.877.208c-1.237-.282-2.635-.277-3.815.015ZM16.939 20.169a430.19 430.19 0 0 0 9.578 2.843l2.848.814h3.271l2.725-.776c1.5-.427 4.116-1.19 5.816-1.696 1.699-.506 3.184-.945 3.3-.976.2-.053.213.23.213 4.808v4.863l-2.453.857c-2.741.957-6.332 2.08-9.214 2.88l-1.914.533-2.674-.758c-4.115-1.166-8.8-2.717-12.229-4.05-1.183-.46-1.56-.659-1.666-.88-.151-.314-.204-9.198-.054-9.198.046 0 1.15.332 2.453.736Zm29.266 16.132c.803.316.907.655.907 2.952v2.031h-3.169l.04-2.051c.045-2.291.11-2.489.958-2.897.505-.243.723-.249 1.264-.035Z"/></mask><path fill-rule="evenodd" clip-rule="evenodd" d="M29.062.223c-4.545 1.122-17.58 5.14-18.017 5.554-.152.144-.277.395-.277.558 0 .33.487.858.791.858.108 0 2.06-.59 4.337-1.31A322.686 322.686 0 0 1 27.91 2.314C31.347 1.37 30.822 1.297 40 4.001c5.268 1.552 11.464 3.585 16.32 5.355 3.47 1.264 3.728 1.428 3.836 2.428.066.613-.223 1.195-.763 1.535-.59.372-6.543 2.514-11.249 4.048l-1.815.591-.434-.23c-.88-.467-14.481-6.546-14.776-6.604-.347-.068-.901.28-.997.626-.033.118.008.364.09.546.132.293.92.677 6.89 3.354 3.707 1.663 6.74 3.037 6.74 3.054 0 .083-6.375 1.972-9.97 2.953-2.628.717-3.106.713-5.91-.056-9.509-2.604-24.416-7.517-25.554-8.42-.69-.55-.772-1.643-.172-2.316.299-.336 1.887-.986 5.2-2.13 1.622-.56 2.077-1.06 1.578-1.733-.406-.547-.498-.527-4.667 1.001-2.503.918-2.631.98-3.292 1.6-.826.773-1.138 1.565-1.036 2.628.14 1.453.918 2.357 2.606 3.024 1.196.473 5.945 2.166 8.35 2.977l1.601.54.035 5.107.035 5.107.334.536c.183.295.483.637.666.76 1.182.794 11.276 4.195 16.198 5.456 1.105.284 1.262.298 1.878.17 1.701-.355 7.827-2.219 11.138-3.389a65.163 65.163 0 0 1 1.787-.616c.023 0 .043.588.043 1.306v1.305l-.543.248c-.737.337-1.561 1.226-1.772 1.911-.123.4-.169 1.275-.169 3.22 0 2.668 0 2.67.286 2.888.264.202.51.219 3.12.219 2.7 0 2.845-.011 3.083-.236.241-.228.248-.335.212-3.174l-.038-2.94-.328-.527c-.4-.642-1.022-1.175-1.605-1.374l-.435-.148.033-1.71.034-1.711.848-.338c1.124-.449 1.449-.681 1.845-1.319.289-.465.337-.68.375-1.68.04-1.038.02-1.174-.218-1.46a.88.88 0 0 0-1.315-.05c-.223.225-.263.4-.263 1.14 0 .48-.06.997-.133 1.149-.12.248-.789.65-1.083.65-.073 0-.117-1.784-.117-4.787V19.7l.497-.141c.274-.077.574-.168.666-.202.142-.051.17.305.17 2.156 0 2.405.053 2.628.664 2.773.353.084.964-.173 1.078-.452.04-.102.075-1.301.075-2.665V18.69l.818-.267c1.457-.476 7.814-2.737 8.9-3.167 1.688-.667 2.467-1.57 2.606-3.024.102-1.063-.21-1.855-1.036-2.628-.643-.603-.824-.695-2.808-1.426-6.437-2.374-13.523-4.673-20.85-6.765C35.395.872 33.411.33 32.877.208c-1.237-.282-2.635-.277-3.815.015ZM16.939 20.169a430.19 430.19 0 0 0 9.578 2.843l2.848.814h3.271l2.725-.776c1.5-.427 4.116-1.19 5.816-1.696 1.699-.506 3.184-.945 3.3-.976.2-.053.213.23.213 4.808v4.863l-2.453.857c-2.741.957-6.332 2.08-9.214 2.88l-1.914.533-2.674-.758c-4.115-1.166-8.8-2.717-12.229-4.05-1.183-.46-1.56-.659-1.666-.88-.151-.314-.204-9.198-.054-9.198.046 0 1.15.332 2.453.736Zm29.266 16.132c.803.316.907.655.907 2.952v2.031h-3.169l.04-2.051c.045-2.291.11-2.489.958-2.897.505-.243.723-.249 1.264-.035Z" fill="#2A2623" stroke="#FCFCFF" stroke-width=".8" mask="url(#a)"/></symbol><symbol id="briefcase"><path d="m43.2 30.7.2-.1c.8-.3 1.3-1.2 1.3-2.1V10c0-1.2-.9-2.2-2-2.2h-10V4.2C32.7 2 31.1.3 29.2.3H15.8c-1.9 0-3.5 1.8-3.5 3.9v3.6h-10c-1.1 0-2 1-2 2.2v18.5c0 1 .5 1.8 1.3 2.1l.2.1v11.8c0 1.2.9 2.2 2 2.2h37.5c1.1 0 2-1 2-2.2V30.7h-.1Zm-30-26.5c0-1.5 1.1-2.8 2.5-2.8h13.5c1.4 0 2.5 1.2 2.5 2.8v3.6h-2V4.2c0-.3-.2-.6-.5-.6H15.8c-.3 0-.5.3-.5.6v3.6h-2V4.2h-.1Zm15.6.6v3H16.2v-3h12.6Zm13.4 37.7c0 .6-.4 1.1-1 1.1H3.8c-.6 0-1-.5-1-1.1V30.9l17 2.6v2.3c0 1.2.9 2.2 2 2.2h1.5c1.1 0 2-1 2-2.2v-2.3l17-2.6v11.6h-.1Zm-21.4-6.7v-5c0-.6.4-1.1 1-1.1h1.5c.6 0 1 .5 1 1.1v5c0 .6-.4 1.1-1 1.1h-1.5c-.6 0-1-.5-1-1.1Zm21.9-6.1-17.4 2.7v-1.5c0-1.2-.9-2.2-2-2.2h-1.5c-1.1 0-2 1-2 2.2v1.5L2.1 29.6c-.5-.1-.9-.5-.9-1.1V10c0-.6.4-1.1 1-1.1h40.5c.6 0 1 .5 1 1.1v18.5c0 .5-.4 1-.9 1.1l-.1.1Z" fill="#2A2623"/></symbol><symbol id="calculator" viewBox="0 0 24 24"><path fill-rule="evenodd" clip-rule="evenodd" d="M1.904.071C1.276.223.596.757.292 1.337-.02 1.93 0 1.226 0 11.997c0 10.77-.019 10.068.292 10.66.192.365.681.855 1.047 1.047.592.31-.111.291 10.66.291 10.77 0 10.068.02 10.66-.291.365-.192.855-.682 1.047-1.047.31-.592.291.11.291-10.66 0-10.771.02-10.068-.291-10.66-.192-.366-.682-.855-1.047-1.047-.593-.311.115-.292-10.684-.289-8.294.003-9.839.014-10.071.07Zm9.58 6.16v5.25H.983V6.944c0-4.815 0-4.85.218-5.202.216-.348.588-.615.988-.71C2.287 1.01 4.417.99 6.925.986L11.483.98v5.25Zm10.372-5.18c.57.148.94.519 1.088 1.087.06.23.07.932.07 4.806v4.537h-10.5V.981h4.538c3.864 0 4.576.01 4.804.07ZM5.78 4.057c-.255.126-.296.285-.296 1.162v.778H4.69c-.866 0-.998.029-1.108.241-.112.218-.085.45.07.606l.137.137H5.483v.775c0 .564.018.819.067.935a.542.542 0 0 0 .449.306c.173 0 .38-.142.449-.306.048-.116.066-.371.066-.935v-.775H8.21l.137-.137c.151-.15.181-.37.081-.59-.102-.225-.241-.257-1.113-.257h-.8v-.778c0-.884-.04-1.039-.303-1.164-.192-.091-.244-.09-.432.002Zm9.975 2.005c-.27.15-.324.56-.102.782l.137.137h4.42l.137-.137c.227-.226.16-.664-.12-.791-.186-.085-4.318-.076-4.472.01Zm-4.27 11.702v5.25l-4.653-.012-4.652-.013-.282-.131c-.315-.148-.496-.301-.662-.56-.255-.399-.252-.338-.252-5.248v-4.538h10.5v5.252Zm11.52-.6-.013 4.653-.132.281c-.147.316-.3.497-.56.663-.398.255-.337.252-5.247.252h-4.537v-10.5H23.017l-.013 4.652Zm-18.67-1.14a.545.545 0 0 0-.325.476c0 .176.034.22.654.841l.655.656-.655.656c-.623.625-.654.664-.654.844 0 .267.223.49.49.49.18 0 .219-.03.844-.655l.656-.654.656.654c.625.624.664.655.844.655.149 0 .219-.031.339-.151.12-.12.15-.19.15-.34 0-.179-.03-.218-.654-.843l-.654-.656.654-.656c.624-.625.655-.665.655-.844a.496.496 0 0 0-.49-.49c-.18 0-.22.03-.844.654l-.656.655-.645-.643c-.66-.658-.796-.745-1.02-.649Zm11.522-.01c-.278.054-.438.512-.265.759.162.232.242.24 2.408.24s2.245-.008 2.408-.24a.566.566 0 0 0 .076-.276.566.566 0 0 0-.076-.276c-.163-.233-.238-.24-2.418-.233-1.116.003-2.076.015-2.133.026Zm0 3c-.278.054-.438.512-.265.759.162.232.242.24 2.408.24s2.245-.008 2.408-.24a.566.566 0 0 0 .076-.276.566.566 0 0 0-.076-.276c-.163-.233-.238-.24-2.418-.233-1.116.003-2.076.015-2.133.026Z"/></symbol><symbol id="calendar"><mask id="a" fill="#fff"><path d="M44.531 6.25h-3.906V4.687a3.125 3.125 0 1 0-6.25 0V6.25h-6.25V4.687a3.125 3.125 0 1 0-6.25 0V6.25h-6.25V4.687a3.125 3.125 0 1 0-6.25 0V6.25H5.469a3.906 3.906 0 0 0-3.907 3.906v31.25a3.906 3.906 0 0 0 3.907 3.907h21.875a.781.781 0 1 0 0-1.563H5.469a2.351 2.351 0 0 1-2.344-2.344V17.188h43.75v13.28a.781.781 0 1 0 1.563 0V10.157A3.906 3.906 0 0 0 44.53 6.25Zm-8.593-1.563a1.563 1.563 0 1 1 3.124 0v4.688a1.563 1.563 0 0 1-3.124 0V4.687Zm-12.5 0a1.563 1.563 0 1 1 3.125 0v4.688a1.563 1.563 0 0 1-3.125 0V4.687Zm-12.5 0a1.563 1.563 0 1 1 3.124 0v4.688a1.563 1.563 0 0 1-3.124 0V4.687Zm35.937 10.938H3.125v-5.469a2.35 2.35 0 0 1 2.344-2.344h3.906v1.563a3.125 3.125 0 1 0 6.25 0V7.812h6.25v1.563a3.125 3.125 0 1 0 6.25 0V7.812h6.25v1.563a3.125 3.125 0 1 0 6.25 0V7.812h3.906a2.35 2.35 0 0 1 2.344 2.344v5.469Z"/></mask><path d="M44.531 6.25h-3.906V4.687a3.125 3.125 0 1 0-6.25 0V6.25h-6.25V4.687a3.125 3.125 0 1 0-6.25 0V6.25h-6.25V4.687a3.125 3.125 0 1 0-6.25 0V6.25H5.469a3.906 3.906 0 0 0-3.907 3.906v31.25a3.906 3.906 0 0 0 3.907 3.907h21.875a.781.781 0 1 0 0-1.563H5.469a2.351 2.351 0 0 1-2.344-2.344V17.188h43.75v13.28a.781.781 0 1 0 1.563 0V10.157A3.906 3.906 0 0 0 44.53 6.25Zm-8.593-1.563a1.563 1.563 0 1 1 3.124 0v4.688a1.563 1.563 0 0 1-3.124 0V4.687Zm-12.5 0a1.563 1.563 0 1 1 3.125 0v4.688a1.563 1.563 0 0 1-3.125 0V4.687Zm-12.5 0a1.563 1.563 0 1 1 3.124 0v4.688a1.563 1.563 0 0 1-3.124 0V4.687Zm35.937 10.938H3.125v-5.469a2.35 2.35 0 0 1 2.344-2.344h3.906v1.563a3.125 3.125 0 1 0 6.25 0V7.812h6.25v1.563a3.125 3.125 0 1 0 6.25 0V7.812h6.25v1.563a3.125 3.125 0 1 0 6.25 0V7.812h3.906a2.35 2.35 0 0 1 2.344 2.344v5.469Z" fill="#2A2623" stroke="#fff" stroke-width=".6" mask="url(#a)"/><path d="M18.6 25v.15h3.425V22.506H18.6V25Zm4.274-3.343c.265.265.414.625.414 1V25a1.413 1.413 0 0 1-1.413 1.413H18.75A1.413 1.413 0 0 1 17.337 25v-2.344a1.412 1.412 0 0 1 1.413-1.412h3.125c.375 0 .734.149.999.413ZM9.225 25v.15h3.425V22.506H9.225V25Zm4.274-3.343c.265.265.413.625.413 1V25a1.413 1.413 0 0 1-1.412 1.413H9.375A1.412 1.412 0 0 1 7.963 25v-2.344a1.412 1.412 0 0 1 1.412-1.412H12.5c.375 0 .734.149.999.413ZM37.5 22.506h-.15V25.15h3.425V22.506H37.5ZM41.624 26a1.413 1.413 0 0 1-.999.414H37.5A1.413 1.413 0 0 1 36.087 25v-2.344a1.412 1.412 0 0 1 1.413-1.412h3.125a1.413 1.413 0 0 1 1.413 1.412V25c0 .375-.15.734-.414.999ZM18.6 32.031v.15h3.425v-2.643H18.6v2.493Zm4.274-3.342c.265.265.414.624.414.998v2.344a1.412 1.412 0 0 1-1.413 1.413H18.75a1.413 1.413 0 0 1-1.413-1.413v-2.343a1.413 1.413 0 0 1 1.413-1.413h3.125c.375 0 .734.149.999.414ZM9.225 32.031v.15h3.425v-2.643H9.225v2.493Zm4.274-3.342c.265.265.413.624.413.998v2.344a1.412 1.412 0 0 1-1.412 1.413H9.375a1.412 1.412 0 0 1-1.412-1.413v-2.343a1.413 1.413 0 0 1 1.412-1.413H12.5c.375 0 .734.149.999.414ZM18.6 39.063v.15h3.425V36.569H18.6v2.493Zm.15-3.757h3.125a1.413 1.413 0 0 1 1.413 1.413v2.343a1.413 1.413 0 0 1-1.413 1.413H18.75a1.413 1.413 0 0 1-1.413-1.413V36.72a1.412 1.412 0 0 1 1.413-1.413ZM28.125 22.506h-.15V25.15H31.4V22.506h-3.275Zm3.125 3.907h-3.125A1.413 1.413 0 0 1 26.712 25v-2.344a1.412 1.412 0 0 1 1.413-1.412h3.125a1.413 1.413 0 0 1 1.413 1.412V25a1.413 1.413 0 0 1-1.413 1.413ZM9.225 39.063v.15h3.425V36.569H9.225v2.493Zm.15-3.757H12.5a1.413 1.413 0 0 1 1.412 1.413v2.343a1.413 1.413 0 0 1-1.412 1.413H9.375a1.412 1.412 0 0 1-1.412-1.413V36.72a1.412 1.412 0 0 1 1.412-1.413ZM38.281 47.025a8.754 8.754 0 0 0 8.744-8.744 8.744 8.744 0 1 0-8.744 8.744Zm-5.559-17.064a10.006 10.006 0 0 1 5.56-1.686 10.018 10.018 0 0 1 10.005 10.006 10.006 10.006 0 1 1-15.565-8.32Z" fill="#2A2623" stroke="#fff" stroke-width=".3"/><path d="m36.613 41.189.106.106.106-.106 6.075-6.076a.632.632 0 0 1 .893.893l-6.628 6.628a.631.631 0 0 1-.892 0l-3.314-3.314a.631.631 0 0 1 .893-.893l2.76 2.762Z" fill="#2A2623" stroke="#fff" stroke-width=".3"/></symbol><symbol id="calendar2" viewBox="0 0 33 33"><path d="M31.453 4.125h-1.547v-.516a.516.516 0 0 0-.515-.515h-3.61v-.516a1.547 1.547 0 1 0-3.093 0v.516h-1.032v-.516a1.547 1.547 0 1 0-3.093 0v.516h-6.188v-.516a1.547 1.547 0 0 0-3.094 0v.516H8.25v-.516a1.547 1.547 0 1 0-3.094 0v.516h-3.61a.516.516 0 0 0-.515.515v25.782a.516.516 0 0 0 .516.515h.516v1.547a.516.516 0 0 0 .515.516h28.875a.516.516 0 0 0 .516-.516V4.641a.516.516 0 0 0-.516-.516Zm-29.39 24.75V10.312h26.812v18.563H2.062ZM23.718 2.578a.516.516 0 1 1 1.031 0v.516h-1.031v-.516Zm-4.125 0a.516.516 0 1 1 1.031 0v.516h-1.031v-.516Zm-9.282 0a.516.516 0 1 1 1.032 0v.516h-1.031v-.516Zm-4.124 0a.516.516 0 1 1 1.03 0v.516h-1.03v-.516ZM5.155 4.125v.516a1.549 1.549 0 0 0 1.547 1.546.516.516 0 1 0 0-1.03.516.516 0 0 1-.516-.516v-.516h3.094v.516a1.549 1.549 0 0 0 1.547 1.546.516.516 0 1 0 0-1.03.516.516 0 0 1-.515-.516v-.516h8.25v.516a1.549 1.549 0 0 0 1.546 1.546.516.516 0 0 0 0-1.03.516.516 0 0 1-.515-.516v-.516h3.093v.516a1.549 1.549 0 0 0 1.547 1.546.516.516 0 0 0 0-1.03.516.516 0 0 1-.515-.516v-.516h5.156v5.156H2.062V4.125h3.094Zm25.782 26.813H3.093v-1.032H29.39a.516.516 0 0 0 .515-.515V5.156h1.032v25.782Z" fill="#2A2623"/><path d="M11.344 22.172a3.094 3.094 0 0 0-1.386-2.578 3.094 3.094 0 1 0-4.802-2.578.516.516 0 1 0 1.032 0 2.062 2.062 0 1 1 2.062 2.062.516.516 0 0 0 0 1.031 2.062 2.062 0 1 1-2.063 2.063.516.516 0 1 0-1.03 0 3.094 3.094 0 0 0 6.187 0ZM22.688 19.078H21.14v-4.125h3.609a.516.516 0 0 0 0-1.031h-4.125a.516.516 0 0 0-.516.515v5.157a.516.516 0 0 0 .516.515h2.063a2.062 2.062 0 1 1-2.063 2.063.516.516 0 1 0-1.031 0 3.094 3.094 0 1 0 3.093-3.094ZM15.469 14.953a2.064 2.064 0 0 1 2.062 2.063.516.516 0 1 0 1.032 0 3.094 3.094 0 0 0-6.188 0v5.156a3.098 3.098 0 1 0 1.031-2.304v-2.852a2.065 2.065 0 0 1 2.063-2.063Zm0 5.156a2.062 2.062 0 1 1 0 4.125 2.062 2.062 0 0 1 0-4.125Z" fill="#E1988C"/></symbol><symbol id="candles" viewBox="0 0 30 30"><g clip-path="url(#a)"><path d="m28.327 13.036-.041-.04-.45.04-.285-.326h-.04l-.042.04-.081.45-.408.163-.041.04s0 .042.04.042l.368.204.04.449s0 .04.042.04h.04l.327-.285.449.081h.04v-.04l-.203-.409.204-.367c.04-.04.04-.04.04-.082ZM26.163 23.771l-.449.041-.285-.327s-.041-.04-.041 0l-.041.041-.123.45-.408.163-.04.04s0 .041.04.041l.368.204.04.45s0 .04.041.04h.041l.327-.286.449.082h.04v-.04l-.204-.41.204-.366c.082-.041.082-.082.082-.082l-.04-.04ZM26.122 18.302l-.448.04-.286-.326s-.041-.04-.041 0l-.04.04-.082.45-.409.163-.04.04s0 .042.04.042l.368.204.04.449s0 .04.041.04h.041l.327-.285.449.082h.04V19.2l-.204-.409.204-.367v-.04c.041-.082.041-.082 0-.082ZM26.04 11.975a.612.612 0 1 0 0-1.224.612.612 0 0 0 0 1.224ZM26.98 16.832a.612.612 0 1 0 0-1.224.612.612 0 0 0 0 1.224ZM27.551 22.302a.612.612 0 1 0 0-1.225.612.612 0 0 0 0 1.225ZM27.633 27.036a.612.612 0 1 0 0-1.224.612.612 0 0 0 0 1.224Z" fill="#000"/><path d="M16.612 8.791h-1.061V7.65c1.347-1.266 1.918-2.531 1.673-3.755C16.776 1.485 13.51.098 13.347.057c-.163-.082-.367 0-.49.163-.122.163-.082.367.04.53 0 0 .572.654 0 2.776-.57 2 .817 3.47 1.797 4.082V8.79h-1.102a1.916 1.916 0 0 0-1.919 1.919v17.347c0 1.061.858 1.918 1.919 1.918h2.98a1.9 1.9 0 0 0 1.795-1.306c0-.04.041-.04.041-.082.04-.163.082-.326.082-.49V10.67c0-1.02-.817-1.878-1.878-1.878Zm-2.898-5.06c.327-1.103.327-1.92.245-2.45.939.53 2.245 1.51 2.45 2.776.122.775-.164 1.592-.899 2.449v-.817c0-.244-.163-.408-.408-.408-.245 0-.408.164-.408.408v.898c-.612-.53-1.388-1.51-.98-2.857Zm2.857 5.877c.613 0 1.102.49 1.102 1.102v1.51L13.96 9.608h2.612Zm-4.04 3.837 5.142 3.632v2.898l-5.142-3.633v-2.897Zm-.041 3.918 5.143 3.633v2.869L12.53 20.26h-.041v-2.898Zm5.183 10.408-5.142-3.633V21.24l5.142 3.633v2.898Zm-1.06 1.388h-2.98c-.613 0-1.102-.49-1.102-1.102v-2.939l4.98 3.51c-.164.327-.531.53-.899.53Zm1.101-13.061h-.04l-5.143-3.633V10.71c0-.327.163-.653.408-.816l4.775 3.387v2.817Z" fill="#E1988C"/><path d="M28.122 8.791h-1.06V7.65c1.346-1.266 1.918-2.531 1.673-3.755-.45-2.409-3.715-3.796-3.878-3.837-.163-.082-.367 0-.49.163-.122.163-.081.367.041.53 0 0 .572.654 0 2.776-.571 2 .816 3.47 1.796 4.082V8.79h-1.102a1.916 1.916 0 0 0-1.918 1.919v17.347c0 1.061.857 1.918 1.918 1.918h2.98A1.916 1.916 0 0 0 30 28.057V10.669a1.9 1.9 0 0 0-1.878-1.878ZM26.163 5.69v.898c-.571-.53-1.347-1.51-.98-2.857.327-1.102.327-1.918.246-2.449.938.53 2.245 1.51 2.449 2.776.122.775-.164 1.592-.898 2.449v-.817c0-.244-.164-.408-.409-.408-.244 0-.408.164-.408.408Zm3.02 22.368c0 .612-.49 1.102-1.101 1.102h-2.98c-.612 0-1.102-.49-1.102-1.102V10.669c0-.612.49-1.102 1.102-1.102h2.98c.612 0 1.102.49 1.102 1.102v17.388ZM4.898 8.791H3.837V7.65C5.184 6.383 5.755 5.118 5.51 3.894 5.061 1.485 1.796.098 1.633.057c-.164-.082-.368 0-.49.163-.082.123-.082.327.081.49 0 0 .572.653 0 2.775-.57 2 .817 3.47 1.796 4.082v1.184H1.918A1.916 1.916 0 0 0 0 10.669v17.388c0 1.061.857 1.918 1.918 1.918h2.98a1.916 1.916 0 0 0 1.918-1.918V10.669c0-1.02-.857-1.878-1.918-1.878ZM2.98 5.69v.898c-.613-.53-1.388-1.51-.98-2.857.327-1.102.327-1.918.245-2.449.939.53 2.245 1.51 2.449 2.776.122.775-.163 1.592-.898 2.449v-.817c0-.244-.163-.408-.408-.408-.245 0-.408.164-.408.408ZM.857 11.73l.572.327a.37.37 0 0 0 .408 0l.98-.572.979.572a.37.37 0 0 0 .408 0l.98-.572.775.49v2.1l-.571-.304a.37.37 0 0 0-.408 0l-.98.571-.98-.57a.37.37 0 0 0-.408 0l-.98.57-.775-.49V11.73Zm-.04 3.061.57.327a.37.37 0 0 0 .409 0l.98-.571.98.571a.37.37 0 0 0 .407 0l.98-.571.775.49v2.116l-.49-.28a.37.37 0 0 0-.408 0L4 17.445l-.98-.572a.37.37 0 0 0-.408 0l-1.02.572-.776-.49v-2.163Zm0 6.205.57.326a.37.37 0 0 0 .409 0l.98-.571.98.571a.37.37 0 0 0 .407 0l.98-.571.775.49v2.116l-.49-.28a.37.37 0 0 0-.408 0l-.98.572-.979-.572a.37.37 0 0 0-.408 0l-.98.572-.857-.49v-2.163Zm4.081 8.163h-2.98c-.612 0-1.102-.49-1.102-1.102v-.816l.572.326a.37.37 0 0 0 .408 0l.98-.571.98.571a.37.37 0 0 0 .407 0l.98-.571.775.49v.57H6c0 .613-.49 1.103-1.102 1.103ZM6 26.506l-.571-.327a.37.37 0 0 0-.409 0l-.98.572-.979-.572a.37.37 0 0 0-.408 0l-.98.572-.775-.49v-2.163l.571.326a.37.37 0 0 0 .409 0l.98-.571.979.571a.37.37 0 0 0 .408 0l.98-.571.775.49v2.163Zm0-6.204-.571-.327a.37.37 0 0 0-.409 0l-.98.572-.979-.572a.37.37 0 0 0-.408 0l-.98.572-.775-.49v-2.163l.571.326a.37.37 0 0 0 .409 0l.98-.571.979.571a.37.37 0 0 0 .408 0l.98-.571.775.49v2.163Zm.082-9.266H6l-.571-.326a.37.37 0 0 0-.409 0l-.98.571-.979-.571a.37.37 0 0 0-.408 0l-.98.571-.775-.49v-.122c0-.612.49-1.102 1.102-1.102h2.98c.612 0 1.102.49 1.102 1.102v.367Z" fill="#000"/></g></symbol><symbol id="check" viewBox="0 0 16 12"><path d="M15.031.34h-1.228a.56.56 0 0 0-.441.214L6.114 9.735 2.64 5.332a.562.562 0 0 0-.441-.214H.969a.14.14 0 0 0-.11.226l4.814 6.1a.564.564 0 0 0 .884 0L15.142.564a.14.14 0 0 0-.11-.224Z"/></symbol><symbol id="cross"><path d="m1 1 12.5 14M13.5 1 1 15" stroke="#000" stroke-linecap="round"/></symbol><symbol id="door" viewBox="0 0 28 36"><path fill-rule="evenodd" clip-rule="evenodd" d="M5.23.097a2.759 2.759 0 0 0-2.025 2.26c-.04.25-.069 2.686-.069 5.996v5.575l-.96.001c-1.06.002-1.34.077-1.718.462-.42.428-.428.466-.451 2.455-.026 2.148.001 2.309.472 2.78.413.415.69.491 1.775.491h.882v3.957c0 2.423.03 4.133.074 4.412.146.903.75 1.713 1.56 2.09l.426.198 4.923.035 4.922.035.038 1.583c.033 1.412.053 1.617.183 1.9.656 1.418 2.32 2.066 3.665 1.426.85-.403 8.754-4.954 8.913-5.131l.16-.179-.02-2.215-.02-2.215-.165-.134c-.224-.182-.51-.17-.696.028-.148.16-.152.209-.154 2.128L26.944 30l-4.287 2.45c-3.873 2.212-4.325 2.452-4.677 2.488-.687.072-1.439-.363-1.726-.999-.122-.268-.127-.847-.129-12.997-.001-10.633.015-12.755.095-12.948.174-.421.53-.734 1.391-1.229 3.996-2.292 9.163-5.236 9.24-5.266.08-.03.098 1.777.113 11.446l.018 11.483.184.138c.136.103.24.126.402.09.458-.101.43.777.41-12.42L27.959.268l-.164-.135c-.16-.13-.39-.134-8.018-.134-4.988 0-7.899.025-7.98.069-.202.109-.282.43-.173.692.052.123.103.231.115.24.011.01 3.09.033 6.843.053l6.822.036-1.07.616-1.071.615H14.57c-8.681 0-8.692 0-8.876.146l-.183.145-.018 5.64-.018 5.64H4.218L4.2 8.335c-.012-3.737.006-5.676.056-5.92.096-.467.391-.876.815-1.127l.334-.198 2.374-.02c2.308-.021 2.377-.026 2.53-.171a.516.516 0 0 0-.003-.746c-.16-.15-.193-.153-2.461-.148-1.6.003-2.396.031-2.614.092Zm15.956 3.407a420.5 420.5 0 0 1-2.607 1.494c-2.634 1.502-2.895 1.7-3.252 2.458l-.216.457-.018 9.76-.018 9.76H6.557V20.118H7.73l.026.516c.022.434.057.558.22.774.108.141.294.308.414.37.266.14.806.148 1.05.018.338-.181 4.485-3.868 4.677-4.16.223-.337.255-.775.085-1.137-.118-.25-4.51-4.164-4.835-4.31-.42-.187-.944-.063-1.285.305-.255.274-.337.522-.337 1.016v.418H6.557V3.376h7.42c7.177 0 7.412.005 7.21.128ZM11.098 15.027c1.17 1.031 2.138 1.915 2.15 1.965.022.096-4.215 3.864-4.345 3.864-.048 0-.09-.282-.111-.763-.032-.694-.05-.774-.2-.896-.157-.128-.326-.135-3.686-.135H1.384l-.172-.172-.171-.173v-1.682c0-1.595.008-1.691.145-1.867l.144-.185h7.12l.17-.173c.16-.16.172-.224.172-.868 0-.645.025-.788.136-.788.024 0 1 .843 2.17 1.873Zm7.728 2.585c-.566.213-.913.54-1.241 1.171-.245.473-.233 1.303.026 1.806.429.835 1.152 1.254 2.074 1.2.829-.048 1.456-.473 1.822-1.233.23-.48.227-1.319-.008-1.807a2.39 2.39 0 0 0-.99-1.032c-.38-.198-1.285-.254-1.683-.105Zm1.279 1.116c.386.265.523.509.523.932 0 .62-.467 1.09-1.083 1.09-.615 0-1.082-.47-1.082-1.09 0-.62.467-1.09 1.082-1.09.226 0 .401.05.56.158ZM5.51 24.148c0 3.37.016 4.054.1 4.168.095.133.247.138 4.765.172l4.666.035.02.616.02.615h-4.787c-3.905 0-4.83-.018-5.018-.097-.352-.147-.75-.536-.912-.888-.142-.307-.146-.431-.166-4.484l-.02-4.168H5.51v4.032Z" fill="#fff"/></symbol><symbol id="eye" viewBox="0 0 36 36"><g clip-path="url(#a)" fill="#fff" stroke="#F26F2E" stroke-width=".3"><path d="m2.381 18.104-.1-.104.1-.104c2.194-2.285 5.06-4.351 8.147-5.66l.52-.22-.342.45a9.136 9.136 0 0 0 .001 11.07l.343.45-.52-.22c-4.06-1.728-6.95-4.416-8.149-5.662Zm22.912-5.64-.343-.45.52.22c4.06 1.728 6.95 4.416 8.149 5.662l.1.104-.1.104c-2.195 2.285-5.06 4.351-8.147 5.66l-.52.22.342-.45a9.136 9.136 0 0 0-.002-11.07ZM.355 17.424l-.116-.096.116.096a.909.909 0 0 0 0 1.152l-.116.096.116-.096C3.58 22.506 10.468 27.16 18 27.16c7.505 0 14.393-4.622 17.644-8.584a.909.909 0 0 0 0-1.153C32.534 13.634 25.675 8.84 18 8.84c-7.412 0-14.316 4.527-17.644 8.584ZM18 10.657c4.049 0 7.342 3.294 7.342 7.343 0 4.048-3.293 7.342-7.342 7.343-4.049 0-7.343-3.294-7.343-7.343 0-4.049 3.294-7.343 7.343-7.343Z"/><path d="M18 14.55A3.454 3.454 0 0 0 14.55 18 3.454 3.454 0 0 0 18 21.45 3.454 3.454 0 0 0 21.45 18 3.454 3.454 0 0 0 18 14.55Zm0 1.818c.9 0 1.632.732 1.632 1.632 0 .9-.732 1.632-1.632 1.632-.9 0-1.632-.732-1.632-1.632 0-.9.732-1.632 1.632-1.632ZM18.909 32.47a.909.909 0 0 0-1.818 0v2.471a.909.909 0 0 0 1.818 0v-2.47ZM25.632 30.465l1.409 2.47a.909.909 0 0 1-.34 1.24l-1.07-3.71Zm0 0a.909.909 0 0 0-1.58.9l1.41 2.471m.17-3.37-.17 3.37m0 0a.909.909 0 0 0 1.24.34l-1.24-.34ZM10.368 30.465l-1.409 2.47a.909.909 0 0 0 1.579.9v.001l1.41-2.47a.909.909 0 1 0-1.58-.9ZM17.091 3.53a.909.909 0 0 0 1.818 0V1.058a.909.909 0 0 0-1.818 0v2.47ZM11.947 4.634l-1.409-2.47a.909.909 0 0 0-1.579.9l1.41 2.47a.909.909 0 0 0 1.578-.9ZM25.632 5.535a.909.909 0 0 1-1.24.34l1.24-.34Zm0 0 1.409-2.47a.909.909 0 0 0-1.58-.901m.17 3.37-.17-3.37m0 0-1.408 2.47m1.409-2.47-1.41 2.47m0 0a.909.909 0 0 0 .34 1.24l-.34-1.24Z"/></g></symbol><symbol id="heart" viewBox="0 0 30 30"><path d="M15 28.331a1.76 1.76 0 0 1-1.16-.436 346.79 346.79 0 0 0-3.411-2.934l-.005-.004c-3.023-2.576-5.633-4.8-7.449-6.991C.945 15.516 0 13.194 0 10.656c0-2.465.845-4.739 2.38-6.403 1.553-1.685 3.684-2.612 6-2.612 1.732 0 3.318.547 4.714 1.627A9.644 9.644 0 0 1 15 5.258a9.642 9.642 0 0 1 1.906-1.99c1.396-1.08 2.982-1.627 4.713-1.627 2.317 0 4.448.927 6.001 2.612C29.155 5.917 30 8.19 30 10.656c0 2.538-.945 4.86-2.975 7.31-1.816 2.19-4.426 4.415-7.448 6.99a344.94 344.94 0 0 0-3.418 2.94A1.76 1.76 0 0 1 15 28.33ZM8.38 3.398c-1.82 0-3.492.726-4.708 2.046-1.235 1.339-1.915 3.19-1.915 5.212 0 2.134.793 4.043 2.571 6.188 1.719 2.074 4.275 4.253 7.235 6.775l.006.005c1.035.882 2.208 1.881 3.428 2.949a407.862 407.862 0 0 1 3.44-2.954c2.96-2.523 5.516-4.7 7.235-6.775 1.778-2.145 2.57-4.054 2.57-6.188 0-2.022-.68-3.873-1.914-5.212-1.216-1.32-2.889-2.046-4.709-2.046-1.333 0-2.557.424-3.638 1.26-.964.745-1.635 1.687-2.028 2.346a1.1 1.1 0 0 1-.953.542 1.1 1.1 0 0 1-.953-.542c-.393-.659-1.064-1.601-2.028-2.346-1.08-.836-2.305-1.26-3.638-1.26Z" fill="#fff"/></symbol><symbol id="heart2" viewBox="0 0 33 33"><path d="M32.435 15.998h-2.792c1.161-2.635 1.036-4.768.596-6.21-.752-2.573-3.293-5.365-7.057-5.365-1.004 0-2.008.188-3.043.565-1.788.658-2.98 1.38-3.514 1.756-.533-.376-1.693-1.098-3.513-1.756-1.035-.377-2.07-.565-3.043-.565-3.764 0-6.305 2.792-7.058 5.364-.439 1.537-.596 3.858.879 6.776H.502a.495.495 0 0 0-.502.502c0 .282.22.502.502.502h3.984c.157.282.345.564.564.846 3.263 4.706 10.352 9.819 11.638 10.133v.031s.032 0 .063-.031h.094v-.032c1.098-.533 7.905-4.925 11.481-10.132.345-.47.627-.94.878-1.411h3.294c.282 0 .502-.22.502-.502 0-.283-.282-.47-.565-.47Zm-5.019 1.85c-3.325 4.863-9.442 8.784-10.76 9.631-1.348-.847-7.434-4.8-10.79-9.63l-.188-.282h4.611a.517.517 0 0 0 .47-.283l2.102-4.14 3.294 8.438c.063.188.282.313.47.313h.032a.5.5 0 0 0 .47-.376l2.886-9.881 1.537 4.987c.063.189.22.314.408.346.188.03.377-.063.502-.22l1.223-1.788 1.036 1.757a.5.5 0 0 0 .439.25h2.823c-.188.314-.376.597-.565.879Zm1.13-1.85H25.47l-1.286-2.196a.5.5 0 0 0-.439-.25c-.188 0-.345.062-.439.219l-1.066 1.568-1.726-5.615c-.063-.22-.282-.345-.502-.376-.22 0-.439.157-.502.376l-2.917 10.07-3.168-8.093a.472.472 0 0 0-.44-.314.486.486 0 0 0-.47.282l-2.478 4.862H5.05c-1.254-2.29-1.6-4.485-1.035-6.462.659-2.227 2.823-4.61 6.086-4.61.878 0 1.788.187 2.697.501 2.29.847 3.514 1.82 3.545 1.82.188.156.44.156.628 0 0 0 1.223-.973 3.544-1.82a7.583 7.583 0 0 1 2.698-.502c3.23 0 5.427 2.384 6.085 4.611.534 1.82.251 3.827-.752 5.93Z" fill="#2A2623"/><path d="M29.643 15.998h2.792c.283 0 .565.188.565.47 0 .283-.22.503-.502.503h-7.34a.5.5 0 0 1-.44-.251l-1.035-1.757-1.223 1.788c-.125.157-.314.25-.502.22a.511.511 0 0 1-.408-.346l-1.537-4.987-2.886 9.881a.5.5 0 0 1-.47.376h-.032c-.188 0-.407-.125-.47-.313l-3.294-8.439-2.102 4.141a.517.517 0 0 1-.47.283H.502A.495.495 0 0 1 0 17.065c0-.283.22-.502.502-.502H3.89l1.16-.032h4.988l2.478-4.862a.486.486 0 0 1 .47-.282c.189 0 .377.125.44.314l3.168 8.093 2.917-10.07a.537.537 0 0 1 .502-.376c.22.031.44.157.502.376l1.726 5.615 1.066-1.568c.094-.157.251-.22.44-.22a.5.5 0 0 1 .438.251l1.287 2.196h4.172Z" fill="#E1988C"/></symbol><symbol id="heavy-rain"><path d="M37.848 26.89H10.151a8.854 8.854 0 1 1 .194-17.708c.34-4.234 4.633-7.593 9.86-7.593a10.856 10.856 0 0 1 7.636 2.98 7.197 7.197 0 0 1 10.211 4.614 8.855 8.855 0 0 1-.204 17.708ZM10.151 10.48a7.557 7.557 0 1 0 0 15.113h27.697a7.558 7.558 0 1 0 0-15.113c-.048 0-.095.003-.143.007l-.148.008a.633.633 0 0 1-.662-.534 5.904 5.904 0 0 0-8.85-4.021.649.649 0 0 1-.82-.13 9.405 9.405 0 0 0-7.021-2.919c-4.736 0-8.583 3.068-8.583 6.84.005.054.008.09.01.13a.649.649 0 0 1-.714.661 6.338 6.338 0 0 0-.765-.044l-.001.002ZM36.319 33.955a.648.648 0 0 1-.62-.838l.502-1.658a.649.649 0 0 1 1.241.377l-.502 1.658a.649.649 0 0 1-.621.46ZM34.43 40.182a.649.649 0 0 1-.62-.837l.503-1.658a.651.651 0 0 1 .81-.438.649.649 0 0 1 .432.814l-.502 1.658a.648.648 0 0 1-.622.462ZM32.542 46.41a.65.65 0 0 1-.62-.837l.502-1.658a.649.649 0 1 1 1.242.377l-.503 1.658a.649.649 0 0 1-.62.46ZM27.878 33.955a.648.648 0 0 1-.62-.838l.504-1.658a.648.648 0 0 1 1.242.377l-.502 1.658a.649.649 0 0 1-.624.46ZM25.99 40.182a.648.648 0 0 1-.621-.837l.503-1.658a.649.649 0 0 1 1.241.377l-.503 1.658a.648.648 0 0 1-.62.46ZM24.101 46.41a.65.65 0 0 1-.62-.837l.502-1.658a.648.648 0 1 1 1.241.377l-.502 1.658a.649.649 0 0 1-.621.46ZM19.437 33.955a.648.648 0 0 1-.62-.838l.502-1.658a.649.649 0 0 1 1.242.377l-.503 1.658a.648.648 0 0 1-.62.46ZM17.55 40.182a.649.649 0 0 1-.622-.837l.503-1.658a.649.649 0 1 1 1.242.377l-.503 1.658a.649.649 0 0 1-.62.46ZM15.661 46.41a.649.649 0 0 1-.62-.837l.501-1.658a.649.649 0 0 1 1.242.376l-.503 1.658a.648.648 0 0 1-.62.461ZM10.996 33.955a.65.65 0 0 1-.618-.838l.503-1.658a.649.649 0 0 1 1.242.377l-.503 1.658a.649.649 0 0 1-.623.46ZM9.109 40.182a.649.649 0 0 1-.621-.837l.502-1.658a.648.648 0 1 1 1.241.376l-.501 1.659a.649.649 0 0 1-.621.46ZM7.22 46.41a.65.65 0 0 1-.621-.837l.502-1.658a.649.649 0 1 1 1.242.377L7.84 45.95a.649.649 0 0 1-.62.46Z" fill="#2A2623"/></symbol><symbol id="hours" viewBox="0 0 32 32"><path d="M16 32c8.822 0 16-7.178 16-16S24.822 0 16 0 0 7.178 0 16s7.178 16 16 16Zm0-31c8.271 0 15 6.729 15 15s-6.729 15-15 15S1 24.271 1 16 7.729 1 16 1Z"/><path d="M20.061 21.768a.497.497 0 0 0 .708 0 .5.5 0 0 0 0-.707L16 16.293V9.32a.5.5 0 0 0-1 0V16.5c0 .133.053.26.146.354l4.915 4.914ZM4 17a1 1 0 1 0 0-2 1 1 0 0 0 0 2ZM28 17a1 1 0 1 0 0-2 1 1 0 0 0 0 2ZM16 5a1 1 0 1 0 0-2 1 1 0 0 0 0 2ZM16 29a1 1 0 1 0 0-2 1 1 0 0 0 0 2ZM8 9a1 1 0 1 0 0-2 1 1 0 0 0 0 2ZM24 25a1 1 0 1 0 0-2 1 1 0 0 0 0 2ZM25 9a1 1 0 1 0 0-2 1 1 0 0 0 0 2ZM8 25a1 1 0 1 0 0-2 1 1 0 0 0 0 2Z"/></symbol><symbol id="infinity"><path d="M38.5.3h-.8c-.1 0-9.6-.7-13.4 11.9C20.9 23.3 13.2 23 12.3 23h-.5c-5.6-.3-10-4.9-10-10.6 0-5.9 4.8-10.6 10.6-10.6 3.5 0 6.8 1.7 8.8 4.7l1.3-.8C20.2 2.3 16.5.3 12.4.3 5.7.3.2 5.7.2 12.4c0 6.5 5.1 11.8 11.6 12.1h.8c1.6 0 9.7-.6 13.1-11.9 3.4-11.1 11.1-10.9 12-10.8h.8c5.5.4 9.8 5.1 9.8 10.6 0 5.9-4.8 10.6-10.6 10.6-3.5 0-6.8-1.7-8.8-4.7l-1.3.8c2.3 3.4 6 5.4 10.1 5.4 6.7 0 12.1-5.4 12.1-12.1 0-6.3-5-11.6-11.3-12.1Z" fill="#2A2623"/></symbol><symbol id="info" viewBox="0 0 24 24"><path fill-rule="evenodd" clip-rule="evenodd" d="M10.854.028A12.096 12.096 0 0 0 1.98 5.347C1.248 6.44.563 8.027.28 9.284.051 10.308 0 10.805 0 11.98c0 1.174.052 1.671.281 2.695.38 1.698 1.323 3.602 2.448 4.945a11.886 11.886 0 0 0 3.97 3.12c1.197.587 2.268.92 3.633 1.13.755.116 2.526.116 3.281 0 1.366-.21 2.437-.543 3.633-1.13a11.801 11.801 0 0 0 5.487-5.487c.587-1.196.92-2.268 1.13-3.633.116-.755.116-2.526 0-3.281-.21-1.365-.543-2.437-1.13-3.633a11.802 11.802 0 0 0-5.487-5.487A11.795 11.795 0 0 0 13.66.1c-.588-.09-2.192-.13-2.806-.07Zm2.619 1.152a10.939 10.939 0 0 1 6.207 3.093c1.68 1.68 2.72 3.77 3.1 6.23.056.36.08.806.08 1.477 0 1.773-.348 3.272-1.123 4.837-1.609 3.248-4.596 5.4-8.288 5.97-.707.11-2.245.11-2.953 0-2.459-.38-4.55-1.42-6.23-3.1-1.68-1.68-2.721-3.772-3.101-6.23-.11-.709-.11-2.246 0-2.954.193-1.25.52-2.305 1.044-3.36 1.58-3.19 4.546-5.362 8.122-5.946.904-.148 2.193-.155 3.142-.017Zm-.792 4.867c-.44.143-.864.544-.99.935-.147.459.025 1.053.399 1.382.823.723 2.21.414 2.535-.566.293-.882-.38-1.76-1.38-1.803-.223-.009-.436.01-.563.052Zm-1.55 4.015c-.319.056-1.6.494-1.671.572-.048.052-.216.649-.19.675a2 2 0 0 0 .314-.084c.654-.205 1.263-.11 1.421.221.168.353.082.869-.44 2.643-.4 1.36-.47 1.691-.478 2.227-.004.345.014.466.101.666.139.315.481.635.883.823.283.132.368.149.862.166.657.024.969-.037 1.845-.357l.609-.223.09-.314c.05-.173.08-.326.066-.34-.013-.013-.117.01-.23.053-.305.114-1.093.116-1.3.004-.489-.267-.458-.718.2-2.973.411-1.41.448-1.582.452-2.132.006-.78-.247-1.185-.942-1.506-.271-.125-.362-.142-.82-.153a5.133 5.133 0 0 0-.772.032Z"/></symbol><symbol id="lamp"><g clip-path="url(#a)" fill="#2A2623" stroke="#FDFBF7" stroke-width=".3"><path d="m14.536 32.7-.006-.006c-3.336-2.594-5.004-6.299-5.005-10.38.187-7.042 5.932-12.603 12.79-12.789 3.525 0 6.86 1.3 9.267 3.706 2.41 2.411 3.893 5.749 3.893 9.269 0 3.895-1.669 7.599-4.816 10.006-1.725 1.342-2.684 3.448-2.684 5.369v4.313c0 1.417-1.245 2.662-2.662 2.662h-5.625c-1.224 0-2.663-1.052-2.663-3.225v-3.938c0-1.928-.965-3.654-2.489-4.987ZM11.1 22.308v.005c0 3.602 1.517 7.023 4.37 9.118 2.03 1.662 3.13 3.87 3.13 6.256v3.943c0 .187 0 .583.126.936.064.18.165.358.323.492a.96.96 0 0 0 .639.217h5.625c.315 0 .59-.106.785-.302.196-.196.302-.47.302-.785v-4.313c0-2.388 1.288-4.97 3.319-6.633C32.381 29.15 33.9 25.919 33.9 22.5c0-3.04-1.14-5.89-3.419-8.169-2.092-2.092-4.943-3.231-7.98-3.231-6.085 0-11.21 5.13-11.4 11.208Z"/><path d="M27.188 39.225h-9.375c-.248 0-.442-.082-.574-.214-.132-.132-.214-.326-.214-.574 0-.247.082-.441.214-.573.132-.132.326-.214.573-.214h9.375c.248 0 .442.082.574.214.132.132.214.326.214.574 0 .247-.082.441-.214.573-.132.132-.326.214-.573.214ZM22.5 5.475c-.247 0-.442-.082-.574-.214-.132-.132-.214-.326-.214-.574V.938c0-.247.082-.441.214-.573.132-.132.327-.214.574-.214.247 0 .441.082.573.214.133.132.214.326.214.574v3.75c0 .247-.081.441-.213.573-.133.132-.327.214-.574.214ZM35.062 10.725c-.094 0-.223 0-.35-.021a.543.543 0 0 1-.294-.123.756.756 0 0 1 0-1.1l2.625-2.625a.756.756 0 0 1 1.1 0 .756.756 0 0 1 0 1.1l-2.607 2.608a2.877 2.877 0 0 1-.348.137.513.513 0 0 1-.126.024ZM44.063 23.288h-3.75c-.248 0-.442-.082-.574-.214-.132-.133-.214-.327-.214-.574 0-.247.082-.442.214-.574.132-.132.326-.213.574-.213h3.75c.247 0 .441.081.573.213.132.133.214.327.214.574 0 .247-.082.442-.214.574-.132.132-.326.213-.574.213ZM38.144 38.331l-.044.044v.073a.144.144 0 0 1-.027.008c-.072.018-.189.019-.386.019-.094 0-.223 0-.35-.021a.543.543 0 0 1-.294-.123l-2.625-2.625a.756.756 0 0 1 0-1.1.756.756 0 0 1 1.1 0l2.626 2.625a.756.756 0 0 1 0 1.1ZM7.312 38.475c-.094 0-.223 0-.35-.021a.543.543 0 0 1-.294-.123.756.756 0 0 1 0-1.1l2.625-2.625a.756.756 0 0 1 1.1 0 .756.756 0 0 1 0 1.1L7.77 38.331c-.141.141-.271.144-.457.144ZM4.688 23.288H.938c-.248 0-.442-.082-.574-.214C.232 22.94.15 22.747.15 22.5c0-.247.082-.442.214-.574.132-.132.326-.213.573-.213h3.75c.248 0 .442.081.574.213.132.133.214.327.214.574 0 .247-.082.442-.214.574-.132.132-.326.213-.574.213ZM6.672 7.773l-.004-.004a.756.756 0 0 1 0-1.1.756.756 0 0 1 1.1 0l2.626 2.625a.756.756 0 0 1 0 1.1 2.68 2.68 0 0 1-.265.244c-.085.064-.147.087-.192.087-.094 0-.223 0-.35-.021a.547.547 0 0 1-.292-.121l-2.623-2.81ZM30 23.288c-.247 0-.442-.082-.574-.214-.132-.133-.214-.327-.214-.574 0-3.645-3.067-6.713-6.712-6.713-.247 0-.442-.081-.574-.213-.132-.133-.214-.327-.214-.574 0-.247.082-.441.214-.574.132-.132.327-.213.574-.213a8.252 8.252 0 0 1 8.287 8.287c0 .247-.081.442-.213.574-.133.132-.327.213-.574.213Z"/></g></symbol><symbol id="latch" viewBox="0 0 20 28"><path fill-rule="evenodd" clip-rule="evenodd" d="M10.774.018c3.056.407 5.427 2.427 6.354 5.413.3.969.346 1.419.377 3.767l.029 2.153.371.062c.903.15 1.586.74 1.942 1.677l.133.348.016 5.988c.012 4.289-.002 6.1-.047 6.384-.17 1.068-.922 1.9-1.92 2.124-.211.047-2.476.066-8.048.066-8.372 0-8.036.012-8.65-.3-.628-.317-1.153-1.093-1.28-1.89-.045-.284-.059-2.095-.047-6.384l.016-5.987.132-.35c.357-.937 1.04-1.527 1.943-1.676l.371-.062.03-2.153c.03-2.348.076-2.798.376-3.767.616-1.984 1.941-3.627 3.68-4.563A7.67 7.67 0 0 1 8.568.126c.452-.092 1.819-.16 2.205-.108Zm-1.979 1.85c-1.87.415-3.43 1.772-4.177 3.636-.373.93-.384 1.03-.409 3.56l-.022 2.31h11.626l-.022-2.31c-.021-2.147-.031-2.342-.142-2.754-.32-1.194-.834-2.093-1.668-2.92-.934-.926-1.952-1.414-3.4-1.63-.311-.047-1.381.018-1.786.108ZM2.092 13.227a.943.943 0 0 0-.303.305c-.108.194-.11.302-.11 6.155 0 5.834.002 5.963.109 6.149.06.104.211.242.335.305.222.113.367.115 7.877.115s7.655-.002 7.877-.115a.942.942 0 0 0 .335-.305c.107-.186.11-.315.11-6.149 0-5.886-.002-5.96-.113-6.161a.891.891 0 0 0-.304-.305c-.18-.096-.672-.102-7.906-.102-7.42 0-7.721.004-7.907.108Zm8.572 2.613c.197.054.47.168.608.253 1.093.675 1.528 2.17.982 3.378-.238.527-.635.96-1.088 1.185l-.331.165-.003 1.075c-.002.904-.018 1.108-.1 1.277-.275.575-1.189.575-1.464 0-.082-.17-.098-.372-.1-1.277l-.003-1.075-.331-.165c-.724-.36-1.25-1.19-1.306-2.056-.089-1.356.667-2.478 1.869-2.776a2.31 2.31 0 0 1 1.267.016ZM9.49 17.661c-.323.242-.413.762-.2 1.159.14.263.386.402.709.402.323 0 .57-.14.71-.402.264-.494.06-1.127-.414-1.285-.231-.077-.613-.017-.805.126Z" fill="#A90E0E"/></symbol><symbol id="magic_wand" viewBox="0 0 36 36"><path fill-rule="evenodd" clip-rule="evenodd" d="M24.995.145c-.163.128-.185.196-.185.563v.417h-.378c-.483 0-.748.185-.748.52 0 .36.238.536.726.536h.4v.41c0 .338.029.437.163.563.2.187.472.196.686.023.128-.103.168-.22.192-.563l.032-.433h.37c.487 0 .697-.16.697-.528 0-.37-.21-.528-.705-.528h-.38v-.32c0-.694-.42-1.013-.87-.66Zm6.181 1.153c-.302.303-.237.483.422 1.157l.595.607-.595.606c-.66.672-.739.887-.431 1.175.303.285.5.21 1.166-.441l.608-.595.605.595c.671.66.852.725 1.156.422.303-.303.237-.484-.422-1.157l-.594-.608.594-.605c.66-.671.726-.852.422-1.156-.304-.304-.485-.238-1.156.422l-.605.594-.608-.594c-.673-.66-.853-.725-1.156-.422Zm-8.301 5.94c-.47.291-.49.347-.528 1.528l-.036 1.08-.748.531c-.8.568-.939.72-1.012 1.112-.058.307.154.833.4.994.092.06.561.232 1.044.382l.878.274.096.338.095.338-2.54 2.54-2.54 2.541-.44-.44-.44-.44 1.847-1.847c1.639-1.64 1.847-1.873 1.847-2.071 0-.264-.27-.515-.554-.515-.15 0-1.985 1.8-10.025 9.836C4.508 29.128.3 33.388.19 33.572c-.157.264-.189.4-.189.815 0 .431.028.544.213.842.132.214.344.426.558.558.298.185.41.213.842.213.415 0 .551-.032.815-.19.184-.109 4.654-4.528 10.657-10.533l10.341-10.345.128.162c.182.232.667.41.964.354.384-.072.54-.214 1.105-1.011l.53-.748 1.083-.036c1.034-.033 1.09-.043 1.27-.21.262-.246.386-.51.386-.824 0-.3-.119-.518-.698-1.285a16.861 16.861 0 0 1-.45-.612c-.026-.044.079-.448.233-.897.401-1.162.36-1.59-.186-1.95-.306-.202-.71-.165-1.616.148-.45.154-.852.26-.897.233-.044-.026-.32-.229-.612-.45-.293-.22-.641-.468-.775-.55-.301-.184-.735-.191-1.016-.017ZM24.227 8.8c.413.31.816.581.896.6.08.02.57-.108 1.09-.282.52-.175.954-.309.967-.297.012.013-.122.448-.297.967-.174.52-.302 1.01-.282 1.09.019.08.29.483.6.896.31.412.565.767.565.787 0 .02-.445.038-.99.038-.544 0-1.047.03-1.117.068-.07.037-.39.44-.713.897l-.586.83-.27-.88c-.15-.484-.3-.952-.337-1.04-.08-.19-.138-.216-1.264-.564l-.878-.272.828-.584c.455-.322.858-.642.895-.712.038-.07.068-.573.068-1.117 0-.545.017-.99.038-.99.02 0 .375.254.787.565Zm9.896.278c-.216.09-.304.289-.304.692v.348l-.433.032c-.485.035-.693.198-.693.544 0 .319.26.497.726.497h.4v.41c0 .338.029.437.163.563.23.217.562.202.747-.032.106-.136.146-.288.146-.563v-.378h.417c.367 0 .435-.022.563-.185.353-.45.034-.87-.66-.87h-.32v-.38c0-.558-.327-.853-.752-.678Zm-17.3 10.138.419.423-7.636 7.632c-5.516 5.513-7.693 7.645-7.842 7.681-.403.098-.813-.312-.715-.715.036-.15 2.165-2.323 7.664-7.826 4.188-4.19 7.632-7.619 7.653-7.619.02 0 .226.191.457.424Z"/></symbol><symbol id="magic_wand2" viewBox="0 0 33 35"><path fill-rule="evenodd" clip-rule="evenodd" d="M22.913.138c-.15.123-.17.188-.17.538v.398h-.347c-.443 0-.686.176-.686.497 0 .344.218.511.666.511h.366v.392c0 .322.027.417.15.537a.448.448 0 0 0 .629.022c.117-.098.153-.21.176-.537l.029-.414h.34c.445 0 .638-.152.638-.504 0-.354-.192-.504-.646-.504h-.348V.77c0-.663-.386-.968-.797-.63Zm5.665 1.101c-.277.29-.217.462.387 1.105l.545.58-.545.578c-.605.641-.677.847-.396 1.122.279.272.459.201 1.07-.421l.557-.568.555.568c.615.63.78.692 1.06.402.277-.289.217-.461-.387-1.104l-.545-.58.544-.578c.605-.641.666-.814.387-1.104-.278-.29-.444-.227-1.06.403l-.554.568-.557-.568c-.618-.63-.783-.692-1.06-.403Zm-7.61 5.672c-.43.278-.448.33-.484 1.458l-.032 1.032-.686.507c-.733.542-.86.688-.928 1.062-.053.292.142.795.367.949.084.057.515.221.957.365l.805.26.088.323.087.323-2.328 2.426-2.33 2.426-.402-.42-.403-.42 1.693-1.764c1.502-1.566 1.693-1.789 1.693-1.978 0-.252-.248-.491-.508-.491-.138 0-1.82 1.719-9.19 9.391C4.133 27.81.275 31.878.174 32.054c-.144.252-.173.381-.173.778 0 .412.026.52.195.804.121.204.316.407.511.533.274.176.377.203.773.203.38 0 .505-.03.747-.18.168-.105 4.266-4.324 9.77-10.058l9.478-9.878.117.155c.167.222.612.392.884.339.352-.07.494-.205 1.012-.966l.487-.714.992-.034c.948-.032 1-.041 1.165-.202.24-.233.354-.486.353-.786 0-.287-.108-.494-.64-1.226-.203-.28-.388-.542-.412-.585-.024-.042.072-.427.214-.856.367-1.11.33-1.519-.17-1.862-.28-.193-.652-.157-1.483.14-.41.148-.78.249-.821.224-.041-.025-.294-.219-.562-.43a12.257 12.257 0 0 0-.71-.525c-.276-.175-.674-.183-.932-.017Zm1.24 1.49c.379.297.748.555.821.573.073.019.523-.103 1-.27.476-.167.875-.294.886-.282.01.011-.111.427-.272.923-.16.496-.277.964-.26 1.04.019.076.266.461.551.855.285.394.518.733.518.752 0 .02-.408.036-.907.036-.5 0-.96.03-1.024.065-.064.036-.358.421-.654.857l-.537.792-.248-.84a23.068 23.068 0 0 0-.309-.993c-.073-.182-.126-.207-1.158-.539l-.805-.259.759-.558c.417-.307.787-.613.82-.68.035-.066.063-.546.063-1.066s.015-.945.034-.945c.019 0 .344.242.723.54Zm9.071.266c-.198.085-.278.275-.278.66v.333l-.397.03c-.445.033-.636.19-.636.52 0 .304.239.474.666.474H31v.392c0 .322.026.417.15.537.21.207.515.193.684-.03.097-.13.133-.276.133-.539v-.36h.383c.336 0 .398-.021.516-.177.324-.429.031-.831-.605-.831h-.294v-.362c0-.533-.3-.814-.689-.647Zm-15.858 9.679.384.404-7 7.287c-5.056 5.263-7.051 7.3-7.188 7.334-.37.093-.745-.299-.655-.684.033-.142 1.984-2.217 7.025-7.471 3.84-4 6.996-7.274 7.015-7.274.02 0 .207.182.419.404Z" fill="#E1988C"/><path fill-rule="evenodd" clip-rule="evenodd" d="M20.968 6.912c-.43.277-.448.33-.484 1.458L20.452 9.4l-.686.507c-.733.542-.86.688-.928 1.062-.053.292.142.795.367.95.084.056.515.22.957.364l.805.26.088.323.087.323-2.328 2.426-2.33 2.425-.402-.42-.403-.419 1.693-1.764c1.502-1.566 1.693-1.789 1.693-1.978 0-.252-.248-.491-.508-.491-.138 0-1.82 1.72-9.19 9.39C4.133 27.81.275 31.879.174 32.054c-.144.252-.173.382-.173.778 0 .412.026.52.195.805.121.204.316.406.511.532.274.176.377.204.773.204.38 0 .505-.03.747-.181.168-.105 4.266-4.324 9.77-10.058l9.478-9.877.117.155c.167.222.612.392.884.339.352-.07.494-.205 1.012-.966l.487-.714.992-.034c.948-.032 1-.041 1.165-.201.24-.234.354-.488.353-.787 0-.287-.108-.494-.64-1.226a16.04 16.04 0 0 1-.412-.585c-.024-.042.072-.427.214-.856.367-1.11.33-1.518-.17-1.862-.28-.193-.652-.157-1.483.141-.41.148-.78.248-.821.223-.041-.025-.294-.218-.562-.43a12.255 12.255 0 0 0-.71-.525c-.276-.175-.674-.182-.932-.016Zm1.24 1.49c.379.296.748.554.821.573.073.018.523-.104 1-.27.476-.168.875-.295.886-.283.01.011-.111.427-.272.923-.16.496-.277.964-.26 1.04.019.076.266.461.551.855.285.394.518.733.518.752 0 .02-.408.036-.907.036-.5 0-.96.03-1.024.065-.064.036-.358.421-.654.857l-.537.792-.248-.84a23.068 23.068 0 0 0-.309-.992c-.073-.183-.126-.207-1.158-.54l-.805-.259.759-.558c.417-.307.787-.613.82-.68.035-.066.063-.546.063-1.066s.015-.945.034-.945c.019 0 .344.243.723.54Zm-6.787 9.944.384.404-7 7.286c-5.056 5.264-7.051 7.3-7.188 7.334-.37.094-.745-.298-.655-.683.033-.142 1.984-2.217 7.025-7.471 3.84-4.001 6.996-7.274 7.015-7.274.02 0 .207.181.419.404Z" fill="#2A2623"/></symbol><symbol id="money-big"><path d="M8.3 42.2c2.5 4.5 7.1 7.3 12.3 7.3h8.9c5.2 0 9.8-2.7 12.3-7.3 2.5-4.5 2.3-9.9-.5-14.2l-7.8-12.2.5-.3c.9-.5 1.5-1.4 1.5-2.5 0-1.2-.7-2.2-1.8-2.6l-.4-.2L35.7 2c0-.2 0-.3-.1-.5-1.3-1.3-3.5-1.3-4.7 0-.9.9-2.5.9-3.4 0a3.32 3.32 0 0 0-4.7 0c-1 1-2.5 1-3.4 0-.6-.6-1.5-1-2.4-1-.9 0-1.7.3-2.4 1-.1.1-.2.3-.1.5l2.4 8.3-.4.2c-1.1.4-1.8 1.5-1.8 2.6s.6 2 1.5 2.5l.5.3L8.8 28c-2.8 4.4-3 9.7-.5 14.2Zm7-40.3.4-.2c.9-.5 2.1-.3 2.9.4 1.3 1.3 3.4 1.3 4.7 0 1-1 2.5-1 3.4 0 1.3 1.3 3.4 1.3 4.8 0 .8-.8 1.9-.9 2.9-.4l.4.2-2.4 8.3H17.7l-2.4-8.3ZM9.6 28.5l8-12.6h3c.3 0 .5-.2.5-.5s-.2-.5-.5-.5h-3.3c-1 0-1.9-.8-1.9-1.9 0-1.1.8-1.9 1.9-1.9h15.3c1 0 1.9.8 1.9 1.9 0 1.1-.8 2-1.8 2h-3.3c-.3 0-.5.2-.5.5s.2.5.5.5h3l8 12.6c2.6 4.1 2.8 9 .4 13.3-2.3 4.2-6.6 6.8-11.4 6.8h-8.9c-4.8 0-9.1-2.5-11.4-6.8-2.3-4.4-2.1-9.3.5-13.4Z" fill="#2A2623"/><path d="M29.1 36.5c.3-1.9-.7-3.5-2.5-4.2-.2-.1-.5-.2-.8-.3h-.3v-5.4l.6.2c.8.2 1.3.6 1.3.6.2.2.5.1.7-.1.1-.1.1-.2.1-.4s-.1-.2-.2-.3c0 0-.8-.6-2.1-.9l-.4-.1v-1.4c0-.3-.2-.5-.5-.5s-.5.2-.5.5v1.4l-.4.1c-.1 0-.3.1-.5.1-1.2.4-2.1 1.4-2.3 2.7-.2 1.2.1 2.3.9 2.9.5.4 1.1.7 1.9 1.1l.3.1v6.5h-.5c-.9-.1-1.5-.3-2.4-.9-.1-.1-.2-.1-.3-.1-.2 0-.3.1-.4.2-.1.1-.1.2-.1.4s.3.3.4.3c1.2.8 2 1 3 1h.5v1.5c0 .3.2.5.5.5s.5-.2.5-.5V40l.4-.1c1.8-.3 2.8-2 3.1-3.4Zm-4.6-4.9-.7-.4c-.4-.2-.7-.4-.9-.6-.5-.4-.8-1.2-.6-2 .1-.7.6-1.6 1.6-1.9l.7-.2v5.1h-.1Zm1.7 7.3-.7.3V33l.7.3c1.8.6 2.2 2 2 3.1-.2.9-.8 2-2 2.5ZM25.3 15.1c-.1-.1-.2-.1-.3-.1-.1 0-.2.1-.3.1-.1.1-.1.2-.1.3 0 .1.1.2.1.3.2.2.5.2.7 0 .1-.1.1-.2.1-.3 0-.1-.1-.2-.2-.3Z" fill="#2A2623"/></symbol><symbol id="money_dollar" viewBox="0 0 33 33"><g clip-path="url(#a)"><path d="M28.166 4.832A16.5 16.5 0 1 0 4.832 28.166 16.5 16.5 0 0 0 28.166 4.832ZM16.5 31.679c-8.37 0-15.18-6.81-15.18-15.18 0-8.37 6.81-15.18 15.18-15.18 8.37 0 15.18 6.81 15.18 15.18 0 8.37-6.81 15.18-15.18 15.18Z" fill="#E1988C"/><path d="M19.888 22.93a4.355 4.355 0 0 0-3.388-7.09 3.036 3.036 0 1 1 3.036-3.036.66.66 0 1 0 1.32 0 4.364 4.364 0 0 0-3.388-4.246l-.308-.07V6.996a.66.66 0 0 0-1.32 0v1.492l-.308.07a4.356 4.356 0 0 0 .968 8.602 3.036 3.036 0 1 1-3.036 3.036.66.66 0 0 0-1.32 0 4.365 4.365 0 0 0 3.388 4.246l.308.07v1.492a.66.66 0 1 0 1.32 0v-1.492l.308-.07a4.38 4.38 0 0 0 2.42-1.513Z" fill="#2A2623"/></g></symbol><symbol id="num_psych" viewBox="0 0 33 33"><g clip-path="url(#a)"><path d="M15.879 3.95V15.88H3.95v1.243H15.88V29.05h1.243V17.122H29.05v-1.243H17.122V3.95h-1.243Z" fill="#E1988C"/><path d="m9.943 13.171 1.253-.048V3.979H7.949v1.234h2.004l-.01 7.958ZM7.9 25.812c-.013.582.085 1.161.29 1.706a2.591 2.591 0 0 0 4.933-.723 1.975 1.975 0 0 0 0-.752 3.65 3.65 0 0 0-.51-1.213l-.3-.367.367-.54a2.582 2.582 0 0 0 .045-2.907 2.66 2.66 0 0 0-.739-.753 2.523 2.523 0 0 0-1.927-.405c-.49.12-.94.361-1.31.703a3.113 3.113 0 0 0-.839 2.457H9.27v-.26c0-.81.116-1.243.78-1.542a1.243 1.243 0 0 1 1.484.28 1.224 1.224 0 0 1 .25 1.522c-.308.626-.722.752-1.512.8h-.328v1.252h.29c.361-.046.728.022 1.05.193a1.407 1.407 0 0 1 .597 1.349 1.464 1.464 0 0 1-1.108 1.108 1.416 1.416 0 0 1-1.368-.607 1.85 1.85 0 0 1-.135-1.021v-.28H7.9ZM22.758 20.291l-.125-.048-.52-.202-1.176 3.045-1.098 2.89v1.08h3.911v1.926h1.263v-5.569H23.77v2.37h-1.186c-.963 0-1.185 0-1.185-.385.26-.905.582-1.79.964-2.65.395-1.021.713-1.869.858-2.274l-.463-.183ZM19.867 13.171h5.242v-1.223h-3.46l1.225-1.109a7.646 7.646 0 0 0 1.31-1.397 4.672 4.672 0 0 0 .828-2.89 1.925 1.925 0 0 0-.192-1.031 2.659 2.659 0 0 0-2.89-1.474 2.688 2.688 0 0 0-2.063 2.071 5.57 5.57 0 0 0-.067.867v.193h1.252v-.125c0-.742.068-1.05.444-1.416a1.214 1.214 0 0 1 1.474-.28c.684.299.8.752.761 1.474-.067 1.436-.472 1.927-2.486 3.739l-1.378 1.3v1.301Z" fill="#2A2623"/><path d="M32.99 6.378 26.612 0H6.378L3.17 3.17 0 6.378v20.234l6.378 6.378h20.234l6.378-6.378V6.378Zm-1.252 19.82-5.579 5.578H6.831L1.253 26.16V6.831L6.83 1.253H26.16l5.579 5.578v19.367Z" fill="#2A2623"/></g></symbol><symbol id="numbers123" viewBox="0 0 36 30"><path d="M23.04 24.636c.18.091.9.091 3.555.091h3.33l.36-.409v-4.727c0-2.955 0-4.727-.09-4.91-.045-.045-.36-.317-.9-.68l-1.125-.82 1.08-.726c.09-.046.18-.137.27-.182.765-.5.765-.5.765-2.818V5.727l-.36-.409H26.64c-2.655 0-3.375 0-3.555.091-.315.182-.405.273-.405 2.091l.045 1.455.18.181c.27.273.63.273.9 0l.18-.181.045-2.273h4.905v4.364l-1.35.909c-1.35.909-1.395 1-1.305 1.363.045.273.09.318 1.44 1.228l1.215.818v8.045h-4.86v-1.182c0-1.045-.09-1.318-.315-1.454-.225-.182-.585-.137-.81.09l-.18.183-.045 1.454c-.045 1.818.045 1.955.315 2.136ZM10.53 24.273c.09-.182.09-.273.045-.41-.09-.317-.18-.454-.9-.5l-.855-.045-.09-17.727-.135-.136c-.225-.228-.54-.273-.765-.091-.09.09-.63.545-1.215 1.136-.945.955-.945.955-.945 1.227 0 .228.045.318.18.5.18.182.18.182.45.182s.315-.045.495-.182l.63-.636v15.818H6.57c-.54 0-.54 0-.72.182-.27.273-.27.59 0 .909l.18.182 1.98.045c2.34 0 2.34-.045 2.52-.454Z" fill="#2A2623"/><path d="M20.475 24.09c0-.226-.225-.544-.495-.59-.135-.045-.99-.09-2.52-.09-2.475 0-2.475 0-2.475-.274 0-.09 0-.09 2.655-4.318 1.62-2.545 2.655-4.227 2.745-4.318.045-.227.045-2.273.045-4.5l-.045-4.318-.315-.318h-3.33c-1.89 0-3.285 0-3.51.045-.045.046-.18.091-.225.182-.09.09-.09.273-.09 1.773 0 1.636 0 1.636.135 1.772.225.228.54.273.81.137.135-.091.225-.182.27-.182 0-.046.045-.5.09-1.091l.045-1.273h4.905l.045 7.319L16.38 18.5c-3.195 5-3.465 5.5-3.465 5.636 0 .228.18.546.405.637.45.136 6.345.136 6.795 0 .18-.182.36-.455.36-.682Z" fill="#E1988C"/></symbol><symbol id="palm" viewBox="0 0 33 33"><g clip-path="url(#a)"><path d="M18.12 17.32a.483.483 0 0 0 .967 0V6.315c0-.893.726-1.62 1.62-1.62.893 0 1.62.727 1.62 1.62v1.311a.483.483 0 1 0 .966 0V6.316a2.59 2.59 0 0 0-2.587-2.587c-.612 0-1.176.214-1.62.572V2.587A2.59 2.59 0 0 0 16.5 0a2.59 2.59 0 0 0-2.587 2.587V4.3a2.574 2.574 0 0 0-1.62-.572 2.59 2.59 0 0 0-2.586 2.587v5.876a4.15 4.15 0 0 0-3.19-1.494c-.56 0-1.017.456-1.017 1.017v3.318a.483.483 0 1 0 .967 0v-3.318a.05.05 0 0 1 .05-.05c1.76 0 3.19 1.43 3.19 3.19v2.464a.483.483 0 0 0 .967 0V6.316c0-.893.726-1.62 1.62-1.62.893 0 1.62.727 1.62 1.62v11.003a.483.483 0 0 0 .966 0V2.587c0-.894.727-1.62 1.62-1.62.893 0 1.62.726 1.62 1.62v14.732Z" fill="#2A2623"/><path d="M22.326 17.32a.483.483 0 1 0 .967 0v-2.466c0-1.758 1.43-3.19 3.19-3.19a.05.05 0 0 1 .05.051V22c0 5.532-4.5 10.033-10.033 10.033-5.532 0-10.033-4.5-10.033-10.033v-4.86a.483.483 0 1 0-.967 0V22c0 6.066 4.935 11 11 11s11-4.934 11-11V11.715c0-.56-.457-1.017-1.018-1.017-1.28 0-2.426.582-3.189 1.494V9.734a.483.483 0 1 0-.967 0v7.585Z" fill="#2A2623"/><path d="M20.583 22.478c.133.288.236.594.304.913a.483.483 0 0 0 .945-.204 5.472 5.472 0 0 0-1.883-3.072 5.466 5.466 0 0 0-3.45-1.23 5.46 5.46 0 0 0-5.454 5.455 5.46 5.46 0 0 0 5.455 5.455 5.465 5.465 0 0 0 3.446-1.226 5.473 5.473 0 0 0 1.885-3.067.483.483 0 0 0-.945-.205 4.41 4.41 0 0 1-.303.906l-3.136-1.862 3.136-1.863Zm-8.57 1.862c0-.663.145-1.294.405-1.861l3.135 1.861-3.135 1.863a4.46 4.46 0 0 1-.406-1.863Zm8.074-2.692-3.104 1.843v-3.61a4.523 4.523 0 0 1 3.104 1.767Zm-4.07-1.769v3.612l-3.105-1.843a4.489 4.489 0 0 1 3.104-1.769Zm-3.105 7.154 3.104-1.843v3.612a4.488 4.488 0 0 1-3.104-1.768Zm4.071 1.768V25.19l3.103 1.843a4.524 4.524 0 0 1-3.103 1.768Z" fill="#E1988C"/></g></symbol><symbol id="place"><path d="M20.854 43.804 9.457 26.534c-.617-.937-1.475-2.54-1.909-3.57-.07-.17-1.398-3.372-1.398-6.34C6.15 7.54 13.54.15 22.623.15c9.084 0 16.473 7.39 16.473 16.473 0 2.984-1.339 6.203-1.397 6.342-.433 1.03-1.29 2.632-1.908 3.57l-11.399 17.27.125.082-.125-.082c-.443.672-1.09 1.045-1.769 1.045-.678 0-1.325-.373-1.769-1.046Zm13.554-18.181 1.626-3.359.138.06v-.002c.019-.043.33-.798.64-1.866.313-1.085.629-2.504.629-3.833 0-8.17-6.647-14.817-14.818-14.817-8.17 0-14.817 6.647-14.817 14.817 0 2.64 1.246 5.642 1.268 5.697v.001c.395.94 1.202 2.447 1.765 3.302l11.399 17.27c.056.086.11.16.163.215.05.052.125.109.223.109a.316.316 0 0 0 .223-.11c.052-.053.106-.128.162-.214l11.4-17.27Z" fill="#2A2623" stroke="#FDFBF7" stroke-width=".3"/><path d="M13.973 16.624c0-4.769 3.88-8.65 8.65-8.65 4.77 0 8.65 3.881 8.65 8.65 0 4.77-3.88 8.65-8.65 8.65-4.77 0-8.65-3.88-8.65-8.65Zm1.655 0a7.003 7.003 0 0 0 6.995 6.995 7.003 7.003 0 0 0 6.995-6.995 7.003 7.003 0 0 0-6.995-6.995 7.003 7.003 0 0 0-6.995 6.995Z" fill="#2A2623" stroke="#FDFBF7" stroke-width=".3"/></symbol><symbol id="print" viewBox="0 0 27 23"><path fill-rule="evenodd" clip-rule="evenodd" d="M5.87.314 5.709.46l-.016 2.187-.017 2.187H3.42V3.53l.527-.021c.493-.02.535-.032.666-.189a.534.534 0 0 0-.002-.72c-.142-.158-.143-.158-1.029-.156-.605 0-.915.025-.978.074-.198.157-.227.328-.227 1.317v.982l-.629.027c-.566.024-.66.045-.942.207-.34.196-.644.59-.745.967C.022 6.159 0 8.075 0 11.412c0 5.753-.018 5.482.391 5.975.116.14.343.318.504.395.287.138.33.14 1.99.141h1.698l.143-.146c.205-.212.194-.526-.027-.754l-.17-.175H1.397l-.162-.144-.163-.145-.015-5.07c-.012-3.816.001-5.115.053-5.244.143-.357-.622-.336 12.393-.336s12.25-.021 12.393.336c.052.13.065 1.428.054 5.243l-.016 5.071-.163.145-.162.144h-3.114l-.179.155a.53.53 0 0 0-.036.774l.143.147h1.697c1.661-.001 1.705-.004 1.991-.142.161-.077.389-.256.505-.396.412-.496.395-.217.377-6.102l-.016-5.286-.169-.314c-.317-.59-.71-.802-1.555-.84l-.623-.027v-.982c0-.99-.03-1.16-.227-1.317-.063-.05-.373-.073-.978-.074-.886-.002-.887-.002-1.029.156a.534.534 0 0 0-.002.72c.13.157.173.17.666.189l.527.02v1.304h-2.256l-.017-2.187-.016-2.187-.163-.145-.162-.144H6.033l-.162.144Zm14.4 2.74.015 1.779H6.722V3.079c0-.964.018-1.771.04-1.793.02-.022 3.065-.034 6.765-.025l6.728.015.015 1.778Zm.999 4.677c-.831.277-1.232 1.29-.834 2.113.246.51.717.798 1.301.795.395-.002.651-.102.946-.368.337-.306.467-.613.467-1.104 0-.465-.09-.703-.394-1.037a1.42 1.42 0 0 0-1.486-.4Zm.814 1.294c.063.156.058.2-.043.34-.235.325-.713.178-.713-.22 0-.433.593-.528.756-.12Zm-17.94 3.483a.602.602 0 0 0-.318.49c0 .186.176.432.354.496.102.036.48.066.841.066h.657l.016 4.518.015 4.519.163.144.163.144h14.939l.162-.144.163-.144.015-4.519.016-4.518h.657c.36 0 .74-.03.84-.066.182-.065.355-.31.355-.502 0-.19-.173-.436-.354-.501-.292-.105-18.45-.089-18.685.017ZM20.27 17.67l-.015 4.11H6.75l-.014-4.11-.015-4.11h13.562l-.014 4.11ZM8.606 15.904c-.184.109-.257.24-.257.466 0 .23.076.363.268.468.093.051 1.383.07 4.907.07h4.78l.179-.155c.142-.123.178-.202.178-.383 0-.182-.037-.26-.178-.384l-.179-.154-4.79.001c-3.495.002-4.823.02-4.908.07Zm.05 2.557c-.18.075-.31.296-.31.525 0 .27.204.472.528.52.14.022 1.305.03 2.591.02l2.337-.018.17-.195c.092-.108.168-.25.168-.317 0-.194-.152-.445-.317-.522-.18-.085-4.965-.097-5.167-.013Z"/></symbol><symbol id="puzzle" viewBox="0 0 33 33"><g clip-path="url(#a)"><path d="m25.87 11.58.18.09a4.81 4.81 0 0 0 5.61-1.23 4.72 4.72 0 0 0 1-3.89 4.68 4.68 0 0 0-6.61-3.35l-.18.08V1.93a1.94 1.94 0 0 0-1.94-1.94H8.81a1.94 1.94 0 0 0-1.94 1.94v14.44a.56.56 0 0 0 .56.56h6.66a.56.56 0 0 0 0-1.12h-6.1V1.93a.82.82 0 0 1 .82-.81h15.12a.82.82 0 0 1 .82.81v2.44a.56.56 0 0 0 .94.41 3.56 3.56 0 1 1 2.61 6.17 3.53 3.53 0 0 1-2.62-.87.55.55 0 0 0-.841.112.57.57 0 0 0-.089.308v5.31h-6.1a.56.56 0 0 0 0 1.12h6.66a.56.56 0 0 0 .56-.56v-4.79Z" fill="#000"/><path d="M8.81 32.75h15.12a1.94 1.94 0 0 0 1.94-1.94V27a.56.56 0 0 0-.648-.553.58.58 0 0 0-.292.133 3.56 3.56 0 1 1 0-5.3.56.56 0 0 0 .94-.41v-4.5a.56.56 0 0 0-.56-.56h-6.66a.56.56 0 0 0 0 1.12h6.1v2.85l-.18-.08a4.69 4.69 0 0 0-6.62 3.35 4.73 4.73 0 0 0 1 3.89 4.81 4.81 0 0 0 5.62 1.23l.18-.09v2.73a.82.82 0 0 1-.82.81H8.81a.82.82 0 0 1-.82-.81V27a.56.56 0 0 0-.648-.555.57.57 0 0 0-.292.135 3.53 3.53 0 0 1-3.18.83 3.54 3.54 0 0 1 .53-7 3.62 3.62 0 0 1 2.62.86.55.55 0 0 0 .6.1.56.56 0 0 0 .37-.5v-3.94h6.1a.56.56 0 0 0 0-1.12H7.43a.56.56 0 0 0-.56.56v3.41l-.18-.08a4.79 4.79 0 0 0-5.61 1.23 4.7 4.7 0 0 0 2.6 7.59 4.77 4.77 0 0 0 3-.35l.19-.09v2.73a1.94 1.94 0 0 0 1.94 1.94Z" fill="#E1988C"/><path d="M21.06 12.93a4.69 4.69 0 1 0-7.28 3.94.56.56 0 0 0 .86-.58.6.6 0 0 0-.24-.36 3.56 3.56 0 1 1 3.94 0 .6.6 0 0 0-.24.36.56.56 0 0 0 .08.42.59.59 0 0 0 .78.16 4.67 4.67 0 0 0 2.1-3.94Z" fill="#E1988C"/></g></symbol><symbol id="scrollbar__gears" viewBox="0 0 70 70"><path d="M43.167 40.833h-1.284c-.482.001-.914-.3-1.08-.753a18.995 18.995 0 0 0-.46-1.1 1.15 1.15 0 0 1 .234-1.302l.914-.916a3.508 3.508 0 0 0-.005-4.946l-3.297-3.297a3.508 3.508 0 0 0-4.947 0l-.915.914a1.155 1.155 0 0 1-1.302.233 25.12 25.12 0 0 0-1.101-.467 1.147 1.147 0 0 1-.757-1.082v-1.284a3.5 3.5 0 0 0-3.5-3.5H21a3.5 3.5 0 0 0-3.5 3.5v1.284c0 .482-.3.914-.754 1.08-.373.142-.738.295-1.1.46-.44.203-.96.11-1.302-.234l-.916-.914a3.508 3.508 0 0 0-4.945 0l-3.297 3.307a3.508 3.508 0 0 0 0 4.947l.913.915c.345.34.438.862.234 1.302-.165.361-.318.726-.461 1.1a1.147 1.147 0 0 1-1.089.753H3.5a3.5 3.5 0 0 0-3.5 3.5V49a3.5 3.5 0 0 0 3.5 3.5h1.283c.483 0 .915.3 1.08.754.143.373.296.738.46 1.1.205.44.111.96-.233 1.302l-.915.916a3.508 3.508 0 0 0 0 4.945l3.297 3.297a3.508 3.508 0 0 0 4.947 0l.915-.913a1.155 1.155 0 0 1 1.302-.234c.361.165.727.318 1.101.467.458.163.764.597.763 1.083V66.5A3.5 3.5 0 0 0 21 70h4.667a3.5 3.5 0 0 0 3.5-3.5v-1.283c-.001-.483.3-.915.753-1.08.374-.143.739-.296 1.1-.46.44-.204.96-.11 1.302.233l.916.915a3.51 3.51 0 0 0 4.946-.006l3.297-3.297a3.508 3.508 0 0 0 0-4.947l-.914-.915a1.15 1.15 0 0 1-.233-1.301c.164-.362.317-.727.467-1.102a1.147 1.147 0 0 1 1.082-.757h1.284a3.5 3.5 0 0 0 3.5-3.5v-4.667a3.5 3.5 0 0 0-3.5-3.5ZM44.333 49c0 .644-.522 1.167-1.166 1.167h-1.284a3.512 3.512 0 0 0-3.266 2.256c-.124.327-.258.648-.402.965a3.51 3.51 0 0 0 .7 3.915l.913.914a1.167 1.167 0 0 1 0 1.65l-3.297 3.297a1.167 1.167 0 0 1-1.65 0l-.915-.913a3.507 3.507 0 0 0-3.915-.7 16.95 16.95 0 0 1-.962.401 3.51 3.51 0 0 0-2.256 3.265V66.5c0 .644-.522 1.167-1.166 1.167H21a1.167 1.167 0 0 1-1.167-1.167v-1.283a3.512 3.512 0 0 0-2.256-3.267 16.093 16.093 0 0 1-.965-.401 3.512 3.512 0 0 0-3.915.7l-.914.912a1.166 1.166 0 0 1-1.65 0l-3.297-3.294a1.167 1.167 0 0 1 0-1.65l.913-.914a3.51 3.51 0 0 0 .7-3.915 16.92 16.92 0 0 1-.401-.963 3.51 3.51 0 0 0-3.265-2.258H3.5A1.167 1.167 0 0 1 2.333 49v-4.667c0-.644.523-1.166 1.167-1.166h1.283A3.512 3.512 0 0 0 8.05 40.91c.124-.326.257-.648.401-.964a3.51 3.51 0 0 0-.7-3.916l-.917-.913a1.167 1.167 0 0 1 0-1.651l3.297-3.297a1.167 1.167 0 0 1 1.65 0l.915.913a3.507 3.507 0 0 0 3.915.7c.316-.143.638-.277.962-.401a3.51 3.51 0 0 0 2.26-3.264v-1.284c0-.644.523-1.166 1.167-1.166h4.667c.644 0 1.166.522 1.166 1.166v1.284a3.512 3.512 0 0 0 2.257 3.266c.326.124.648.258.965.402 1.323.6 2.881.322 3.915-.7l.913-.913a1.174 1.174 0 0 1 1.651 0l3.297 3.297a1.167 1.167 0 0 1 0 1.65l-.913.915a3.51 3.51 0 0 0-.7 3.915c.143.316.277.638.401.962a3.51 3.51 0 0 0 3.264 2.256h1.284c.644 0 1.166.522 1.166 1.166V49Z"/><path d="M33.81 46.2a10.522 10.522 0 0 0-.21-1.722c-.04-.19-.094-.378-.145-.567-.065-.24-.139-.477-.22-.71a21.459 21.459 0 0 0-.178-.483 10.39 10.39 0 0 0-.514-1.092c-.015-.027-.025-.056-.04-.083a10.354 10.354 0 0 0-1.05-1.53c-.034-.042-.072-.081-.107-.122a9.738 9.738 0 0 0-.5-.55c-.092-.095-.188-.184-.283-.275a11.1 11.1 0 0 0-.783-.675l-.191-.143a10.426 10.426 0 0 0-6.256-2.081c-.117 0-.233.017-.35.022a10.14 10.14 0 0 0-1.146.094c-.38.05-.758.121-1.13.212-5.618 1.451-8.995 7.182-7.543 12.8a10.506 10.506 0 0 0 7.551 7.545c.019 0 .038.006.058.01.403.101.811.18 1.223.234.272.034.544.04.817.054.182.009.35.036.54.036.332 0 .678-.022 1.03-.057.037 0 .075-.01.117-.016.283-.031.57-.073.863-.131.117-.023.225-.052.337-.077.206-.048.41-.098.62-.16.163-.05.322-.106.482-.162.16-.056.325-.117.49-.18.166-.063.305-.135.456-.205.196-.09.39-.179.583-.284h.007a13.813 13.813 0 0 0 2.99-2.16c.242-.225.453-.483.625-.765a12.457 12.457 0 0 0 1.837-5.475c.016-.211.028-.421.032-.631 0-.067.01-.13.01-.196.001-.165-.015-.316-.022-.475Zm-2.326.764c0 .097-.008.194-.014.29a8.184 8.184 0 0 1-4.205 6.565 9.162 9.162 0 0 1-.428.212l-.097.046a8.425 8.425 0 0 1-2.128.644c-.052.009-.104.018-.157.025-.145.02-.289.038-.431.051a8.32 8.32 0 0 1-.57.03h-.244a8.171 8.171 0 0 1-.826-.052l-.14-.016a8.637 8.637 0 0 1-.953-.18 8.167 8.167 0 0 1-.008-15.821v-.001a8.444 8.444 0 0 1 2.05-.257c.334.002.667.025.998.068.088.01.176.027.263.04.252.04.502.09.748.152.08.021.161.04.24.062.62.18 1.218.43 1.78.75.09.052.177.106.266.161.184.117.362.234.538.367.095.068.19.136.282.21.229.182.448.377.657.583.082.084.158.176.239.264a8.062 8.062 0 0 1 .64.786c.117.168.233.343.338.52l.177.29c.15.278.284.563.401.856.047.117.086.233.128.35.076.215.142.432.199.65.029.118.061.221.086.335.068.315.117.634.148.955.007.085.007.172.013.257.016.268.021.538.01.808ZM66.5 24.5h-3.67a1.139 1.139 0 0 1-1.087-.765c-.362-1.084-.8-2.141-1.31-3.163a1.142 1.142 0 0 1 .224-1.317l2.602-2.605a3.5 3.5 0 0 0 0-4.948l-4.961-4.953a3.5 3.5 0 0 0-4.948 0l-2.6 2.6c-.345.35-.875.44-1.316.225a24.238 24.238 0 0 0-3.164-1.317 1.139 1.139 0 0 1-.77-1.088V3.5A3.5 3.5 0 0 0 42 0h-7a3.5 3.5 0 0 0-3.5 3.5v3.67c.005.488-.303.926-.766 1.087a24.31 24.31 0 0 0-3.163 1.316 1.14 1.14 0 0 1-1.317-.225L23.65 6.747a3.507 3.507 0 0 0-4.948 0l-4.951 4.951a3.5 3.5 0 0 0 0 4.95l3.825 3.832a1.167 1.167 0 0 0 1.652-1.648L15.4 15.001a1.167 1.167 0 0 1 0-1.65L20.352 8.4a1.167 1.167 0 0 1 1.65 0l2.606 2.602a3.469 3.469 0 0 0 4.009.658c.924-.463 1.88-.86 2.859-1.19a3.47 3.47 0 0 0 2.358-3.3V3.5c0-.644.522-1.167 1.166-1.167h7c.645 0 1.167.523 1.167 1.167v3.67a3.47 3.47 0 0 0 2.358 3.3c.98.329 1.936.726 2.86 1.19a3.477 3.477 0 0 0 4.008-.66l2.606-2.6a1.167 1.167 0 0 1 1.65 0l4.951 4.952a1.167 1.167 0 0 1 0 1.649l-2.601 2.606a3.472 3.472 0 0 0-.658 4.009c.463.924.86 1.88 1.189 2.86a3.47 3.47 0 0 0 3.301 2.357h3.67c.644 0 1.166.523 1.166 1.167v7c0 .644-.522 1.167-1.166 1.167h-3.67a3.47 3.47 0 0 0-3.3 2.358c-.329.98-.727 1.936-1.19 2.86a3.473 3.473 0 0 0 .659 4.008l2.602 2.606a1.167 1.167 0 0 1 0 1.65L56.647 54.6a1.167 1.167 0 0 1-1.648 0l-3.834-3.825a1.166 1.166 0 1 0-1.648 1.651l3.833 3.826a3.5 3.5 0 0 0 4.948 0l4.951-4.95a3.5 3.5 0 0 0 0-4.95l-2.598-2.602a1.143 1.143 0 0 1-.225-1.316c.513-1.022.953-2.08 1.317-3.164a1.139 1.139 0 0 1 1.087-.77h3.67A3.5 3.5 0 0 0 70 35v-7a3.5 3.5 0 0 0-3.5-3.5Z"/><path d="M49.224 20.776c-5.926-5.914-15.522-5.914-21.448 0a1.167 1.167 0 0 0 1.65 1.65c4.978-5.046 13.103-5.1 18.148-.122 5.046 4.978 5.1 13.103.122 18.149-.04.04-.08.081-.122.121a1.166 1.166 0 1 0 1.65 1.65c5.914-5.926 5.914-15.522 0-21.448Z"/></symbol><symbol id="scrollbar__handshake" viewBox="0 0 70 70"><path d="M17.972 24.462a.944.944 0 0 1-.962-.93.946.946 0 0 1 .93-.962 94.983 94.983 0 0 0 13.857-1.172.908.908 0 0 1 .247-.018 6.796 6.796 0 0 1 3.24 1.022.946.946 0 1 1-1.161 1.495 4.721 4.721 0 0 0-2.086-.618 98.261 98.261 0 0 1-14.04 1.183h-.025Z" fill="#99BE9D"/><path d="M52.576 46.966a3.814 3.814 0 0 1-2.247-.729l-.203-.14a.925.925 0 0 1-.113-.095l-11.135-8.019a.945.945 0 1 1 1.099-1.54l.756.54 10.42 7.513c.031.022.06.047.089.073l.18.126a1.97 1.97 0 0 0 2.688-.372 1.94 1.94 0 0 0 .34-1.756 1.897 1.897 0 0 0-.63-.956L38.928 29.477c-5.704 3.027-9.744 1.47-11.673.238a2.177 2.177 0 0 1 .185-3.755l8.525-4.527a4.654 4.654 0 0 1 3.564-.312l5.043 1.636a6.558 6.558 0 0 0 4.54-.163l2.197-.9a.946.946 0 0 1 .718 1.751l-2.195.899a8.434 8.434 0 0 1-5.848.211l-5.038-1.635a2.745 2.745 0 0 0-2.099.19l-8.526 4.527a.285.285 0 0 0-.163.25.26.26 0 0 0 .12.24c1.987 1.27 5.398 2.2 10.28-.604a.946.946 0 0 1 1.069.087l15.38 12.534a3.771 3.771 0 0 1 1.257 1.892 3.862 3.862 0 0 1-2.003 4.541 3.814 3.814 0 0 1-1.685.389Z" fill="#99BE9D"/><path d="M48.661 51.35a3.856 3.856 0 0 1-2.237-.712l-10.226-7.255a.946.946 0 0 1 1.095-1.543l10.226 7.255a1.987 1.987 0 0 0 2.308-3.23L39.635 38.52a.946.946 0 0 1 1.103-1.534l10.194 7.347a3.88 3.88 0 0 1-2.27 7.02v-.002Z" fill="#99BE9D"/><path d="M44.246 55.141a3.728 3.728 0 0 1-2.129-.669l-9.163-6.347a.946.946 0 1 1 1.077-1.556l9.164 6.347a1.865 1.865 0 0 0 2.591-.473 1.87 1.87 0 0 0-.454-2.578l-9.118-6.468a.945.945 0 1 1 1.094-1.543l9.119 6.469a3.768 3.768 0 0 1 .916 5.196 3.728 3.728 0 0 1-3.097 1.622Z" fill="#99BE9D"/><path d="M38.842 58.251a3.785 3.785 0 0 1-1.884-.512l-5.086-2.933a.946.946 0 0 1 .946-1.638l5.085 2.932a1.892 1.892 0 0 0 2.554-.677 1.854 1.854 0 0 0-.555-2.48l-6.499-4.501a.945.945 0 1 1 1.078-1.555l6.497 4.5a3.767 3.767 0 0 1-2.137 6.864Z" fill="#99BE9D"/><path d="M28.131 57.687a3.803 3.803 0 0 1-2.512-6.662l2.527-2.214a3.804 3.804 0 1 1 5.019 5.718l-2.527 2.218a3.79 3.79 0 0 1-2.507.94Zm2.523-7.93a1.904 1.904 0 0 0-1.26.473l-2.528 2.216a1.914 1.914 0 0 0 1.137 3.347 1.912 1.912 0 0 0 1.386-.471l2.526-2.218a1.913 1.913 0 0 0-1.26-3.347Z" fill="#99BE9D"/><path d="M22.404 55.11c-.084 0-.168 0-.252-.007a3.785 3.785 0 0 1-2.613-1.287 3.817 3.817 0 0 1 .326-5.4l4.221-3.705a3.805 3.805 0 0 1 5.37.349l-.685.655.71-.624a3.804 3.804 0 0 1-.348 5.369l-4.225 3.705a3.773 3.773 0 0 1-2.504.945Zm4.186-9.454a1.899 1.899 0 0 0-1.259.473l-4.22 3.706a1.94 1.94 0 0 0 1.164 3.377 1.892 1.892 0 0 0 1.385-.473l4.221-3.706a1.913 1.913 0 0 0 .176-2.7l-.027-.03a1.897 1.897 0 0 0-1.44-.646Z" fill="#99BE9D"/><path d="M17.632 51.637c-.083 0-.167 0-.253-.008a3.784 3.784 0 0 1-2.612-1.286l-.103-.123a3.805 3.805 0 0 1 .35-5.367l4.894-4.296a3.804 3.804 0 0 1 5.37.349l.106.122a3.804 3.804 0 0 1-.35 5.367l-4.894 4.296a3.776 3.776 0 0 1-2.508.946Zm4.78-10.133a1.9 1.9 0 0 0-1.26.473l-4.893 4.295a1.914 1.914 0 0 0-.176 2.702l.107.122a1.913 1.913 0 0 0 2.698.174l4.894-4.296a1.914 1.914 0 0 0 .176-2.7l-.105-.12a1.898 1.898 0 0 0-1.441-.65Z" fill="#99BE9D"/><path d="M13.52 47.427c-.084 0-.17 0-.253-.008a3.829 3.829 0 0 1-2.293-6.693l3.063-2.69a3.804 3.804 0 0 1 5.37.35l.033.038a3.804 3.804 0 0 1-.35 5.369l-3.063 2.69a3.775 3.775 0 0 1-2.508.944Zm3.026-8.444a1.9 1.9 0 0 0-1.259.473l-3.064 2.69a1.912 1.912 0 0 0-.176 2.699 1.925 1.925 0 0 0 2.732.214l3.064-2.69a1.911 1.911 0 0 0 .176-2.7l-.033-.037a1.898 1.898 0 0 0-1.313-.646l-.132-.003h.005Z" fill="#99BE9D"/><path d="M11.804 42.2a.94.94 0 0 1-.567-.189l-3.233-2.46a.945.945 0 1 1 1.146-1.505l3.232 2.46a.945.945 0 0 1-.573 1.702l-.005-.007ZM55.356 43.249a.947.947 0 0 1-.668-1.615l5.307-5.31a.945.945 0 0 1 1.338 1.338l-5.308 5.307a.947.947 0 0 1-.669.28Z" fill="#99BE9D"/><path d="M62.592 41.285a.944.944 0 0 1-.806-.45L50.236 22.05a.946.946 0 0 1 .227-1.243l11.439-8.86a.946.946 0 0 1 1.501.536l5.626 24.545a.947.947 0 0 1-.46 1.04l-5.515 3.1a.94.94 0 0 1-.462.118Zm-10.3-19.505 10.629 17.287 4.106-2.308-5.136-22.411-9.599 7.432ZM7.407 41.621a.946.946 0 0 1-.463-.12l-5.516-3.096a.946.946 0 0 1-.458-1.04l5.626-24.542a.946.946 0 0 1 1.501-.536l11.44 8.858a.946.946 0 0 1 .228 1.244L8.214 41.175a.946.946 0 0 1-.807.446Zm-4.435-4.52L7.08 39.41 17.707 22.12 8.11 14.689 2.972 37.102Z" fill="#99BE9D"/></symbol><symbol id="scrollbar__heart" viewBox="0 0 64 57"><path fill-rule="evenodd" clip-rule="evenodd" d="M1.28 13.9c-1.378 5.7-.098 11.4 3.742 16.9 1.575 2.2 2.756 3.7 5.809 6.7 3.249 3.3 5.021 4.9 14.375 12.9 2.068 1.8 6.006 5.2 6.499 5.4.492.1.59.1 6.793-5.3l.099-.1c3.348-2.9 7.384-6.4 8.861-7.7 3.053-2.7 8.074-7.7 9.453-9.4 2.757-3.5 4.43-6.5 5.317-9.5 1.969-6.8 0-14.4-4.825-18.8C52.677.6 45.883-.5 40.37 2.2 37.711 3.5 35.052 6 33.28 9c-.985 1.6-1.083 1.7-1.477 1.7-.492 0-.492-.1-1.477-1.7-2.265-3.7-5.514-6.4-9.058-7.6-1.379-.4-2.954-.6-4.431-.6-.886 0-1.772.1-2.659.2C7.778 2.1 2.855 7.1 1.28 13.9ZM19.988 3.4c4.43 1.2 8.172 5 10.437 10.8.295.7.492 1.2.59 1.2.197.2.493.3.788.3.295 0 .69-.1.886-.3 0 0 .296-.5.492-1.2 1.871-4.9 4.628-8.2 8.173-10 1.87-1 2.954-1.2 5.415-1.2 1.674 0 2.265 0 3.25.3 2.264.6 5.12 2.2 6.498 3.9 3.052 3.5 4.53 8.2 4.037 12.9-.69 6.4-4.53 11.8-14.573 20.8-.196.2-13.489 11.9-14.178 11.9-.69 0-13.982-11.8-14.08-11.9C7.582 32 3.742 26.5 3.053 20.1c-.591-5.5 1.772-11.3 5.71-14.3 1.674-1.3 3.446-2.1 5.415-2.5 1.576-.4 4.234-.3 5.81.1Z" fill="#F69691"/></symbol><symbol id="shapes" viewBox="0 0 33 33"><path d="M12.807 19.613H1.289a.578.578 0 0 0-.58.58v11.518c0 .322.258.58.58.58h11.518c.322 0 .58-.258.58-.58V20.193a.578.578 0 0 0-.58-.58Zm-.58 11.518H1.869V20.773h10.358v10.358Z" fill="#E1988C"/><path d="M29.378 31.679a.58.58 0 0 0 .818 0 .58.58 0 0 0 .168-.413.58.58 0 0 0-.168-.412L19.123 19.78a.58.58 0 0 0-.412-.168.58.58 0 0 0-.413.168.58.58 0 0 0-.167.412.58.58 0 0 0 .167.413l11.08 11.073Z" fill="#2A2623"/><path d="M18.22 14.592c.11.174.29.277.497.277h12.994a.586.586 0 0 0 .522-.844L25.73 1.031a.572.572 0 0 0-.522-.322.58.58 0 0 0-.522.322l-6.49 12.994a.592.592 0 0 0 .025.567Zm6.994-12.007 5.562 11.118H19.652l5.562-11.118Z" fill="#E1988C"/><path d="M7.786.709C3.886.709.709 3.887.709 7.786c0 3.9 3.178 7.077 7.077 7.077 3.9 0 7.077-3.178 7.077-7.077 0-3.9-3.171-7.077-7.077-7.077Zm0 12.994a5.925 5.925 0 0 1-5.917-5.917 5.925 5.925 0 0 1 5.917-5.917 5.925 5.925 0 0 1 5.917 5.917 5.925 5.925 0 0 1-5.917 5.917Z" fill="#2A2623"/></symbol><symbol id="up_arrow" viewBox="0 0 44 44"><path fill-rule="evenodd" clip-rule="evenodd" d="M22 41.25a1.375 1.375 0 0 0 1.375-1.375V7.445l8.652 8.653a1.376 1.376 0 1 0 1.947-1.947l-11-11a1.374 1.374 0 0 0-1.947 0l-11 11a1.377 1.377 0 0 0 1.947 1.947l8.651-8.654v32.43A1.375 1.375 0 0 0 22 41.25Z"/></symbol><symbol id="user_avatar"><path d="M11.8 11.3c-.3.8-.4 1.7-.3 2.6.2.9.6 1.7 1.2 2.3.6.6 1.4 1.1 2.3 1.2.9.2 1.8.1 2.6-.3.8-.3 1.5-.9 2-1.7.5-.7.8-1.6.8-2.5 0-1.2-.5-2.3-1.3-3.2-.8-.8-2-1.3-3.2-1.3-.9 0-1.8.3-2.5.8-.6.6-1.2 1.3-1.6 2.1Zm1.7-.8c.5-.5 1.1-.8 1.8-1 .7-.1 1.4-.1 2 .2.6.3 1.2.7 1.6 1.3.4.6.6 1.2.6 1.9 0 .9-.4 1.8-1 2.5-.7.7-1.5 1-2.5 1-.7 0-1.4-.2-1.9-.6-.6-.4-1-.9-1.3-1.6-.3-.6-.3-1.3-.2-2 .1-.6.4-1.2.9-1.7Z"/><path d="M3.5 10.8c-1 2.5-1.3 5.2-.8 7.8.5 2.6 1.8 5 3.7 6.9 1.9 1.9 4.3 3.2 6.9 3.7 2.6.5 5.3.3 7.8-.8 2.5-1 4.6-2.7 6.1-5 1.5-2.2 2.3-4.8 2.3-7.5 0-3.6-1.4-7-4-9.5-2.5-2.5-5.9-4-9.5-4-2.7 0-5.3.8-7.5 2.3-2.2 1.6-3.9 3.7-5 6.1Zm19 15.9-.2.1c-1.9 1.1-4.1 1.7-6.3 1.7s-4.4-.6-6.3-1.7l-.2-.1V25c0-.9.4-3.8 1-4.5.7-.7 1.5-1 2.5-1h6c.9 0 1.8.4 2.5 1s1 3.5 1 4.5v1.7ZM8.9 5.7C11 4.2 13.5 3.5 16 3.5s5 .8 7.1 2.2c2.1 1.4 3.7 3.5 4.6 5.8.9 2.4 1.1 4.9.5 7.4-.6 2.5-1.9 4.7-3.8 6.4l-.9.7v-1.1c0-1.2-.5-4.3-1.3-5.1-.8-.8-2-1.3-3.2-1.3h-6c-1.2 0-2.3.5-3.2 1.3-.8.8-1.3 3.9-1.3 5.1V26l-.8-.7c-1.9-1.7-3.2-3.9-3.8-6.4-.6-2.5-.4-5 .5-7.4.8-2.4 2.4-4.4 4.5-5.8Z"/></symbol><symbol id="yin-yang"><path d="M37.9 7.1C33.8 3 28.3.8 22.5.8 16.7.8 11.2 3 7.1 7.1S.8 16.7.8 22.5c0 5.8 2.2 11.3 6.3 15.4s9.6 6.4 15.4 6.4c5.8 0 11.3-2.3 15.4-6.4 4.1-4.1 6.4-9.6 6.4-15.4-.1-5.8-2.3-11.3-6.4-15.4Zm-15.4 36c-11.4 0-20.6-9.2-20.6-20.6 0-7.3 4-14.2 10.4-17.9L15 3l-1.8 2.7c-1.2 1.8-1.9 4-1.9 6.2 0 6.2 5 11.2 11.2 11.2 5.5 0 10 4.5 10 10s-4.5 10-10 10Zm10.3-2.7L30 42l1.8-2.7c1.2-1.8 1.9-4 1.9-6.2 0-6.2-5-11.2-11.2-11.2-5.5 0-10-4.5-10-10s4.5-10 10-10c11.4 0 20.6 9.2 20.6 20.6 0 7.3-4 14.2-10.3 17.9Z" fill="#2A2623"/><path d="M22.5 13.8a1.9 1.9 0 1 0 0-3.8 1.9 1.9 0 0 0 0 3.8ZM22.5 35a1.9 1.9 0 1 0 0-3.8 1.9 1.9 0 0 0 0 3.8Z" fill="#2A2623"/></symbol></svg>