<svg width="174" height="67" viewBox="0 0 174 67" fill="none" xmlns="http://www.w3.org/2000/svg">
<path d="M29.376 25.8V37H27.776V32.008H21.344V37H19.744V25.8H21.344V30.616H27.776V25.8H29.376ZM40.181 28.52L36.069 37.848C35.7063 38.712 35.2797 39.32 34.789 39.672C34.309 40.024 33.7277 40.2 33.045 40.2C32.629 40.2 32.2237 40.1307 31.829 39.992C31.445 39.864 31.125 39.672 30.869 39.416L31.525 38.264C31.9623 38.68 32.469 38.888 33.045 38.888C33.4183 38.888 33.7277 38.7867 33.973 38.584C34.229 38.392 34.4583 38.056 34.661 37.576L34.933 36.984L31.189 28.52H32.789L35.749 35.304L38.677 28.52H40.181ZM51.5296 28.52V37H50.1376V30.808L46.9696 36.04H46.2976L43.1616 30.792V37H41.7536V28.52H43.3376L46.6656 34.248L50.0896 28.52H51.5296ZM62.1833 32.808C62.1833 32.9253 62.1726 33.08 62.1513 33.272H55.2713C55.3673 34.0187 55.6926 34.6213 56.2473 35.08C56.8126 35.528 57.5113 35.752 58.3433 35.752C59.3566 35.752 60.1726 35.4107 60.7913 34.728L61.6393 35.72C61.2553 36.168 60.7753 36.5093 60.1993 36.744C59.6339 36.9787 58.9993 37.096 58.2953 37.096C57.3993 37.096 56.6046 36.9147 55.9113 36.552C55.2179 36.1787 54.6793 35.6613 54.2953 35C53.9219 34.3387 53.7353 33.592 53.7353 32.76C53.7353 31.9387 53.9166 31.1973 54.2793 30.536C54.6526 29.8747 55.1593 29.3627 55.7993 29C56.4499 28.6267 57.1806 28.44 57.9913 28.44C58.8019 28.44 59.5219 28.6267 60.1513 29C60.7913 29.3627 61.2873 29.8747 61.6393 30.536C62.0019 31.1973 62.1833 31.9547 62.1833 32.808ZM57.9913 29.736C57.2553 29.736 56.6366 29.96 56.1353 30.408C55.6446 30.856 55.3566 31.4427 55.2713 32.168H60.7113C60.6259 31.4533 60.3326 30.872 59.8313 30.424C59.3406 29.9653 58.7273 29.736 57.9913 29.736ZM69.0621 28.44C69.8835 28.44 70.6195 28.6213 71.2701 28.984C71.9208 29.3467 72.4275 29.8533 72.7901 30.504C73.1635 31.1547 73.3501 31.9067 73.3501 32.76C73.3501 33.6133 73.1635 34.3707 72.7901 35.032C72.4275 35.6827 71.9208 36.1893 71.2701 36.552C70.6195 36.9147 69.8835 37.096 69.0621 37.096C68.4541 37.096 67.8941 36.9787 67.3821 36.744C66.8808 36.5093 66.4541 36.168 66.1021 35.72V40.104H64.5661V28.52H66.0381V29.864C66.3795 29.3947 66.8115 29.0427 67.3341 28.808C67.8568 28.5627 68.4328 28.44 69.0621 28.44ZM68.9341 35.752C69.4781 35.752 69.9635 35.6293 70.3901 35.384C70.8275 35.128 71.1688 34.776 71.4141 34.328C71.6701 33.8693 71.7981 33.3467 71.7981 32.76C71.7981 32.1733 71.6701 31.656 71.4141 31.208C71.1688 30.7493 70.8275 30.3973 70.3901 30.152C69.9635 29.9067 69.4781 29.784 68.9341 29.784C68.4008 29.784 67.9155 29.912 67.4781 30.168C67.0515 30.4133 66.7101 30.76 66.4541 31.208C66.2088 31.656 66.0861 32.1733 66.0861 32.76C66.0861 33.3467 66.2088 33.8693 66.4541 34.328C66.6995 34.776 67.0408 35.128 67.4781 35.384C67.9155 35.6293 68.4008 35.752 68.9341 35.752ZM79.2138 37.096C78.3711 37.096 77.6138 36.9093 76.9418 36.536C76.2698 36.1627 75.7418 35.6507 75.3578 35C74.9844 34.3387 74.7978 33.592 74.7978 32.76C74.7978 31.928 74.9844 31.1867 75.3578 30.536C75.7418 29.8747 76.2698 29.3627 76.9418 29C77.6138 28.6267 78.3711 28.44 79.2138 28.44C80.0564 28.44 80.8084 28.6267 81.4698 29C82.1418 29.3627 82.6644 29.8747 83.0378 30.536C83.4218 31.1867 83.6138 31.928 83.6138 32.76C83.6138 33.592 83.4218 34.3387 83.0378 35C82.6644 35.6507 82.1418 36.1627 81.4698 36.536C80.8084 36.9093 80.0564 37.096 79.2138 37.096ZM79.2138 35.752C79.7578 35.752 80.2431 35.6293 80.6698 35.384C81.1071 35.128 81.4484 34.776 81.6938 34.328C81.9391 33.8693 82.0618 33.3467 82.0618 32.76C82.0618 32.1733 81.9391 31.656 81.6938 31.208C81.4484 30.7493 81.1071 30.3973 80.6698 30.152C80.2431 29.9067 79.7578 29.784 79.2138 29.784C78.6698 29.784 78.1791 29.9067 77.7418 30.152C77.3151 30.3973 76.9738 30.7493 76.7178 31.208C76.4724 31.656 76.3498 32.1733 76.3498 32.76C76.3498 33.3467 76.4724 33.8693 76.7178 34.328C76.9738 34.776 77.3151 35.128 77.7418 35.384C78.1791 35.6293 78.6698 35.752 79.2138 35.752ZM93.0493 28.52V37H91.5133V29.864H87.8653L87.7693 31.752C87.7159 32.8933 87.6146 33.848 87.4653 34.616C87.3159 35.3733 87.0706 35.9813 86.7293 36.44C86.3879 36.8987 85.9133 37.128 85.3053 37.128C85.0279 37.128 84.7133 37.08 84.3613 36.984L84.4573 35.688C84.5959 35.72 84.7239 35.736 84.8413 35.736C85.2679 35.736 85.5879 35.5493 85.8013 35.176C86.0146 34.8027 86.1533 34.36 86.2173 33.848C86.2813 33.336 86.3399 32.6053 86.3932 31.656L86.5373 28.52H93.0493ZM99.6513 37.096C98.8086 37.096 98.0513 36.9093 97.3793 36.536C96.7073 36.1627 96.1793 35.6507 95.7953 35C95.4219 34.3387 95.2353 33.592 95.2353 32.76C95.2353 31.928 95.4219 31.1867 95.7953 30.536C96.1793 29.8747 96.7073 29.3627 97.3793 29C98.0513 28.6267 98.8086 28.44 99.6513 28.44C100.494 28.44 101.246 28.6267 101.907 29C102.579 29.3627 103.102 29.8747 103.475 30.536C103.859 31.1867 104.051 31.928 104.051 32.76C104.051 33.592 103.859 34.3387 103.475 35C103.102 35.6507 102.579 36.1627 101.907 36.536C101.246 36.9093 100.494 37.096 99.6513 37.096ZM99.6513 35.752C100.195 35.752 100.681 35.6293 101.107 35.384C101.545 35.128 101.886 34.776 102.131 34.328C102.377 33.8693 102.499 33.3467 102.499 32.76C102.499 32.1733 102.377 31.656 102.131 31.208C101.886 30.7493 101.545 30.3973 101.107 30.152C100.681 29.9067 100.195 29.784 99.6513 29.784C99.1073 29.784 98.6166 29.9067 98.1793 30.152C97.7526 30.3973 97.4113 30.7493 97.1553 31.208C96.9099 31.656 96.7873 32.1733 96.7873 32.76C96.7873 33.3467 96.9099 33.8693 97.1553 34.328C97.4113 34.776 97.7526 35.128 98.1793 35.384C98.6166 35.6293 99.1073 35.752 99.6513 35.752ZM112.509 29.864H107.805V37H106.269V28.52H112.509V29.864ZM114.082 28.52H115.618V34.696L120.818 28.52H122.21V37H120.674V30.824L115.49 37H114.082V28.52ZM131.991 28.52V37H130.615V34.312H128.151H127.975L126.119 37H124.471L126.535 34.104C125.895 33.912 125.404 33.5973 125.063 33.16C124.722 32.712 124.551 32.1573 124.551 31.496C124.551 30.5253 124.882 29.7893 125.543 29.288C126.204 28.776 127.116 28.52 128.279 28.52H131.991ZM126.119 31.544C126.119 32.1093 126.295 32.5307 126.647 32.808C127.01 33.0747 127.548 33.208 128.263 33.208H130.615V29.864H128.327C126.855 29.864 126.119 30.424 126.119 31.544ZM135.324 37.096C135.025 37.096 134.769 36.9947 134.556 36.792C134.343 36.5787 134.236 36.312 134.236 35.992C134.236 35.6827 134.343 35.4267 134.556 35.224C134.769 35.0107 135.025 34.904 135.324 34.904C135.623 34.904 135.873 35.0053 136.076 35.208C136.279 35.4107 136.38 35.672 136.38 35.992C136.38 36.312 136.273 36.5787 136.06 36.792C135.857 36.9947 135.612 37.096 135.324 37.096ZM143.173 25.8C144.624 25.8 145.765 26.1467 146.597 26.84C147.429 27.5333 147.845 28.488 147.845 29.704C147.845 30.92 147.429 31.8747 146.597 32.568C145.765 33.2613 144.624 33.608 143.173 33.608H140.405V37H138.805V25.8H143.173ZM143.125 32.216C144.138 32.216 144.912 32.0027 145.445 31.576C145.978 31.1387 146.245 30.5147 146.245 29.704C146.245 28.8933 145.978 28.2747 145.445 27.848C144.912 27.4107 144.138 27.192 143.125 27.192H140.405V32.216H143.125ZM157.684 37L155.268 33.56C154.969 33.5813 154.734 33.592 154.564 33.592H151.796V37H150.196V25.8H154.564C156.014 25.8 157.156 26.1467 157.988 26.84C158.82 27.5333 159.236 28.488 159.236 29.704C159.236 30.568 159.022 31.304 158.596 31.912C158.169 32.52 157.561 32.9627 156.772 33.24L159.428 37H157.684ZM154.516 32.232C155.529 32.232 156.302 32.0133 156.836 31.576C157.369 31.1387 157.636 30.5147 157.636 29.704C157.636 28.8933 157.369 28.2747 156.836 27.848C156.302 27.4107 155.529 27.192 154.516 27.192H151.796V32.232H154.516ZM166.877 37.128C165.746 37.128 164.727 36.8827 163.821 36.392C162.914 35.8907 162.199 35.2027 161.677 34.328C161.165 33.4533 160.909 32.4773 160.909 31.4C160.909 30.3227 161.165 29.3467 161.677 28.472C162.199 27.5973 162.914 26.9147 163.821 26.424C164.727 25.9227 165.746 25.672 166.877 25.672C167.997 25.672 169.01 25.9227 169.917 26.424C170.823 26.9147 171.533 27.5973 172.045 28.472C172.557 29.336 172.813 30.312 172.813 31.4C172.813 32.488 172.557 33.4693 172.045 34.344C171.533 35.208 170.823 35.8907 169.917 36.392C169.01 36.8827 167.997 37.128 166.877 37.128ZM166.877 35.704C167.698 35.704 168.434 35.5173 169.085 35.144C169.746 34.7707 170.263 34.2587 170.637 33.608C171.021 32.9467 171.213 32.2107 171.213 31.4C171.213 30.5893 171.021 29.8587 170.637 29.208C170.263 28.5467 169.746 28.0293 169.085 27.656C168.434 27.2827 167.698 27.096 166.877 27.096C166.055 27.096 165.309 27.2827 164.637 27.656C163.975 28.0293 163.453 28.5467 163.069 29.208C162.695 29.8587 162.509 30.5893 162.509 31.4C162.509 32.2107 162.695 32.9467 163.069 33.608C163.453 34.2587 163.975 34.7707 164.637 35.144C165.309 35.5173 166.055 35.704 166.877 35.704Z" fill="#2A2623"/>
<path d="M53.5294 7.90559C48.5937 4.04307 42.6464 1.69006 36.4041 1.13003C30.1618 0.569996 23.8907 1.82683 18.3463 4.74913C12.8018 7.67142 8.22066 12.1345 5.1546 17.6007C2.08853 23.0669 0.668381 29.3031 1.06523 35.5579C1.46208 41.8127 3.65901 47.8194 7.39134 52.8543C11.1237 57.8891 16.2322 61.7374 22.1015 63.9356C27.9708 66.1337 34.3504 66.5879 40.4719 65.2434C46.5934 63.8989 52.1956 60.8131 56.6035 56.3578" stroke="black"/>
</svg>
