<svg width="191" height="227" viewBox="0 0 191 227" fill="none" xmlns="http://www.w3.org/2000/svg">
<g clip-path="url(#clip0_209_1590)">
<path d="M36.3181 182.503C40.0668 174.094 44.4041 166.063 49.5522 158.436C50.0935 157.595 51.3547 158.407 50.8975 159.302C47.0958 166.131 43.6004 173.038 40.3573 180.108C97.2703 150.265 135.323 92.8191 144.045 29.5741C144.118 28.9072 145.145 28.9739 145.073 29.6408C139.828 93.579 98.5788 152.297 42.3028 182.074C49.194 182.824 56.5655 184.12 62.6862 186.99C63.9716 187.58 63.4177 189.364 61.9998 189.165C53.7633 187.549 46.014 185.177 37.5126 184.342C36.6776 184.162 35.9151 183.314 36.3181 182.503Z" fill="#2A2623"/>
</g>
<defs>
<clipPath id="clip0_209_1590">
<rect width="89.3" height="212.3" fill="white" transform="matrix(-0.84083 -0.541299 -0.541299 0.84083 190.004 48.3379)"/>
</clipPath>
</defs>
</svg>
