<svg width="" height="" viewBox="0 0 28 28" fill="none" xmlns="http://www.w3.org/2000/svg">
<path fill-rule="evenodd" clip-rule="evenodd" d="M13.1241 0.0147347C10.4664 0.244791 8.30188 0.98256 6.23281 2.36345C3.4511 4.22 1.39013 7.06985 0.512918 10.2727C0.0852241 11.8341 -0.132998 13.9586 0.0866461 14.4222C0.348841 14.9756 1.23601 15.0421 1.59626 14.5353C1.69991 14.3896 1.72151 14.2609 1.75854 13.5698C1.88433 11.2202 2.53829 9.15641 3.73736 7.32527C5.68715 4.34763 8.73072 2.40743 12.3037 1.8645C13.1544 1.73523 14.8379 1.73391 15.6695 1.86187C17.0683 2.07708 18.1462 2.4134 19.3863 3.02168C20.6754 3.65401 21.8986 4.53967 22.811 5.50152L23.2133 5.92554L20.9716 5.95293C18.7328 5.98026 18.7298 5.98048 18.5514 6.10789C18.0145 6.49142 18.0733 7.32363 18.6589 7.62878C18.7807 7.69221 19.3474 7.70568 21.8858 7.70541C23.8657 7.70525 25.0387 7.6846 25.1715 7.64768C25.4699 7.56469 25.7316 7.31234 25.8066 7.03551C25.8533 6.86286 25.8587 5.98503 25.8276 3.67C25.7865 0.626301 25.7822 0.533786 25.6726 0.386878C25.4602 0.102101 25.2827 0.00980495 24.9473 0.00980495C24.5662 0.00980495 24.3173 0.165312 24.1667 0.49736C24.0742 0.701343 24.0648 0.884403 24.0637 2.49808L24.0625 4.27434L23.6113 3.83581C21.6288 1.90903 18.8678 0.569225 15.9991 0.141868C15.3178 0.0403696 13.6698 -0.0325364 13.1241 0.0147347ZM26.6997 13.2165C26.349 13.3956 26.2872 13.5562 26.2397 14.4126C26.1866 15.3668 26.1188 15.8841 25.9432 16.6773C25.0142 20.8718 21.9128 24.2974 17.8306 25.6379C13.4375 27.0805 8.64168 25.9432 5.38584 22.6868L4.78346 22.0843L7.02585 22.0569C9.26556 22.0295 9.26846 22.0293 9.44681 21.9019C9.94538 21.5458 9.92493 20.7767 9.40759 20.4275L9.2247 20.3041L6.129 20.3044C4.13755 20.3046 2.95964 20.3252 2.82673 20.3621C2.54272 20.4411 2.25328 20.7095 2.18727 20.9551C2.15178 21.087 2.14674 22.2604 2.17283 24.3148C2.21183 27.3855 2.21598 27.4759 2.3257 27.6229C2.53807 27.9077 2.7156 28 3.05097 28C3.43201 28 3.68092 27.8445 3.83154 27.5124C3.92403 27.3085 3.93343 27.1255 3.93453 25.5136L3.93573 23.7393L4.41429 24.2001C6.46235 26.172 9.23034 27.4879 12.1943 27.8984C13.1259 28.0274 14.932 28.0267 15.8313 27.8969C19.9326 27.3048 23.4 25.1311 25.6507 21.741C26.9629 19.7644 27.7228 17.592 27.9448 15.1826C28.0621 13.9087 28.0045 13.5298 27.6554 13.2808C27.4328 13.1221 26.9484 13.0895 26.6997 13.2165Z" fill=""/>
</svg>
