<svg width="191" height="227" viewBox="0 0 191 227" fill="none" xmlns="http://www.w3.org/2000/svg">
<g clip-path="url(#clip0_209_1587)">
<path d="M153.686 182.503C149.937 174.094 145.6 166.063 140.452 158.436C139.91 157.595 138.649 158.407 139.106 159.302C142.908 166.131 146.403 173.038 149.647 180.108C92.7336 150.265 54.6813 92.8191 45.9584 29.5741C45.8859 28.9072 44.8585 28.9739 44.931 29.6408C50.1755 93.579 91.4251 152.297 147.701 182.074C140.81 182.824 133.438 184.12 127.318 186.99C126.032 187.58 126.586 189.364 128.004 189.165C136.241 187.549 143.99 185.177 152.491 184.342C153.326 184.162 154.089 183.314 153.686 182.503Z" fill="#2A2623"/>
</g>
<defs>
<clipPath id="clip0_209_1587">
<rect width="89.3" height="212.3" fill="white" transform="translate(0 48.3379) rotate(-32.7721)"/>
</clipPath>
</defs>
</svg>
