<svg width="62" height="43" viewBox="0 0 62 43" fill="none" xmlns="http://www.w3.org/2000/svg">
<mask id="path-1-inside-1_140_8086" fill="white">
<path fill-rule="evenodd" clip-rule="evenodd" d="M29.0616 0.222641C24.5171 1.34548 11.4824 5.3639 11.0451 5.77678C10.8929 5.92058 10.7682 6.17169 10.7682 6.33471C10.7682 6.66441 11.2551 7.19271 11.5591 7.19271C11.6669 7.19271 13.6183 6.60343 15.8956 5.88317C20.2864 4.49435 24.1372 3.35046 27.91 2.31422C31.3471 1.37019 30.822 1.29697 40.0008 4.00105C45.268 5.55278 51.4637 7.58579 56.32 9.3559C59.7892 10.6204 60.0483 10.7843 60.1562 11.7843C60.2222 12.397 59.933 12.9787 59.393 13.3192C58.8037 13.6906 52.85 15.8328 48.1443 17.3666L46.3289 17.9582L45.8948 17.7278C45.0145 17.2606 31.4136 11.1821 31.1192 11.1243C30.7721 11.0561 30.218 11.4038 30.1222 11.7497C30.0893 11.8681 30.1297 12.114 30.2118 12.2959C30.3441 12.5889 31.1329 12.9729 37.1015 15.65C40.8087 17.3128 43.8417 18.687 43.8417 18.7037C43.8417 18.7874 37.467 20.6756 33.8717 21.6569C31.2438 22.3741 30.7664 22.3696 27.9611 21.6012C18.4531 18.9969 3.54557 14.0843 2.40847 13.1808C1.71732 12.6315 1.63579 11.5382 2.23584 10.8647C2.53483 10.5292 4.12297 9.87871 7.43662 8.73459C9.05759 8.17495 9.5131 7.67479 9.01434 7.00246C8.60849 6.45517 8.51593 6.47496 4.34733 8.003C1.8438 8.92072 1.71599 8.98284 1.05476 9.60221C0.22877 10.3761 -0.0834301 11.1681 0.0186981 12.2311C0.158261 13.6841 0.937125 14.588 2.62472 15.2553C3.82119 15.7283 8.57045 17.4212 10.9755 18.2319L12.5761 18.7714L12.611 23.8787L12.646 28.986L12.9796 29.5219C13.1631 29.8166 13.4632 30.1586 13.6463 30.2818C14.8281 31.0764 24.9225 34.4769 29.8438 35.7383C30.9495 36.0217 31.1059 36.0358 31.7216 35.9074C33.423 35.5527 39.5486 33.6893 42.8597 32.5193C43.8187 32.1805 44.6229 31.9032 44.6466 31.9032C44.6704 31.9032 44.6898 32.4906 44.6898 33.2086V34.514L44.1473 34.7619C43.4104 35.0987 42.5859 35.9882 42.3752 36.6733C42.2521 37.0736 42.2062 37.9479 42.2062 39.8927C42.2062 42.5606 42.2065 42.5628 42.4923 42.7813C42.7556 42.9827 43.0024 43 45.6118 43C48.3118 43 48.4571 42.9889 48.6951 42.7642C48.9364 42.5363 48.9435 42.4295 48.9071 39.5896L48.8694 36.6508L48.5408 36.1231C48.1409 35.4807 47.5192 34.9484 46.936 34.7493L46.5009 34.6007L46.5343 32.8903L46.5676 31.1799L47.4156 30.8417C48.5404 30.393 48.865 30.161 49.2607 29.5234C49.5499 29.0575 49.598 28.8425 49.6365 27.8436C49.6767 26.8052 49.6563 26.6686 49.4177 26.3834C49.0773 25.9761 48.4811 25.9536 48.103 26.3335C47.8801 26.5577 47.8396 26.7324 47.8396 27.4721C47.8396 27.9528 47.7798 28.47 47.7067 28.6215C47.5867 28.8703 46.9181 29.272 46.624 29.272C46.5506 29.272 46.507 27.488 46.507 24.4852V19.6986L47.0042 19.5579C47.2776 19.4806 47.5775 19.3896 47.6705 19.356C47.8117 19.3048 47.8396 19.6615 47.8396 21.5123C47.8396 23.9171 47.8931 24.1401 48.5041 24.2849C48.857 24.3685 49.4681 24.1122 49.5816 23.8328C49.6229 23.731 49.6569 22.532 49.6569 21.1684V18.6891L50.4746 18.4222C51.9323 17.9464 58.2888 15.6846 59.3753 15.2552C61.0629 14.588 61.8417 13.6841 61.9813 12.2311C62.0834 11.168 61.7712 10.3761 60.9452 9.60255C60.3017 8.99989 60.1207 8.90803 58.1373 8.17655C51.7005 5.80286 44.6145 3.50387 37.2872 1.41195C35.3951 0.871749 33.4109 0.330177 32.8778 0.208455C31.6397 -0.0743421 30.2423 -0.0691941 29.0616 0.222641ZM16.9393 20.1692C19.8792 21.0819 22.8231 21.9556 26.5175 23.0118L29.3645 23.8257L31 23.8261L32.6355 23.8263L35.3613 23.0502C36.8606 22.6232 39.4774 21.86 41.1765 21.3539C42.8756 20.8478 44.3612 20.4086 44.4778 20.3779C44.6773 20.3253 44.6898 20.6087 44.6898 25.1858V30.0495L42.2365 30.9062C39.4958 31.863 35.9052 32.9856 33.0232 33.7868L31.1092 34.3188L28.4349 33.5612C24.3197 32.3952 19.6355 30.8437 16.2061 29.5106C15.0231 29.0507 14.6469 28.8522 14.5403 28.6313C14.3885 28.3166 14.336 19.4335 14.486 19.4335C14.5319 19.4335 15.6358 19.7646 16.9393 20.1692ZM46.2053 36.3007C47.0077 36.6173 47.1118 36.9561 47.1123 39.2534L47.1127 41.284H45.528H43.9433L43.9834 39.2328C44.0282 36.9415 44.0934 36.7444 44.9407 36.3364C45.4456 36.0932 45.6639 36.0871 46.2053 36.3007Z"/>
</mask>
<path fill-rule="evenodd" clip-rule="evenodd" d="M29.0616 0.222641C24.5171 1.34548 11.4824 5.3639 11.0451 5.77678C10.8929 5.92058 10.7682 6.17169 10.7682 6.33471C10.7682 6.66441 11.2551 7.19271 11.5591 7.19271C11.6669 7.19271 13.6183 6.60343 15.8956 5.88317C20.2864 4.49435 24.1372 3.35046 27.91 2.31422C31.3471 1.37019 30.822 1.29697 40.0008 4.00105C45.268 5.55278 51.4637 7.58579 56.32 9.3559C59.7892 10.6204 60.0483 10.7843 60.1562 11.7843C60.2222 12.397 59.933 12.9787 59.393 13.3192C58.8037 13.6906 52.85 15.8328 48.1443 17.3666L46.3289 17.9582L45.8948 17.7278C45.0145 17.2606 31.4136 11.1821 31.1192 11.1243C30.7721 11.0561 30.218 11.4038 30.1222 11.7497C30.0893 11.8681 30.1297 12.114 30.2118 12.2959C30.3441 12.5889 31.1329 12.9729 37.1015 15.65C40.8087 17.3128 43.8417 18.687 43.8417 18.7037C43.8417 18.7874 37.467 20.6756 33.8717 21.6569C31.2438 22.3741 30.7664 22.3696 27.9611 21.6012C18.4531 18.9969 3.54557 14.0843 2.40847 13.1808C1.71732 12.6315 1.63579 11.5382 2.23584 10.8647C2.53483 10.5292 4.12297 9.87871 7.43662 8.73459C9.05759 8.17495 9.5131 7.67479 9.01434 7.00246C8.60849 6.45517 8.51593 6.47496 4.34733 8.003C1.8438 8.92072 1.71599 8.98284 1.05476 9.60221C0.22877 10.3761 -0.0834301 11.1681 0.0186981 12.2311C0.158261 13.6841 0.937125 14.588 2.62472 15.2553C3.82119 15.7283 8.57045 17.4212 10.9755 18.2319L12.5761 18.7714L12.611 23.8787L12.646 28.986L12.9796 29.5219C13.1631 29.8166 13.4632 30.1586 13.6463 30.2818C14.8281 31.0764 24.9225 34.4769 29.8438 35.7383C30.9495 36.0217 31.1059 36.0358 31.7216 35.9074C33.423 35.5527 39.5486 33.6893 42.8597 32.5193C43.8187 32.1805 44.6229 31.9032 44.6466 31.9032C44.6704 31.9032 44.6898 32.4906 44.6898 33.2086V34.514L44.1473 34.7619C43.4104 35.0987 42.5859 35.9882 42.3752 36.6733C42.2521 37.0736 42.2062 37.9479 42.2062 39.8927C42.2062 42.5606 42.2065 42.5628 42.4923 42.7813C42.7556 42.9827 43.0024 43 45.6118 43C48.3118 43 48.4571 42.9889 48.6951 42.7642C48.9364 42.5363 48.9435 42.4295 48.9071 39.5896L48.8694 36.6508L48.5408 36.1231C48.1409 35.4807 47.5192 34.9484 46.936 34.7493L46.5009 34.6007L46.5343 32.8903L46.5676 31.1799L47.4156 30.8417C48.5404 30.393 48.865 30.161 49.2607 29.5234C49.5499 29.0575 49.598 28.8425 49.6365 27.8436C49.6767 26.8052 49.6563 26.6686 49.4177 26.3834C49.0773 25.9761 48.4811 25.9536 48.103 26.3335C47.8801 26.5577 47.8396 26.7324 47.8396 27.4721C47.8396 27.9528 47.7798 28.47 47.7067 28.6215C47.5867 28.8703 46.9181 29.272 46.624 29.272C46.5506 29.272 46.507 27.488 46.507 24.4852V19.6986L47.0042 19.5579C47.2776 19.4806 47.5775 19.3896 47.6705 19.356C47.8117 19.3048 47.8396 19.6615 47.8396 21.5123C47.8396 23.9171 47.8931 24.1401 48.5041 24.2849C48.857 24.3685 49.4681 24.1122 49.5816 23.8328C49.6229 23.731 49.6569 22.532 49.6569 21.1684V18.6891L50.4746 18.4222C51.9323 17.9464 58.2888 15.6846 59.3753 15.2552C61.0629 14.588 61.8417 13.6841 61.9813 12.2311C62.0834 11.168 61.7712 10.3761 60.9452 9.60255C60.3017 8.99989 60.1207 8.90803 58.1373 8.17655C51.7005 5.80286 44.6145 3.50387 37.2872 1.41195C35.3951 0.871749 33.4109 0.330177 32.8778 0.208455C31.6397 -0.0743421 30.2423 -0.0691941 29.0616 0.222641ZM16.9393 20.1692C19.8792 21.0819 22.8231 21.9556 26.5175 23.0118L29.3645 23.8257L31 23.8261L32.6355 23.8263L35.3613 23.0502C36.8606 22.6232 39.4774 21.86 41.1765 21.3539C42.8756 20.8478 44.3612 20.4086 44.4778 20.3779C44.6773 20.3253 44.6898 20.6087 44.6898 25.1858V30.0495L42.2365 30.9062C39.4958 31.863 35.9052 32.9856 33.0232 33.7868L31.1092 34.3188L28.4349 33.5612C24.3197 32.3952 19.6355 30.8437 16.2061 29.5106C15.0231 29.0507 14.6469 28.8522 14.5403 28.6313C14.3885 28.3166 14.336 19.4335 14.486 19.4335C14.5319 19.4335 15.6358 19.7646 16.9393 20.1692ZM46.2053 36.3007C47.0077 36.6173 47.1118 36.9561 47.1123 39.2534L47.1127 41.284H45.528H43.9433L43.9834 39.2328C44.0282 36.9415 44.0934 36.7444 44.9407 36.3364C45.4456 36.0932 45.6639 36.0871 46.2053 36.3007Z" fill="#2A2623" stroke="#FCFCFF" stroke-width="0.8" mask="url(#path-1-inside-1_140_8086)"/>
</svg>
