<svg width="45" height="45" viewBox="0 0 45 45" fill="none" xmlns="http://www.w3.org/2000/svg">
<path d="M43.2 30.7001L43.4 30.6C44.2 30.3001 44.7 29.4 44.7 28.5V10C44.7 8.80005 43.8 7.80005 42.7 7.80005H32.7V4.20005C32.7 2.00005 31.1 0.300049 29.2 0.300049H15.8C13.9 0.300049 12.3 2.10005 12.3 4.20005V7.80005H2.29999C1.19999 7.80005 0.299988 8.80005 0.299988 10V28.5C0.299988 29.5 0.799988 30.3001 1.59999 30.6L1.79999 30.7001V42.5C1.79999 43.7001 2.69999 44.7001 3.79999 44.7001H41.3C42.4 44.7001 43.3 43.7001 43.3 42.5V30.7001H43.2ZM13.2 4.20005C13.2 2.70005 14.3 1.40005 15.7 1.40005H29.2C30.6 1.40005 31.7 2.60005 31.7 4.20005V7.80005H29.7V4.20005C29.7 3.90005 29.5 3.60005 29.2 3.60005H15.8C15.5 3.60005 15.3 3.90005 15.3 4.20005V7.80005H13.3V4.20005H13.2ZM28.8 4.80005V7.80005H16.2V4.80005H28.8ZM42.2 42.5C42.2 43.1 41.8 43.6 41.2 43.6H3.79999C3.19999 43.6 2.79999 43.1 2.79999 42.5V30.9L19.8 33.5V35.8C19.8 37 20.7 38 21.8 38H23.3C24.4 38 25.3 37 25.3 35.8V33.5L42.3 30.9V42.5H42.2ZM20.8 35.8V30.8C20.8 30.2 21.2 29.7001 21.8 29.7001H23.3C23.9 29.7001 24.3 30.2 24.3 30.8V35.8C24.3 36.4 23.9 36.9001 23.3 36.9001H21.8C21.2 36.9001 20.8 36.4 20.8 35.8ZM42.7 29.7001L25.3 32.4001V30.9C25.3 29.7 24.4 28.7001 23.3 28.7001H21.8C20.7 28.7001 19.8 29.7 19.8 30.9V32.4001L2.09999 29.6C1.59999 29.5 1.19999 29.1 1.19999 28.5V10C1.19999 9.40005 1.59999 8.90005 2.19999 8.90005H42.7C43.3 8.90005 43.7 9.40005 43.7 10V28.5C43.7 29 43.3 29.5 42.8 29.6L42.7 29.7001Z" fill="#2A2623"/>
</svg>
