<svg width="" height="" viewBox="0 0 24 24" fill="none" xmlns="http://www.w3.org/2000/svg">
<path fill-rule="evenodd" clip-rule="evenodd" d="M1.90355 0.0712227C1.27561 0.223238 0.596438 0.756676 0.291703 1.33718C-0.0190311 1.92916 0.000234476 1.22589 0.000234476 11.9969C0.000234476 22.7679 -0.0190311 22.0646 0.291703 22.6566C0.48375 23.0224 0.973266 23.512 1.33913 23.704C1.93111 24.0147 1.22784 23.9955 11.9988 23.9955C22.7698 23.9955 22.0666 24.0147 22.6585 23.704C23.0244 23.512 23.5139 23.0224 23.706 22.6566C24.0167 22.0646 23.9974 22.7679 23.9974 11.9969C23.9974 1.22589 24.0167 1.92916 23.706 1.33718C23.5139 0.971316 23.0244 0.481801 22.6585 0.289754C22.0662 -0.0211679 22.7741 -0.00204295 11.9754 0.00147268C3.68124 0.00419143 2.13633 0.0148789 1.90355 0.0712227ZM11.4832 6.23125V11.4813H6.2332H0.983203V6.94422C0.983203 2.12894 0.984703 2.09327 1.2023 1.74175C1.41778 1.39361 1.78959 1.12652 2.19005 1.03216C2.28684 1.00933 4.41736 0.988566 6.92461 0.985941L11.4832 0.981254V6.23125ZM21.8561 1.05096C22.4253 1.19922 22.7964 1.57 22.9444 2.13832C23.0042 2.36791 23.0145 3.07047 23.0145 6.94422V11.4813H17.7645H12.5145V6.23125V0.981254H17.0515C20.9158 0.981254 21.6282 0.991613 21.8561 1.05096ZM5.7795 4.05686C5.52389 4.18296 5.4832 4.34247 5.4832 5.2188V5.99688H4.68853C3.82345 5.99688 3.69103 6.02571 3.58125 6.23805C3.4687 6.45569 3.49566 6.68842 3.65147 6.84424L3.78849 6.98125H4.63584H5.4832V7.75619C5.4832 8.31991 5.50134 8.57458 5.54981 8.6906C5.61872 8.85546 5.826 8.99688 5.99883 8.99688C6.17166 8.99688 6.37894 8.85546 6.44785 8.6906C6.49631 8.57458 6.51445 8.31991 6.51445 7.75619V6.98125H7.36181H8.20917L8.34619 6.84424C8.49727 6.69316 8.52741 6.47332 8.42719 6.25338C8.32495 6.02894 8.18583 5.99688 7.31367 5.99688H6.51445V5.2188C6.51445 4.33539 6.47391 4.18005 6.2108 4.05518C6.01856 3.96396 5.96747 3.96419 5.7795 4.05686ZM15.754 6.06231C15.4833 6.21232 15.4296 6.62233 15.6515 6.84424L15.7885 6.98125H17.9988H20.2092L20.3462 6.84424C20.5725 6.61797 20.5064 6.1803 20.2267 6.05289C20.0404 5.968 15.9084 5.97667 15.754 6.06231ZM11.4832 17.7636V23.0147L6.83086 23.0019L2.17852 22.9891L1.89727 22.8575C1.58217 22.7101 1.401 22.5569 1.23511 22.2977C0.98025 21.8993 0.983203 21.9604 0.983203 17.0495V12.5125H6.2332H11.4832V17.7636ZM23.0038 17.1648L22.991 21.8172L22.8594 22.0984C22.7121 22.4135 22.5589 22.5947 22.2996 22.7606C21.9013 23.0155 21.9624 23.0125 17.0515 23.0125H12.5145V17.7625V12.5125H17.7655H23.0167L23.0038 17.1648ZM4.33477 16.0242C4.14539 16.1061 4.00875 16.3055 4.00875 16.5C4.00875 16.6756 4.04283 16.7194 4.66331 17.341L5.31788 17.9969L4.66331 18.6527C4.03955 19.2777 4.00875 19.3173 4.00875 19.4966C4.00875 19.7635 4.23225 19.987 4.49911 19.987C4.67836 19.987 4.71802 19.9562 5.343 19.3324L5.99883 18.6778L6.65466 19.3324C7.27964 19.9562 7.3193 19.987 7.49855 19.987C7.64794 19.987 7.71774 19.9558 7.83778 19.8358C7.95778 19.7158 7.98891 19.646 7.98891 19.4966C7.98891 19.3173 7.95811 19.2777 7.33435 18.6527L6.67978 17.9969L7.33435 17.341C7.95811 16.7161 7.98891 16.6764 7.98891 16.4972C7.98891 16.2303 7.76541 16.0068 7.49855 16.0068C7.3193 16.0068 7.27964 16.0376 6.65466 16.6614L5.99883 17.3159L5.3543 16.673C4.69463 16.015 4.55761 15.9278 4.33477 16.0242ZM15.8559 16.0141C15.5784 16.0678 15.4183 16.5262 15.5909 16.7726C15.7534 17.0046 15.8325 17.0125 17.9988 17.0125C20.1652 17.0125 20.2443 17.0046 20.4068 16.7726C20.4488 16.7126 20.4832 16.5885 20.4832 16.4969C20.4832 16.4052 20.4488 16.2811 20.4068 16.2211C20.2435 15.988 20.1686 15.9808 17.9886 15.9876C16.8728 15.9911 15.913 16.003 15.8559 16.0141ZM15.8559 19.0141C15.5784 19.0678 15.4183 19.5262 15.5909 19.7726C15.7534 20.0046 15.8325 20.0125 17.9988 20.0125C20.1652 20.0125 20.2443 20.0046 20.4068 19.7726C20.4488 19.7126 20.4832 19.5885 20.4832 19.4969C20.4832 19.4052 20.4488 19.2811 20.4068 19.2211C20.2435 18.988 20.1686 18.9808 17.9886 18.9876C16.8728 18.9911 15.913 19.003 15.8559 19.0141Z" fill=""/>
</svg>
