<svg width="50" height="50" viewBox="0 0 50 50" fill="none" xmlns="http://www.w3.org/2000/svg">
<mask id="path-1-inside-1_140_8073" fill="white">
<path d="M44.5312 6.25H40.625V4.6875C40.625 3.8587 40.2958 3.06384 39.7097 2.47779C39.1237 1.89174 38.3288 1.5625 37.5 1.5625C36.6712 1.5625 35.8763 1.89174 35.2903 2.47779C34.7042 3.06384 34.375 3.8587 34.375 4.6875V6.25H28.125V4.6875C28.125 3.8587 27.7958 3.06384 27.2097 2.47779C26.6237 1.89174 25.8288 1.5625 25 1.5625C24.1712 1.5625 23.3763 1.89174 22.7903 2.47779C22.2042 3.06384 21.875 3.8587 21.875 4.6875V6.25H15.625V4.6875C15.625 3.8587 15.2958 3.06384 14.7097 2.47779C14.1237 1.89174 13.3288 1.5625 12.5 1.5625C11.6712 1.5625 10.8763 1.89174 10.2903 2.47779C9.70424 3.06384 9.375 3.8587 9.375 4.6875V6.25H5.46875C4.43275 6.25 3.43918 6.66155 2.70661 7.39411C1.97405 8.12668 1.5625 9.12025 1.5625 10.1562V41.4062C1.5625 42.4423 1.97405 43.4358 2.70661 44.1684C3.43918 44.901 4.43275 45.3125 5.46875 45.3125H27.3438C27.551 45.3125 27.7497 45.2302 27.8962 45.0837C28.0427 44.9372 28.125 44.7384 28.125 44.5312C28.125 44.3241 28.0427 44.1253 27.8962 43.9788C27.7497 43.8323 27.551 43.75 27.3438 43.75H5.46875C4.84772 43.7481 4.25265 43.5006 3.81352 43.0615C3.37438 42.6223 3.12685 42.0273 3.125 41.4062V17.1875H46.875V30.4688C46.875 30.676 46.9573 30.8747 47.1038 31.0212C47.2503 31.1677 47.4491 31.25 47.6562 31.25C47.8634 31.25 48.0622 31.1677 48.2087 31.0212C48.3552 30.8747 48.4375 30.676 48.4375 30.4688V10.1562C48.4375 9.12025 48.026 8.12668 47.2934 7.39411C46.5608 6.66155 45.5673 6.25 44.5312 6.25ZM35.9375 4.6875C35.9375 4.2731 36.1021 3.87567 36.3951 3.58265C36.6882 3.28962 37.0856 3.125 37.5 3.125C37.9144 3.125 38.3118 3.28962 38.6049 3.58265C38.8979 3.87567 39.0625 4.2731 39.0625 4.6875V9.375C39.0625 9.7894 38.8979 10.1868 38.6049 10.4799C38.3118 10.7729 37.9144 10.9375 37.5 10.9375C37.0856 10.9375 36.6882 10.7729 36.3951 10.4799C36.1021 10.1868 35.9375 9.7894 35.9375 9.375V4.6875ZM23.4375 4.6875C23.4375 4.2731 23.6021 3.87567 23.8951 3.58265C24.1882 3.28962 24.5856 3.125 25 3.125C25.4144 3.125 25.8118 3.28962 26.1049 3.58265C26.3979 3.87567 26.5625 4.2731 26.5625 4.6875V9.375C26.5625 9.7894 26.3979 10.1868 26.1049 10.4799C25.8118 10.7729 25.4144 10.9375 25 10.9375C24.5856 10.9375 24.1882 10.7729 23.8951 10.4799C23.6021 10.1868 23.4375 9.7894 23.4375 9.375V4.6875ZM10.9375 4.6875C10.9375 4.2731 11.1021 3.87567 11.3951 3.58265C11.6882 3.28962 12.0856 3.125 12.5 3.125C12.9144 3.125 13.3118 3.28962 13.6049 3.58265C13.8979 3.87567 14.0625 4.2731 14.0625 4.6875V9.375C14.0625 9.7894 13.8979 10.1868 13.6049 10.4799C13.3118 10.7729 12.9144 10.9375 12.5 10.9375C12.0856 10.9375 11.6882 10.7729 11.3951 10.4799C11.1021 10.1868 10.9375 9.7894 10.9375 9.375V4.6875ZM46.875 15.625H3.125V10.1562C3.12685 9.53522 3.37438 8.94015 3.81352 8.50102C4.25265 8.06188 4.84772 7.81435 5.46875 7.8125H9.375V9.375C9.375 10.2038 9.70424 10.9987 10.2903 11.5847C10.8763 12.1708 11.6712 12.5 12.5 12.5C13.3288 12.5 14.1237 12.1708 14.7097 11.5847C15.2958 10.9987 15.625 10.2038 15.625 9.375V7.8125H21.875V9.375C21.875 10.2038 22.2042 10.9987 22.7903 11.5847C23.3763 12.1708 24.1712 12.5 25 12.5C25.8288 12.5 26.6237 12.1708 27.2097 11.5847C27.7958 10.9987 28.125 10.2038 28.125 9.375V7.8125H34.375V9.375C34.375 10.2038 34.7042 10.9987 35.2903 11.5847C35.8763 12.1708 36.6712 12.5 37.5 12.5C38.3288 12.5 39.1237 12.1708 39.7097 11.5847C40.2958 10.9987 40.625 10.2038 40.625 9.375V7.8125H44.5312C45.1523 7.81435 45.7473 8.06188 46.1865 8.50102C46.6256 8.94015 46.8731 9.53522 46.875 10.1562V15.625Z"/>
</mask>
<path d="M44.5312 6.25H40.625V4.6875C40.625 3.8587 40.2958 3.06384 39.7097 2.47779C39.1237 1.89174 38.3288 1.5625 37.5 1.5625C36.6712 1.5625 35.8763 1.89174 35.2903 2.47779C34.7042 3.06384 34.375 3.8587 34.375 4.6875V6.25H28.125V4.6875C28.125 3.8587 27.7958 3.06384 27.2097 2.47779C26.6237 1.89174 25.8288 1.5625 25 1.5625C24.1712 1.5625 23.3763 1.89174 22.7903 2.47779C22.2042 3.06384 21.875 3.8587 21.875 4.6875V6.25H15.625V4.6875C15.625 3.8587 15.2958 3.06384 14.7097 2.47779C14.1237 1.89174 13.3288 1.5625 12.5 1.5625C11.6712 1.5625 10.8763 1.89174 10.2903 2.47779C9.70424 3.06384 9.375 3.8587 9.375 4.6875V6.25H5.46875C4.43275 6.25 3.43918 6.66155 2.70661 7.39411C1.97405 8.12668 1.5625 9.12025 1.5625 10.1562V41.4062C1.5625 42.4423 1.97405 43.4358 2.70661 44.1684C3.43918 44.901 4.43275 45.3125 5.46875 45.3125H27.3438C27.551 45.3125 27.7497 45.2302 27.8962 45.0837C28.0427 44.9372 28.125 44.7384 28.125 44.5312C28.125 44.3241 28.0427 44.1253 27.8962 43.9788C27.7497 43.8323 27.551 43.75 27.3438 43.75H5.46875C4.84772 43.7481 4.25265 43.5006 3.81352 43.0615C3.37438 42.6223 3.12685 42.0273 3.125 41.4062V17.1875H46.875V30.4688C46.875 30.676 46.9573 30.8747 47.1038 31.0212C47.2503 31.1677 47.4491 31.25 47.6562 31.25C47.8634 31.25 48.0622 31.1677 48.2087 31.0212C48.3552 30.8747 48.4375 30.676 48.4375 30.4688V10.1562C48.4375 9.12025 48.026 8.12668 47.2934 7.39411C46.5608 6.66155 45.5673 6.25 44.5312 6.25ZM35.9375 4.6875C35.9375 4.2731 36.1021 3.87567 36.3951 3.58265C36.6882 3.28962 37.0856 3.125 37.5 3.125C37.9144 3.125 38.3118 3.28962 38.6049 3.58265C38.8979 3.87567 39.0625 4.2731 39.0625 4.6875V9.375C39.0625 9.7894 38.8979 10.1868 38.6049 10.4799C38.3118 10.7729 37.9144 10.9375 37.5 10.9375C37.0856 10.9375 36.6882 10.7729 36.3951 10.4799C36.1021 10.1868 35.9375 9.7894 35.9375 9.375V4.6875ZM23.4375 4.6875C23.4375 4.2731 23.6021 3.87567 23.8951 3.58265C24.1882 3.28962 24.5856 3.125 25 3.125C25.4144 3.125 25.8118 3.28962 26.1049 3.58265C26.3979 3.87567 26.5625 4.2731 26.5625 4.6875V9.375C26.5625 9.7894 26.3979 10.1868 26.1049 10.4799C25.8118 10.7729 25.4144 10.9375 25 10.9375C24.5856 10.9375 24.1882 10.7729 23.8951 10.4799C23.6021 10.1868 23.4375 9.7894 23.4375 9.375V4.6875ZM10.9375 4.6875C10.9375 4.2731 11.1021 3.87567 11.3951 3.58265C11.6882 3.28962 12.0856 3.125 12.5 3.125C12.9144 3.125 13.3118 3.28962 13.6049 3.58265C13.8979 3.87567 14.0625 4.2731 14.0625 4.6875V9.375C14.0625 9.7894 13.8979 10.1868 13.6049 10.4799C13.3118 10.7729 12.9144 10.9375 12.5 10.9375C12.0856 10.9375 11.6882 10.7729 11.3951 10.4799C11.1021 10.1868 10.9375 9.7894 10.9375 9.375V4.6875ZM46.875 15.625H3.125V10.1562C3.12685 9.53522 3.37438 8.94015 3.81352 8.50102C4.25265 8.06188 4.84772 7.81435 5.46875 7.8125H9.375V9.375C9.375 10.2038 9.70424 10.9987 10.2903 11.5847C10.8763 12.1708 11.6712 12.5 12.5 12.5C13.3288 12.5 14.1237 12.1708 14.7097 11.5847C15.2958 10.9987 15.625 10.2038 15.625 9.375V7.8125H21.875V9.375C21.875 10.2038 22.2042 10.9987 22.7903 11.5847C23.3763 12.1708 24.1712 12.5 25 12.5C25.8288 12.5 26.6237 12.1708 27.2097 11.5847C27.7958 10.9987 28.125 10.2038 28.125 9.375V7.8125H34.375V9.375C34.375 10.2038 34.7042 10.9987 35.2903 11.5847C35.8763 12.1708 36.6712 12.5 37.5 12.5C38.3288 12.5 39.1237 12.1708 39.7097 11.5847C40.2958 10.9987 40.625 10.2038 40.625 9.375V7.8125H44.5312C45.1523 7.81435 45.7473 8.06188 46.1865 8.50102C46.6256 8.94015 46.8731 9.53522 46.875 10.1562V15.625Z" fill="#2A2623" stroke="white" stroke-width="0.6" mask="url(#path-1-inside-1_140_8073)"/>
<path d="M18.6 25V25.15H18.75H21.875H22.025V25V22.6562V22.5063H21.875H18.75H18.6V22.6562V25ZM22.8738 21.6575C23.1387 21.9224 23.2875 22.2816 23.2875 22.6562V25C23.2875 25.3746 23.1387 25.7339 22.8738 25.9988C22.6089 26.2637 22.2496 26.4125 21.875 26.4125H18.75C18.3754 26.4125 18.0161 26.2637 17.7512 25.9988C17.4863 25.7339 17.3375 25.3746 17.3375 25V22.6562C17.3375 22.2816 17.4863 21.9224 17.7512 21.6575C18.0161 21.3926 18.3754 21.2438 18.75 21.2438H21.875C22.2496 21.2438 22.6089 21.3926 22.8738 21.6575Z" fill="#2A2623" stroke="white" stroke-width="0.3"/>
<path d="M9.225 25V25.15H9.375H12.5H12.65V25V22.6562V22.5063H12.5H9.375H9.225V22.6562V25ZM13.4988 21.6575C13.7637 21.9224 13.9125 22.2816 13.9125 22.6562V25C13.9125 25.3746 13.7637 25.7339 13.4988 25.9988C13.2339 26.2637 12.8746 26.4125 12.5 26.4125H9.375C9.00038 26.4125 8.64111 26.2637 8.37621 25.9988C8.11132 25.7339 7.9625 25.3746 7.9625 25V22.6562C7.9625 22.2816 8.11132 21.9224 8.37621 21.6575C8.64111 21.3926 9.00038 21.2438 9.375 21.2438H12.5C12.8746 21.2438 13.2339 21.3926 13.4988 21.6575Z" fill="#2A2623" stroke="white" stroke-width="0.3"/>
<path d="M37.5 22.5063H37.35V22.6562V25V25.15H37.5H40.625H40.775V25V22.6562V22.5063H40.625H37.5ZM41.6238 25.9988C41.3589 26.2637 40.9996 26.4125 40.625 26.4125H37.5C37.1254 26.4125 36.7661 26.2637 36.5012 25.9988C36.2363 25.7339 36.0875 25.3746 36.0875 25V22.6562C36.0875 22.2816 36.2363 21.9224 36.5012 21.6575C36.7661 21.3926 37.1254 21.2438 37.5 21.2438H40.625C40.9996 21.2438 41.3589 21.3926 41.6238 21.6575C41.8887 21.9224 42.0375 22.2816 42.0375 22.6562V25C42.0375 25.3746 41.8887 25.7339 41.6238 25.9988Z" fill="#2A2623" stroke="white" stroke-width="0.3"/>
<path d="M18.6 32.0312V32.1813H18.75H21.875H22.025V32.0312V29.6875V29.5375H21.875H18.75H18.6V29.6875V32.0312ZM22.8738 28.6887C23.1387 28.9536 23.2875 29.3129 23.2875 29.6875V32.0312C23.2875 32.4059 23.1387 32.7651 22.8738 33.03C22.6089 33.2949 22.2496 33.4437 21.875 33.4437H18.75C18.3754 33.4437 18.0161 33.2949 17.7512 33.03C17.4863 32.7651 17.3375 32.4059 17.3375 32.0312V29.6875C17.3375 29.3129 17.4863 28.9536 17.7512 28.6887C18.0161 28.4238 18.3754 28.275 18.75 28.275H21.875C22.2496 28.275 22.6089 28.4238 22.8738 28.6887Z" fill="#2A2623" stroke="white" stroke-width="0.3"/>
<path d="M9.225 32.0312V32.1813H9.375H12.5H12.65V32.0312V29.6875V29.5375H12.5H9.375H9.225V29.6875V32.0312ZM13.4988 28.6887C13.7637 28.9536 13.9125 29.3129 13.9125 29.6875V32.0312C13.9125 32.4059 13.7637 32.7651 13.4988 33.03C13.2339 33.2949 12.8746 33.4437 12.5 33.4437H9.375C9.00038 33.4437 8.64111 33.2949 8.37621 33.03C8.11132 32.7651 7.9625 32.4059 7.9625 32.0312V29.6875C7.9625 29.3129 8.11132 28.9536 8.37621 28.6887C8.64111 28.4238 9.00038 28.275 9.375 28.275H12.5C12.8746 28.275 13.2339 28.4238 13.4988 28.6887Z" fill="#2A2623" stroke="white" stroke-width="0.3"/>
<path d="M18.6 39.0625V39.2125H18.75H21.875H22.025V39.0625V36.7188V36.5688H21.875H18.75H18.6V36.7188V39.0625ZM18.75 35.3063H21.875C22.2496 35.3063 22.6089 35.4551 22.8738 35.72C23.1387 35.9849 23.2875 36.3441 23.2875 36.7188V39.0625C23.2875 39.4371 23.1387 39.7964 22.8738 40.0613C22.6089 40.3262 22.2496 40.475 21.875 40.475H18.75C18.3754 40.475 18.0161 40.3262 17.7512 40.0613C17.4863 39.7964 17.3375 39.4371 17.3375 39.0625V36.7188C17.3375 36.3441 17.4863 35.9849 17.7512 35.72C18.0161 35.4551 18.3754 35.3063 18.75 35.3063Z" fill="#2A2623" stroke="white" stroke-width="0.3"/>
<path d="M28.125 22.5063H27.975V22.6562V25V25.15H28.125H31.25H31.4V25V22.6562V22.5063H31.25H28.125ZM31.25 26.4125H28.125C27.7504 26.4125 27.3911 26.2637 27.1262 25.9988C26.8613 25.7339 26.7125 25.3746 26.7125 25V22.6562C26.7125 22.2816 26.8613 21.9224 27.1262 21.6575C27.3911 21.3926 27.7504 21.2438 28.125 21.2438H31.25C31.6246 21.2438 31.9839 21.3926 32.2488 21.6575C32.5137 21.9224 32.6625 22.2816 32.6625 22.6562V25C32.6625 25.3746 32.5137 25.7339 32.2488 25.9988C31.9839 26.2637 31.6246 26.4125 31.25 26.4125Z" fill="#2A2623" stroke="white" stroke-width="0.3"/>
<path d="M9.225 39.0625V39.2125H9.375H12.5H12.65V39.0625V36.7188V36.5688H12.5H9.375H9.225V36.7188V39.0625ZM9.375 35.3063H12.5C12.8746 35.3063 13.2339 35.4551 13.4988 35.72C13.7637 35.9849 13.9125 36.3441 13.9125 36.7188V39.0625C13.9125 39.4371 13.7637 39.7964 13.4988 40.0613C13.2339 40.3262 12.8746 40.475 12.5 40.475H9.375C9.00038 40.475 8.64111 40.3262 8.37621 40.0613C8.11132 39.7964 7.9625 39.4371 7.9625 39.0625V36.7188C7.9625 36.3441 8.11132 35.9849 8.37621 35.72C8.64111 35.4551 9.00038 35.3063 9.375 35.3063Z" fill="#2A2623" stroke="white" stroke-width="0.3"/>
<path d="M38.2812 47.025H38.2814C40.5995 47.0223 42.8218 46.1002 44.461 44.4611C46.1001 42.8219 47.0222 40.5995 47.0249 38.2814V38.2813C47.0249 36.5519 46.5121 34.8614 45.5513 33.4235C44.5906 31.9856 43.225 30.8649 41.6273 30.2031C40.0296 29.5413 38.2715 29.3681 36.5754 29.7055C34.8792 30.0429 33.3213 30.8756 32.0984 32.0985C30.8756 33.3213 30.0428 34.8793 29.7055 36.5754C29.3681 38.2716 29.5412 40.0296 30.203 41.6273C30.8648 43.2251 31.9855 44.5906 33.4234 45.5514C34.8613 46.5122 36.5518 47.025 38.2812 47.025ZM32.722 29.9614C34.3675 28.8619 36.3021 28.275 38.2811 28.275C40.934 28.2781 43.4774 29.3333 45.3532 31.2092C47.2292 33.0851 48.2844 35.6285 48.2874 38.2814C48.2874 40.2604 47.7005 42.195 46.6011 43.8404C45.5016 45.4859 43.9388 46.7685 42.1104 47.5258C40.282 48.2832 38.2701 48.4813 36.3291 48.0952C34.388 47.7091 32.6051 46.7561 31.2057 45.3567C29.8063 43.9573 28.8533 42.1744 28.4672 40.2334C28.0811 38.2924 28.2793 36.2804 29.0366 34.452C29.794 32.6236 31.0765 31.0609 32.722 29.9614Z" fill="#2A2623" stroke="white" stroke-width="0.3"/>
<path d="M36.6128 41.1888L36.7189 41.2949L36.825 41.1888L42.9005 35.1132C43.0195 34.9988 43.1786 34.9355 43.3437 34.9369C43.5092 34.9383 43.6675 35.0047 43.7846 35.1218C43.9016 35.2388 43.968 35.3971 43.9694 35.5626C43.9709 35.7277 43.9075 35.8868 43.7931 36.0058L37.1652 42.6337C37.1652 42.6337 37.1652 42.6337 37.1652 42.6337C37.0468 42.752 36.8863 42.8185 36.7189 42.8185C36.5515 42.8185 36.391 42.752 36.2726 42.6337C36.2726 42.6337 36.2726 42.6337 36.2726 42.6337L32.9595 39.3198C32.8451 39.2009 32.7818 39.0418 32.7832 38.8767C32.7846 38.7112 32.851 38.5529 32.9681 38.4358C33.0851 38.3188 33.2434 38.2524 33.4089 38.251C33.574 38.2495 33.7331 38.3128 33.8521 38.4273L36.6128 41.1888Z" fill="#2A2623" stroke="white" stroke-width="0.3"/>
</svg>
