<svg width="" height="" viewBox="0 0 33 33" fill="none" xmlns="http://www.w3.org/2000/svg">
<path d="M31.4531 4.125H29.9062V3.60938C29.9062 3.47262 29.8519 3.34147 29.7552 3.24477C29.6585 3.14807 29.5274 3.09375 29.3906 3.09375H25.7812V2.57812C25.7812 2.16787 25.6183 1.77441 25.3282 1.48432C25.0381 1.19422 24.6446 1.03125 24.2344 1.03125C23.8241 1.03125 23.4307 1.19422 23.1406 1.48432C22.8505 1.77441 22.6875 2.16787 22.6875 2.57812V3.09375H21.6562V2.57812C21.6562 2.16787 21.4933 1.77441 21.2032 1.48432C20.9131 1.19422 20.5196 1.03125 20.1094 1.03125C19.6991 1.03125 19.3057 1.19422 19.0156 1.48432C18.7255 1.77441 18.5625 2.16787 18.5625 2.57812V3.09375H12.375V2.57812C12.375 2.16787 12.212 1.77441 11.9219 1.48432C11.6318 1.19422 11.2384 1.03125 10.8281 1.03125C10.4179 1.03125 10.0244 1.19422 9.73432 1.48432C9.44422 1.77441 9.28125 2.16787 9.28125 2.57812V3.09375H8.25V2.57812C8.25 2.16787 8.08703 1.77441 7.79693 1.48432C7.50684 1.19422 7.11338 1.03125 6.70312 1.03125C6.29287 1.03125 5.89941 1.19422 5.60932 1.48432C5.31922 1.77441 5.15625 2.16787 5.15625 2.57812V3.09375H1.54688C1.41012 3.09375 1.27897 3.14807 1.18227 3.24477C1.08557 3.34147 1.03125 3.47262 1.03125 3.60938V29.3906C1.03125 29.5274 1.08557 29.6585 1.18227 29.7552C1.27897 29.8519 1.41012 29.9062 1.54688 29.9062H2.0625V31.4531C2.0625 31.5899 2.11682 31.721 2.21352 31.8177C2.31022 31.9144 2.44137 31.9688 2.57812 31.9688H31.4531C31.5899 31.9688 31.721 31.9144 31.8177 31.8177C31.9144 31.721 31.9688 31.5899 31.9688 31.4531V4.64062C31.9688 4.50387 31.9144 4.37272 31.8177 4.27602C31.721 4.17932 31.5899 4.125 31.4531 4.125ZM2.0625 28.875V10.3125H28.875V28.875H2.0625ZM23.7188 2.57812C23.7188 2.44137 23.7731 2.31022 23.8698 2.21352C23.9665 2.11682 24.0976 2.0625 24.2344 2.0625C24.3711 2.0625 24.5023 2.11682 24.599 2.21352C24.6957 2.31022 24.75 2.44137 24.75 2.57812V3.09375H23.7188V2.57812ZM19.5938 2.57812C19.5938 2.44137 19.6481 2.31022 19.7448 2.21352C19.8415 2.11682 19.9726 2.0625 20.1094 2.0625C20.2461 2.0625 20.3773 2.11682 20.474 2.21352C20.5707 2.31022 20.625 2.44137 20.625 2.57812V3.09375H19.5938V2.57812ZM10.3125 2.57812C10.3125 2.44137 10.3668 2.31022 10.4635 2.21352C10.5602 2.11682 10.6914 2.0625 10.8281 2.0625C10.9649 2.0625 11.096 2.11682 11.1927 2.21352C11.2894 2.31022 11.3438 2.44137 11.3438 2.57812V3.09375H10.3125V2.57812ZM6.1875 2.57812C6.1875 2.44137 6.24182 2.31022 6.33852 2.21352C6.43522 2.11682 6.56637 2.0625 6.70312 2.0625C6.83988 2.0625 6.97103 2.11682 7.06773 2.21352C7.16443 2.31022 7.21875 2.44137 7.21875 2.57812V3.09375H6.1875V2.57812ZM5.15625 4.125V4.64062C5.15673 5.05073 5.31985 5.44391 5.60985 5.7339C5.89984 6.0239 6.29302 6.18702 6.70312 6.1875C6.83988 6.1875 6.97103 6.13318 7.06773 6.03648C7.16443 5.93978 7.21875 5.80863 7.21875 5.67188C7.21875 5.53512 7.16443 5.40397 7.06773 5.30727C6.97103 5.21057 6.83988 5.15625 6.70312 5.15625C6.56642 5.1561 6.43536 5.10172 6.33869 5.00506C6.24203 4.90839 6.18765 4.77733 6.1875 4.64062V4.125H9.28125V4.64062C9.28173 5.05073 9.44486 5.44391 9.73485 5.7339C10.0248 6.0239 10.418 6.18702 10.8281 6.1875C10.9649 6.1875 11.096 6.13318 11.1927 6.03648C11.2894 5.93978 11.3438 5.80863 11.3438 5.67188C11.3438 5.53512 11.2894 5.40397 11.1927 5.30727C11.096 5.21057 10.9649 5.15625 10.8281 5.15625C10.6914 5.1561 10.5604 5.10172 10.4637 5.00506C10.367 4.90839 10.3127 4.77733 10.3125 4.64062V4.125H18.5625V4.64062C18.563 5.05073 18.7261 5.44391 19.0161 5.7339C19.3061 6.0239 19.6993 6.18702 20.1094 6.1875C20.2461 6.1875 20.3773 6.13318 20.474 6.03648C20.5707 5.93978 20.625 5.80863 20.625 5.67188C20.625 5.53512 20.5707 5.40397 20.474 5.30727C20.3773 5.21057 20.2461 5.15625 20.1094 5.15625C19.9727 5.1561 19.8416 5.10172 19.7449 5.00506C19.6483 4.90839 19.5939 4.77733 19.5938 4.64062V4.125H22.6875V4.64062C22.688 5.05073 22.8511 5.44391 23.1411 5.7339C23.4311 6.0239 23.8243 6.18702 24.2344 6.1875C24.3711 6.1875 24.5023 6.13318 24.599 6.03648C24.6957 5.93978 24.75 5.80863 24.75 5.67188C24.75 5.53512 24.6957 5.40397 24.599 5.30727C24.5023 5.21057 24.3711 5.15625 24.2344 5.15625C24.0977 5.1561 23.9666 5.10172 23.8699 5.00506C23.7733 4.90839 23.7189 4.77733 23.7188 4.64062V4.125H28.875V9.28125H2.0625V4.125H5.15625ZM30.9375 30.9375H3.09375V29.9062H29.3906C29.5274 29.9062 29.6585 29.8519 29.7552 29.7552C29.8519 29.6585 29.9062 29.5274 29.9062 29.3906V5.15625H30.9375V30.9375Z" fill="#2A2623"/>
<path d="M11.3438 22.1719C11.3436 21.6612 11.217 21.1585 10.9753 20.7086C10.7336 20.2588 10.3842 19.8757 9.95846 19.5938C10.4044 19.2982 10.766 18.8922 11.0081 18.4151C11.2502 17.9381 11.3644 17.4065 11.3397 16.8721C11.3149 16.3378 11.152 15.819 10.8669 15.3664C10.5817 14.9138 10.1841 14.5428 9.7128 14.2898C9.24149 14.0368 8.71262 13.9103 8.17784 13.9227C7.64305 13.9351 7.12062 14.086 6.66156 14.3606C6.2025 14.6352 5.82251 15.0242 5.55867 15.4896C5.29484 15.9549 5.15618 16.4807 5.15625 17.0156C5.15625 17.1524 5.21057 17.2835 5.30727 17.3802C5.40397 17.4769 5.53512 17.5313 5.67188 17.5313C5.80863 17.5313 5.93978 17.4769 6.03648 17.3802C6.13318 17.2835 6.1875 17.1524 6.1875 17.0156C6.1875 16.6077 6.30846 16.2089 6.53509 15.8698C6.76172 15.5306 7.08384 15.2662 7.46072 15.1101C7.83759 14.954 8.25229 14.9132 8.65237 14.9928C9.05246 15.0723 9.41996 15.2688 9.70841 15.5572C9.99685 15.8457 10.1933 16.2132 10.2729 16.6133C10.3525 17.0133 10.3116 17.428 10.1555 17.8049C9.9994 18.1818 9.73504 18.5039 9.39586 18.7305C9.05669 18.9572 8.65792 19.0781 8.25 19.0781C8.11325 19.0781 7.9821 19.1325 7.8854 19.2292C7.7887 19.3259 7.73438 19.457 7.73438 19.5938C7.73438 19.7305 7.7887 19.8617 7.8854 19.9584C7.9821 20.0551 8.11325 20.1094 8.25 20.1094C8.65792 20.1094 9.05669 20.2303 9.39586 20.457C9.73504 20.6836 9.9994 21.0057 10.1555 21.3826C10.3116 21.7595 10.3525 22.1742 10.2729 22.5743C10.1933 22.9743 9.99685 23.3418 9.70841 23.6303C9.41996 23.9187 9.05246 24.1152 8.65237 24.1947C8.25229 24.2743 7.83759 24.2335 7.46072 24.0774C7.08384 23.9213 6.76172 23.6569 6.53509 23.3177C6.30846 22.9786 6.1875 22.5798 6.1875 22.1719C6.1875 22.0351 6.13318 21.904 6.03648 21.8073C5.93978 21.7106 5.80863 21.6563 5.67188 21.6563C5.53512 21.6563 5.40397 21.7106 5.30727 21.8073C5.21057 21.904 5.15625 22.0351 5.15625 22.1719C5.15625 22.9924 5.4822 23.7793 6.06239 24.3595C6.64258 24.9397 7.42949 25.2656 8.25 25.2656C9.07051 25.2656 9.85742 24.9397 10.4376 24.3595C11.0178 23.7793 11.3438 22.9924 11.3438 22.1719Z" fill="#E1988C"/>
<path d="M22.6875 19.0781H21.1406V14.9531H24.75C24.8867 14.9531 25.0179 14.8988 25.1146 14.8021C25.2113 14.7054 25.2656 14.5743 25.2656 14.4375C25.2656 14.3007 25.2113 14.1696 25.1146 14.0729C25.0179 13.9762 24.8867 13.9219 24.75 13.9219H20.625C20.4882 13.9219 20.3571 13.9762 20.2604 14.0729C20.1637 14.1696 20.1094 14.3007 20.1094 14.4375V19.5938C20.1094 19.7305 20.1637 19.8617 20.2604 19.9584C20.3571 20.0551 20.4882 20.1094 20.625 20.1094H22.6875C23.0954 20.1094 23.4942 20.2303 23.8334 20.457C24.1725 20.6836 24.4369 21.0057 24.593 21.3826C24.7491 21.7595 24.7899 22.1742 24.7104 22.5742C24.6308 22.9743 24.4343 23.3418 24.1459 23.6303C23.8575 23.9187 23.49 24.1152 23.0899 24.1947C22.6898 24.2743 22.2751 24.2335 21.8982 24.0774C21.5213 23.9213 21.1992 23.6569 20.9726 23.3177C20.746 22.9786 20.625 22.5798 20.625 22.1719C20.625 22.0351 20.5707 21.904 20.474 21.8073C20.3773 21.7106 20.2461 21.6562 20.1094 21.6562C19.9726 21.6562 19.8415 21.7106 19.7448 21.8073C19.6481 21.904 19.5938 22.0351 19.5938 22.1719C19.5938 22.7838 19.7752 23.3819 20.1151 23.8907C20.4551 24.3994 20.9383 24.796 21.5036 25.0301C22.0689 25.2643 22.6909 25.3256 23.2911 25.2062C23.8912 25.0868 24.4424 24.7922 24.8751 24.3595C25.3078 23.9268 25.6024 23.3756 25.7218 22.7754C25.8412 22.1753 25.7799 21.5533 25.5457 20.9879C25.3116 20.4226 24.9151 19.9395 24.4063 19.5995C23.8975 19.2596 23.2994 19.0781 22.6875 19.0781Z" fill="#E1988C"/>
<path d="M15.4687 14.9531C16.0155 14.9537 16.5398 15.1712 16.9264 15.5579C17.3131 15.9446 17.5306 16.4688 17.5312 17.0156C17.5312 17.1524 17.5855 17.2835 17.6822 17.3802C17.7789 17.4769 17.9101 17.5312 18.0468 17.5312C18.1836 17.5312 18.3147 17.4769 18.4114 17.3802C18.5081 17.2835 18.5625 17.1524 18.5625 17.0156C18.5625 16.1951 18.2365 15.4082 17.6563 14.828C17.0761 14.2478 16.2892 13.9219 15.4687 13.9219C14.6482 13.9219 13.8613 14.2478 13.2811 14.828C12.7009 15.4082 12.375 16.1951 12.375 17.0156V22.1719C12.3739 22.8815 12.6166 23.57 13.0623 24.1223C13.508 24.6745 14.1298 25.0569 14.8237 25.2057C15.5176 25.3544 16.2415 25.2605 16.8745 24.9395C17.5074 24.6185 18.0109 24.09 18.3009 23.4423C18.5909 22.7946 18.6497 22.0669 18.4675 21.3811C18.2854 20.6952 17.8733 20.0926 17.3001 19.6741C16.727 19.2557 16.0276 19.0466 15.3188 19.082C14.61 19.1173 13.9349 19.3949 13.4062 19.8684V17.0156C13.4068 16.4688 13.6243 15.9446 14.011 15.5579C14.3976 15.1712 14.9219 14.9537 15.4687 14.9531ZM15.4687 20.1094C15.8766 20.1094 16.2754 20.2303 16.6146 20.457C16.9537 20.6836 17.2181 21.0057 17.3742 21.3826C17.5303 21.7595 17.5712 22.1742 17.4916 22.5742C17.412 22.9743 17.2156 23.3418 16.9271 23.6303C16.6387 23.9187 16.2712 24.1152 15.8711 24.1947C15.471 24.2743 15.0563 24.2335 14.6794 24.0774C14.3026 23.9213 13.9804 23.6569 13.7538 23.3177C13.5272 22.9786 13.4062 22.5798 13.4062 22.1719C13.4068 21.6251 13.6243 21.1008 14.011 20.7141C14.3976 20.3275 14.9219 20.11 15.4687 20.1094Z" fill="#E1988C"/>
</svg>
