<svg width="" height="" viewBox="0 0 30 30" fill="none" xmlns="http://www.w3.org/2000/svg">
<g clip-path="url(#clip0_534_7603)">
<path d="M28.3266 13.0364L28.2858 12.9956L27.8368 13.0364L27.5511 12.7099H27.5103L27.4694 12.7507L27.3878 13.1997L26.9796 13.363L26.9388 13.4038C26.9388 13.4038 26.9388 13.4446 26.9796 13.4446L27.347 13.6487L27.3878 14.0977C27.3878 14.0977 27.3878 14.1385 27.4286 14.1385H27.4694L27.796 13.8528L28.2449 13.9344H28.2858V13.8936L28.0817 13.4854L28.2858 13.1181C28.3266 13.0772 28.3266 13.0772 28.3266 13.0364Z" fill="black"/>
<path d="M26.1633 23.7711L25.7143 23.812L25.4286 23.4854C25.4286 23.4854 25.3878 23.4446 25.3878 23.4854L25.347 23.5262L25.2245 23.9752L24.8164 24.1385L24.7755 24.1793C24.7755 24.1793 24.7755 24.2201 24.8164 24.2201L25.1837 24.4242L25.2245 24.8732C25.2245 24.8732 25.2245 24.914 25.2653 24.914H25.3062L25.6327 24.6283L26.0817 24.7099H26.1225V24.6691L25.9184 24.2609L26.1225 23.8936C26.2041 23.8528 26.2041 23.812 26.2041 23.812L26.1633 23.7711Z" fill="black"/>
<path d="M26.1225 18.3017L25.6735 18.3425L25.3878 18.016C25.3878 18.016 25.347 17.9752 25.347 18.016L25.3062 18.0568L25.2245 18.5058L24.8164 18.6691L24.7755 18.7099C24.7755 18.7099 24.7755 18.7507 24.8164 18.7507L25.1837 18.9548L25.2245 19.4038C25.2245 19.4038 25.2245 19.4446 25.2653 19.4446H25.3062L25.6327 19.1589L26.0817 19.2405H26.1225V19.1997L25.9184 18.7915L26.1225 18.4242V18.3833C26.1633 18.3017 26.1633 18.3017 26.1225 18.3017Z" fill="black"/>
<path d="M26.0408 11.9752C26.3789 11.9752 26.653 11.7011 26.653 11.363C26.653 11.0248 26.3789 10.7507 26.0408 10.7507C25.7026 10.7507 25.4285 11.0248 25.4285 11.363C25.4285 11.7011 25.7026 11.9752 26.0408 11.9752Z" fill="black"/>
<path d="M26.9796 16.8323C27.3178 16.8323 27.5919 16.5582 27.5919 16.2201C27.5919 15.882 27.3178 15.6078 26.9796 15.6078C26.6415 15.6078 26.3674 15.882 26.3674 16.2201C26.3674 16.5582 26.6415 16.8323 26.9796 16.8323Z" fill="black"/>
<path d="M27.5511 22.3018C27.8892 22.3018 28.1633 22.0276 28.1633 21.6895C28.1633 21.3514 27.8892 21.0773 27.5511 21.0773C27.2129 21.0773 26.9388 21.3514 26.9388 21.6895C26.9388 22.0276 27.2129 22.3018 27.5511 22.3018Z" fill="black"/>
<path d="M27.6326 27.0364C27.9707 27.0364 28.2448 26.7623 28.2448 26.4242C28.2448 26.0861 27.9707 25.812 27.6326 25.812C27.2945 25.812 27.0203 26.0861 27.0203 26.4242C27.0203 26.7623 27.2945 27.0364 27.6326 27.0364Z" fill="black"/>
<path d="M16.6122 8.7915H15.551V7.64864C16.8979 6.38334 17.4693 5.11803 17.2244 3.89354C16.7755 1.48538 13.5101 0.0976215 13.3469 0.0568052C13.1836 -0.0248275 12.9795 0.0568051 12.8571 0.22007C12.7346 0.383336 12.7755 0.587417 12.8979 0.750683C12.8979 0.750683 13.4693 1.40374 12.8979 3.52619C12.3265 5.52619 13.7142 6.99558 14.6938 7.60783V8.7915H13.5918C12.5306 8.7915 11.6734 9.64864 11.6734 10.7099V28.0568C11.6734 29.118 12.5306 29.9752 13.5918 29.9752H16.5714C17.4285 29.9752 18.1224 29.4037 18.3673 28.6691C18.3673 28.6282 18.4081 28.6282 18.4081 28.5874C18.4489 28.4242 18.4897 28.2609 18.4897 28.0976V10.669C18.4897 9.64864 17.6734 8.7915 16.6122 8.7915ZM13.7142 3.73027C14.0408 2.62823 14.0408 1.81191 13.9591 1.28129C14.8979 1.81191 16.204 2.7915 16.4081 4.05681C16.5306 4.83232 16.2448 5.64864 15.5101 6.50578V5.68946C15.5101 5.44456 15.3469 5.28129 15.102 5.28129C14.8571 5.28129 14.6938 5.44456 14.6938 5.68946V6.58742C14.0816 6.05681 13.3061 5.07721 13.7142 3.73027ZM16.5714 9.60783C17.1836 9.60783 17.6734 10.0976 17.6734 10.7099V12.2201L13.9591 9.60783H16.5714ZM12.5306 13.4446L17.6734 17.0772V19.9752L12.5306 16.3425V13.4446ZM12.4897 17.3629L17.6326 20.9956V23.8647L12.5306 20.2609C12.5306 20.2609 12.5306 20.2609 12.4897 20.2609V17.3629ZM17.6734 27.7711L12.5306 24.1384V21.2405L17.6734 24.8731V27.7711ZM16.6122 29.1588H13.6326C13.0204 29.1588 12.5306 28.6691 12.5306 28.0568V25.118L17.5101 28.6282C17.3469 28.9548 16.9795 29.1588 16.6122 29.1588ZM17.7142 16.0976H17.6734L12.5306 12.465V10.7099C12.5306 10.3833 12.6938 10.0568 12.9387 9.89354L17.7142 13.2813V16.0976Z" fill="#E1988C"/>
<path d="M28.1225 8.7915H27.0613V7.64864C28.4082 6.38334 28.9796 5.11803 28.7347 3.89354C28.2858 1.48538 25.0205 0.0976215 24.8572 0.0568052C24.6939 -0.0248275 24.4898 0.0568051 24.3674 0.22007C24.2449 0.383336 24.2858 0.587417 24.4082 0.750683C24.4082 0.750683 24.9796 1.40374 24.4082 3.52619C23.8368 5.52619 25.2245 6.99558 26.2041 7.60783V8.7915H25.1021C24.0409 8.7915 23.1837 9.64864 23.1837 10.7099V28.0568C23.1837 29.118 24.0409 29.9752 25.1021 29.9752H28.0817C29.1429 29.9752 30 29.118 30 28.0568V10.669C30 9.64864 29.1429 8.7915 28.1225 8.7915ZM26.1633 5.68946V6.58742C25.5919 6.05681 24.8164 5.07721 25.1837 3.73027C25.5102 2.62823 25.5102 1.81191 25.4286 1.28129C26.3674 1.81191 27.6735 2.7915 27.8776 4.05681C28 4.83232 27.7143 5.64864 26.9796 6.50578V5.68946C26.9796 5.44456 26.8164 5.28129 26.5715 5.28129C26.3266 5.28129 26.1633 5.44456 26.1633 5.68946ZM29.1837 28.0568C29.1837 28.6691 28.6939 29.1588 28.0817 29.1588H25.1021C24.4898 29.1588 24 28.6691 24 28.0568V10.669C24 10.0568 24.4898 9.56701 25.1021 9.56701H28.0817C28.6939 9.56701 29.1837 10.0568 29.1837 10.669V28.0568Z" fill="black"/>
<path d="M4.89796 8.7915H3.83673V7.64864C5.18367 6.38334 5.7551 5.11803 5.5102 3.89354C5.06122 1.48538 1.79592 0.0976215 1.63265 0.0568052C1.46939 -0.0248275 1.26531 0.0568051 1.14286 0.22007C1.06122 0.342519 1.06122 0.546601 1.22449 0.709866C1.22449 0.709866 1.79592 1.36293 1.22449 3.48538C0.653061 5.48538 2.04082 6.95476 3.02041 7.56701V8.75068H1.91837C0.857143 8.75068 0 9.60783 0 10.669V28.0568C0 29.118 0.857143 29.9752 1.91837 29.9752H4.89796C5.95918 29.9752 6.81633 29.118 6.81633 28.0568V10.669C6.81633 9.64864 5.95918 8.7915 4.89796 8.7915ZM2.97959 5.68946V6.58742C2.36735 6.05681 1.59184 5.07721 2 3.73027C2.32653 2.62823 2.32653 1.81191 2.2449 1.28129C3.18367 1.81191 4.4898 2.7915 4.69388 4.05681C4.81633 4.83232 4.53061 5.64864 3.79592 6.50578V5.68946C3.79592 5.44456 3.63265 5.28129 3.38775 5.28129C3.14286 5.28129 2.97959 5.44456 2.97959 5.68946ZM0.857143 11.7303L1.42857 12.0568C1.55102 12.1384 1.71429 12.1384 1.83673 12.0568L2.81633 11.4854L3.79592 12.0568C3.91837 12.1384 4.08163 12.1384 4.20408 12.0568L5.18367 11.4854L5.95918 11.9752V14.0759L5.38775 13.7711C5.26531 13.6895 5.10204 13.6895 4.97959 13.7711L4 14.3425L3.02041 13.7711C2.89796 13.6895 2.73469 13.6895 2.61225 13.7711L1.63265 14.3425L0.857143 13.8527V11.7303ZM0.816326 14.7915L1.38776 15.118C1.5102 15.1997 1.67347 15.1997 1.79592 15.118L2.77551 14.5466L3.7551 15.118C3.87755 15.1997 4.04082 15.1997 4.16327 15.118L5.14286 14.5466L5.91837 15.0364V17.153L5.42857 16.8731C5.30612 16.7915 5.14286 16.7915 5.02041 16.8731L4 17.4446L3.02041 16.8731C2.89796 16.7915 2.73469 16.7915 2.61225 16.8731L1.59184 17.4446L0.816326 16.9548V14.7915ZM0.816326 20.9956L1.38776 21.3221C1.5102 21.4037 1.67347 21.4037 1.79592 21.3221L2.77551 20.7507L3.7551 21.3221C3.87755 21.4037 4.04082 21.4037 4.16327 21.3221L5.14286 20.7507L5.91837 21.2405V23.3571L5.42857 23.0772C5.30612 22.9956 5.14286 22.9956 5.02041 23.0772L4.04082 23.6486L3.06122 23.0772C2.93878 22.9956 2.77551 22.9956 2.65306 23.0772L1.67347 23.6486L0.816326 23.1588V20.9956ZM4.89796 29.1588H1.91837C1.30612 29.1588 0.816326 28.6691 0.816326 28.0568V27.2405L1.38776 27.567C1.5102 27.6486 1.67347 27.6486 1.79592 27.567L2.77551 26.9956L3.7551 27.567C3.87755 27.6486 4.04082 27.6486 4.16327 27.567L5.14286 26.9956L5.91837 27.4854V28.0568H6C6 28.6691 5.5102 29.1588 4.89796 29.1588ZM6 26.5058L5.42857 26.1793C5.30612 26.0976 5.14286 26.0976 5.02041 26.1793L4.04082 26.7507L3.06122 26.1793C2.93878 26.0976 2.77551 26.0976 2.65306 26.1793L1.67347 26.7507L0.897959 26.2609V24.0976L1.46939 24.4242C1.59184 24.5058 1.7551 24.5058 1.87755 24.4242L2.85714 23.8527L3.83673 24.4242C3.95918 24.5058 4.12245 24.5058 4.2449 24.4242L5.22449 23.8527L6 24.3425V26.5058ZM6 20.3017L5.42857 19.9752C5.30612 19.8935 5.14286 19.8935 5.02041 19.9752L4.04082 20.5466L3.06122 19.9752C2.93878 19.8935 2.77551 19.8935 2.65306 19.9752L1.67347 20.5466L0.897959 20.0568V17.8935L1.46939 18.2201C1.59184 18.3017 1.7551 18.3017 1.87755 18.2201L2.85714 17.6486L3.83673 18.2201C3.95918 18.3017 4.12245 18.3017 4.2449 18.2201L5.22449 17.6486L6 18.1384V20.3017ZM6.08163 11.0364H6L5.42857 10.7099C5.30612 10.6282 5.14286 10.6282 5.02041 10.7099L4.04082 11.2813L3.06122 10.7099C2.93878 10.6282 2.77551 10.6282 2.65306 10.7099L1.67347 11.2813L0.897959 10.7915V10.669C0.897959 10.0568 1.38776 9.56701 2 9.56701H4.97959C5.59184 9.56701 6.08163 10.0568 6.08163 10.669V11.0364Z" fill="black"/>
</g>
<defs>
<clipPath id="clip0_534_7603">
<rect width="30" height="30" fill="white"/>
</clipPath>
</defs>
</svg>
