<svg width="" height="" viewBox="0 0 28 36" fill="none" xmlns="http://www.w3.org/2000/svg">
<path fill-rule="evenodd" clip-rule="evenodd" d="M5.23067 0.0966482C4.14716 0.397144 3.38528 1.24714 3.20519 2.35641C3.16448 2.60704 3.13648 5.04294 3.13627 8.35296L3.13585 13.9275L2.17572 13.929C1.11574 13.9307 0.836714 14.0058 0.458459 14.3907C0.0373301 14.8193 0.0304869 14.8569 0.00667574 16.8458C-0.0190208 18.994 0.00828186 19.1548 0.478849 19.6268C0.891948 20.0411 1.16812 20.1175 2.25365 20.1175H3.13585L3.13641 24.0741C3.13669 26.4975 3.16532 28.2071 3.21022 28.4857C3.35567 29.3891 3.95968 30.1986 4.76946 30.5756L5.19576 30.7741L10.1186 30.8092L15.0414 30.8444L15.0787 32.4271C15.112 33.8387 15.1319 34.0439 15.2624 34.3263C15.9181 35.7447 17.5815 36.3925 18.9274 35.7534C19.7774 35.3498 27.6814 30.7989 27.8401 30.6217L28 30.4432L27.9798 28.2283L27.9595 26.0135L27.7946 25.8791C27.5714 25.6971 27.2841 25.7088 27.0988 25.9075C26.9505 26.0665 26.9469 26.1158 26.9454 28.0353L26.9437 30.0003L22.6567 32.4492C18.7836 34.6616 18.3322 34.9019 17.9805 34.9385C17.2929 35.0099 16.5414 34.5751 16.254 33.9394C16.1325 33.6706 16.1268 33.0916 16.1253 20.9417C16.124 10.3091 16.1395 8.18745 16.2198 7.99387C16.3944 7.57281 16.7492 7.25952 17.611 6.76523C21.6074 4.47346 26.7738 1.52907 26.8513 1.4991C26.9315 1.46808 26.9494 3.27577 26.9643 12.9452L26.9819 24.4282L27.1656 24.5664C27.3023 24.6692 27.4052 24.6921 27.5683 24.656C28.0264 24.5547 27.9975 25.4325 27.9776 12.2354L27.9595 0.268913L27.7946 0.134491C27.6345 0.00386874 27.4047 0 19.7773 0C14.7889 0 11.8783 0.0251116 11.7972 0.0688636C11.5949 0.177962 11.5149 0.498505 11.6245 0.761087C11.6759 0.884113 11.7273 0.992297 11.7387 1.00151C11.7502 1.01066 14.8296 1.03443 18.5818 1.05427L25.4041 1.09028L24.3336 1.70576L23.263 2.32124H14.5705C5.88852 2.32124 5.87777 2.32146 5.6944 2.46671L5.51082 2.61217L5.49295 8.25223L5.47507 13.8923H4.84662H4.21818L4.19988 8.33538C4.18752 4.59796 4.20596 2.65923 4.25609 2.41431C4.35169 1.94774 4.64734 1.53906 5.07063 1.28843L5.40524 1.09028L7.77861 1.06911C10.0874 1.04857 10.1563 1.04393 10.3099 0.898603C10.5211 0.698765 10.5193 0.354728 10.3062 0.152921C10.1467 0.00211022 10.1131 7.03409e-05 7.84473 0.00471283C6.24499 0.00801884 5.44923 0.0360145 5.23067 0.0966482ZM21.1862 3.5036C21.071 3.57324 19.8979 4.24563 18.5792 4.99778C15.9453 6.50012 15.6845 6.69721 15.3268 7.45612L15.1113 7.91333L15.0931 17.6731L15.0749 27.4329H10.8162H6.5574V23.7752V20.1175H7.14332H7.72917L7.75507 20.634C7.77686 21.0678 7.81219 21.1917 7.9758 21.4078C8.08298 21.5493 8.26873 21.7162 8.38862 21.7786C8.65487 21.9173 9.19457 21.9263 9.43806 21.7961C9.777 21.6149 13.9241 17.9277 14.1162 17.6367C14.3389 17.2995 14.3715 16.8614 14.2009 16.4993C14.0833 16.2496 9.69132 12.335 9.36578 12.1897C8.94598 12.0023 8.42207 12.1265 8.08061 12.4944C7.8263 12.7684 7.74446 13.0156 7.74446 13.51V13.9275H7.15093H6.5574V8.65191V3.37636L13.9766 3.37664C21.1538 3.37685 21.3889 3.381 21.1862 3.5036ZM11.0984 15.0275C12.2685 16.0582 13.2356 16.9422 13.2476 16.9921C13.2703 17.0879 9.0332 20.856 8.90276 20.856C8.85486 20.856 8.81387 20.5742 8.79187 20.0934C8.7601 19.3986 8.7423 19.3188 8.5921 19.1965C8.43478 19.0685 8.26649 19.0623 4.90556 19.0623H1.38381L1.21246 18.8897L1.04103 18.717V17.0351C1.04103 15.4401 1.0485 15.3437 1.18578 15.1679L1.33046 14.9826H4.88978H8.44909L8.62045 14.8099C8.7793 14.6499 8.79187 14.5863 8.79187 13.9424C8.79187 13.2974 8.81666 13.1537 8.92797 13.1537C8.95157 13.1537 9.92831 13.997 11.0984 15.0275ZM18.8259 17.6123C18.26 17.8245 17.9125 18.1523 17.585 18.7832C17.3397 19.2557 17.3515 20.0856 17.6106 20.5894C18.04 21.4242 18.7632 21.8425 19.685 21.789C20.5135 21.7409 21.1408 21.3163 21.5067 20.5561C21.7375 20.0764 21.7342 19.2372 21.4994 18.7488C21.2965 18.3266 20.9125 17.9267 20.5083 17.7167C20.1285 17.5192 19.2237 17.4631 18.8259 17.6123ZM20.1046 18.7282C20.4907 18.9929 20.6276 19.2369 20.6276 19.6602C20.6276 20.2801 20.1607 20.7505 19.5453 20.7505C18.9299 20.7505 18.463 20.2801 18.463 19.6602C18.463 19.0403 18.9299 18.57 19.5453 18.57C19.771 18.57 19.946 18.6195 20.1046 18.7282ZM5.50998 24.1486C5.50998 27.5186 5.52625 28.2021 5.60907 28.3163C5.70501 28.4485 5.85724 28.454 10.3748 28.488L15.0414 28.5232L15.0616 29.1387L15.0818 29.7541H10.2937C6.38911 29.7541 5.46313 29.7363 5.27571 29.6574C4.92441 29.5096 4.52514 29.1208 4.36363 28.7694C4.22216 28.4615 4.21762 28.3379 4.19814 24.2851L4.17803 20.1175H4.84404H5.50998V24.1486Z" fill="white"/>
</svg>
