<svg width="" height="" viewBox="0 0 36 36" fill="none" xmlns="http://www.w3.org/2000/svg">
<g clip-path="url(#clip0_140_8116)">
<path d="M2.38097 18.1037L2.28099 17.9998L2.38087 17.8958C4.57545 15.6107 7.44109 13.5448 10.5283 12.2363L11.0479 12.0161L10.7063 12.4652C8.21587 15.739 8.21684 20.2636 10.7074 23.5362L11.0502 23.9866L10.5294 23.7651C6.46961 22.0384 3.57978 19.3496 2.38097 18.1037ZM25.2925 12.4637L24.9497 12.0133L25.4706 12.2348C29.5303 13.9616 32.4202 16.6502 33.619 17.8963L33.719 18.0002L33.6191 18.1042C31.4244 20.3891 28.5587 22.4551 25.4716 23.7636L24.952 23.9838L25.2937 23.5347C27.784 20.2609 27.7831 15.7364 25.2925 12.4637ZM0.356153 17.4235L0.240186 17.3284L0.35615 17.4235C0.081202 17.7586 0.081202 18.2413 0.35615 18.5764L0.240186 18.6715L0.356152 18.5764C3.5801 22.506 10.4684 27.1601 18 27.1601C25.5047 27.1601 32.3926 22.5375 35.6438 18.5764C35.9188 18.2413 35.9188 17.7586 35.6438 17.4234C32.5337 13.6343 25.675 8.8398 18 8.8398C10.5884 8.8398 3.6844 13.3667 0.356153 17.4235ZM17.9999 10.6574C22.0488 10.6574 25.3424 13.9512 25.3424 18C25.3424 22.0483 22.0491 25.3424 17.9999 25.3425C13.9511 25.3425 10.6574 22.0487 10.6574 18C10.6574 13.9514 13.951 10.6574 17.9999 10.6574Z" fill="white" stroke="#F26F2E" stroke-width="0.3"/>
<path d="M18 14.55C16.0978 14.55 14.55 16.0977 14.55 18C14.55 19.9022 16.0978 21.45 18 21.45C19.9022 21.45 21.45 19.9022 21.45 18C21.45 16.0977 19.9022 14.55 18 14.55ZM18 16.3676C18.9002 16.3676 19.6324 17.0997 19.6324 18C19.6324 18.9002 18.9002 19.6323 18 19.6323C17.0998 19.6323 16.3677 18.9002 16.3677 18C16.3677 17.0997 17.0998 16.3676 18 16.3676Z" fill="white" stroke="#F26F2E" stroke-width="0.3"/>
<path d="M18.9088 32.4706C18.9088 31.9687 18.5019 31.5618 18 31.5618C17.4981 31.5618 17.0912 31.9687 17.0912 32.4706V34.9412C17.0912 35.4431 17.4981 35.85 18 35.85C18.5019 35.85 18.9088 35.4431 18.9088 34.9412V32.4706Z" fill="white" stroke="#F26F2E" stroke-width="0.3"/>
<path d="M25.6317 30.4651L25.6317 30.4651L27.0408 32.9357C27.0408 32.9357 27.0408 32.9357 27.0408 32.9357C27.2894 33.3717 27.1377 33.9267 26.7016 34.1754L25.6317 30.4651ZM25.6317 30.4651C25.3829 30.0289 24.8277 29.8773 24.392 30.1259C23.956 30.3746 23.8042 30.9296 24.0528 31.3655L24.0528 31.3656L25.4619 33.8361L25.4619 33.8361M25.6317 30.4651L25.4619 33.8361M25.4619 33.8361C25.7106 34.2723 26.2654 34.424 26.7016 34.1754L25.4619 33.8361Z" fill="white" stroke="#F26F2E" stroke-width="0.3"/>
<path d="M10.3683 30.4651L10.3683 30.4651L8.95925 32.9357C8.95925 32.9357 8.95925 32.9357 8.95925 32.9357C8.71059 33.3717 8.86244 33.9267 9.29842 34.1754L9.29842 34.1754C9.73435 34.424 10.2895 34.2722 10.5381 33.8362L10.5381 33.8362L11.9472 31.3656C11.9472 31.3656 11.9472 31.3656 11.9472 31.3656C12.1959 30.9296 12.044 30.3746 11.608 30.1259C11.172 29.8773 10.617 30.0291 10.3683 30.4651Z" fill="white" stroke="#F26F2E" stroke-width="0.3"/>
<path d="M17.0912 3.52943C17.0912 4.03134 17.4981 4.43826 18 4.43826C18.5019 4.43826 18.9088 4.03134 18.9088 3.52943V1.05884C18.9088 0.556929 18.5019 0.150015 18 0.150015C17.4981 0.150015 17.0912 0.556929 17.0912 1.05884V3.52943Z" fill="white" stroke="#F26F2E" stroke-width="0.3"/>
<path d="M11.9472 4.63435L11.9472 4.63434L10.5381 2.16376C10.5381 2.16375 10.5381 2.16375 10.5381 2.16375C10.2895 1.72783 9.73447 1.57593 9.29841 1.82459C8.86244 2.07324 8.71059 2.62828 8.95925 3.06428L10.3683 5.53485C10.3683 5.53486 10.3683 5.53486 10.3683 5.53486C10.617 5.97084 11.172 6.12262 11.608 5.87403C12.044 5.62538 12.1959 5.07033 11.9472 4.63435Z" fill="white" stroke="#F26F2E" stroke-width="0.3"/>
<path d="M25.6317 5.53483L25.6317 5.53484C25.383 5.97085 24.8279 6.1226 24.392 5.87407L25.6317 5.53483ZM25.6317 5.53483L27.0408 3.06424C27.0408 3.06424 27.0408 3.06424 27.0408 3.06424C27.2894 2.62824 27.1376 2.0732 26.7016 1.82455C26.2655 1.57588 25.7105 1.7278 25.4619 2.16377L25.4619 2.16378M25.6317 5.53483L25.4619 2.16378M25.4619 2.16378L24.0528 4.63437C24.0528 4.63437 24.0528 4.63437 24.0528 4.63437M25.4619 2.16378L24.0528 4.63437M24.0528 4.63437C23.8042 5.07037 23.956 5.62541 24.392 5.87406L24.0528 4.63437Z" fill="white" stroke="#F26F2E" stroke-width="0.3"/>
</g>
<defs>
<clipPath id="clip0_140_8116">
<rect width="36" height="36" fill="white" transform="matrix(1 0 0 -1 0 36)"/>
</clipPath>
</defs>
</svg>
