<svg width="" height="" viewBox="0 0 33 33" fill="none" xmlns="http://www.w3.org/2000/svg">
<path d="M32.4354 15.9981H29.6435C30.8042 13.3631 30.6787 11.2301 30.2395 9.7871C29.4867 7.21486 26.9458 4.42303 23.1816 4.42303C22.1778 4.42303 21.174 4.61125 20.1388 4.98767C18.3508 5.64642 17.1587 6.3679 16.6255 6.74433C16.0922 6.3679 14.9316 5.64642 13.1122 4.98767C12.077 4.61125 11.0418 4.42303 10.0694 4.42303C6.30513 4.42303 3.76426 7.21486 3.01141 9.7871C2.57224 11.3242 2.4154 13.6455 3.88973 16.5628H0.501901C0.219582 16.5628 0 16.7823 0 17.0647C0 17.347 0.219582 17.5666 0.501901 17.5666H4.48574C4.64259 17.8489 4.8308 18.1312 5.05038 18.4135C8.31274 23.1188 15.4021 28.232 16.6882 28.5457V28.577C16.6882 28.577 16.7196 28.577 16.751 28.5457C16.7823 28.5457 16.8137 28.5457 16.8451 28.5457V28.5143C17.943 27.981 24.75 23.5894 28.326 18.3822C28.6711 17.9116 28.9534 17.4411 29.2044 16.9706H32.4981C32.7804 16.9706 33 16.751 33 16.4687C33 16.1863 32.7177 15.9981 32.4354 15.9981ZM27.4164 17.8489C24.0913 22.7111 17.9743 26.6322 16.6568 27.4791C15.308 26.6322 9.22243 22.6797 5.86597 17.8489C5.80323 17.7548 5.74049 17.6607 5.67776 17.5666H10.289C10.4772 17.5666 10.6654 17.4725 10.7595 17.2842L12.8612 13.1436L16.1549 21.5818C16.2177 21.77 16.4373 21.8955 16.6255 21.8955C16.6255 21.8955 16.6255 21.8955 16.6568 21.8955C16.8764 21.8955 17.0646 21.7386 17.1274 21.519L20.0133 11.6379L21.5504 16.6255C21.6131 16.8137 21.77 16.9392 21.9582 16.9706C22.1464 17.0019 22.3346 16.9078 22.4601 16.751L23.6835 14.963L24.7186 16.7196C24.8127 16.8765 24.9696 16.9706 25.1578 16.9706H27.981C27.7928 17.2842 27.6046 17.5666 27.4164 17.8489ZM28.5456 15.9981H25.4715L24.1854 13.8023C24.0913 13.6455 23.9344 13.5514 23.7462 13.5514C23.558 13.5514 23.4011 13.6141 23.307 13.7709L22.2405 15.3394L20.5152 9.72436C20.4525 9.50478 20.2329 9.37931 20.0133 9.34794C19.7937 9.34794 19.5741 9.50478 19.5114 9.72436L16.5941 19.7938L13.4259 11.7006C13.3631 11.5124 13.1749 11.3869 12.9867 11.3869C12.7671 11.3869 12.6103 11.481 12.5162 11.6692L10.038 16.5314H5.05038C3.79563 14.2415 3.45057 12.0457 4.01521 10.0694C4.67395 7.84223 6.8384 5.45821 10.1008 5.45821C10.9791 5.45821 11.8888 5.64642 12.7985 5.96011C15.0884 6.80706 16.3118 7.7795 16.3432 7.7795C16.5314 7.93634 16.7823 7.93634 16.9705 7.7795C16.9705 7.7795 18.1939 6.80706 20.5152 5.96011C21.4249 5.61505 22.3346 5.45821 23.2129 5.45821C26.4439 5.45821 28.6397 7.84223 29.2985 10.0694C29.8318 11.8888 29.5494 13.8964 28.5456 15.9981Z" fill="#2A2623"/>
<path d="M29.6435 15.9981H32.4354C32.7177 15.9981 33 16.1863 33 16.4686C33 16.7509 32.7804 16.9705 32.4981 16.9705H29.2044H27.981H25.1578C24.9696 16.9705 24.8127 16.8764 24.7186 16.7196L23.6835 14.9629L22.4601 16.7509C22.3346 16.9078 22.1464 17.0019 21.9582 16.9705C21.77 16.9392 21.6131 16.8137 21.5504 16.6255L20.0133 11.6378L17.1274 21.519C17.0646 21.7386 16.8764 21.8954 16.6568 21.8954H16.6255C16.4373 21.8954 16.2177 21.77 16.1549 21.5817L12.8612 13.1435L10.7595 17.2842C10.6654 17.4724 10.4772 17.5665 10.289 17.5665H5.67776H4.48574H0.501901C0.219582 17.5665 0 17.347 0 17.0646C0 16.7823 0.219582 16.5627 0.501901 16.5627H3.88973L5.05038 16.5314H10.038L12.5162 11.6692C12.6103 11.481 12.7671 11.3869 12.9867 11.3869C13.1749 11.3869 13.3631 11.5123 13.4259 11.7006L16.5941 19.7937L19.5114 9.72433C19.5741 9.50474 19.7937 9.3479 20.0133 9.3479C20.2329 9.37927 20.4525 9.50474 20.5152 9.72433L22.2405 15.3393L23.307 13.7709C23.4011 13.6141 23.558 13.5513 23.7462 13.5513C23.9344 13.5513 24.0913 13.6454 24.1854 13.8023L25.4715 15.9981H28.5456H29.6435Z" fill="#E1988C"/>
</svg>
