<svg width="48" height="48" viewBox="0 0 48 48" fill="none" xmlns="http://www.w3.org/2000/svg">
<path d="M37.8481 26.8904H10.1508C8.98422 26.8835 7.8305 26.6462 6.75594 26.192C5.68138 25.7379 4.70715 25.0758 3.88924 24.244C3.07134 23.4121 2.42587 22.4268 1.98993 21.3448C1.55398 20.2627 1.33617 19.1051 1.34898 17.9386C1.3618 16.7721 1.60501 15.6196 2.06462 14.5473C2.52424 13.4751 3.1912 12.5042 4.02719 11.6905C4.86319 10.8769 5.85172 10.2364 6.93601 9.80597C8.02029 9.37553 9.17894 9.16359 10.3454 9.18233C10.6859 4.94795 14.978 1.58924 20.2049 1.58924C23.0418 1.54653 25.7826 2.61616 27.8407 4.56914C28.7999 4.08438 29.8555 3.82061 30.93 3.7972C32.0045 3.77379 33.0706 3.99133 34.05 4.43385C35.0294 4.87637 35.8973 5.53262 36.5899 6.35444C37.2825 7.17625 37.7822 8.14275 38.0524 9.18297C40.3949 9.21858 42.6279 10.1811 44.2622 11.8597C45.8965 13.5383 46.799 15.7962 46.772 18.1388C46.7449 20.4815 45.7906 22.7179 44.118 24.3584C42.4454 25.9988 40.1908 26.9095 37.8481 26.8911V26.8904ZM10.1508 10.4796C9.1501 10.4665 8.15676 10.6523 7.22844 11.0262C6.30011 11.4 5.45529 11.9546 4.74301 12.6576C4.03073 13.3606 3.46517 14.1981 3.07916 15.1214C2.69315 16.0448 2.49438 17.0356 2.49438 18.0364C2.49438 19.0372 2.69315 20.028 3.07916 20.9513C3.46517 21.8747 4.03073 22.7122 4.74301 23.4152C5.45529 24.1182 6.30011 24.6727 7.22844 25.0466C8.15676 25.4205 9.1501 25.6062 10.1508 25.5931H37.8481C38.8488 25.6062 39.8421 25.4205 40.7705 25.0466C41.6988 24.6727 42.5436 24.1182 43.2559 23.4152C43.9682 22.7122 44.5337 21.8747 44.9197 20.9513C45.3057 20.028 45.5045 19.0372 45.5045 18.0364C45.5045 17.0356 45.3057 16.0448 44.9197 15.1214C44.5337 14.1981 43.9682 13.3606 43.2559 12.6576C42.5436 11.9546 41.6988 11.4 40.7705 11.0262C39.8421 10.6523 38.8488 10.4665 37.8481 10.4796C37.8001 10.4796 37.7534 10.4835 37.7054 10.4868L37.5569 10.4952C37.3999 10.5043 37.2451 10.4548 37.1227 10.3561C37.0003 10.2574 36.919 10.1167 36.8946 9.96135C36.7263 9.01984 36.3318 8.13331 35.745 7.37807C35.1582 6.62282 34.3966 6.02149 33.5259 5.62581C32.6551 5.23013 31.7013 5.05197 30.7464 5.10666C29.7916 5.16134 28.8643 5.44723 28.0444 5.93973C27.9141 6.01736 27.7608 6.04689 27.611 6.02319C27.4612 5.99949 27.3245 5.92406 27.2245 5.81C26.3219 4.86157 25.2311 4.11206 24.0222 3.60943C22.8132 3.1068 21.5125 2.86213 20.2036 2.89108C15.4684 2.89108 11.6206 5.95919 11.6206 9.73043C11.6265 9.78492 11.6291 9.82124 11.6304 9.86016C11.6328 9.95223 11.6155 10.0437 11.5798 10.1286C11.5441 10.2135 11.4907 10.2898 11.4232 10.3525C11.3557 10.4151 11.2756 10.4627 11.1883 10.492C11.101 10.5213 11.0085 10.5317 10.9169 10.5224C10.6658 10.4919 10.4109 10.4783 10.1521 10.4783L10.1508 10.4796Z" fill="#2A2623"/>
<path d="M36.319 33.9548C36.2176 33.9548 36.1177 33.9311 36.0272 33.8855C35.9367 33.84 35.8581 33.7738 35.7977 33.6924C35.7374 33.611 35.6969 33.5166 35.6797 33.4167C35.6624 33.3169 35.6687 33.2143 35.6982 33.1174L36.2009 31.4594C36.2509 31.2948 36.3642 31.1568 36.516 31.0757C36.6677 30.9946 36.8455 30.9771 37.0101 31.0271C37.1748 31.0771 37.3128 31.1904 37.3939 31.3422C37.4749 31.4939 37.4924 31.6717 37.4424 31.8363L36.9397 33.4943C36.8994 33.6275 36.8172 33.7441 36.7055 33.8271C36.5937 33.91 36.4582 33.9548 36.319 33.9548Z" fill="#2A2623"/>
<path d="M34.4309 40.1825C34.3296 40.1826 34.2296 40.1588 34.1391 40.1133C34.0486 40.0677 33.97 40.0016 33.9097 39.9202C33.8493 39.8387 33.8089 39.7443 33.7916 39.6445C33.7743 39.5446 33.7807 39.4421 33.8102 39.3451L34.3135 37.6865C34.3378 37.6045 34.378 37.528 34.4319 37.4615C34.4858 37.3951 34.5523 37.34 34.6277 37.2993C34.703 37.2587 34.7856 37.2334 34.8707 37.2248C34.9559 37.2163 35.0418 37.2246 35.1237 37.2494C35.2056 37.2742 35.2818 37.315 35.3479 37.3694C35.4139 37.4238 35.4686 37.4907 35.5087 37.5663C35.5488 37.6419 35.5735 37.7247 35.5815 37.8099C35.5894 37.8951 35.5804 37.981 35.555 38.0627L35.053 39.7207C35.0128 39.8544 34.9306 39.9715 34.8185 40.0547C34.7064 40.1379 34.5705 40.1827 34.4309 40.1825Z" fill="#2A2623"/>
<path d="M32.5421 46.4101C32.4408 46.4101 32.3409 46.3864 32.2503 46.3409C32.1598 46.2953 32.0812 46.2292 32.0209 46.1477C31.9605 46.0663 31.9201 45.9719 31.9028 45.872C31.8855 45.7722 31.8919 45.6697 31.9214 45.5727L32.4241 43.9148C32.4741 43.7501 32.5874 43.6121 32.7391 43.531C32.8909 43.4499 33.0686 43.4325 33.2333 43.4824C33.3979 43.5324 33.5359 43.6457 33.617 43.7975C33.6981 43.9492 33.7156 44.127 33.6656 44.2916L33.1629 45.9496C33.1225 46.0828 33.0404 46.1995 32.9286 46.2824C32.8168 46.3653 32.6813 46.4101 32.5421 46.4101Z" fill="#2A2623"/>
<path d="M27.8784 33.9548C27.777 33.9548 27.6771 33.9311 27.5866 33.8855C27.496 33.8399 27.4175 33.7738 27.3571 33.6924C27.2968 33.611 27.2563 33.5165 27.239 33.4167C27.2218 33.3168 27.2281 33.2143 27.2576 33.1173L27.7623 31.4594C27.8131 31.2959 27.9265 31.1591 28.0778 31.0789C28.2291 30.9987 28.4059 30.9815 28.5698 31.0312C28.7337 31.0808 28.8712 31.1933 28.9525 31.344C29.0338 31.4947 29.0523 31.6714 29.0038 31.8356L28.5017 33.4936C28.4613 33.6273 28.3789 33.7445 28.2665 33.8276C28.1542 33.9107 28.0181 33.9553 27.8784 33.9548Z" fill="#2A2623"/>
<path d="M25.9896 40.1825C25.8882 40.1825 25.7883 40.1588 25.6978 40.1132C25.6073 40.0676 25.5287 40.0015 25.4683 39.9201C25.408 39.8387 25.3675 39.7442 25.3503 39.6444C25.333 39.5445 25.3393 39.442 25.3688 39.345L25.8715 37.6871C25.9215 37.5225 26.0348 37.3844 26.1866 37.3033C26.3383 37.2223 26.5161 37.2048 26.6807 37.2548C26.8454 37.3048 26.9834 37.4181 27.0645 37.5698C27.1456 37.7216 27.163 37.8993 27.1131 38.064L26.6103 39.7219C26.57 39.8551 26.4878 39.9718 26.3761 40.0547C26.2643 40.1377 26.1288 40.1824 25.9896 40.1825Z" fill="#2A2623"/>
<path d="M24.101 46.4101C23.9997 46.4101 23.8998 46.3864 23.8092 46.3409C23.7187 46.2953 23.6401 46.2292 23.5798 46.1477C23.5194 46.0663 23.479 45.9719 23.4617 45.872C23.4444 45.7722 23.4508 45.6697 23.4803 45.5727L23.983 43.9148C24.0077 43.8332 24.0483 43.7574 24.1023 43.6916C24.1564 43.6257 24.2229 43.5712 24.298 43.531C24.3732 43.4909 24.4555 43.4659 24.5403 43.4576C24.6251 43.4492 24.7106 43.4577 24.7922 43.4824C24.8737 43.5072 24.9495 43.5477 25.0154 43.6018C25.0812 43.6559 25.1358 43.7224 25.1759 43.7975C25.2161 43.8726 25.241 43.9549 25.2493 44.0397C25.2577 44.1245 25.2492 44.2101 25.2245 44.2916L24.7218 45.9496C24.6814 46.0828 24.5993 46.1995 24.4875 46.2824C24.3757 46.3653 24.2402 46.4101 24.101 46.4101Z" fill="#2A2623"/>
<path d="M19.4373 33.9548C19.3359 33.9548 19.236 33.9311 19.1455 33.8855C19.0549 33.84 18.9764 33.7738 18.916 33.6924C18.8557 33.611 18.8152 33.5166 18.7979 33.4167C18.7807 33.3169 18.787 33.2143 18.8165 33.1174L19.3192 31.4594C19.3692 31.2948 19.4825 31.1568 19.6343 31.0757C19.786 30.9946 19.9638 30.9771 20.1284 31.0271C20.293 31.0771 20.4311 31.1904 20.5122 31.3422C20.5932 31.4939 20.6107 31.6717 20.5607 31.8363L20.058 33.4943C20.0177 33.6275 19.9355 33.7441 19.8237 33.8271C19.712 33.91 19.5765 33.9548 19.4373 33.9548Z" fill="#2A2623"/>
<path d="M17.5492 40.1825C17.4479 40.1825 17.3479 40.1588 17.2574 40.1132C17.1669 40.0676 17.0883 40.0015 17.0279 39.9201C16.9676 39.8387 16.9272 39.7442 16.9099 39.6444C16.8926 39.5445 16.899 39.442 16.9285 39.345L17.4312 37.6871C17.4559 37.6056 17.4965 37.5297 17.5505 37.4639C17.6046 37.398 17.6711 37.3435 17.7462 37.3033C17.8214 37.2632 17.9037 37.2383 17.9885 37.2299C18.0732 37.2216 18.1588 37.23 18.2404 37.2548C18.3219 37.2795 18.3977 37.3201 18.4636 37.3741C18.5294 37.4282 18.584 37.4947 18.6241 37.5698C18.6642 37.645 18.6892 37.7273 18.6975 37.8121C18.7059 37.8969 18.6974 37.9824 18.6727 38.064L18.17 39.7219C18.1296 39.8551 18.0475 39.9718 17.9357 40.0547C17.8239 40.1377 17.6884 40.1824 17.5492 40.1825Z" fill="#2A2623"/>
<path d="M15.6611 46.4102C15.5598 46.4102 15.4598 46.3865 15.3693 46.3409C15.2788 46.2954 15.2002 46.2292 15.1398 46.1478C15.0795 46.0664 15.039 45.972 15.0218 45.8721C15.0045 45.7723 15.0108 45.6698 15.0403 45.5728L15.5424 43.9149C15.5932 43.7513 15.7066 43.6146 15.8579 43.5343C16.0092 43.4541 16.1861 43.437 16.3499 43.4866C16.5138 43.5363 16.6514 43.6487 16.7327 43.7994C16.814 43.9501 16.8324 44.1268 16.7839 44.2911L16.2812 45.949C16.241 46.0822 16.159 46.199 16.0473 46.282C15.9357 46.3651 15.8003 46.41 15.6611 46.4102Z" fill="#2A2623"/>
<path d="M10.9965 33.9548C10.8953 33.9544 10.7957 33.9304 10.7055 33.8847C10.6153 33.8389 10.5371 33.7727 10.477 33.6914C10.4169 33.61 10.3767 33.5158 10.3596 33.4161C10.3425 33.3164 10.3489 33.2141 10.3783 33.1174L10.881 31.4594C10.931 31.2948 11.0443 31.1568 11.1961 31.0757C11.3478 30.9946 11.5256 30.9771 11.6902 31.0271C11.8548 31.0771 11.9929 31.1904 12.0739 31.3422C12.155 31.4939 12.1725 31.6717 12.1225 31.8363L11.6198 33.4943C11.5793 33.6279 11.4968 33.7449 11.3845 33.8279C11.2722 33.9108 11.1361 33.9554 10.9965 33.9548Z" fill="#2A2623"/>
<path d="M9.10855 40.1825C9.0072 40.1825 8.90726 40.1588 8.81674 40.1132C8.72621 40.0677 8.64763 40.0015 8.58728 39.9201C8.52692 39.8387 8.48649 39.7443 8.46921 39.6444C8.45194 39.5446 8.4583 39.442 8.48779 39.3451L8.98984 37.6871C9.01407 37.6051 9.0543 37.5286 9.10822 37.4622C9.16213 37.3957 9.22866 37.3406 9.30397 37.2999C9.37928 37.2593 9.46188 37.234 9.54703 37.2254C9.63217 37.2169 9.71816 37.2252 9.80006 37.25C9.88195 37.2749 9.95813 37.3156 10.0242 37.37C10.0903 37.4244 10.1449 37.4913 10.185 37.5669C10.2251 37.6425 10.2498 37.7253 10.2578 37.8105C10.2657 37.8957 10.2568 37.9816 10.2314 38.0634L9.72995 39.722C9.68956 39.8553 9.60732 39.972 9.4954 40.055C9.38349 40.1379 9.24784 40.1826 9.10855 40.1825Z" fill="#2A2623"/>
<path d="M7.21926 46.4101C7.11792 46.4101 7.01798 46.3864 6.92745 46.3409C6.83693 46.2953 6.75834 46.2292 6.69799 46.1477C6.63764 46.0663 6.59721 45.9719 6.57993 45.872C6.56265 45.7722 6.56902 45.6697 6.59851 45.5727L7.10121 43.9148C7.15118 43.7501 7.26451 43.6121 7.41627 43.531C7.56802 43.4499 7.74576 43.4325 7.9104 43.4824C8.07503 43.5324 8.21307 43.6457 8.29415 43.7975C8.37522 43.9492 8.3927 44.127 8.34272 44.2916L7.84002 45.9496C7.79965 46.0828 7.71751 46.1995 7.60573 46.2824C7.49395 46.3653 7.35845 46.4101 7.21926 46.4101Z" fill="#2A2623"/>
</svg>
