<svg width="50" height="25" viewBox="0 0 50 25" fill="none" xmlns="http://www.w3.org/2000/svg">
<path d="M38.5 0.299969C38.2 0.299969 37.9 0.299969 37.7 0.299969C37.6 0.299969 28.1 -0.400032 24.3 12.2C20.9 23.3 13.2 23 12.3 23C12.2 23 12 23 11.8 23C6.20001 22.7 1.80001 18.1 1.80001 12.4C1.80001 6.49997 6.60001 1.79997 12.4 1.79997C15.9 1.79997 19.2 3.49997 21.2 6.49997L22.5 5.69997C20.2 2.29997 16.5 0.299969 12.4 0.299969C5.70001 0.299969 0.200012 5.69997 0.200012 12.4C0.200012 18.9 5.30001 24.2 11.8 24.5C12 24.5 12.2 24.5 12.3 24.5C12.3 24.5 12.5 24.5 12.6 24.5C14.2 24.5 22.3 23.9 25.7 12.6C29.1 1.49997 36.8 1.69997 37.7 1.79997C38 1.79997 38.2 1.79997 38.5 1.79997C44 2.19997 48.3 6.89997 48.3 12.4C48.3 18.3 43.5 23 37.7 23C34.2 23 30.9 21.3 28.9 18.3L27.6 19.1C29.9 22.5 33.6 24.5 37.7 24.5C44.4 24.5 49.8 19.1 49.8 12.4C49.8 6.09997 44.8 0.799969 38.5 0.299969Z" fill="#2A2623"/>
</svg>
