<svg width="" height="" viewBox="0 0 24 24" fill="none" xmlns="http://www.w3.org/2000/svg">
<path fill-rule="evenodd" clip-rule="evenodd" d="M10.8542 0.0281085C7.26023 0.375827 4.00158 2.32887 1.97986 5.34683C1.24786 6.43953 0.562969 8.02719 0.28125 9.28433C0.0519375 10.3079 0 10.8055 0 11.9796C0 13.1538 0.0519375 13.6514 0.28125 14.6749C0.661828 16.3733 1.6043 18.2773 2.72916 19.6203C3.85617 20.9658 5.14326 21.9772 6.69942 22.7401C7.89562 23.3266 8.96723 23.6598 10.3322 23.8696C11.0874 23.9857 12.8583 23.9857 13.6135 23.8696C14.9785 23.6598 16.0501 23.3266 17.2463 22.7401C19.6729 21.5505 21.5437 19.6797 22.7333 17.2531C23.3198 16.0569 23.653 14.9853 23.8628 13.6203C23.9789 12.8651 23.9789 11.0942 23.8628 10.339C23.653 8.97401 23.3198 7.9024 22.7333 6.7062C21.5437 4.27962 19.6729 2.4088 17.2463 1.21916C16.0627 0.638843 14.9685 0.296796 13.6604 0.0981866C13.0716 0.00879598 11.4677 -0.0312821 10.8542 0.0281085ZM13.4729 1.17997C15.8535 1.52576 18.0054 2.59789 19.68 4.2725C21.3598 5.95226 22.4007 8.04387 22.7807 10.5031C22.8364 10.8631 22.8604 11.3087 22.8604 11.9796C22.8604 13.7527 22.5122 15.2521 21.7371 16.8172C20.1284 20.0649 17.1411 22.217 13.4494 22.7875C12.7415 22.8969 11.2042 22.8969 10.4963 22.7875C8.03709 22.4075 5.94548 21.3666 4.26572 19.6868C2.58591 18.007 1.545 15.9154 1.16498 13.4562C1.05558 12.7482 1.05558 11.211 1.16498 10.5031C1.3582 9.25287 1.68591 8.19758 2.20866 7.14209C3.78848 3.95248 6.75469 1.78123 10.3307 1.1968C11.2349 1.04905 12.5241 1.04211 13.4729 1.17997ZM12.6815 6.04719C12.2411 6.19048 11.8174 6.59084 11.6917 6.98234C11.5445 7.44069 11.7158 8.03543 12.0896 8.36356C12.9134 9.08693 14.2992 8.77761 14.6247 7.79759C14.9176 6.91573 14.2451 6.03734 13.245 5.99539C13.0224 5.98606 12.8092 6.00565 12.6815 6.04719ZM11.1314 10.0615C10.8123 10.1178 9.53067 10.5564 9.45975 10.6335C9.41189 10.6856 9.24445 11.2825 9.27047 11.3085C9.27656 11.3146 9.41779 11.2768 9.58425 11.2246C10.2377 11.0195 10.847 11.1146 11.0052 11.4462C11.1733 11.7988 11.0875 12.3146 10.5657 14.089C10.1659 15.4484 10.0946 15.7801 10.0873 16.3156C10.0826 16.6607 10.101 16.7819 10.1885 16.9819C10.3266 17.2973 10.669 17.6166 11.071 17.8047C11.3544 17.9374 11.4394 17.9538 11.9328 17.9714C12.5899 17.9948 12.9019 17.9344 13.7775 17.614L14.3869 17.3911L14.4774 17.0766C14.5272 16.9037 14.5568 16.7511 14.5433 16.7376C14.5298 16.7241 14.4258 16.7478 14.3122 16.7904C14.0084 16.9042 13.2197 16.9062 13.0138 16.7937C12.5243 16.5266 12.5545 16.0758 13.2126 13.8209C13.624 12.4114 13.6605 12.2392 13.6648 11.6893C13.6709 10.9085 13.4178 10.5037 12.7229 10.1831C12.452 10.0581 12.3609 10.0411 11.9025 10.0295C11.6189 10.0222 11.272 10.0367 11.1314 10.0615Z" fill=""/>
</svg>
