<svg width="45" height="45" viewBox="0 0 45 45" fill="none" xmlns="http://www.w3.org/2000/svg">
<g clip-path="url(#clip0_136_89)">
<path d="M14.5364 32.6996L14.5366 32.6994L14.5297 32.6941C11.194 30.0996 9.52569 26.3952 9.52515 22.3145C9.71152 15.2723 15.4569 9.71141 22.3147 9.525C25.8399 9.5255 29.1749 10.8244 31.5816 13.2311C33.9926 15.6421 35.4752 18.9795 35.4752 22.5C35.4752 26.3947 33.8064 30.099 30.659 32.5058L30.6581 32.5066C28.9338 33.8477 27.9752 35.9541 27.9752 37.875V42.1875C27.9752 43.6047 26.7298 44.85 25.3127 44.85H19.6877C18.4639 44.85 17.0252 43.7982 17.0252 41.625V37.6875C17.0252 35.7591 16.0604 34.0331 14.5364 32.6996ZM11.1002 22.3078L11.1002 22.3078V22.3125C11.1002 25.9145 12.6165 29.3363 15.4707 31.4311C17.5002 33.0928 18.6002 35.3008 18.6002 37.6875V41.625V41.6302C18.6001 41.8174 18.6001 42.2134 18.7261 42.5661C18.7903 42.746 18.8905 42.9242 19.0489 43.058C19.2099 43.1939 19.4207 43.275 19.6877 43.275H25.3127C25.628 43.275 25.9024 43.1692 26.0984 42.9733C26.2944 42.7773 26.4002 42.5028 26.4002 42.1875V37.875C26.4002 35.4875 27.6883 32.9041 29.719 31.242C32.3809 29.1499 33.9002 25.9187 33.9002 22.5C33.9002 19.4603 32.7594 16.6096 30.4812 14.3314C28.3892 12.2394 25.5379 11.1 22.5002 11.1C16.4164 11.1 11.2902 16.2296 11.1002 22.3078Z" fill="#2A2623" stroke="#FDFBF7" stroke-width="0.3"/>
<path d="M27.1875 39.225H17.8125C17.5653 39.225 17.371 39.1433 17.2389 39.0111C17.1067 38.879 17.025 38.6847 17.025 38.4375C17.025 38.1903 17.1067 37.996 17.2389 37.8639C17.371 37.7317 17.5653 37.65 17.8125 37.65H27.1875C27.4347 37.65 27.629 37.7317 27.7611 37.8639C27.8933 37.996 27.975 38.1903 27.975 38.4375C27.975 38.6847 27.8933 38.879 27.7611 39.0111C27.629 39.1433 27.4347 39.225 27.1875 39.225Z" fill="#2A2623" stroke="#FDFBF7" stroke-width="0.3"/>
<path d="M22.4998 5.475C22.2527 5.475 22.0584 5.39327 21.9262 5.26112C21.7941 5.12898 21.7123 4.93466 21.7123 4.6875V0.9375C21.7123 0.690337 21.7941 0.496024 21.9262 0.363878C22.0584 0.231733 22.2527 0.15 22.4998 0.15C22.747 0.15 22.9413 0.231733 23.0735 0.363878C23.2056 0.496024 23.2873 0.690337 23.2873 0.9375V4.6875C23.2873 4.93466 23.2056 5.12898 23.0735 5.26112C22.9413 5.39327 22.747 5.475 22.4998 5.475Z" fill="#2A2623" stroke="#FDFBF7" stroke-width="0.3"/>
<path d="M35.0623 10.725C34.9677 10.725 34.8387 10.7247 34.712 10.7036C34.5817 10.6819 34.4789 10.6419 34.4184 10.5814C34.1019 10.265 34.1019 9.79748 34.4184 9.48106L37.0434 6.85607C37.3598 6.53964 37.8273 6.53964 38.1437 6.85607C38.4602 7.17249 38.4602 7.64001 38.1437 7.95643L35.5365 10.5636C35.5271 10.5681 35.5149 10.5739 35.5004 10.5806C35.464 10.5974 35.4137 10.6198 35.3582 10.642C35.3023 10.6643 35.243 10.6858 35.1881 10.7015C35.1309 10.7178 35.0882 10.725 35.0623 10.725Z" fill="#2A2623" stroke="#FDFBF7" stroke-width="0.3"/>
<path d="M44.0625 23.2875H40.3125C40.0653 23.2875 39.871 23.2058 39.7389 23.0736C39.6067 22.9415 39.525 22.7472 39.525 22.5C39.525 22.2528 39.6067 22.0585 39.7389 21.9264C39.871 21.7942 40.0653 21.7125 40.3125 21.7125H44.0625C44.3097 21.7125 44.504 21.7942 44.6361 21.9264C44.7683 22.0585 44.85 22.2528 44.85 22.5C44.85 22.7472 44.7683 22.9415 44.6361 23.0736C44.504 23.2058 44.3097 23.2875 44.0625 23.2875Z" fill="#2A2623" stroke="#FDFBF7" stroke-width="0.3"/>
<path d="M38.1437 38.3314L38.0998 38.3754V38.4375C38.0998 38.4417 38.0996 38.4448 38.0994 38.4472C38.0948 38.4494 38.0865 38.4526 38.0728 38.456C38.0015 38.4738 37.8842 38.475 37.6873 38.475C37.5927 38.475 37.4637 38.4747 37.337 38.4536C37.2067 38.4319 37.1039 38.3919 37.0434 38.3314L34.4184 35.7064C34.1019 35.39 34.1019 34.9225 34.4184 34.6061C34.7348 34.2896 35.2023 34.2896 35.5187 34.6061L38.1437 37.2311C38.4602 37.5475 38.4602 38.015 38.1437 38.3314Z" fill="#2A2623" stroke="#FDFBF7" stroke-width="0.3"/>
<path d="M7.31238 38.475C7.21776 38.475 7.08881 38.4747 6.96204 38.4536C6.83182 38.4319 6.72894 38.3919 6.66844 38.3314C6.35202 38.015 6.35202 37.5475 6.66844 37.2311L9.29344 34.6061C9.60987 34.2896 10.0774 34.2896 10.3938 34.6061C10.7102 34.9225 10.7102 35.39 10.3938 35.7064L7.76881 38.3314C7.62795 38.4723 7.49765 38.475 7.31238 38.475Z" fill="#2A2623" stroke="#FDFBF7" stroke-width="0.3"/>
<path d="M4.6875 23.2875H0.9375C0.690337 23.2875 0.496024 23.2058 0.363879 23.0736C0.231733 22.9415 0.15 22.7472 0.15 22.5C0.15 22.2528 0.231733 22.0585 0.363879 21.9264C0.496024 21.7942 0.690337 21.7125 0.9375 21.7125H4.6875C4.93466 21.7125 5.12898 21.7942 5.26112 21.9264C5.39327 22.0585 5.475 22.2528 5.475 22.5C5.475 22.7472 5.39327 22.9415 5.26112 23.0736C5.12898 23.2058 4.93466 23.2875 4.6875 23.2875Z" fill="#2A2623" stroke="#FDFBF7" stroke-width="0.3"/>
<path d="M6.67204 7.77265L6.6721 7.77259L6.66844 7.76893C6.35202 7.45251 6.35202 6.98499 6.66844 6.66857C6.98487 6.35214 7.45239 6.35214 7.76881 6.66857L10.3938 9.29356C10.7102 9.60999 10.7102 10.0775 10.3938 10.3939C10.2981 10.4896 10.2122 10.5751 10.1286 10.6378C10.0435 10.7017 9.98218 10.725 9.93738 10.725C9.84276 10.725 9.71381 10.7247 9.58704 10.7036C9.45797 10.6821 9.35577 10.6426 9.29506 10.583L6.67204 7.77265Z" fill="#2A2623" stroke="#FDFBF7" stroke-width="0.3"/>
<path d="M29.9998 23.2875C29.7527 23.2875 29.5584 23.2058 29.4262 23.0736C29.2941 22.9415 29.2123 22.7472 29.2123 22.5C29.2123 18.8547 26.1452 15.7875 22.4998 15.7875C22.2527 15.7875 22.0584 15.7058 21.9262 15.5736C21.7941 15.4415 21.7123 15.2472 21.7123 15C21.7123 14.7528 21.7941 14.5585 21.9262 14.4264C22.0584 14.2942 22.2527 14.2125 22.4998 14.2125C27.1045 14.2125 30.7873 17.8953 30.7873 22.5C30.7873 22.7472 30.7056 22.9415 30.5735 23.0736C30.4413 23.2058 30.247 23.2875 29.9998 23.2875Z" fill="#2A2623" stroke="#FDFBF7" stroke-width="0.3"/>
</g>
<defs>
<clipPath id="clip0_136_89">
<rect width="45" height="45" fill="white"/>
</clipPath>
</defs>
</svg>
