<svg width="" height="" viewBox="0 0 20 28" fill="none" xmlns="http://www.w3.org/2000/svg">
<path fill-rule="evenodd" clip-rule="evenodd" d="M10.7741 0.0178179C13.8296 0.425016 16.2011 2.44531 17.1277 5.43074C17.4284 6.39959 17.4735 6.84969 17.5048 9.19778L17.5335 11.3514L17.9052 11.4129C18.8077 11.5624 19.4914 12.1525 19.8475 13.0897L19.9801 13.4385L19.9961 19.4258C20.0076 23.715 19.9942 25.5256 19.949 25.8096C19.7789 26.8776 19.027 27.7094 18.0284 27.934C17.8178 27.9814 15.5528 27.9999 9.98126 27.9999C1.60899 27.9999 1.94538 28.0116 1.33109 27.7006C0.703316 27.3828 0.177938 26.6067 0.0509892 25.8096C0.00576019 25.5256 -0.00756454 23.715 0.00388145 19.4258L0.0199146 13.4385L0.152449 13.0897C0.508635 12.1525 1.19226 11.5624 2.09483 11.4129L2.4665 11.3514L2.4952 9.19778C2.52649 6.84969 2.57155 6.39959 2.87228 5.43074C3.48784 3.44741 4.81334 1.80362 6.5512 0.86843C7.18263 0.528662 7.90827 0.261788 8.56884 0.126346C9.02129 0.0336291 10.3879 -0.0336269 10.7741 0.0178179ZM8.79542 1.86768C6.9242 2.28307 5.36487 3.64034 4.61794 5.50375C4.24544 6.43313 4.23394 6.53323 4.20917 9.06419L4.1865 11.3749H10H15.8135L15.7908 9.06419C15.7696 6.91671 15.7596 6.72226 15.6491 6.3103C15.3285 5.11608 14.8151 4.21734 13.9809 3.39004C13.0473 2.46409 12.0286 1.97557 10.5806 1.75938C10.27 1.71305 9.1996 1.77799 8.79542 1.86768ZM2.09246 13.227C1.98652 13.2866 1.85006 13.4239 1.78924 13.5322C1.68059 13.7257 1.67866 13.8335 1.67866 19.6874C1.67866 25.5209 1.68092 25.6497 1.78802 25.8358C1.84818 25.9404 1.99912 26.0778 2.12342 26.141C2.34525 26.254 2.48978 26.2561 10 26.2561C17.5102 26.2561 17.6548 26.254 17.8766 26.141C18.0009 26.0778 18.1518 25.9404 18.212 25.8358C18.3191 25.6497 18.3213 25.5209 18.3213 19.6874C18.3213 13.8013 18.32 13.7267 18.2089 13.5256C18.147 13.4137 18.0102 13.2764 17.9048 13.2206C17.7251 13.1253 17.2332 13.1189 9.99912 13.1189C2.57979 13.1187 2.27779 13.1229 2.09246 13.227ZM10.6635 15.84C10.8612 15.8944 11.1349 16.008 11.2717 16.0925C12.365 16.7676 12.7997 18.263 12.2539 19.4712C12.0161 19.9976 11.6188 20.4304 11.1662 20.6558L10.8349 20.8209L10.8321 21.8963C10.8296 22.8005 10.8138 23.0038 10.7325 23.1732C10.4565 23.7483 9.54346 23.7483 9.2675 23.1732C9.18622 23.0038 9.17035 22.8005 9.16792 21.8963L9.1651 20.8209L8.83379 20.6558C8.11036 20.2954 7.58393 19.4668 7.52759 18.5998C7.43946 17.2444 8.19535 16.1218 9.39661 15.8242C9.85033 15.7117 10.2131 15.7163 10.6635 15.84ZM9.49143 17.6611C9.16803 17.9032 9.07785 18.4226 9.29028 18.82C9.43083 19.0829 9.67682 19.2224 10 19.2224C10.3232 19.2224 10.5692 19.0829 10.7097 18.82C10.9736 18.3263 10.7699 17.6934 10.2962 17.5353C10.0646 17.4579 9.68307 17.5176 9.49143 17.6611Z" fill="#A90E0E"/>
</svg>
