<svg width="" height="" viewBox="0 0 33 35" fill="none" xmlns="http://www.w3.org/2000/svg">
<path fill-rule="evenodd" clip-rule="evenodd" d="M22.9125 0.138459C22.763 0.260898 22.7425 0.325746 22.7425 0.676061V1.07436H22.3964C21.9532 1.07436 21.7102 1.25042 21.7102 1.5715C21.7102 1.91517 21.928 2.08236 22.3756 2.08236H22.7425V2.47387C22.7425 2.79616 22.7689 2.89111 22.8918 3.01147C23.0747 3.19036 23.3243 3.19896 23.5209 3.03318C23.6378 2.93453 23.6743 2.82311 23.6971 2.49557L23.7257 2.08236H24.0657C24.5113 2.08236 24.7038 1.93029 24.7038 1.57836C24.7038 1.22421 24.5118 1.07436 24.0579 1.07436H23.7103V0.768595C23.7103 0.10627 23.3241 -0.198752 22.9125 0.138459ZM28.5784 1.23933C28.3007 1.52863 28.3609 1.70073 28.965 2.34377L29.51 2.92384L28.965 3.50176C28.3599 4.14339 28.2876 4.34855 28.5693 4.62428C28.8475 4.89644 29.0279 4.82534 29.6388 4.20273L30.1957 3.63509L30.7506 4.20273C31.3659 4.83233 31.5318 4.89536 31.8101 4.60539C32.0879 4.3161 32.0277 4.144 31.4235 3.50096L30.8786 2.92088L31.4235 2.34296C32.028 1.70201 32.0885 1.52923 31.8101 1.23933C31.5318 0.949364 31.3659 1.0124 30.7506 1.642L30.1957 2.20964L29.6388 1.642C29.0214 1.01273 28.8562 0.950036 28.5784 1.23933ZM20.9683 6.91144C20.5372 7.1887 20.5197 7.24166 20.4844 8.36934L20.4521 9.401L19.7661 9.90796C19.0329 10.4497 18.9053 10.5957 18.8379 10.9697C18.7852 11.2622 18.9799 11.7652 19.2052 11.919C19.2891 11.9762 19.7198 12.1403 20.1624 12.2836L20.9673 12.5444L21.0548 12.8673L21.1425 13.1904L18.8136 15.6159L16.4848 18.0416L16.0819 17.6219L15.6789 17.2022L17.372 15.4379C18.8741 13.8724 19.065 13.6495 19.065 13.4604C19.065 13.2083 18.8174 12.9688 18.5568 12.9688C18.4194 12.9688 16.7371 14.688 9.36759 22.36C4.13217 27.8103 0.273813 31.8781 0.173295 32.0537C0.0289039 32.3056 0 32.4354 0 32.8317C0 33.2439 0.0260652 33.3513 0.195231 33.6364C0.316266 33.8403 0.510593 34.0427 0.70634 34.1687C0.980024 34.3449 1.08312 34.3721 1.47888 34.3721C1.8594 34.3721 1.98392 34.342 2.22586 34.1915C2.39438 34.0867 6.49216 29.8678 11.9951 24.1336L21.4739 14.2564L21.5909 14.4112C21.7581 14.6326 22.2026 14.8028 22.4747 14.7496C22.8268 14.6809 22.9695 14.5448 23.4875 13.7841L23.9743 13.0696L24.9663 13.036C25.9139 13.0039 25.9661 12.9949 26.1308 12.8344C26.3707 12.6006 26.4846 12.3475 26.4843 12.0482C26.484 11.7612 26.3757 11.5537 25.8442 10.8219C25.6415 10.5428 25.456 10.2796 25.4319 10.2372C25.4079 10.1947 25.5042 9.80951 25.646 9.38111C26.0134 8.27137 25.9759 7.86245 25.4754 7.51872C25.1951 7.3262 24.8236 7.36154 23.9934 7.65978C23.5821 7.80748 23.2122 7.90781 23.1715 7.88275C23.1307 7.85768 22.878 7.66441 22.6101 7.45327C22.3421 7.24213 22.0227 7.00578 21.9004 6.9281C21.6239 6.75257 21.2263 6.74538 20.9683 6.91144ZM22.2085 8.4012C22.5869 8.69795 22.9563 8.95594 23.0292 8.97442C23.1022 8.9929 23.5517 8.87133 24.0281 8.70434C24.5046 8.53728 24.9035 8.41007 24.9146 8.42156C24.9256 8.43312 24.8035 8.84862 24.6431 9.34489C24.4828 9.84117 24.3661 10.3093 24.3838 10.3854C24.4016 10.4613 24.6493 10.846 24.9342 11.2402C25.2191 11.6344 25.4522 11.9729 25.4522 11.9924C25.4522 12.012 25.0438 12.028 24.5447 12.028C24.0456 12.028 23.5849 12.0572 23.5209 12.0928C23.4568 12.1285 23.1626 12.5141 22.8671 12.9496L22.3296 13.7416L22.0819 12.9016C21.9456 12.4396 21.8067 11.9931 21.7731 11.9094C21.7001 11.7273 21.6468 11.7025 20.6151 11.3703L19.8103 11.1112L20.569 10.5528C20.9862 10.2457 21.3556 9.93995 21.3899 9.87322C21.4241 9.80656 21.4521 9.32668 21.4521 8.80682C21.4521 8.28696 21.4675 7.86158 21.4863 7.86158C21.505 7.86158 21.83 8.10437 22.2085 8.4012ZM31.2792 8.66698C31.081 8.75225 31.0008 8.94243 31.0008 9.32749V9.65986L30.604 9.6897C30.1593 9.72323 29.9685 9.87927 29.9685 10.2093C29.9685 10.514 30.2067 10.684 30.6339 10.684H31.0008V11.0755C31.0008 11.3978 31.0272 11.4927 31.1501 11.6131C31.3614 11.8198 31.6657 11.8061 31.8348 11.5821C31.9323 11.453 31.9685 11.3075 31.9685 11.0445V10.684H32.3509C32.6873 10.684 32.7495 10.6626 32.8671 10.5069C33.1908 10.0782 32.898 9.67599 32.2621 9.67599H31.9685V9.31384C31.9685 8.78081 31.6687 8.49951 31.2792 8.66698ZM15.4209 18.346L15.805 18.7504L8.80577 26.0366C3.74938 31.3003 1.75398 33.3361 1.61739 33.3706C1.24777 33.4639 0.871893 33.0724 0.961508 32.6874C0.99467 32.5452 2.94594 30.4702 7.98736 25.216C11.8263 21.2151 14.9829 17.9416 15.002 17.9416C15.0211 17.9416 15.2095 18.1236 15.4209 18.346Z" fill="#E1988C"/>
<path fill-rule="evenodd" clip-rule="evenodd" d="M20.9683 6.91166C20.5372 7.18892 20.5197 7.24187 20.4844 8.36953L20.4521 9.40116L19.7661 9.90811C19.0329 10.4498 18.9053 10.5958 18.8379 10.9698C18.7852 11.2623 18.9799 11.7653 19.2052 11.9191C19.289 11.9763 19.7198 12.1404 20.1624 12.2837L20.9673 12.5444L21.0548 12.8674L21.1424 13.1904L18.8136 15.6159L16.4848 18.0415L16.0819 17.6219L15.6789 17.2022L17.372 15.4379C18.8741 13.8724 19.065 13.6495 19.065 13.4605C19.065 13.2084 18.8174 12.9689 18.5568 12.9689C18.4194 12.9689 16.7371 14.6881 9.36758 22.3599C4.13216 27.81 0.273813 31.8777 0.173295 32.0532C0.0289039 32.3052 0 32.435 0 32.8313C0 33.2435 0.0260652 33.3508 0.195231 33.6359C0.316266 33.8398 0.510593 34.0422 0.70634 34.1682C0.980024 34.3444 1.08312 34.3716 1.47887 34.3716C1.8594 34.3716 1.98392 34.3415 2.22586 34.191C2.39438 34.0862 6.49216 29.8675 11.9951 24.1334L21.4739 14.2564L21.5908 14.4112C21.7581 14.6326 22.2026 14.8028 22.4747 14.7496C22.8268 14.6809 22.9695 14.5448 23.4875 13.7842L23.9743 13.0697L24.9663 13.0361C25.9139 13.0039 25.9661 12.9949 26.1308 12.8345C26.3707 12.6007 26.4846 12.3475 26.4843 12.0482C26.484 11.7613 26.3757 11.5538 25.8442 10.822C25.6415 10.5429 25.456 10.2798 25.4319 10.2373C25.4078 10.1948 25.5042 9.80966 25.646 9.38127C26.0134 8.27156 25.9759 7.86265 25.4754 7.51893C25.1951 7.32641 24.8236 7.36176 23.9934 7.65998C23.5821 7.80768 23.2122 7.90801 23.1715 7.88295C23.1307 7.85788 22.878 7.66462 22.6101 7.45348C22.3421 7.24234 22.0227 7.00601 21.9004 6.92833C21.6239 6.7528 21.2263 6.74561 20.9683 6.91166ZM22.2085 8.40138C22.5869 8.69813 22.9563 8.95611 23.0292 8.97459C23.1022 8.99307 23.5517 8.8715 24.0281 8.70452C24.5046 8.53746 24.9035 8.41025 24.9146 8.42174C24.9256 8.4333 24.8035 8.84879 24.6431 9.34505C24.4828 9.84131 24.3661 10.3095 24.3838 10.3855C24.4016 10.4614 24.6492 10.8461 24.9342 11.2403C25.2191 11.6345 25.4522 11.973 25.4522 11.9925C25.4522 12.0121 25.0438 12.0281 24.5447 12.0281C24.0456 12.0281 23.5849 12.0572 23.5209 12.0929C23.4568 12.1286 23.1626 12.5142 22.8671 12.9497L22.3296 13.7416L22.0819 12.9017C21.9456 12.4397 21.8067 11.9932 21.7731 11.9095C21.7001 11.7274 21.6468 11.7026 20.6151 11.3704L19.8103 11.1114L20.569 10.5529C20.9862 10.2458 21.3556 9.94009 21.3899 9.87337C21.4241 9.80671 21.4521 9.32684 21.4521 8.80699C21.4521 8.28715 21.4675 7.86178 21.4863 7.86178C21.505 7.86178 21.83 8.10457 22.2085 8.40138ZM15.4209 18.346L15.805 18.7503L8.80576 26.0364C3.74938 31.2999 1.75398 33.3357 1.61739 33.3701C1.24777 33.4635 0.871892 33.072 0.961507 32.687C0.994669 32.5447 2.94594 30.4698 7.98735 25.2158C11.8263 21.2149 14.9829 17.9416 15.002 17.9416C15.0211 17.9416 15.2095 18.1235 15.4209 18.346Z" fill="#2A2623"/>
</svg>
