<svg width="" height="" viewBox="0 0 36 36" fill="none" xmlns="http://www.w3.org/2000/svg">
<path fill-rule="evenodd" clip-rule="evenodd" d="M24.9955 0.145016C24.8324 0.273254 24.81 0.341174 24.81 0.70808V1.12524H24.4324C23.9489 1.12524 23.6839 1.30964 23.6839 1.64593C23.6839 2.00587 23.9215 2.18098 24.4098 2.18098H24.81V2.59104C24.81 2.92859 24.8388 3.02804 24.9729 3.1541C25.1724 3.34146 25.4446 3.35047 25.6592 3.17683C25.7867 3.07351 25.8265 2.95682 25.8514 2.61377L25.8826 2.18098H26.2535C26.7396 2.18098 26.9496 2.02171 26.9496 1.65311C26.9496 1.28219 26.7402 1.12524 26.245 1.12524H25.8657V0.804997C25.8657 0.111303 25.4444 -0.208165 24.9955 0.145016ZM31.1765 1.29803C30.8735 1.60103 30.9392 1.78128 31.5982 2.45477L32.1927 3.06232L31.5982 3.66761C30.9381 4.33963 30.8592 4.55451 31.1666 4.84329C31.4701 5.12834 31.6668 5.05388 32.3332 4.40178L32.9408 3.80725L33.5461 4.40178C34.2174 5.0612 34.3983 5.12722 34.702 4.82351C35.005 4.52051 34.9393 4.34026 34.2802 3.66677L33.6857 3.05922L34.2802 2.45393C34.9397 1.78262 35.0057 1.60166 34.702 1.29803C34.3983 0.994328 34.2174 1.06035 33.5461 1.71976L32.9408 2.31429L32.3332 1.71976C31.6597 1.0607 31.4795 0.995032 31.1765 1.29803ZM22.8745 7.23877C22.4042 7.52917 22.3851 7.58464 22.3466 8.76573L22.3114 9.84625L21.563 10.3772C20.7632 10.9446 20.624 11.0975 20.5505 11.4892C20.493 11.7956 20.7053 12.3225 20.9512 12.4835C21.0426 12.5434 21.5125 12.7153 21.9954 12.8654L22.8734 13.1385L22.9689 13.4767L23.0645 13.8151L20.524 16.3556L17.9834 18.8961L17.5439 18.4566L17.1043 18.0169L18.9512 16.169C20.59 14.5294 20.7982 14.2959 20.7982 14.0979C20.7982 13.8339 20.5281 13.583 20.2438 13.583C20.0939 13.583 18.2587 15.3837 10.2192 23.419C4.50782 29.1275 0.298705 33.3879 0.189049 33.5718C0.0315316 33.8357 0 33.9716 0 34.3867C0 34.8184 0.0284347 34.9309 0.212979 35.2294C0.345017 35.443 0.557011 35.655 0.770553 35.787C1.06912 35.9716 1.18159 36 1.61332 36C2.02844 36 2.16428 35.9685 2.42821 35.8109C2.61205 35.7011 7.08236 31.2824 13.0855 25.2767L23.4261 14.9316L23.5537 15.0937C23.7361 15.3256 24.221 15.5039 24.5178 15.4482C24.902 15.3762 25.0576 15.2336 25.6228 14.437L26.1537 13.6886L27.236 13.6534C28.2697 13.6198 28.3267 13.6103 28.5063 13.4423C28.7681 13.1974 28.8923 12.9323 28.8919 12.6188C28.8916 12.3182 28.7735 12.1009 28.1937 11.3344C27.9726 11.0421 27.7702 10.7665 27.7439 10.722C27.7177 10.6775 27.8227 10.2741 27.9774 9.82542C28.3783 8.66312 28.3374 8.23483 27.7913 7.87483C27.4855 7.67318 27.0803 7.7102 26.1746 8.02256C25.7259 8.17726 25.3225 8.28234 25.278 8.25609C25.2335 8.22984 24.9579 8.02742 24.6656 7.80627C24.3732 7.58513 24.0248 7.33759 23.8914 7.25623C23.5897 7.07239 23.1559 7.06486 22.8745 7.23877ZM24.2274 8.79909C24.6403 9.10991 25.0432 9.38011 25.1228 9.39946C25.2024 9.41882 25.6927 9.29149 26.2125 9.11659C26.7323 8.94162 27.1675 8.80839 27.1796 8.82042C27.1916 8.83253 27.0584 9.2677 26.8834 9.78748C26.7085 10.3073 26.5812 10.7976 26.6005 10.8772C26.6199 10.9568 26.8901 11.3597 27.2009 11.7726C27.5118 12.1854 27.7661 12.5399 27.7661 12.5604C27.7661 12.5809 27.3206 12.5977 26.7761 12.5977C26.2316 12.5977 25.729 12.6282 25.6592 12.6656C25.5893 12.703 25.2683 13.1068 24.9459 13.563L24.3596 14.3924L24.0893 13.5126C23.9407 13.0288 23.7892 12.5611 23.7525 12.4734C23.6729 12.2828 23.6147 12.2567 22.4892 11.9088L21.6112 11.6375L22.4389 11.0526C22.894 10.731 23.297 10.4107 23.3344 10.3408C23.3718 10.271 23.4023 9.76841 23.4023 9.22393C23.4023 8.67944 23.4191 8.23392 23.4396 8.23392C23.4601 8.23392 23.8146 8.48821 24.2274 8.79909ZM34.1227 9.07746C33.9065 9.16678 33.819 9.36596 33.819 9.76925V10.1174L33.3862 10.1486C32.9011 10.1837 32.6929 10.3472 32.6929 10.6928C32.6929 11.012 32.9528 11.19 33.4188 11.19H33.819V11.6001C33.819 11.9376 33.8478 12.0371 33.9819 12.1631C34.2124 12.3796 34.5444 12.3653 34.7289 12.1307C34.8353 11.9954 34.8748 11.8431 34.8748 11.5676V11.19H35.2919C35.6588 11.19 35.7267 11.1676 35.855 11.0045C36.2082 10.5556 35.8887 10.1343 35.195 10.1343H34.8748V9.75497C34.8748 9.19669 34.5477 8.90207 34.1227 9.07746ZM16.8228 19.2149L17.2419 19.6384L9.60629 27.2698C4.09024 32.7827 1.91343 34.915 1.76443 34.9511C1.36121 35.0488 0.951155 34.6388 1.04892 34.2356C1.08509 34.0866 3.21376 31.9133 8.71348 26.4103C12.9014 22.2199 16.345 18.7914 16.3658 18.7914C16.3866 18.7914 16.5922 18.982 16.8228 19.2149Z" fill=""/>
</svg>
