<svg width="" height="" viewBox="0 0 33 33" fill="none" xmlns="http://www.w3.org/2000/svg">
<g clip-path="url(#clip0_534_7597)">
<path d="M28.1664 4.83155C25.072 1.73714 20.8751 -0.00128174 16.499 -0.00128174C12.1228 -0.00128174 7.92589 1.73714 4.83149 4.83155C1.73708 7.92595 -0.00134277 12.1229 -0.00134277 16.499C-0.00134277 20.8752 1.73708 25.0721 4.83149 28.1665C7.92589 31.2609 12.1228 32.9993 16.499 32.9993C20.8751 32.9993 25.072 31.2609 28.1664 28.1665C31.2609 25.0721 32.9993 20.8752 32.9993 16.499C32.9993 12.1229 31.2609 7.92595 28.1664 4.83155ZM16.499 31.679C8.12885 31.679 1.31897 24.8691 1.31897 16.499C1.31897 8.12891 8.12885 1.31903 16.499 1.31903C24.8691 1.31903 31.679 8.12891 31.679 16.499C31.679 24.8691 24.8691 31.679 16.499 31.679Z" fill="#E1988C"/>
<path d="M19.8884 22.9291C20.4039 22.2894 20.7279 21.5169 20.8231 20.7009C20.9184 19.885 20.7809 19.0587 20.4266 18.3175C20.0723 17.5763 19.5157 16.9504 18.8209 16.512C18.1261 16.0736 17.3215 15.8407 16.5 15.84C15.8995 15.84 15.3125 15.6619 14.8133 15.3283C14.314 14.9947 13.9249 14.5206 13.6951 13.9658C13.4653 13.4111 13.4052 12.8006 13.5223 12.2117C13.6395 11.6228 13.9286 11.0818 14.3532 10.6572C14.7778 10.2326 15.3188 9.94348 15.9077 9.82633C16.4966 9.70919 17.1071 9.76931 17.6618 9.9991C18.2166 10.2289 18.6907 10.618 19.0243 11.1173C19.3579 11.6166 19.536 12.2035 19.536 12.804C19.536 12.979 19.6055 13.1469 19.7293 13.2707C19.8531 13.3945 20.0209 13.464 20.196 13.464C20.371 13.464 20.5389 13.3945 20.6627 13.2707C20.7864 13.1469 20.856 12.979 20.856 12.804C20.8543 11.8175 20.5185 10.8607 19.9032 10.0895C19.288 9.31833 18.4297 8.77834 17.4682 8.55756L17.16 8.4876V6.996C17.16 6.82096 17.0904 6.65308 16.9667 6.52931C16.8429 6.40553 16.675 6.336 16.5 6.336C16.3249 6.336 16.1571 6.40553 16.0333 6.52931C15.9095 6.65308 15.84 6.82096 15.84 6.996V8.4876L15.5318 8.55756C14.4882 8.79613 13.569 9.41062 12.9497 10.2837C12.3303 11.1568 12.0542 12.2274 12.1739 13.2912C12.2936 14.355 12.8009 15.3374 13.5988 16.051C14.3967 16.7646 15.4295 17.1594 16.5 17.16C17.1004 17.16 17.6874 17.3381 18.1867 17.6717C18.686 18.0053 19.0751 18.4794 19.3049 19.0342C19.5347 19.5889 19.5948 20.1994 19.4776 20.7883C19.3605 21.3772 19.0714 21.9182 18.6468 22.3428C18.2222 22.7674 17.6812 23.0565 17.0923 23.1737C16.5033 23.2908 15.8929 23.2307 15.3382 23.0009C14.7834 22.7711 14.3092 22.382 13.9756 21.8827C13.642 21.3834 13.464 20.7965 13.464 20.196C13.464 20.021 13.3944 19.8531 13.2707 19.7293C13.1469 19.6055 12.979 19.536 12.804 19.536C12.6289 19.536 12.4611 19.6055 12.3373 19.7293C12.2135 19.8531 12.144 20.021 12.144 20.196C12.1457 21.1825 12.4815 22.1393 13.0967 22.9105C13.7119 23.6817 14.5703 24.2217 15.5318 24.4424L15.84 24.5124V26.004C15.84 26.179 15.9095 26.3469 16.0333 26.4707C16.1571 26.5945 16.3249 26.664 16.5 26.664C16.675 26.664 16.8429 26.5945 16.9667 26.4707C17.0904 26.3469 17.16 26.179 17.16 26.004V24.5124L17.4682 24.4424C18.4213 24.2223 19.2732 23.6896 19.8884 22.9291Z" fill="#2A2623"/>
</g>
<defs>
<clipPath id="clip0_534_7597">
<rect width="33" height="33" fill="white"/>
</clipPath>
</defs>
</svg>
