<svg width="50" height="50" viewBox="0 0 50 50" fill="none" xmlns="http://www.w3.org/2000/svg">
<path d="M8.3 42.2C10.8 46.7 15.4 49.5 20.6 49.5H29.5C34.7 49.5 39.3 46.8 41.8 42.2C44.3 37.7 44.1 32.3 41.3 28L33.5 15.8L34 15.5C34.9 15 35.5 14.1 35.5 13C35.5 11.8 34.8 10.8 33.7 10.4L33.3 10.2L35.7 2C35.7 1.8 35.7 1.7 35.6 1.5C34.3 0.2 32.1 0.2 30.9 1.5C30 2.4 28.4 2.4 27.5 1.5C26.2 0.2 24.1 0.2 22.8 1.5C21.8 2.5 20.3 2.5 19.4 1.5C18.8 0.9 17.9 0.5 17 0.5C16.1 0.5 15.3 0.8 14.6 1.5C14.5 1.6 14.4 1.8 14.5 2L16.9 10.3L16.5 10.5C15.4 10.9 14.7 12 14.7 13.1C14.7 14.2 15.3 15.1 16.2 15.6L16.7 15.9L8.8 28C6 32.4 5.8 37.7 8.3 42.2ZM15.3 1.9L15.7 1.7C16.6 1.2 17.8 1.4 18.6 2.1C19.9 3.4 22 3.4 23.3 2.1C24.3 1.1 25.8 1.1 26.7 2.1C28 3.4 30.1 3.4 31.5 2.1C32.3 1.3 33.4 1.2 34.4 1.7L34.8 1.9L32.4 10.2H17.7L15.3 1.9ZM9.6 28.5L17.6 15.9H20.6C20.9 15.9 21.1 15.7 21.1 15.4C21.1 15.1 20.9 14.9 20.6 14.9H17.3C16.3 14.9 15.4 14.1 15.4 13C15.4 11.9 16.2 11.1 17.3 11.1H32.6C33.6 11.1 34.5 11.9 34.5 13C34.5 14.1 33.7 15 32.7 15H29.4C29.1 15 28.9 15.2 28.9 15.5C28.9 15.8 29.1 16 29.4 16H32.4L40.4 28.6C43 32.7 43.2 37.6 40.8 41.9C38.5 46.1 34.2 48.7 29.4 48.7H20.5C15.7 48.7 11.4 46.2 9.1 41.9C6.8 37.5 7 32.6 9.6 28.5Z" fill="#2A2623"/>
<path d="M29.1 36.5C29.4 34.6 28.4 32.9999 26.6 32.2999C26.4 32.1999 26.1 32.1 25.8 32H25.5V26.6L26.1 26.7999C26.9 26.9999 27.4 27.4 27.4 27.4C27.6 27.6 27.9 27.4999 28.1 27.2999C28.2 27.1999 28.2 27.1 28.2 26.9C28.2 26.6999 28.1 26.7 28 26.6C28 26.6 27.2 26 25.9 25.7L25.5 25.6V24.2C25.5 23.9 25.3 23.7 25 23.7C24.7 23.7 24.5 23.9 24.5 24.2V25.6L24.1 25.7C24 25.7 23.8 25.7999 23.6 25.7999C22.4 26.1999 21.5 27.2 21.3 28.5C21.1 29.7 21.4 30.8 22.2 31.4C22.7 31.7999 23.3 32.1 24.1 32.5L24.4 32.5999V39.0999H23.9C23 38.9999 22.4 38.8 21.5 38.2C21.4 38.1 21.3 38.0999 21.2 38.0999C21 38.0999 20.9 38.1999 20.8 38.2999C20.7 38.4 20.7 38.5 20.7 38.7C20.7 38.9 21 39 21.1 39C22.3 39.7999 23.1 40 24.1 40H24.6V41.5C24.6 41.7999 24.8 42 25.1 42C25.4 42 25.6 41.7999 25.6 41.5V40L26 39.9C27.8 39.6 28.8 37.9 29.1 36.5ZM24.5 31.6L23.8 31.2C23.4 31 23.1 30.8 22.9 30.6C22.4 30.2 22.1 29.4 22.3 28.6C22.4 27.9 22.9 27 23.9 26.7L24.6 26.5V31.6H24.5ZM26.2 38.9L25.5 39.2V33L26.2 33.2999C28 33.9 28.4 35.3 28.2 36.4C28 37.3 27.4 38.4 26.2 38.9Z" fill="#2A2623"/>
<path d="M25.3 15.1C25.2 15 25.1 15 25 15C24.9 15 24.8 15.1 24.7 15.1C24.6 15.2 24.6 15.3 24.6 15.4C24.6 15.5 24.7 15.6 24.7 15.7C24.9 15.9 25.2 15.9 25.4 15.7C25.5 15.6 25.5 15.5 25.5 15.4C25.5 15.3 25.4 15.2 25.3 15.1Z" fill="#2A2623"/>
</svg>
