<svg width="" height="" viewBox="0 0 33 33" fill="none" xmlns="http://www.w3.org/2000/svg">
<g clip-path="url(#clip0_534_7553)">
<path d="M15.8786 3.95038V15.8786H3.95038V17.1215H15.8786V29.0496H17.1215V17.1215H29.0496V15.8786H17.1215V3.95038H15.8786Z" fill="#E1988C"/>
<path d="M9.94337 13.1711L11.1959 13.1229V3.97925H9.60614C8.84497 3.97925 8.26687 3.97925 7.94891 3.97925C7.94891 4.13341 7.94891 4.35501 7.94891 4.6248V5.21253H9.953L9.94337 13.1711Z" fill="#2A2623"/>
<path d="M7.90071 25.8122C7.88683 26.394 7.98496 26.973 8.18976 27.5176C8.42098 28.0318 8.81352 28.4565 9.30787 28.7274C9.80221 28.9984 10.3714 29.1007 10.9292 29.019C11.487 28.9373 12.0029 28.676 12.3988 28.2746C12.7946 27.8733 13.0489 27.3539 13.1229 26.795C13.171 26.5468 13.171 26.2917 13.1229 26.0435C13.0277 25.6112 12.8546 25.1998 12.6122 24.8295L12.3136 24.4633L12.6797 23.9238C13.0739 23.3643 13.2298 22.6712 13.1133 21.9968C13.0507 21.647 12.9188 21.3134 12.7252 21.0155C12.5315 20.7176 12.2802 20.4616 11.986 20.2625C11.7083 20.0693 11.3946 19.934 11.0635 19.8645C10.7325 19.795 10.3909 19.7927 10.059 19.8578C9.56955 19.9772 9.1186 20.2193 8.74859 20.5611C8.44025 20.8862 8.20573 21.274 8.06106 21.698C7.91638 22.1221 7.86498 22.5723 7.91035 23.0181H9.26889V22.7579C9.26889 21.9486 9.38451 21.515 10.0493 21.2163C10.293 21.0936 10.5704 21.0544 10.8385 21.1049C11.1067 21.1554 11.3508 21.2928 11.5331 21.4957C11.7433 21.6822 11.8829 21.9352 11.9285 22.2125C11.9741 22.4897 11.923 22.7741 11.7836 23.0181C11.4753 23.6444 11.061 23.7696 10.2709 23.8178H9.94334V25.0703H10.2324C10.594 25.0245 10.9609 25.0918 11.2826 25.263C11.4973 25.4105 11.6668 25.6147 11.7723 25.8529C11.8778 26.0911 11.9151 26.3538 11.88 26.6119C11.8192 26.8826 11.6828 27.1305 11.4866 27.3266C11.2905 27.5228 11.0426 27.6592 10.772 27.72C10.51 27.7567 10.2429 27.7193 10.0011 27.612C9.75932 27.5047 9.55239 27.3318 9.40378 27.113C9.26302 26.7922 9.21624 26.438 9.26889 26.0917V25.8122H7.90071Z" fill="#2A2623"/>
<path d="M22.758 20.2914L22.6327 20.2432L22.1124 20.0409L20.937 23.0856L19.8386 25.9761V27.0552H23.7504V28.9822H25.0126V23.4132H23.7697V25.7834H22.5845C21.621 25.7834 21.3994 25.7834 21.3994 25.398C21.6586 24.4934 21.9806 23.6081 22.3629 22.7483C22.758 21.727 23.0759 20.8791 23.2205 20.4745L22.758 20.2914Z" fill="#2A2623"/>
<path d="M19.8674 13.1711H25.1089V11.9475H21.6499L22.8736 10.8394C23.3672 10.4305 23.8074 9.96112 24.1839 9.44236C24.7711 8.59647 25.0623 7.58033 25.0125 6.55185C25.0449 6.197 24.9782 5.84013 24.8198 5.5209C24.5683 4.99066 24.1483 4.55854 23.6255 4.29189C23.1026 4.02524 22.5063 3.93905 21.9293 4.04674C21.4224 4.15635 20.9581 4.41024 20.5922 4.7778C20.2264 5.14536 19.9747 5.61089 19.8674 6.11828C19.8224 6.40513 19.7998 6.69506 19.8 6.98543V7.17813H21.0525V7.05287C21.0525 6.31098 21.12 6.00266 21.4958 5.63652C21.6746 5.43149 21.9172 5.29249 22.1845 5.24182C22.4518 5.19115 22.7284 5.23175 22.9699 5.35711C23.654 5.65579 23.7696 6.10864 23.7311 6.83127C23.6636 8.26689 23.259 8.75828 21.2452 10.5697L19.8674 11.8704V13.1711Z" fill="#2A2623"/>
<path d="M32.9904 6.37839L26.612 0H6.37839L3.16993 3.16993L0 6.37839V26.612L6.37839 32.9904H26.612L32.9904 26.612V6.37839ZM31.7378 26.1977L26.1591 31.7763H6.83124L1.25255 26.1591V6.83124L6.83124 1.25255H26.1591L31.7378 6.83124V26.1977Z" fill="#2A2623"/>
</g>
<defs>
<clipPath id="clip0_534_7553">
<rect width="33" height="33" fill="white"/>
</clipPath>
</defs>
</svg>
