<svg width="" height="" viewBox="0 0 36 30" fill="none" xmlns="http://www.w3.org/2000/svg">
<path d="M23.0399 24.6364C23.2199 24.7273 23.9399 24.7273 26.5949 24.7273H29.9249L30.2849 24.3182V19.591C30.2849 16.6364 30.2849 14.8637 30.1949 14.6819C30.1499 14.6364 29.8349 14.3637 29.2949 14.0001L28.1699 13.1819L29.2499 12.4546C29.3399 12.4091 29.4299 12.3182 29.5199 12.2728C30.2849 11.7728 30.2849 11.7728 30.2849 9.4546V5.72733L29.9249 5.31824H26.6399C23.9849 5.31824 23.2649 5.31824 23.0849 5.40915C22.7699 5.59096 22.6799 5.68187 22.6799 7.50006L22.7249 8.9546L22.9049 9.13642C23.1749 9.40915 23.5349 9.40915 23.8049 9.13642L23.9849 8.9546L24.0299 6.68187H28.9349V11.0455L27.5849 11.9546C26.2349 12.8637 26.1899 12.9546 26.2799 13.3182C26.3249 13.591 26.3699 13.6364 27.7199 14.5455L28.9349 15.3637V23.4091H24.0749V22.2273C24.0749 21.1819 23.9849 20.9091 23.7599 20.7728C23.5349 20.591 23.1749 20.6364 22.9499 20.8637L22.7699 21.0455L22.7249 22.5001C22.6799 24.3182 22.7699 24.4546 23.0399 24.6364Z" fill="#2A2623"/>
<path d="M10.53 24.2727C10.62 24.0909 10.62 24 10.575 23.8637C10.485 23.5455 10.395 23.4091 9.67496 23.3637L8.81996 23.3182L8.72996 5.59093L8.59496 5.45456C8.36996 5.22729 8.05496 5.18184 7.82996 5.36365C7.73996 5.45456 7.19996 5.90911 6.61496 6.50002C5.66996 7.45456 5.66996 7.45456 5.66996 7.72729C5.66996 7.95456 5.71496 8.04547 5.84996 8.22729C6.02996 8.40911 6.02996 8.40911 6.29996 8.40911C6.56996 8.40911 6.61496 8.36365 6.79496 8.22729L7.42496 7.59093V23.4091H6.56996C6.02996 23.4091 6.02996 23.4091 5.84996 23.5909C5.57996 23.8637 5.57996 24.1818 5.84996 24.5L6.02996 24.6818L8.00996 24.7273C10.35 24.7273 10.35 24.6818 10.53 24.2727Z" fill="#2A2623"/>
<path d="M20.475 24.0909C20.475 23.8637 20.25 23.5455 19.98 23.5C19.845 23.4546 18.99 23.4091 17.46 23.4091C14.985 23.4091 14.985 23.4091 14.985 23.1364C14.985 23.0455 14.985 23.0455 17.64 18.8182C19.26 16.2727 20.295 14.5909 20.385 14.5C20.43 14.2727 20.43 12.2273 20.43 10L20.385 5.68183L20.07 5.36365H16.74C14.85 5.36365 13.455 5.36365 13.23 5.4091C13.185 5.45456 13.05 5.50001 13.005 5.59092C12.915 5.68183 12.915 5.86365 12.915 7.36365C12.915 9.00001 12.915 9.00001 13.05 9.13638C13.275 9.36365 13.59 9.4091 13.86 9.27274C13.995 9.18183 14.085 9.09092 14.13 9.09092C14.13 9.04547 14.175 8.59092 14.22 8.00001L14.265 6.72728H19.17L19.215 14.0455L16.38 18.5C13.185 23.5 12.915 24 12.915 24.1364C12.915 24.3636 13.095 24.6818 13.32 24.7727C13.77 24.9091 19.665 24.9091 20.115 24.7727C20.295 24.5909 20.475 24.3182 20.475 24.0909Z" fill="#E1988C"/>
</svg>
