<svg width="" height="" viewBox="0 0 33 33" fill="none" xmlns="http://www.w3.org/2000/svg">
<g clip-path="url(#clip0_534_7674)">
<path d="M18.1198 17.3191C18.1198 17.586 18.3362 17.8025 18.6032 17.8025C18.8702 17.8025 19.0866 17.586 19.0866 17.3191V6.31589C19.0866 5.4227 19.8132 4.69605 20.7064 4.69605C21.5996 4.69605 22.3263 5.4227 22.3263 6.31589V7.62732C22.3263 7.89428 22.5427 8.11072 22.8097 8.11072C23.0766 8.11072 23.2931 7.89428 23.2931 7.62732V6.31589C23.2931 4.88961 22.1327 3.72926 20.7064 3.72926C20.0937 3.72926 19.5302 3.94331 19.0866 4.30063V2.58663C19.0866 1.16035 17.9262 0 16.5 0C15.0737 0 13.9133 1.16035 13.9133 2.58663V4.30063C13.4697 3.94337 12.9061 3.72926 12.2935 3.72926C10.8672 3.72926 9.70686 4.88961 9.70686 6.31589V12.192C8.94387 11.2796 7.79731 10.6981 6.51766 10.6981C5.95679 10.6981 5.50046 11.1544 5.50046 11.7153V15.0332C5.50046 15.3002 5.71689 15.5166 5.98386 15.5166C6.25082 15.5166 6.46725 15.3002 6.46725 15.0332V11.7153C6.46725 11.6875 6.48988 11.6649 6.51766 11.6649C8.2762 11.6649 9.70686 13.0955 9.70686 14.8541V17.3191C9.70686 17.586 9.9233 17.8025 10.1903 17.8025C10.4572 17.8025 10.6737 17.586 10.6737 17.3191V6.31589C10.6737 5.4227 11.4003 4.69605 12.2935 4.69605C13.1867 4.69605 13.9133 5.4227 13.9133 6.31589V17.3191C13.9133 17.5861 14.1298 17.8025 14.3967 17.8025C14.6637 17.8025 14.8801 17.5861 14.8801 17.3191V2.58663C14.8801 1.69344 15.6068 0.966797 16.5 0.966797C17.3932 0.966797 18.1198 1.69344 18.1198 2.58663V17.3191Z" fill="#2A2623"/>
<path d="M22.3263 17.3191C22.3263 17.5861 22.5427 17.8025 22.8097 17.8025C23.0767 17.8025 23.2931 17.5861 23.2931 17.3191V14.8541C23.2931 13.0956 24.7237 11.6649 26.4824 11.6649C26.5101 11.6649 26.5328 11.6875 26.5328 11.7153V22.0005C26.5328 27.5325 22.0321 32.0332 16.5 32.0332C10.9678 32.0332 6.46721 27.5325 6.46721 22.0005V17.14C6.46721 16.873 6.25078 16.6566 5.98381 16.6566C5.71685 16.6566 5.50041 16.873 5.50041 17.14V22.0005C5.50041 28.0656 10.4348 33 16.5 33C22.5652 33 27.4996 28.0656 27.4996 22.0005V11.7153C27.4996 11.1544 27.0432 10.6981 26.4824 10.6981C25.2025 10.6981 24.0561 11.2795 23.2931 12.1921V9.73413C23.2931 9.46717 23.0767 9.25073 22.8097 9.25073C22.5427 9.25073 22.3263 9.46717 22.3263 9.73413V17.3191Z" fill="#2A2623"/>
<path d="M20.5832 22.4778C20.7157 22.7662 20.8185 23.0718 20.8872 23.3909C20.9434 23.6519 21.2005 23.8178 21.4615 23.7617C21.7225 23.7055 21.8885 23.4484 21.8323 23.1874C21.5739 21.987 20.905 20.8958 19.9491 20.1147C18.9793 19.3223 17.7543 18.8859 16.4999 18.8859C13.4922 18.8859 11.0452 21.3328 11.0452 24.3405C11.0452 27.3482 13.4922 29.7952 16.4999 29.7952C17.753 29.7952 18.9768 29.3597 19.946 28.5689C20.9014 27.7894 21.5707 26.7001 21.8306 25.5016C21.8872 25.2407 21.7215 24.9833 21.4606 24.9267C21.1999 24.8701 20.9423 25.0357 20.8858 25.2967C20.8171 25.6135 20.7146 25.9168 20.583 26.2033L17.4466 24.3406L20.5832 22.4778ZM12.0121 24.3405C12.0121 23.6765 12.1582 23.0462 12.4181 22.4786L15.5532 24.3405L12.4181 26.2025C12.1582 25.6349 12.0121 25.0047 12.0121 24.3405ZM20.0866 21.6483L16.9833 23.4912V19.8801C18.2304 20.0169 19.3504 20.6748 20.0866 21.6483ZM16.0165 19.8791V23.4912L12.9122 21.6476C13.6405 20.6799 14.7505 20.0154 16.0165 19.8791ZM12.9122 27.0335L16.0165 25.1899V28.802C14.7505 28.6658 13.6405 28.0013 12.9122 27.0335ZM16.9833 28.8009V25.1899L20.0864 27.0328C19.3501 28.0062 18.2299 28.6641 16.9833 28.8009Z" fill="#E1988C"/>
</g>
<defs>
<clipPath id="clip0_534_7674">
<rect width="33" height="33" fill="white"/>
</clipPath>
</defs>
</svg>
