<svg width="45" height="45" viewBox="0 0 45 45" fill="none" xmlns="http://www.w3.org/2000/svg">
<path d="M20.8544 43.8037L20.8543 43.8036L9.45677 26.5342C8.83984 25.5972 7.98175 23.9938 7.54827 22.9649L7.5476 22.9633C7.47742 22.794 6.15 19.5919 6.15 16.6232C6.15 7.53982 13.5398 0.15 22.6232 0.15C31.7066 0.15 39.0964 7.53982 39.0964 16.6232C39.0964 19.6071 37.7571 22.8258 37.699 22.9651C37.2655 23.9941 36.4085 25.5973 35.7907 26.5341L24.3921 43.8046L24.5173 43.8872L24.3921 43.8046C23.9486 44.4769 23.3019 44.85 22.6232 44.85C21.9446 44.85 21.2979 44.4769 20.8544 43.8037ZM34.4081 25.6227L34.4081 25.6227L36.0342 22.2643L36.1719 22.324C36.172 22.3237 36.1722 22.3231 36.1725 22.3224C36.191 22.2786 36.5021 21.5239 36.8113 20.4557C37.1254 19.3708 37.4407 17.9522 37.4407 16.6232C37.4407 8.45269 30.7937 1.80567 22.6232 1.80567C14.4527 1.80567 7.80567 8.45269 7.80567 16.6232C7.80567 19.2621 9.05168 22.2655 9.07445 22.3204L9.07461 22.3208L9.07485 22.3214C9.46867 23.2601 10.2759 24.7683 10.8392 25.6227L10.8393 25.6227L22.2379 42.8932C22.2945 42.9791 22.3479 43.0537 22.4007 43.1076C22.4516 43.1596 22.5255 43.2166 22.6237 43.2166C22.7219 43.2166 22.7958 43.1596 22.8467 43.1076C22.8995 43.0537 22.9529 42.9791 23.0095 42.8932L34.4081 25.6227Z" fill="#2A2623" stroke="#FDFBF7" stroke-width="0.3"/>
<path d="M13.9727 16.6243C13.9727 11.8551 17.8531 7.97373 22.6232 7.97373C27.3934 7.97373 31.2737 11.8551 31.2737 16.6243C31.2737 21.3935 27.3934 25.2748 22.6232 25.2748C17.8531 25.2748 13.9727 21.3935 13.9727 16.6243ZM15.6284 16.6243C15.6284 20.4816 18.7669 23.6191 22.6232 23.6191C26.4795 23.6191 29.6181 20.4816 29.6181 16.6243C29.6181 12.767 26.4795 9.6294 22.6232 9.6294C18.7669 9.6294 15.6284 12.767 15.6284 16.6243Z" fill="#2A2623" stroke="#FDFBF7" stroke-width="0.3"/>
</svg>
