<svg width="" height="" viewBox="0 0 27 23" fill="none" xmlns="http://www.w3.org/2000/svg">
<path fill-rule="evenodd" clip-rule="evenodd" d="M5.8709 0.314347L5.70829 0.458588L5.69171 2.64563L5.67519 4.83274H4.54713H3.41912V4.18112V3.52955L3.94574 3.50863C4.43922 3.48908 4.48118 3.47719 4.61221 3.32003C4.79789 3.09737 4.79697 2.80799 4.60995 2.59985C4.46802 2.44192 4.46657 2.44168 3.58127 2.44359C2.97589 2.4449 2.66555 2.46858 2.60273 2.51831C2.4054 2.67457 2.37595 2.84559 2.37595 3.83483V4.81738L1.74716 4.8441C1.18147 4.86813 1.08701 4.88893 0.805413 5.0511C0.464936 5.24723 0.161143 5.64098 0.0597242 6.01769C0.0215328 6.15942 0.000379739 8.07472 0.000205878 11.4125C-0.000199797 17.1649 -0.0178756 16.8943 0.390987 17.387C0.50701 17.5268 0.733782 17.7046 0.894893 17.7819C1.18153 17.9196 1.22494 17.9227 2.88566 17.9232L4.58346 17.9238L4.72568 17.7771C4.93124 17.5651 4.91994 17.2509 4.69856 17.0226L4.52916 16.8478H2.9632H1.39723L1.23462 16.7036L1.072 16.5594L1.05653 11.4881C1.04488 7.67332 1.05809 6.37426 1.10996 6.24508C1.25334 5.88792 0.487712 5.90872 13.503 5.90872C26.5184 5.90872 25.7527 5.88792 25.8961 6.24508C25.948 6.37426 25.9612 7.67332 25.9496 11.4881L25.9341 16.5594L25.7715 16.7036L25.6088 16.8478H24.0518H22.4947L22.3164 17.0026C22.0818 17.2063 22.0656 17.5555 22.2804 17.7771L22.4226 17.9238L24.1204 17.9232C25.7811 17.9227 25.8246 17.9196 26.1112 17.7819C26.2723 17.7046 26.4997 17.5262 26.6163 17.3855C27.0277 16.8898 27.0105 17.1691 26.993 11.2843L26.9772 5.99838L26.8085 5.68432C26.4913 5.09378 26.0984 4.8817 25.2531 4.84469L24.6301 4.81738V3.83483C24.6301 2.84559 24.6007 2.67457 24.4034 2.51831C24.3405 2.46858 24.0302 2.4449 23.4248 2.44359C22.5395 2.44168 22.5381 2.44192 22.3961 2.59985C22.2091 2.80799 22.2082 3.09737 22.3939 3.32003C22.5249 3.47719 22.5669 3.48908 23.0603 3.50863L23.587 3.52955V4.18112V4.83274H22.459H21.3309L21.3144 2.64563L21.2978 0.458588L21.1352 0.314347L20.9726 0.170166H13.503H6.03352L5.8709 0.314347ZM20.27 3.05439L20.2853 4.83274H13.5039H6.72247V3.07931C6.72247 2.11488 6.73998 1.30777 6.76136 1.28578C6.78274 1.26372 9.82745 1.25248 13.5274 1.26085L20.2546 1.27603L20.27 3.05439ZM21.2688 7.73059C20.4377 8.00795 20.0374 9.02188 20.4345 9.84393C20.6811 10.3544 21.1518 10.6419 21.7363 10.639C22.1312 10.637 22.3874 10.5372 22.6818 10.2706C23.019 9.96522 23.1488 9.6585 23.1491 9.16654C23.1493 8.70202 23.0585 8.46351 22.7546 8.13014C22.3772 7.71612 21.7874 7.55748 21.2688 7.73059ZM22.0832 9.02481C22.1461 9.18125 22.1406 9.22447 22.0395 9.36464C21.8049 9.69024 21.3268 9.54349 21.3268 9.14592C21.3268 8.71236 21.9197 8.61743 22.0832 9.02481ZM4.14215 12.5078C3.97281 12.5839 3.82479 12.8126 3.82479 12.998C3.82479 13.1836 4.00068 13.4296 4.17941 13.4939C4.28077 13.5303 4.65921 13.5601 5.02043 13.5601H5.67716L5.6927 18.0785L5.70829 22.5968L5.8709 22.741L6.03352 22.8853H13.503H20.9726L21.1352 22.741L21.2978 22.5968L21.3134 18.0785L21.3289 13.5601H21.9856C22.3469 13.5601 22.7253 13.5303 22.8267 13.4939C23.0076 13.4288 23.1813 13.1832 23.1813 12.9922C23.1813 12.8013 23.0076 12.5557 22.8267 12.4906C22.5346 12.3856 4.37692 12.4023 4.14215 12.5078ZM20.2695 17.6698L20.2546 21.7794H13.503H6.75145L6.73656 17.6698L6.72166 13.5601H13.503H20.2844L20.2695 17.6698ZM8.60596 15.9038C8.42173 16.0128 8.34888 16.1448 8.34888 16.3696C8.34888 16.6002 8.42451 16.7325 8.61663 16.8381C8.70993 16.8893 10.0004 16.9076 13.5238 16.9076H18.3043L18.4826 16.7528C18.6245 16.6298 18.6609 16.5513 18.6609 16.3696C18.6609 16.1879 18.6245 16.1095 18.4826 15.9864L18.3043 15.8316L13.5131 15.8334C10.0185 15.8348 8.69052 15.8538 8.60596 15.9038ZM8.65563 18.4613C8.47609 18.536 8.34517 18.7573 8.34517 18.9859C8.34517 19.2559 8.55021 19.4579 8.87394 19.5067C9.01344 19.5277 10.1794 19.5366 11.465 19.5264L13.8024 19.5079L13.9715 19.3127C14.0644 19.2053 14.1405 19.0627 14.1405 18.9959C14.1405 18.8018 13.9882 18.5509 13.8234 18.4735C13.6425 18.3885 8.85771 18.3772 8.65563 18.4613Z" fill=""/>
</svg>
