<svg width="" height="" viewBox="0 0 33 33" fill="none" xmlns="http://www.w3.org/2000/svg">
<g clip-path="url(#clip0_534_7686)">
<path d="M25.87 11.58L26.05 11.67C26.993 12.0956 28.0481 12.2058 29.0587 11.9842C30.0693 11.7626 30.9815 11.2211 31.66 10.44C32.1025 9.90504 32.4216 9.27906 32.5944 8.60667C32.7673 7.93427 32.7897 7.23203 32.66 6.54999C32.5262 5.84689 32.2328 5.18385 31.8026 4.61187C31.3723 4.0399 30.8166 3.57422 30.1782 3.25067C29.5398 2.92711 28.8357 2.75429 28.12 2.74551C27.4043 2.73672 26.6962 2.8922 26.05 3.19999L25.87 3.27999V1.92999C25.87 1.67523 25.8198 1.42296 25.7223 1.18758C25.6248 0.952213 25.4819 0.738349 25.3018 0.558203C25.1216 0.378057 24.9078 0.235158 24.6724 0.137664C24.437 0.0401698 24.1848 -0.0100098 23.93 -0.0100098H8.80999C8.29547 -0.0100098 7.80203 0.194383 7.43821 0.558203C7.07439 0.922024 6.87 1.41547 6.87 1.92999V16.37C6.87 16.5185 6.92899 16.6609 7.03402 16.766C7.13904 16.871 7.28147 16.93 7.43 16.93H14.09C14.2385 16.93 14.381 16.871 14.486 16.766C14.591 16.6609 14.65 16.5185 14.65 16.37C14.65 16.2215 14.591 16.079 14.486 15.974C14.381 15.869 14.2385 15.81 14.09 15.81H7.99V1.92999C7.99263 1.71425 8.08018 1.50824 8.23368 1.35662C8.38717 1.20499 8.59424 1.11997 8.80999 1.11999H23.93C24.1458 1.11997 24.3528 1.20499 24.5063 1.35662C24.6598 1.50824 24.7474 1.71425 24.75 1.92999V4.36999C24.7501 4.47774 24.7813 4.58316 24.8398 4.67362C24.8984 4.76408 24.9818 4.83574 25.08 4.87999C25.1805 4.92375 25.2915 4.9376 25.3997 4.91986C25.5079 4.90212 25.6087 4.85356 25.69 4.77999C26.1096 4.39244 26.6164 4.11156 27.1674 3.96108C27.7185 3.81059 28.2976 3.79492 28.856 3.91538C29.4144 4.03584 29.9356 4.2889 30.3756 4.65318C30.8156 5.01747 31.1615 5.48228 31.384 6.00837C31.6066 6.53447 31.6992 7.10639 31.6542 7.67583C31.6092 8.24528 31.4278 8.79554 31.1254 9.28014C30.823 9.76473 30.4084 10.1694 29.9166 10.4601C29.4248 10.7507 28.8704 10.9187 28.3 10.95C27.8272 10.9884 27.3516 10.9312 26.9014 10.7817C26.4513 10.6323 26.0359 10.3936 25.68 10.08C25.6009 10.0062 25.5018 9.95728 25.3951 9.9395C25.2884 9.92171 25.1788 9.93579 25.08 9.97999C24.981 10.026 24.8972 10.0994 24.8387 10.1916C24.7802 10.2838 24.7494 10.3908 24.75 10.5V15.81H18.65C18.5015 15.81 18.359 15.869 18.254 15.974C18.149 16.079 18.09 16.2215 18.09 16.37C18.09 16.5185 18.149 16.6609 18.254 16.766C18.359 16.871 18.5015 16.93 18.65 16.93H25.31C25.3835 16.93 25.4564 16.9155 25.5243 16.8874C25.5922 16.8592 25.654 16.818 25.706 16.766C25.758 16.714 25.7992 16.6522 25.8274 16.5843C25.8555 16.5163 25.87 16.4435 25.87 16.37V11.58Z" fill="black"/>
<path d="M8.80999 32.75H23.93C24.1848 32.75 24.437 32.6998 24.6724 32.6023C24.9078 32.5048 25.1216 32.3619 25.3018 32.1818C25.4819 32.0016 25.6248 31.7878 25.7223 31.5524C25.8198 31.317 25.87 31.0648 25.87 30.81V27C25.8699 26.8923 25.8387 26.7868 25.7802 26.6964C25.7216 26.6059 25.6382 26.5343 25.54 26.49C25.4401 26.4461 25.3299 26.4313 25.222 26.4472C25.1141 26.4631 25.0129 26.5092 24.93 26.58C24.4181 27.0392 23.7842 27.3403 23.1048 27.4469C22.4255 27.5536 21.7298 27.4612 21.1018 27.1809C20.4738 26.9006 19.9405 26.4444 19.5662 25.8675C19.192 25.2906 18.9928 24.6177 18.9928 23.93C18.9928 23.2423 19.192 22.5694 19.5662 21.9925C19.9405 21.4156 20.4738 20.9594 21.1018 20.6791C21.7298 20.3988 22.4255 20.3064 23.1048 20.4131C23.7842 20.5197 24.4181 20.8208 24.93 21.28C25.0099 21.3538 25.1095 21.4027 25.2168 21.4208C25.324 21.439 25.4342 21.4254 25.5339 21.382C25.6336 21.3385 25.7184 21.2669 25.7781 21.176C25.8378 21.0851 25.8697 20.9788 25.87 20.87V16.37C25.87 16.2215 25.811 16.079 25.706 15.974C25.601 15.869 25.4585 15.81 25.31 15.81H18.65C18.5765 15.81 18.5036 15.8245 18.4357 15.8526C18.3678 15.8808 18.306 15.922 18.254 15.974C18.202 16.026 18.1608 16.0878 18.1326 16.1557C18.1045 16.2236 18.09 16.2965 18.09 16.37C18.09 16.4435 18.1045 16.5164 18.1326 16.5843C18.1608 16.6522 18.202 16.714 18.254 16.766C18.306 16.818 18.3678 16.8592 18.4357 16.8874C18.5036 16.9155 18.5765 16.93 18.65 16.93H24.75V19.78L24.57 19.7C23.9231 19.3923 23.2144 19.237 22.4981 19.2457C21.7819 19.2545 21.0772 19.4273 20.438 19.7507C19.7989 20.0741 19.2423 20.5396 18.8111 21.1116C18.3798 21.6835 18.0852 22.3466 17.95 23.05C17.821 23.7321 17.8438 24.4341 18.0166 25.1064C18.1894 25.7787 18.5081 26.4047 18.95 26.94C19.6291 27.7233 20.5431 28.2662 21.5558 28.4878C22.5686 28.7095 23.6258 28.598 24.57 28.17L24.75 28.08V30.81C24.7474 31.0257 24.6598 31.2317 24.5063 31.3834C24.3528 31.535 24.1458 31.62 23.93 31.62H8.80999C8.59424 31.62 8.38717 31.535 8.23368 31.3834C8.08018 31.2317 7.99263 31.0257 7.99 30.81V27C7.98988 26.8923 7.95869 26.7868 7.90016 26.6964C7.84162 26.6059 7.75823 26.5343 7.66 26.49C7.56039 26.4449 7.44993 26.4294 7.34178 26.4454C7.23362 26.4614 7.13233 26.5081 7.05 26.58C6.62699 26.9659 6.11648 27.2431 5.56248 27.3877C5.00848 27.5323 4.42762 27.5399 3.87 27.41C3.0289 27.2344 2.28037 26.7589 1.764 26.0721C1.24763 25.3854 0.998671 24.5342 1.06354 23.6774C1.12841 22.8207 1.50269 22.0167 2.11657 21.4155C2.73046 20.8143 3.54205 20.457 4.4 20.41C5.35259 20.3398 6.29432 20.6489 7.02 21.27C7.09908 21.3438 7.19819 21.3927 7.30491 21.4105C7.41164 21.4283 7.52124 21.4142 7.62 21.37C7.72419 21.3326 7.81494 21.2651 7.8808 21.1761C7.94665 21.0871 7.98465 20.9806 7.99 20.87V16.93H14.09C14.2385 16.93 14.381 16.871 14.486 16.766C14.591 16.661 14.65 16.5185 14.65 16.37C14.65 16.2215 14.591 16.079 14.486 15.974C14.381 15.869 14.2385 15.81 14.09 15.81H7.43C7.35646 15.81 7.28364 15.8245 7.21569 15.8526C7.14775 15.8808 7.08602 15.922 7.03402 15.974C6.98201 16.026 6.94077 16.0878 6.91262 16.1557C6.88448 16.2236 6.87 16.2965 6.87 16.37V19.78L6.69 19.7C5.74758 19.2712 4.69158 19.1592 3.68021 19.381C2.66883 19.6027 1.75653 20.1462 1.08 20.93C0.565624 21.5499 0.219193 22.2915 0.0739461 23.0838C-0.0713007 23.8761 -0.0104887 24.6924 0.250547 25.4545C0.511582 26.2165 0.96408 26.8986 1.56462 27.4354C2.16516 27.9723 2.89358 28.3457 3.68 28.52C4.69151 28.7314 5.74431 28.6085 6.68 28.17L6.87 28.08V30.81C6.87 31.0648 6.92018 31.317 7.01767 31.5524C7.11516 31.7878 7.25806 32.0016 7.43821 32.1818C7.61835 32.3619 7.83222 32.5048 8.06759 32.6023C8.30296 32.6998 8.55523 32.75 8.80999 32.75Z" fill="#E1988C"/>
<path d="M21.06 12.93C21.0548 12.1202 20.84 11.3256 20.4366 10.6235C20.0332 9.92138 19.4548 9.33568 18.7578 8.92341C18.0609 8.51114 17.269 8.28635 16.4594 8.27093C15.6498 8.25551 14.8499 8.44998 14.1378 8.83541C13.4256 9.22084 12.8254 9.7841 12.3955 10.4703C11.9656 11.1566 11.7208 11.9425 11.6847 12.7514C11.6487 13.5604 11.8228 14.3649 12.1899 15.0867C12.5571 15.8084 13.1049 16.4228 13.78 16.87C13.8725 16.932 13.9813 16.9651 14.0926 16.9649C14.204 16.9648 14.3127 16.9314 14.405 16.8692C14.4973 16.8069 14.569 16.7186 14.6108 16.6154C14.6527 16.5123 14.6628 16.399 14.64 16.29C14.6075 16.1443 14.522 16.016 14.4 15.93C13.7632 15.5069 13.2795 14.8901 13.0205 14.1707C12.7615 13.4514 12.7409 12.6678 12.9619 11.9358C13.1829 11.2039 13.6336 10.5626 14.2474 10.1067C14.8612 9.65089 15.6054 9.40475 16.37 9.40475C17.1345 9.40475 17.8788 9.65089 18.4926 10.1067C19.1064 10.5626 19.5571 11.2039 19.7781 11.9358C19.999 12.6678 19.9785 13.4514 19.7195 14.1707C19.4605 14.8901 18.9768 15.5069 18.34 15.93C18.218 16.016 18.1324 16.1443 18.1 16.29C18.0701 16.4351 18.0988 16.5861 18.18 16.71C18.2665 16.8293 18.3946 16.9118 18.5389 16.9414C18.6833 16.971 18.8335 16.9456 18.96 16.87C19.6112 16.4408 20.1445 15.8554 20.5113 15.1672C20.8782 14.479 21.0668 13.7099 21.06 12.93Z" fill="#E1988C"/>
</g>
<defs>
<clipPath id="clip0_534_7686">
<rect width="32.75" height="32.75" fill="white"/>
</clipPath>
</defs>
</svg>
