<svg width="" height="" viewBox="0 0 70 70" fill="none" xmlns="http://www.w3.org/2000/svg">
<path d="M17.9724 24.4623C17.8482 24.4645 17.7248 24.4422 17.6092 24.3966C17.4936 24.3511 17.3881 24.2833 17.2987 24.197C17.1182 24.0227 17.0143 23.7838 17.0099 23.5329C17.0055 23.282 17.101 23.0397 17.2753 22.8592C17.4496 22.6787 17.6884 22.5748 17.9393 22.5704C22.5808 22.5186 27.2123 22.1265 31.7965 21.3975C31.8779 21.3805 31.9613 21.3747 32.0443 21.3804C33.1933 21.4412 34.3081 21.7927 35.2841 22.402C35.4453 22.5191 35.5654 22.6841 35.6273 22.8735C35.6892 23.0629 35.6897 23.2669 35.6288 23.4566C35.5679 23.6463 35.4486 23.8119 35.288 23.9298C35.1275 24.0477 34.9338 24.1119 34.7346 24.1133C34.5118 24.1132 34.2957 24.0368 34.1225 23.8966C33.4848 23.5312 32.7706 23.3196 32.0367 23.2789C27.3912 24.0088 22.6992 24.4043 17.997 24.4623H17.9724Z" fill="#99BE9D"/>
<path d="M52.5756 46.9659C51.7685 46.9669 50.9819 46.7119 50.3289 46.2375L50.1256 46.0966C50.0991 46.0786 50.0546 46.0427 50.013 46.002L38.8783 37.9832C38.7743 37.9123 38.6856 37.8213 38.6172 37.7156C38.5489 37.6099 38.5023 37.4916 38.4802 37.3677C38.4582 37.2438 38.4611 37.1167 38.4887 36.9939C38.5164 36.8712 38.5683 36.7551 38.6414 36.6527C38.7145 36.5502 38.8072 36.4633 38.9143 36.3972C39.0214 36.331 39.1406 36.2869 39.2649 36.2674C39.3893 36.2479 39.5163 36.2534 39.6384 36.2836C39.7606 36.3138 39.8756 36.368 39.9765 36.4432L40.7333 36.9824L51.1529 44.496C51.184 44.5184 51.2137 44.5427 51.2418 44.5689L51.4225 44.6947C51.8328 44.9888 52.3403 45.1142 52.8403 45.045C53.3404 44.9758 53.7948 44.7174 54.1099 44.3229C54.3032 44.079 54.4349 43.7921 54.494 43.4866C54.5531 43.181 54.5379 42.8657 54.4495 42.5673C54.3432 42.1913 54.1236 41.8573 53.8204 41.6109L38.9275 29.4773C33.2244 32.5043 29.1842 30.9473 27.2554 29.7147C26.9367 29.5072 26.6779 29.2198 26.5048 28.8811C26.3318 28.5425 26.2506 28.1643 26.2692 27.7845C26.2879 27.4046 26.4058 27.0363 26.6112 26.7162C26.8166 26.3961 27.1023 26.1355 27.4399 25.9602L35.9648 21.4329C36.5089 21.1483 37.104 20.9742 37.7157 20.9206C38.3275 20.867 38.9438 20.935 39.5291 21.1208L44.5719 22.7573C46.0566 23.2456 47.6668 23.1875 49.1125 22.5936L51.3089 21.694C51.4239 21.6469 51.547 21.6228 51.6713 21.6233C51.7956 21.6237 51.9185 21.6486 52.0331 21.6966C52.1478 21.7446 52.2518 21.8146 52.3394 21.9028C52.4269 21.991 52.4963 22.0955 52.5434 22.2105C52.5905 22.3255 52.6146 22.4486 52.6141 22.5729C52.6137 22.6971 52.5888 22.8201 52.5408 22.9347C52.4929 23.0493 52.4228 23.1534 52.3346 23.241C52.2464 23.3285 52.1419 23.3978 52.0269 23.445L49.8323 24.3436C47.9708 25.1099 45.8966 25.185 43.9845 24.5555L38.9464 22.92C38.6013 22.8116 38.2382 22.7725 37.878 22.8049C37.5177 22.8374 37.1675 22.9408 36.8473 23.1092L28.3206 27.6374C28.2731 27.6598 28.2328 27.6949 28.204 27.7388C28.1753 27.7827 28.1593 27.8337 28.1579 27.8862C28.1539 27.9336 28.1632 27.9812 28.1845 28.0238C28.2059 28.0663 28.2386 28.1022 28.2789 28.1274C30.2654 29.3969 33.6756 30.3277 38.5576 27.5229C38.7236 27.4275 38.9147 27.3848 39.1056 27.4003C39.2964 27.4159 39.4781 27.489 39.6265 27.61L55.0076 40.1437C55.6108 40.6303 56.0494 41.2909 56.2638 42.0356C56.4337 42.6218 56.4623 43.2399 56.3472 43.8392C56.2321 44.4385 55.9766 45.0021 55.6016 45.4836C55.2445 45.9459 54.7859 46.3201 54.2612 46.5771C53.7365 46.8341 53.1598 46.9671 52.5756 46.9659Z" fill="#99BE9D"/>
<path d="M48.6612 51.3507C47.8596 51.3515 47.0776 51.1026 46.4241 50.6384L36.1984 43.383C35.9986 43.236 35.8645 43.0164 35.825 42.7715C35.7856 42.5266 35.8439 42.276 35.9874 42.0737C36.1309 41.8714 36.3482 41.7335 36.5924 41.6899C36.8365 41.6462 37.0881 41.7001 37.2929 41.8402L47.5185 49.0946C47.9476 49.3748 48.4683 49.4784 48.9719 49.3837C49.4755 49.2891 49.923 49.0034 50.221 48.5865C50.5189 48.1696 50.6443 47.6537 50.5708 47.1466C50.4973 46.6395 50.2307 46.1803 49.8266 45.8652L39.635 38.5199C39.4472 38.3679 39.3246 38.1499 39.2924 37.9104C39.2603 37.6709 39.3209 37.4282 39.462 37.2321C39.6031 37.0359 39.8139 36.9012 40.0512 36.8556C40.2884 36.8099 40.5342 36.8567 40.738 36.9865L50.9324 44.3327C51.596 44.8132 52.0904 45.4914 52.3448 46.2701C52.5991 47.0489 52.6003 47.8882 52.3482 48.6676C52.0962 49.4471 51.6037 50.1268 50.9415 50.6091C50.2793 51.0915 49.4814 51.3517 48.6622 51.3526L48.6612 51.3507Z" fill="#99BE9D"/>
<path d="M44.2465 55.141C43.4851 55.1408 42.742 54.9074 42.1171 54.4722L32.9538 48.1249C32.7474 47.9821 32.6063 47.7631 32.5614 47.5161C32.5165 47.2692 32.5716 47.0145 32.7144 46.8082C32.8573 46.6018 33.0763 46.4607 33.3233 46.4158C33.5702 46.3709 33.8249 46.426 34.0312 46.5689L43.1946 52.9162C43.3958 53.0553 43.6225 53.1535 43.8617 53.2051C44.1008 53.2566 44.3478 53.2606 44.5885 53.2166C44.8292 53.1727 45.0589 53.0818 45.2644 52.9491C45.47 52.8164 45.6474 52.6445 45.7865 52.4432C46.0633 52.0396 46.1708 51.5436 46.0859 51.0616C46.001 50.5796 45.7305 50.1502 45.3324 49.8655L36.2135 43.3971C36.1098 43.3262 36.0213 43.2354 35.9531 43.1299C35.8849 43.0244 35.8384 42.9065 35.8163 42.7828C35.7941 42.6592 35.7969 42.5324 35.8243 42.4098C35.8517 42.2872 35.9032 42.1714 35.9759 42.0689C36.0486 41.9665 36.1409 41.8795 36.2475 41.8132C36.3541 41.7468 36.4729 41.7023 36.5969 41.6823C36.7209 41.6624 36.8477 41.6673 36.9697 41.6968C37.0918 41.7263 37.2068 41.7798 37.308 41.8543L46.4269 48.3226C47.2295 48.8963 47.7752 49.7619 47.9466 50.7334C48.118 51.705 47.9014 52.7051 47.3435 53.5187C47.0647 53.9254 46.7081 54.2727 46.2942 54.5406C45.8803 54.8085 45.4174 54.9917 44.9323 55.0795C44.706 55.1208 44.4765 55.1414 44.2465 55.141Z" fill="#99BE9D"/>
<path d="M38.8416 58.2514C38.1797 58.2481 37.5303 58.0713 36.9582 57.7387L31.8718 54.8062C31.6563 54.6799 31.4996 54.4735 31.4357 54.232C31.3719 53.9905 31.4061 53.7335 31.531 53.5172C31.6559 53.3009 31.8613 53.1427 32.1024 53.0773C32.3435 53.0118 32.6006 53.0444 32.8178 53.1678L37.9032 56.1003C38.3331 56.3429 38.8409 56.4079 39.318 56.2814C39.7952 56.1548 40.204 55.8468 40.4572 55.423C40.6978 55.0167 40.7742 54.534 40.671 54.0733C40.5679 53.6125 40.2928 53.2085 39.902 52.9437L33.4033 48.4419C33.3012 48.3712 33.214 48.281 33.1468 48.1766C33.0795 48.0721 33.0335 47.9555 33.0113 47.8332C32.9891 47.711 32.9912 47.5856 33.0175 47.4642C33.0438 47.3428 33.0937 47.2277 33.1645 47.1256C33.2352 47.0235 33.3254 46.9363 33.4298 46.8691C33.5343 46.8018 33.6509 46.7558 33.7731 46.7336C33.8954 46.7114 34.0208 46.7135 34.1422 46.7398C34.2636 46.7661 34.3786 46.816 34.4808 46.8868L40.9785 51.3876C41.6381 51.8442 42.1347 52.4996 42.3959 53.2581C42.6571 54.0166 42.6694 54.8388 42.4308 55.6047C42.1922 56.3707 41.7153 57.0405 41.0695 57.5166C40.4238 57.9926 39.6429 58.25 38.8406 58.2514H38.8416Z" fill="#99BE9D"/>
<path d="M28.1315 57.6868C27.3576 57.688 26.6018 57.453 25.965 57.0133C25.3282 56.5735 24.8407 55.95 24.5676 55.2259C24.2945 54.5018 24.2489 53.7116 24.4368 52.9609C24.6246 52.2101 25.0371 51.5346 25.6191 51.0245L28.1457 48.811C28.5211 48.4813 28.9579 48.2289 29.4309 48.068C29.9039 47.9072 30.404 47.8411 30.9026 47.8735C31.4011 47.9059 31.8884 48.0362 32.3367 48.2569C32.7849 48.4777 33.1852 48.7846 33.5149 49.16C33.8444 49.5355 34.0968 49.9723 34.2576 50.4454C34.4184 50.9184 34.4844 51.4185 34.4519 51.9171C34.4194 52.4157 34.289 52.903 34.0682 53.3512C33.8473 53.7993 33.5404 54.1996 33.1649 54.5292L30.6382 56.7475C29.9448 57.3551 29.0535 57.6891 28.1315 57.6868ZM30.6543 49.7569C30.1904 49.7557 29.7421 49.9239 29.3934 50.2299L26.8658 52.4462C26.677 52.6119 26.5227 52.8131 26.4116 53.0384C26.3005 53.2637 26.235 53.5087 26.2186 53.7593C26.2022 54.01 26.2353 54.2614 26.3161 54.4992C26.3969 54.7371 26.5237 54.9567 26.6894 55.1455C27.0239 55.5268 27.4963 55.7596 28.0025 55.7927C28.2531 55.8091 28.5046 55.776 28.7424 55.6952C28.9802 55.6144 29.1998 55.4876 29.3887 55.3219L31.9153 53.1037C32.2067 52.8471 32.4131 52.5079 32.5071 52.1312C32.601 51.7544 32.578 51.358 32.4411 50.9946C32.3042 50.6313 32.0599 50.3182 31.7407 50.0971C31.4215 49.876 31.0426 49.7574 30.6543 49.7569Z" fill="#99BE9D"/>
<path d="M22.4042 55.1102C22.32 55.1102 22.2358 55.1102 22.1517 55.1027C21.6528 55.0714 21.165 54.9417 20.7166 54.7209C20.2681 54.5 19.8679 54.1926 19.539 53.8162C19.2048 53.4406 18.9482 53.0028 18.7837 52.5278C18.6192 52.0528 18.5501 51.55 18.5804 51.0482C18.6108 50.5464 18.7399 50.0556 18.9604 49.6039C19.1809 49.1521 19.4884 48.7484 19.8653 48.4158L24.0861 44.7105C24.4616 44.3809 24.8983 44.1284 25.3713 43.9676C25.8444 43.8067 26.3444 43.7406 26.843 43.773C27.3416 43.8054 27.8289 43.9357 28.2771 44.1565C28.7253 44.3772 29.1257 44.6841 29.4553 45.0596L28.7714 45.7151L29.4818 45.0908C29.8115 45.4662 30.0641 45.9029 30.225 46.3759C30.3859 46.849 30.4521 47.3491 30.4197 47.8477C30.3872 48.3463 30.2569 48.8336 30.0361 49.2819C29.8153 49.7301 29.5083 50.1304 29.1327 50.46L24.9081 54.1652C24.217 54.7755 23.3263 55.1117 22.4042 55.1102ZM26.59 45.6564C26.1267 45.6552 25.6789 45.8234 25.331 46.1294L21.1102 49.8347C20.8276 50.0898 20.6263 50.4224 20.5313 50.7911C20.4363 51.1598 20.4518 51.5483 20.5759 51.9082C20.7 52.2681 20.9272 52.5836 21.2293 52.8154C21.5313 53.0471 21.8949 53.185 22.2746 53.2117C22.5255 53.2289 22.7772 53.196 23.0152 53.1148C23.2531 53.0335 23.4725 52.9057 23.6604 52.7388L27.8813 49.0335C28.0701 48.8678 28.2245 48.6665 28.3355 48.4412C28.4466 48.2158 28.5122 47.9708 28.5285 47.7201C28.5448 47.4694 28.5116 47.2179 28.4308 46.98C28.3499 46.7422 28.223 46.5225 28.0572 46.3337L28.0298 46.3025C27.8647 46.1144 27.664 45.9608 27.4393 45.8506C27.2146 45.7404 26.9704 45.6757 26.7206 45.6602C26.6761 45.6583 26.6317 45.6574 26.5891 45.6574L26.59 45.6564Z" fill="#99BE9D"/>
<path d="M17.6321 51.6368C17.5488 51.6368 17.4646 51.6368 17.3795 51.6293C16.8806 51.598 16.3929 51.4683 15.9444 51.2474C15.496 51.0266 15.0957 50.7192 14.7668 50.3428L14.6637 50.2198C13.9988 49.4614 13.6623 48.47 13.7281 47.4635C13.7939 46.457 14.2567 45.5179 15.0147 44.8525L19.908 40.557C20.2834 40.2272 20.7201 39.9747 21.1932 39.8137C21.6662 39.6528 22.1663 39.5867 22.6649 39.6191C23.1636 39.6515 23.6509 39.7818 24.0991 40.0027C24.5473 40.2235 24.9477 40.5304 25.2772 40.906L25.3841 41.028C26.0492 41.7864 26.3859 42.7778 26.3201 43.7844C26.2543 44.7909 25.7914 45.7301 25.0332 46.3953L20.1398 50.6909C19.4477 51.3022 18.5555 51.6387 17.6321 51.6368ZM22.4119 41.5039C21.9486 41.5027 21.5008 41.6709 21.1529 41.9768L16.2595 46.2724C15.8778 46.6072 15.6448 47.0799 15.6116 47.5865C15.5784 48.0932 15.7479 48.5923 16.0826 48.974L16.1895 49.096C16.5245 49.4767 16.9969 49.7088 17.5029 49.7414C18.0089 49.7741 18.5072 49.6045 18.8883 49.2701L23.7817 44.9745C23.9705 44.8088 24.1249 44.6076 24.236 44.3822C24.347 44.1568 24.4126 43.9118 24.4289 43.6611C24.4453 43.4104 24.4121 43.1589 24.3312 42.9211C24.2503 42.6832 24.1234 42.4636 23.9576 42.2748L23.8526 42.1547C23.6874 41.9657 23.4864 41.8115 23.2612 41.7007C23.036 41.59 22.7911 41.525 22.5406 41.5095C22.4961 41.5057 22.4545 41.5039 22.4119 41.5039Z" fill="#99BE9D"/>
<path d="M13.5191 47.4272C13.4359 47.4272 13.3507 47.4272 13.2666 47.4187C12.5109 47.3711 11.7864 47.1005 11.1845 46.6412C10.5826 46.1819 10.1303 45.5545 9.88494 44.8382C9.63954 44.122 9.61198 43.349 9.80575 42.6171C9.99952 41.8852 10.4059 41.2272 10.9736 40.7262L14.0375 38.0368C14.4129 37.7071 14.8496 37.4545 15.3227 37.2936C15.7957 37.1327 16.2958 37.0665 16.7944 37.099C17.293 37.1314 17.7804 37.2617 18.2286 37.4825C18.6768 37.7033 19.0771 38.0103 19.4067 38.3859L19.4398 38.4237C19.7695 38.7991 20.0221 39.2358 20.183 39.7089C20.3439 40.1819 20.4101 40.682 20.3777 41.1806C20.3453 41.6792 20.2149 42.1666 19.9941 42.6148C19.7733 43.063 19.4663 43.4634 19.0907 43.7929L16.0268 46.4822C15.3346 47.0933 14.4425 47.4295 13.5191 47.4272ZM16.5462 38.9828C16.0828 38.9816 15.6351 39.1498 15.2871 39.4557L12.2232 42.1451C12.0343 42.3108 11.88 42.512 11.7689 42.7374C11.6578 42.9628 11.5923 43.2078 11.5759 43.4585C11.5596 43.7092 11.5928 43.9607 11.6737 44.1985C11.7545 44.4364 11.8815 44.656 12.0472 44.8448C12.2117 45.0396 12.4131 45.1997 12.64 45.316C12.8668 45.4324 13.1144 45.5025 13.3685 45.5224C13.6226 45.5423 13.8782 45.5115 14.1203 45.4319C14.3625 45.3523 14.5864 45.2254 14.7791 45.0586L17.843 42.3693C18.0319 42.2036 18.1863 42.0023 18.2973 41.7769C18.4084 41.5516 18.474 41.3065 18.4903 41.0558C18.5066 40.8051 18.4734 40.5537 18.3926 40.3158C18.3117 40.0779 18.1847 39.8583 18.019 39.6695L17.9859 39.6317C17.8207 39.4425 17.6195 39.288 17.3941 39.1771C17.1688 39.0662 16.9236 39.0011 16.6729 38.9856C16.6266 38.9847 16.584 38.9828 16.5414 38.9828H16.5462Z" fill="#99BE9D"/>
<path d="M11.8043 42.2006C11.5995 42.201 11.4002 42.1346 11.2367 42.0114L8.0044 39.5519C7.90551 39.4767 7.82242 39.3828 7.75985 39.2754C7.69727 39.1681 7.65646 39.0495 7.63972 38.9264C7.62299 38.8033 7.63067 38.6781 7.66232 38.5579C7.69397 38.4378 7.74898 38.3251 7.82419 38.2262C7.9761 38.0265 8.20112 37.8953 8.44974 37.8615C8.57285 37.8448 8.69805 37.8525 8.81819 37.8841C8.93833 37.9158 9.05105 37.9708 9.14994 38.046L12.3822 40.5054C12.5415 40.6249 12.659 40.7914 12.718 40.9815C12.7771 41.1716 12.7747 41.3754 12.7112 41.564C12.6477 41.7527 12.5263 41.9165 12.3643 42.0321C12.2023 42.1477 12.008 42.2093 11.809 42.2081L11.8043 42.2006Z" fill="#99BE9D"/>
<path d="M55.3564 43.2486C55.1693 43.2485 54.9865 43.193 54.831 43.0891C54.6754 42.9851 54.5542 42.8374 54.4826 42.6646C54.4111 42.4918 54.3923 42.3016 54.4288 42.1181C54.4653 41.9347 54.5554 41.7661 54.6876 41.6338L59.9953 36.3243C60.1737 36.1519 60.4127 36.0566 60.6607 36.0588C60.9087 36.0609 61.146 36.1604 61.3214 36.3358C61.4967 36.5112 61.5962 36.7484 61.5984 36.9964C61.6005 37.2445 61.5052 37.4834 61.3329 37.6618L56.0252 42.9695C55.9375 43.0577 55.8333 43.1277 55.7186 43.1756C55.6038 43.2235 55.4807 43.2483 55.3564 43.2486Z" fill="#99BE9D"/>
<path d="M62.5924 41.2854C62.4307 41.2857 62.2715 41.2444 62.1303 41.1655C61.989 41.0867 61.8703 40.973 61.7855 40.8352L50.2355 22.0487C50.1135 21.85 50.0692 21.6132 50.1111 21.3837C50.153 21.1543 50.2782 20.9485 50.4626 20.8057L61.9019 11.946C62.0275 11.8487 62.1755 11.7847 62.3323 11.7597C62.4892 11.7347 62.6498 11.7496 62.7994 11.8031C62.9489 11.8565 63.0827 11.9467 63.1882 12.0655C63.2937 12.1842 63.3676 12.3275 63.4031 12.4823L69.0287 37.0268C69.0753 37.2265 69.0558 37.436 68.9731 37.6237C68.8903 37.8114 68.7488 37.9671 68.5699 38.0673L63.0541 41.1672C62.9129 41.2456 62.7539 41.2863 62.5924 41.2854ZM52.292 21.78L62.9207 39.0672L67.027 36.7591L61.8905 14.3478L52.292 21.78Z" fill="#99BE9D"/>
<path d="M7.40681 41.6214C7.24479 41.6213 7.08552 41.5796 6.94424 41.5003L1.42843 38.4052C1.24949 38.305 1.10797 38.1493 1.02522 37.9616C0.942472 37.7739 0.922967 37.5644 0.969647 37.3647L6.59613 12.823C6.63165 12.6682 6.70557 12.5249 6.81108 12.4062C6.91659 12.2874 7.0503 12.1972 7.19986 12.1438C7.34943 12.0903 7.51005 12.0754 7.66689 12.1004C7.82374 12.1254 7.97178 12.1894 8.09735 12.2867L19.5376 21.1455C19.722 21.2882 19.8472 21.4941 19.8891 21.7235C19.931 21.9529 19.8867 22.1897 19.7646 22.3885L8.2137 41.1749C8.12847 41.312 8.00958 41.425 7.86835 41.5032C7.72711 41.5813 7.56822 41.622 7.40681 41.6214ZM2.97221 37.1017L7.07857 39.4089L17.7072 22.1207L8.1087 14.6885L2.97221 37.1017Z" fill="#99BE9D"/>
</svg>
