<svg width="" height="" viewBox="0 0 70 70" fill="none" xmlns="http://www.w3.org/2000/svg">
<path d="M43.1667 40.8334H41.8833C41.4006 40.8342 40.9688 40.5331 40.803 40.0797C40.6607 39.7064 40.5078 39.3412 40.3433 38.9795C40.1389 38.5397 40.2322 38.0189 40.5767 37.6775L41.4913 36.7617C42.8492 35.3919 42.8467 33.1828 41.4855 31.8162L38.1885 28.5192C36.8201 27.1589 34.6102 27.1589 33.2418 28.5192L32.3272 29.4327C31.985 29.7759 31.4651 29.869 31.0252 29.666C30.6635 29.5015 30.2983 29.3487 29.9238 29.1994C29.4681 29.0347 29.1649 28.6013 29.1667 28.1167V26.8334C29.1667 24.9004 27.5997 23.3334 25.6667 23.3334H21C19.067 23.3334 17.5 24.9004 17.5 26.8334V28.1167C17.5009 28.5994 17.1997 29.0312 16.7463 29.197C16.373 29.3394 16.0078 29.4922 15.6462 29.6567C15.2062 29.8601 14.6861 29.767 14.3442 29.4234L13.4283 28.5087C12.0601 27.1493 9.85104 27.1493 8.48283 28.5087L5.18583 31.8162C3.8255 33.1846 3.8255 35.3945 5.18583 36.7629L6.09933 37.6775C6.44379 38.0189 6.53713 38.5397 6.33267 38.9795C6.16817 39.3412 6.01533 39.7064 5.87183 40.0809C5.70485 40.5369 5.26896 40.8383 4.78333 40.8334H3.5C1.56698 40.8334 0 42.4004 0 44.3334V49C0 50.9331 1.56698 52.5 3.5 52.5H4.78333C5.26604 52.4992 5.69785 52.8003 5.86367 53.2537C6.006 53.627 6.15883 53.9922 6.32333 54.3539C6.52779 54.7937 6.43446 55.3145 6.09 55.6559L5.17533 56.5717C3.81588 57.9399 3.81588 60.149 5.17533 61.5172L8.47233 64.8142C9.84069 66.1745 12.0506 66.1745 13.419 64.8142L14.3337 63.9007C14.6758 63.5576 15.1957 63.4644 15.6357 63.6674C15.9973 63.8319 16.3625 63.9847 16.737 64.134C17.1951 64.2968 17.5009 64.7306 17.5 65.2167V66.5C17.5 68.4331 19.067 70 21 70H25.6667C27.5997 70 29.1667 68.4331 29.1667 66.5V65.2167C29.1658 64.734 29.4669 64.3022 29.9203 64.1364C30.2937 63.994 30.6588 63.8412 31.0205 63.6767C31.4605 63.4733 31.9805 63.5665 32.3225 63.91L33.2383 64.8247C34.6084 66.182 36.8169 66.1793 38.1838 64.8189L41.4808 61.5219C42.8412 60.1535 42.8412 57.9436 41.4808 56.5752L40.5673 55.6605C40.2229 55.3191 40.1295 54.7984 40.334 54.3585C40.4985 53.9969 40.6513 53.6317 40.8007 53.2572C40.9653 52.8015 41.3987 52.4983 41.8833 52.5H43.1667C45.0997 52.5 46.6667 50.9331 46.6667 49V44.3334C46.6667 42.4004 45.0997 40.8334 43.1667 40.8334ZM44.3333 49C44.3333 49.6443 43.811 50.1667 43.1667 50.1667H41.8833C40.433 50.1721 39.1351 51.0685 38.6167 52.423C38.493 52.7497 38.3593 53.0713 38.2153 53.3879C37.6155 54.712 37.8938 56.269 38.9153 57.3032L39.8277 58.2167C40.2835 58.672 40.284 59.4108 39.8285 59.8667C39.8283 59.867 39.828 59.8672 39.8277 59.8675L36.5307 63.1645C36.0751 63.62 35.3366 63.62 34.881 63.1645L33.9663 62.251C32.9325 61.2286 31.375 60.9502 30.051 61.551C29.7348 61.6945 29.4128 61.8287 29.0885 61.9524C27.735 62.4707 26.8392 63.7674 26.8333 65.2167V66.5C26.8333 67.1443 26.311 67.6667 25.6667 67.6667H21C20.3557 67.6667 19.8333 67.1443 19.8333 66.5V65.2167C19.8279 63.7664 18.9315 62.4685 17.577 61.95C17.2503 61.8264 16.9288 61.6926 16.6122 61.5487C15.288 60.9492 13.7312 61.2276 12.6968 62.2487L11.7833 63.161C11.328 63.6169 10.5893 63.6174 10.1334 63.1619C10.1331 63.1616 10.1328 63.1613 10.1325 63.161L6.8355 59.8675C6.38006 59.412 6.38006 58.6735 6.8355 58.2179L7.749 57.3032C8.77056 56.269 9.04881 54.712 8.449 53.3879C8.3055 53.0717 8.17133 52.7497 8.04767 52.4254C7.53054 51.0704 6.2335 50.1731 4.78333 50.1667H3.5C2.85571 50.1667 2.33333 49.6443 2.33333 49V44.3334C2.33333 43.6891 2.85571 43.1667 3.5 43.1667H4.78333C6.23365 43.1613 7.53156 42.2649 8.05 40.9104C8.17367 40.5837 8.3074 40.2621 8.45133 39.9455C9.05115 38.6214 8.77275 37.0645 7.75133 36.0302L6.83433 35.1167C6.37846 34.6614 6.37802 33.9226 6.83346 33.4667C6.83375 33.4665 6.83404 33.4662 6.83433 33.4659L10.1313 30.1689C10.5869 29.7134 11.3254 29.7134 11.781 30.1689L12.6957 31.0824C13.7295 32.1048 15.287 32.3832 16.611 31.7824C16.9272 31.6389 17.2492 31.5047 17.5735 31.381C18.9289 30.8644 19.8268 29.5672 19.8333 28.1167V26.8334C19.8333 26.1891 20.3557 25.6667 21 25.6667H25.6667C26.311 25.6667 26.8333 26.1891 26.8333 26.8334V28.1167C26.8387 29.567 27.7352 30.8649 29.0897 31.3834C29.4163 31.507 29.7379 31.6408 30.0545 31.7847C31.3785 32.3855 32.936 32.1071 33.9698 31.0847L34.8833 30.1724C35.3407 29.72 36.0768 29.72 36.5342 30.1724L39.8312 33.4694C40.2866 33.925 40.2866 34.6635 39.8312 35.119L38.9177 36.0337C37.8963 37.068 37.6179 38.6249 38.2177 39.949C38.3612 40.2652 38.4953 40.5872 38.619 40.9115C39.1373 42.265 40.434 43.1609 41.8833 43.1667H43.1667C43.811 43.1667 44.3333 43.6891 44.3333 44.3334V49Z" fill=""/>
<path d="M33.8096 46.2001C33.798 45.9201 33.7781 45.6413 33.7443 45.3636C33.707 45.0649 33.6626 44.7686 33.6008 44.4781C33.56 44.2879 33.5063 44.1001 33.455 43.9111C33.3896 43.6708 33.3161 43.4339 33.2345 43.2006C33.1773 43.0384 33.1178 42.8774 33.0571 42.7176C32.9069 42.344 32.7351 41.9792 32.5426 41.6256C32.5275 41.5988 32.5181 41.5696 32.503 41.5428C32.1995 41.0026 31.848 40.4906 31.453 40.0133C31.4191 39.9713 31.3806 39.9316 31.3456 39.8908C31.1846 39.7006 31.019 39.5163 30.8451 39.3401C30.7541 39.2456 30.6585 39.1569 30.5628 39.0659C30.4461 38.9574 30.3295 38.8501 30.2128 38.7474C30.0712 38.6245 29.927 38.5055 29.78 38.3904L29.5886 38.2481C27.7833 36.8959 25.5884 36.1656 23.333 36.1667C23.2163 36.1667 23.0996 36.1842 22.983 36.1889C22.7345 36.1959 22.4848 36.2099 22.234 36.2356C22.1021 36.2496 21.9691 36.2647 21.8373 36.2834C21.457 36.3334 21.0795 36.404 20.7068 36.4946C15.0891 37.9462 11.7119 43.6772 13.1636 49.2948C14.1202 52.9967 17.0124 55.8865 20.715 56.8401C20.7336 56.8401 20.7535 56.8459 20.7733 56.8506C21.1762 56.9511 21.5844 57.0291 21.996 57.0839C22.2678 57.1178 22.5396 57.1248 22.8126 57.1376C22.9946 57.1469 23.1626 57.1738 23.3528 57.1738C23.6853 57.1738 24.0306 57.1516 24.383 57.1166C24.4203 57.1166 24.4576 57.1061 24.4996 57.1014C24.7831 57.0699 25.0701 57.0279 25.363 56.9696C25.4796 56.9474 25.5881 56.9183 25.7001 56.8926C25.9055 56.8448 26.1096 56.7946 26.3196 56.7328C26.483 56.6838 26.6416 56.6266 26.8015 56.5706C26.9613 56.5146 27.127 56.4539 27.2926 56.3909C27.4583 56.3279 27.5971 56.2556 27.7476 56.1856C27.9436 56.0958 28.1385 56.0071 28.331 55.9021H28.338C29.4267 55.3192 30.4324 54.5929 31.3281 53.7426C31.5701 53.5168 31.7805 53.2593 31.9535 52.9773C32.864 51.5175 33.4622 49.8849 33.7105 48.1823C33.7431 47.9571 33.7723 47.7319 33.7898 47.5021C33.8061 47.2909 33.8178 47.0809 33.8225 46.8709C33.8225 46.8044 33.8318 46.7414 33.8318 46.6749C33.833 46.5104 33.8166 46.3588 33.8096 46.2001ZM31.4845 46.9643C31.4845 47.0611 31.4763 47.1579 31.4705 47.2536C31.4495 47.5359 31.4133 47.8183 31.3655 48.1018C30.9294 50.5274 29.4234 52.6274 27.2658 53.8184C27.1211 53.8943 26.9788 53.9654 26.8365 54.0308L26.7396 54.0774C26.0618 54.3851 25.3463 54.6017 24.6116 54.7214C24.5603 54.7296 24.5078 54.7389 24.4553 54.7459C24.3095 54.7669 24.166 54.7844 24.0236 54.7973C23.8358 54.8136 23.6468 54.8229 23.4543 54.8264C23.3726 54.8264 23.2921 54.8264 23.2105 54.8264C22.9344 54.8232 22.6588 54.8062 22.3845 54.7751L22.2445 54.7588C21.9236 54.7168 21.6054 54.6568 21.2913 54.5791C16.9218 53.4607 14.2863 49.0119 15.4046 44.6424C16.1435 41.7552 18.3966 39.4998 21.2831 38.7579V38.7568C21.9534 38.5877 22.6417 38.5014 23.333 38.5001C23.6665 38.502 23.9997 38.5246 24.3305 38.5677C24.4191 38.5782 24.5066 38.5946 24.5941 38.6074C24.8461 38.6471 25.0958 38.6973 25.342 38.7603C25.4225 38.7813 25.503 38.7999 25.5823 38.8221C26.2027 39.0012 26.7998 39.2526 27.3615 39.5711C27.4513 39.6236 27.5388 39.6784 27.6275 39.7333C27.8118 39.8499 27.9903 39.9666 28.1665 40.0996C28.261 40.1684 28.3566 40.2361 28.4476 40.3096C28.6766 40.4925 28.8958 40.6871 29.1045 40.8929C29.1873 40.9769 29.2631 41.0691 29.3436 41.1566C29.4778 41.3024 29.6085 41.4518 29.7333 41.6093C29.8196 41.7178 29.9025 41.8298 29.9841 41.9429C30.1008 42.1109 30.2175 42.2859 30.3225 42.4633C30.3808 42.5601 30.4391 42.6546 30.4986 42.7538C30.6491 43.0307 30.7831 43.3162 30.9 43.6089C30.9466 43.7256 30.9863 43.8423 31.0283 43.9589C31.1041 44.1736 31.1695 44.3906 31.2266 44.6099C31.2558 44.7266 31.2885 44.8304 31.313 44.9436C31.3811 45.2589 31.4305 45.578 31.4611 45.8991C31.4681 45.9843 31.4681 46.0706 31.474 46.1558C31.4903 46.4241 31.495 46.6936 31.4845 46.9643Z" fill=""/>
<path d="M66.4995 24.5H62.8303C62.3411 24.505 61.9034 24.1968 61.743 23.7347C61.3812 22.651 60.9434 21.594 60.4328 20.5718C60.2161 20.1304 60.3064 19.5997 60.6568 19.2547L63.2585 16.6495C64.6241 15.2829 64.6241 13.0683 63.2585 11.7017L58.2978 6.74917C56.9312 5.38358 54.7166 5.38358 53.35 6.74917L50.7495 9.3485C50.4049 9.69879 49.8749 9.7895 49.4335 9.57367C48.4112 9.06048 47.3539 8.62035 46.2695 8.2565C45.8055 8.09769 45.4951 7.6596 45.4995 7.16917V3.5C45.4995 1.56698 43.9325 0 41.9995 0H34.9995C33.0665 0 31.4995 1.56698 31.4995 3.5V7.16917C31.5045 7.65844 31.1965 8.09608 30.7342 8.2565C29.6503 8.62021 28.5933 9.06004 27.5713 9.5725C27.1299 9.78994 26.5989 9.69967 26.2542 9.3485L23.649 6.74683C22.2808 5.38519 20.0694 5.38519 18.7012 6.74683L13.7498 11.6982C12.3835 13.0649 12.3835 15.2804 13.7498 16.6472L17.5753 20.4797C18.0381 20.928 18.7767 20.9163 19.225 20.4534C19.6624 20.0019 19.6634 19.285 19.2273 18.8323L15.3995 15.001C14.9441 14.5454 14.9441 13.8069 15.3995 13.3513L20.3508 8.4C20.8064 7.94456 21.5449 7.94456 22.0005 8.4L24.6068 11.0017C25.6614 12.0625 27.2772 12.3276 28.6155 11.6597C29.5396 11.1969 30.4951 10.7997 31.475 10.4708C32.8893 9.99206 33.839 8.66235 33.8328 7.16917V3.5C33.8328 2.85571 34.3552 2.33333 34.9995 2.33333H41.9995C42.6438 2.33333 43.1662 2.85571 43.1662 3.5V7.16917C43.1602 8.66206 44.1099 9.99133 45.524 10.4697C46.5043 10.7987 47.4602 11.1962 48.3847 11.6597C49.7233 12.3241 51.3369 12.0587 52.3922 11.0005L54.9985 8.4C55.4541 7.94456 56.1926 7.94456 56.6482 8.4L61.5995 13.3525C62.0542 13.8079 62.0542 14.5456 61.5995 15.001L58.9978 17.6073C57.9381 18.6624 57.6731 20.2775 58.3398 21.616C58.8026 22.5401 59.1998 23.4956 59.5287 24.4755C60.0071 25.8901 61.337 26.8398 62.8303 26.8333H66.4995C67.1438 26.8333 67.6662 27.3557 67.6662 28V35C67.6662 35.6443 67.1438 36.1667 66.4995 36.1667H62.8303C61.3374 36.1607 60.0082 37.1104 59.5298 38.5245C59.201 39.5048 58.8033 40.4607 58.3398 41.3852C57.6742 42.7236 57.9398 44.3379 58.999 45.3927L61.6007 47.999C62.0561 48.4546 62.0561 49.1931 61.6007 49.6487L56.647 54.6C56.1916 55.0547 55.4539 55.0547 54.9985 54.6L51.1648 50.7745C50.7165 50.3116 49.9779 50.3 49.5152 50.7483C49.0523 51.1965 49.0406 51.9352 49.4889 52.3979C49.4982 52.4075 49.5079 52.4172 49.5175 52.4265L53.35 56.252C54.7166 57.6176 56.9312 57.6176 58.2978 56.252L63.2492 51.3018C64.6155 49.9351 64.6155 47.7196 63.2492 46.3528L60.651 43.75C60.301 43.4053 60.2104 42.8754 60.4258 42.434C60.939 41.4117 61.3791 40.3544 61.743 39.27C61.9018 38.806 62.3399 38.4956 62.8303 38.5H66.4995C68.4325 38.5 69.9995 36.933 69.9995 35V28C69.9995 26.067 68.4325 24.5 66.4995 24.5Z" fill=""/>
<path d="M49.2239 20.7759C43.2976 14.862 33.7023 14.862 27.7759 20.7759C27.3284 21.2394 27.3412 21.978 27.8047 22.4256C28.2567 22.8622 28.9735 22.8622 29.4256 22.4256C34.4036 17.3804 42.529 17.326 47.5743 22.304C52.6195 27.282 52.6739 35.4074 47.6959 40.4526C47.6557 40.4935 47.6151 40.534 47.5743 40.5743C47.1108 41.022 47.098 41.7605 47.5457 42.2239C47.9934 42.6874 48.7319 42.7002 49.1954 42.2525C49.205 42.2432 49.2146 42.2336 49.2239 42.2239C55.1379 36.2976 55.1379 26.7023 49.2239 20.7759Z" fill=""/>
</svg>
