<svg width="" height="" viewBox="0 0 64 57" fill="none" xmlns="http://www.w3.org/2000/svg">
<path fill-rule="evenodd" clip-rule="evenodd" d="M1.27998 13.9C-0.0984772 19.6 1.18152 25.3 5.02152 30.8C6.59691 33 7.77844 34.5 10.8308 37.5C14.08 40.8 15.8523 42.4 25.2061 50.4C27.2738 52.2 31.2123 55.6 31.7046 55.8C32.1969 55.9 32.2954 55.9 38.4984 50.5L38.5969 50.4C41.9446 47.5 45.9815 44 47.4584 42.7C50.5107 40 55.5323 35 56.9107 33.3C59.6677 29.8 61.3415 26.8 62.2277 23.8C64.1969 17 62.2277 9.39997 57.4031 4.99997C52.6769 0.599975 45.8831 -0.500025 40.3692 2.19998C37.7108 3.49997 35.0523 5.99998 33.28 8.99998C32.2954 10.6 32.1969 10.7 31.8031 10.7C31.3107 10.7 31.3107 10.6 30.3261 8.99998C28.0615 5.29998 24.8123 2.59997 21.2677 1.39997C19.8892 0.999975 18.3138 0.799975 16.8369 0.799975C15.9508 0.799975 15.0646 0.899975 14.1784 0.999975C7.77844 2.09997 2.85537 7.09997 1.27998 13.9ZM19.9877 3.39998C24.4184 4.59998 28.16 8.39997 30.4246 14.2C30.72 14.9 30.9169 15.4 31.0154 15.4C31.2123 15.6 31.5077 15.7 31.8031 15.7C32.0984 15.7 32.4923 15.6 32.6892 15.4C32.6892 15.4 32.9846 14.9 33.1815 14.2C35.0523 9.29997 37.8092 5.99997 41.3538 4.19997C43.2246 3.19997 44.3077 2.99997 46.7692 2.99997C48.4431 2.99997 49.0338 2.99997 50.0184 3.29997C52.2831 3.89997 55.1384 5.49997 56.5169 7.19997C59.5692 10.7 61.0461 15.4 60.5538 20.1C59.8646 26.5 56.0246 31.9 45.9815 40.9C45.7846 41.1 32.4923 52.8 31.8031 52.8C31.1138 52.8 17.8215 41 17.7231 40.9C7.58152 32 3.74152 26.5 3.05229 20.1C2.46152 14.6 4.8246 8.79997 8.76306 5.79997C10.4369 4.49997 12.2092 3.69998 14.1784 3.29997C15.7538 2.89997 18.4123 2.99997 19.9877 3.39998Z" fill="#F69691"/>
</svg>
