<svg width="" height="" viewBox="0 0 33 33" fill="none" xmlns="http://www.w3.org/2000/svg">
<path d="M12.8068 19.6131H1.28906C0.966797 19.6131 0.708984 19.8709 0.708984 20.1932V31.711C0.708984 32.0332 0.966797 32.291 1.28906 32.291H12.8068C13.1291 32.291 13.3869 32.0332 13.3869 31.711V20.1932C13.3869 19.8709 13.1291 19.6131 12.8068 19.6131ZM12.2268 31.1309H1.86914V20.7733H12.2268V31.1309Z" fill="#E1988C"/>
<path d="M29.3777 31.6787C29.6033 31.9043 29.9707 31.9043 30.1962 31.6787C30.3058 31.5692 30.3638 31.4209 30.3638 31.2662C30.3638 31.1115 30.3058 30.9633 30.1962 30.8537L19.1232 19.7807C19.0136 19.6711 18.8654 19.6131 18.7107 19.6131C18.556 19.6131 18.4078 19.6711 18.2982 19.7807C18.1886 19.8902 18.1306 20.0385 18.1306 20.1932C18.1306 20.3479 18.1886 20.4961 18.2982 20.6057L29.3777 31.6787Z" fill="#2A2623"/>
<path d="M18.2209 14.5922C18.3305 14.7662 18.5109 14.8693 18.7172 14.8693H31.7109C31.9107 14.8693 32.0976 14.7662 32.2072 14.5922C32.3168 14.4182 32.3232 14.2119 32.233 14.025L25.7297 1.03125C25.633 0.831445 25.4332 0.708984 25.2076 0.708984C24.982 0.708984 24.7887 0.831445 24.6855 1.03125L18.1951 14.025C18.1049 14.2055 18.1178 14.4182 18.2209 14.5922ZM25.2141 2.58457L30.7764 13.7027H19.6517L25.2141 2.58457Z" fill="#E1988C"/>
<path d="M7.78594 0.708984C3.88652 0.708984 0.708984 3.88652 0.708984 7.78594C0.708984 11.6854 3.88652 14.8629 7.78594 14.8629C11.6854 14.8629 14.8629 11.6854 14.8629 7.78594C14.8629 3.88652 11.6918 0.708984 7.78594 0.708984ZM7.78594 13.7027C4.52461 13.7027 1.86914 11.0473 1.86914 7.78594C1.86914 4.52461 4.52461 1.86914 7.78594 1.86914C11.0473 1.86914 13.7027 4.52461 13.7027 7.78594C13.7027 11.0473 11.0473 13.7027 7.78594 13.7027Z" fill="#2A2623"/>
</svg>
