<svg width="" height="" viewBox="0 0 44 44" fill="none" xmlns="http://www.w3.org/2000/svg">
<path fill-rule="evenodd" clip-rule="evenodd" d="M22.0002 41.2498C22.3649 41.2498 22.7146 41.105 22.9725 40.8471C23.2304 40.5892 23.3752 40.2395 23.3752 39.8748V7.44408L32.0267 16.0983C32.1546 16.2262 32.3063 16.3276 32.4734 16.3968C32.6404 16.466 32.8194 16.5016 33.0002 16.5016C33.181 16.5016 33.36 16.466 33.5271 16.3968C33.6941 16.3276 33.8459 16.2262 33.9737 16.0983C34.1016 15.9705 34.203 15.8187 34.2722 15.6517C34.3413 15.4847 34.377 15.3056 34.377 15.1248C34.377 14.944 34.3413 14.765 34.2722 14.598C34.203 14.4309 34.1016 14.2792 33.9737 14.1513L22.9737 3.15133C22.846 3.02328 22.6943 2.92169 22.5272 2.85237C22.3602 2.78306 22.1811 2.74738 22.0002 2.74738C21.8194 2.74738 21.6403 2.78306 21.4732 2.85237C21.3062 2.92169 21.1544 3.02328 21.0267 3.15133L10.0267 14.1513C9.89888 14.2792 9.79747 14.4309 9.72828 14.598C9.65909 14.765 9.62348 14.944 9.62348 15.1248C9.62348 15.3056 9.65909 15.4847 9.72828 15.6517C9.79747 15.8187 9.89888 15.9705 10.0267 16.0983C10.1546 16.2262 10.3063 16.3276 10.4734 16.3968C10.6404 16.466 10.8194 16.5016 11.0002 16.5016C11.181 16.5016 11.36 16.466 11.5271 16.3968C11.6941 16.3276 11.8459 16.2262 11.9737 16.0983L20.6252 7.44408V39.8748C20.6252 40.2395 20.7701 40.5892 21.0279 40.8471C21.2858 41.105 21.6355 41.2498 22.0002 41.2498Z" fill=""/>
</svg>
