<svg width="32" height="32" viewBox="0 0 32 32" fill="none" xmlns="http://www.w3.org/2000/svg">
<path d="M11.8 11.2999C11.5 12.0999 11.4 12.9999 11.5 13.8999C11.7 14.7999 12.1 15.5999 12.7 16.1999C13.3 16.7999 14.1 17.2999 15 17.3999C15.9 17.5999 16.8 17.4999 17.6 17.0999C18.4 16.7999 19.1 16.1999 19.6 15.3999C20.1 14.6999 20.4 13.7999 20.4 12.8999C20.4 11.6999 19.9 10.5999 19.1 9.6999C18.3 8.8999 17.1 8.3999 15.9 8.3999C15 8.3999 14.1 8.6999 13.4 9.1999C12.8 9.7999 12.2 10.4999 11.8 11.2999ZM13.5 10.4999C14 9.9999 14.6 9.6999 15.3 9.4999C16 9.3999 16.7 9.3999 17.3 9.6999C17.9 9.9999 18.5 10.3999 18.9 10.9999C19.3 11.5999 19.5 12.1999 19.5 12.8999C19.5 13.7999 19.1 14.6999 18.5 15.3999C17.8 16.0999 17 16.3999 16 16.3999C15.3 16.3999 14.6 16.1999 14.1 15.7999C13.5 15.3999 13.1 14.8999 12.8 14.1999C12.5 13.5999 12.5 12.8999 12.6 12.1999C12.7 11.5999 13 10.9999 13.5 10.4999Z" fill=""/>
<path d="M3.49998 10.7999C2.49998 13.2999 2.19998 15.9999 2.69998 18.5999C3.19998 21.1999 4.49998 23.5999 6.39998 25.4999C8.29998 27.3999 10.7 28.6999 13.3 29.1999C15.9 29.6999 18.6 29.4999 21.1 28.3999C23.6 27.3999 25.7 25.6999 27.2 23.3999C28.7 21.1999 29.5 18.5999 29.5 15.8999C29.5 12.2999 28.1 8.8999 25.5 6.3999C23 3.8999 19.6 2.3999 16 2.3999C13.3 2.3999 10.7 3.1999 8.49998 4.6999C6.29998 6.2999 4.59998 8.3999 3.49998 10.7999ZM22.5 26.6999L22.3 26.7999C20.4 27.8999 18.2 28.4999 16 28.4999C13.8 28.4999 11.6 27.8999 9.69998 26.7999L9.49998 26.6999V24.9999C9.49998 24.0999 9.89998 21.1999 10.5 20.4999C11.2 19.7999 12 19.4999 13 19.4999H19C19.9 19.4999 20.8 19.8999 21.5 20.4999C22.2 21.0999 22.5 23.9999 22.5 24.9999V26.6999ZM8.89998 5.6999C11 4.1999 13.5 3.4999 16 3.4999C18.5 3.4999 21 4.2999 23.1 5.6999C25.2 7.0999 26.8 9.1999 27.7 11.4999C28.6 13.8999 28.8 16.3999 28.2 18.8999C27.6 21.3999 26.3 23.5999 24.4 25.2999L23.5 25.9999V24.8999C23.5 23.6999 23 20.5999 22.2 19.7999C21.4 18.9999 20.2 18.4999 19 18.4999H13C11.8 18.4999 10.7 18.9999 9.79998 19.7999C8.99998 20.5999 8.49998 23.6999 8.49998 24.8999V25.9999L7.69998 25.2999C5.79998 23.5999 4.49998 21.3999 3.89998 18.8999C3.29998 16.3999 3.49998 13.8999 4.39998 11.4999C5.19998 9.0999 6.79998 7.0999 8.89998 5.6999Z" fill=""/>
</svg>
