<svg width="45" height="45" viewBox="0 0 45 45" fill="none" xmlns="http://www.w3.org/2000/svg">
<path d="M37.9 7.10005C33.8 3.00005 28.3 0.800049 22.5 0.800049C16.7 0.800049 11.2 3.00005 7.1 7.10005C3 11.2 0.800003 16.7 0.800003 22.5C0.800003 28.3 3 33.8001 7.1 37.9001C11.2 42 16.7 44.3 22.5 44.3C28.3 44.3 33.8 42 37.9 37.9001C42 33.8001 44.3 28.3 44.3 22.5C44.2 16.7 42 11.2 37.9 7.10005ZM22.5 43.1C11.1 43.1 1.9 33.9 1.9 22.5C1.9 15.2 5.9 8.30005 12.3 4.60005L15 3.00005L13.2 5.70005C12 7.50005 11.3 9.70005 11.3 11.9C11.3 18.1 16.3 23.1 22.5 23.1C28 23.1 32.5 27.6 32.5 33.1C32.5 38.6 28 43.1 22.5 43.1ZM32.8 40.4001L30 42L31.8 39.3C33 37.5 33.7 35.3 33.7 33.1C33.7 26.9 28.7 21.9 22.5 21.9C17 21.9 12.5 17.4 12.5 11.9C12.5 6.40005 17 1.90005 22.5 1.90005C33.9 1.90005 43.1 11.1 43.1 22.5C43.1 29.8 39.1 36.7001 32.8 40.4001Z" fill="#2A2623"/>
<path d="M22.5 13.8C23.5493 13.8 24.4 12.9493 24.4 11.9C24.4 10.8507 23.5493 10 22.5 10C21.4507 10 20.6 10.8507 20.6 11.9C20.6 12.9493 21.4507 13.8 22.5 13.8Z" fill="#2A2623"/>
<path d="M22.5 35.0001C23.5493 35.0001 24.4 34.1494 24.4 33.1001C24.4 32.0507 23.5493 31.2001 22.5 31.2001C21.4507 31.2001 20.6 32.0507 20.6 33.1001C20.6 34.1494 21.4507 35.0001 22.5 35.0001Z" fill="#2A2623"/>
</svg>
