<svg width="159" height="210" viewBox="0 0 159 210" fill="none" xmlns="http://www.w3.org/2000/svg">
<path d="M61.3829 152.526C59.4192 144.855 61.6996 136.923 61.3196 129.121C61.3196 128.796 60.7494 128.861 60.7494 129.186C60.496 133.282 59.9893 137.378 59.7359 141.474C59.4825 145.245 59.3558 149.211 60.6861 152.786C60.8128 153.047 61.5096 152.851 61.3829 152.526Z" fill="#664B36"/>
<path d="M62.4599 151.226C62.2698 149.471 61.8264 147.715 61.5097 146.025C61.1929 144.269 60.8762 142.579 60.6228 140.824C60.0527 137.378 59.5459 133.867 58.7224 130.421C58.6591 130.161 58.1523 130.226 58.2156 130.486C58.6591 133.997 59.2292 137.573 59.8627 141.084C60.1794 142.839 60.4961 144.53 60.8129 146.285C61.1929 147.975 61.4463 149.731 62.0798 151.356C62.2065 151.486 62.4599 151.421 62.4599 151.226Z" fill="#664B36"/>
<path d="M59.9895 133.477C59.356 129.771 57.5823 126.39 55.8086 123.139C53.9082 119.693 51.8811 116.378 49.854 113.062C49.7273 112.867 49.2839 112.997 49.4106 113.257C50.9943 116.703 53.0213 119.954 54.8584 123.204C56.6954 126.52 58.3425 129.901 59.546 133.542C59.6094 133.802 60.0528 133.737 59.9895 133.477Z" fill="#664B36"/>
<path d="M51.1842 116.833C47.9535 112.412 45.0395 107.861 42.569 102.985C40.0985 98.0434 38.0714 92.9072 36.4244 87.6409C35.5375 84.7152 34.714 81.7895 33.9539 78.8638C33.8272 78.4737 33.1937 78.6038 33.2571 78.9939C35.2208 89.8514 39.275 100.514 45.1029 109.811C46.7499 112.412 48.5869 114.947 50.6774 117.288C50.8674 117.548 51.4375 117.158 51.1842 116.833Z" fill="#664B36"/>
<path d="M38.4514 96.8731C37.1211 95.5078 36.2343 93.4923 35.6641 91.6719C34.904 89.3313 34.5239 86.9257 34.2705 84.4551C33.7637 79.1889 34.0171 73.8576 34.8406 68.6564C35.2207 66.2508 35.6641 63.8452 36.361 61.5047C36.4243 61.1796 35.9175 61.1796 35.7908 61.4397C33.7004 65.7307 33.1936 70.9969 32.9402 75.7431C32.6868 81.0093 32.9402 86.5356 34.5239 91.5418C35.2207 93.6873 36.2343 95.7028 37.8813 97.2632C38.198 97.5233 38.7681 97.1982 38.4514 96.8731Z" fill="#664B36"/>
<path d="M36.2977 63.3251C36.6144 59.034 39.085 54.9381 41.4921 51.4922C43.836 48.0464 46.5599 44.8606 49.4105 41.7399C49.6005 41.4798 49.2204 41.3498 49.0304 41.4798C45.9264 44.4706 43.0758 47.8514 40.6686 51.4922C38.3881 55.0031 36.171 58.969 35.9176 63.26C35.8543 63.5201 36.2977 63.5201 36.2977 63.3251Z" fill="#664B36"/>
<path d="M38.0081 57.2786C39.3384 53.3777 41.7455 49.9318 44.4694 46.9411C47.3834 43.7554 50.7407 41.0247 54.3515 38.6842C56.2519 37.4489 58.279 36.4086 60.3061 35.3684C60.6862 35.1733 60.4328 34.7182 60.0527 34.8483C56.1252 36.3436 52.4511 38.7492 49.1571 41.4148C45.7997 44.1455 42.6957 47.3312 40.3519 51.0371C39.1483 52.9876 38.1981 55.0031 37.5646 57.2136C37.5013 57.4736 37.9447 57.4736 38.0081 57.2786Z" fill="#664B36"/>
<path d="M58.7855 34.0681C58.7222 34.0681 58.6588 34.1331 58.6588 34.1981C58.5955 34.2631 58.5955 34.3932 58.6588 34.4582C58.9122 34.7182 59.8624 34.3281 60.1158 34.2631C61.3194 33.938 62.4596 33.548 63.6632 33.1579C66.1971 32.3127 68.6676 31.4675 71.3282 31.1424C79.3732 30.2972 87.7349 30.9473 95.4632 33.4829C99.7074 34.8483 103.572 36.8637 107.246 39.3993C107.562 39.5944 108.133 39.2043 107.816 38.8792C104.965 36.2136 101.481 34.4582 97.8704 33.0928C94.0696 31.6625 90.0788 30.7523 86.0879 30.2322C82.0971 29.712 77.9796 29.582 73.9254 29.9071C72.3417 30.0371 70.6947 30.1021 69.1744 30.4922C67.9708 30.8173 66.7672 31.2074 65.627 31.5975C64.1066 32.1176 62.5863 32.6377 61.1294 33.2229C60.6226 33.4179 60.0525 33.613 59.5457 33.873C59.419 33.938 59.229 34.0031 59.0389 34.0681C58.7855 34.1981 58.8489 34.0031 59.0389 34.1981C59.0389 34.2631 59.1023 34.3932 59.1023 34.4582C59.0389 34.5232 59.0389 34.5232 59.1023 34.5232C59.2923 34.2631 59.0389 33.938 58.7855 34.0681Z" fill="#664B36"/>
<path d="M105.789 39.6594C107.943 39.6594 109.526 40.6346 111.047 42.195C113.137 44.3405 114.657 47.0061 115.988 49.6718C119.092 55.9133 121.309 62.6749 122.702 69.5015C123.272 72.1671 123.779 74.8978 123.653 77.6284C123.653 78.0185 124.223 78.0185 124.286 77.6934C124.539 76.6532 124.476 75.6129 124.476 74.5727C124.476 73.1423 124.286 71.777 124.096 70.4117C123.526 66.9009 122.576 63.5201 121.499 60.1393C120.358 56.6284 118.965 53.1176 117.318 49.8018C115.924 47.0061 114.277 44.1455 112.123 41.8699C110.603 40.3095 108.006 38.3591 105.789 39.3993C105.535 39.3343 105.535 39.5944 105.789 39.6594Z" fill="#664B36"/>
<path d="M123.273 73.2075C123.146 79.514 122.259 85.7555 120.549 91.8669C118.838 97.9134 116.305 103.7 113.327 109.226C111.617 112.412 109.717 115.468 108.006 118.653C107.816 118.978 108.386 119.108 108.576 118.913C110.413 116.313 111.997 113.517 113.517 110.656C114.974 107.861 116.368 105 117.635 102.074C120.042 96.353 121.942 90.4366 122.956 84.3251C123.589 80.6843 123.843 76.9784 123.779 73.2725C123.779 72.9474 123.273 72.9474 123.273 73.2075Z" fill="#664B36"/>
<path d="M124.096 78.0187C123.526 92.9072 117.635 107.341 109.146 119.369C106.866 122.619 104.269 125.61 101.735 128.666C101.545 128.926 101.925 129.186 102.115 128.991C104.712 126.65 106.993 123.855 109.083 120.994C111.237 118.003 113.201 114.882 114.974 111.632C118.585 105 121.372 97.9134 123.019 90.5666C123.97 86.4707 124.476 82.3097 124.54 78.1487C124.603 77.7586 124.16 77.7586 124.096 78.0187Z" fill="#664B36"/>
<path d="M105.156 122.554C102.178 126.78 99.9612 131.656 98.4409 136.598C96.9205 141.474 95.9703 146.675 96.2871 151.811C96.2871 152.071 96.7939 152.006 96.7939 151.746C97.1106 146.61 97.8074 141.474 99.3911 136.533C100.911 131.656 103.255 127.17 105.662 122.749C105.789 122.424 105.282 122.294 105.156 122.554Z" fill="#664B36"/>
<path d="M102.305 128.991C101.291 129.446 100.721 130.811 100.341 131.851C99.6442 133.607 99.2008 135.427 98.7574 137.248C97.7438 141.604 97.1737 146.09 96.667 150.576C96.4769 152.396 96.2869 154.282 96.2235 156.102C96.2235 156.362 96.667 156.362 96.7303 156.102C97.1737 152.526 97.5538 148.95 98.0606 145.31C98.6307 141.214 99.2642 136.988 100.594 133.087C101.038 131.786 101.545 130.291 102.558 129.381C102.812 129.121 102.558 128.861 102.305 128.991Z" fill="#664B36"/>
<path d="M61.5096 153.697C63.0933 155.127 65.1204 156.167 67.0841 157.012C69.1112 157.923 71.265 158.573 73.4188 158.963C77.7264 159.743 82.224 159.678 86.4048 158.508C88.7487 157.858 90.9658 156.882 92.9929 155.517C93.4363 155.192 92.9296 154.672 92.5495 154.932C88.8754 156.817 84.9479 158.118 80.8303 158.378C76.6495 158.703 72.4686 157.988 68.5411 156.557C66.2606 155.712 64.2969 154.412 62.2064 153.242C61.8264 152.916 61.0662 153.372 61.5096 153.697Z" fill="#664B36"/>
<path d="M65.3103 153.307C71.7717 158.573 80.957 159.678 88.9386 158.508C91.1558 158.183 93.3729 157.663 95.4633 156.752C95.9068 156.557 95.6534 155.972 95.21 156.102C87.545 158.053 79.2466 158.573 71.7084 155.712C69.6813 154.932 67.7175 153.957 66.0072 152.591C65.6271 152.396 64.8669 152.917 65.3103 153.307Z" fill="#664B36"/>
<path d="M65.1837 154.347C65.5638 151.941 68.2243 150.771 70.2514 150.056C72.6586 149.211 75.1925 148.821 77.663 148.04C78.0431 147.91 77.7897 147.52 77.473 147.52C74.7491 147.78 71.8985 148.365 69.3646 149.406C67.2741 150.251 64.6769 151.681 64.5502 154.217C64.4235 154.737 65.1204 154.672 65.1837 154.347Z" fill="#664B36"/>
<path d="M63.5999 150.706C66.7673 150.316 69.9346 149.861 72.9752 148.885C73.2919 148.755 73.1019 148.365 72.8485 148.43C69.7445 149.015 66.6406 149.601 63.5366 150.121C63.0932 150.186 63.2198 150.706 63.5999 150.706Z" fill="#664B36"/>
<path d="M82.414 147.65C85.138 148.365 87.9252 148.755 90.5858 149.601C91.916 150.056 93.1196 150.641 94.2599 151.421C95.5268 152.396 96.5403 153.567 97.5539 154.867C97.7439 155.127 98.1873 154.867 98.0607 154.542C95.5901 148.43 88.1152 148.04 82.7308 147C82.3507 147 81.9706 147.52 82.414 147.65Z" fill="#664B36"/>
<path d="M83.8712 148.105C85.2649 147.975 86.6585 148.755 87.8621 149.471C89.1924 150.316 90.3326 151.486 91.6629 152.396C91.8529 152.526 92.3597 152.266 92.1696 152.006C91.2194 150.576 89.6991 149.471 88.2422 148.625C86.9119 147.845 85.3282 147.195 83.7445 147.52C83.3011 147.585 83.4278 148.17 83.8712 148.105Z" fill="#664B36"/>
<path d="M59.0392 154.347C59.1025 154.542 59.0392 154.737 59.1025 154.932C59.1659 155.192 59.2926 155.452 59.3559 155.712C59.6093 156.297 59.7994 156.882 59.9894 157.533C60.3695 158.833 60.7496 160.263 60.4962 161.628C60.4328 161.824 60.6229 162.019 60.8129 162.084C61.8264 162.344 62.9033 162.604 63.9802 162.669C64.487 162.734 65.0571 162.734 65.5639 162.669C66.0073 162.604 66.5774 162.604 66.8308 162.149C66.8942 162.019 66.8308 161.889 66.7041 161.824C66.3241 161.628 65.8173 161.759 65.4372 161.759C64.9938 161.759 64.487 161.759 64.0436 161.694C63.0934 161.628 62.1432 161.368 61.2563 161.173C61.383 161.303 61.4464 161.498 61.5731 161.628C61.7631 160.133 61.4464 158.703 61.0029 157.272C60.8129 156.622 60.5595 156.037 60.3061 155.387C60.1794 155.127 60.1161 154.867 59.9894 154.607C59.926 154.477 59.8627 154.412 59.7994 154.347C59.736 154.282 59.736 154.282 59.6727 154.282H59.736C59.736 154.217 59.6727 154.152 59.6727 154.087C59.4826 153.892 58.9758 154.087 59.0392 154.347Z" fill="#664B36"/>
<path d="M60.4329 155.322C60.5595 155.517 60.5595 155.777 60.6229 156.037C60.7496 156.492 60.8763 156.882 61.003 157.338C61.1297 157.858 61.2564 158.443 61.3197 158.963C61.3831 159.548 61.4464 160.198 61.6364 160.848C61.6998 161.108 62.0799 161.043 62.1432 160.848C62.3332 160.198 62.2699 159.483 62.2066 158.833C62.1432 158.248 62.0165 157.663 61.8265 157.077C61.6364 156.362 61.383 155.582 60.8129 155.062C60.6229 154.867 60.2428 155.062 60.4329 155.322Z" fill="#664B36"/>
<path d="M61.5098 159.808C60.3062 162.344 76.0162 164.684 77.5998 164.814C78.9935 164.944 80.5138 165.009 81.9074 164.554C82.3508 164.424 82.0975 163.904 81.7174 163.969C80.6405 164.099 79.5002 163.904 78.4234 163.839C76.7763 163.709 75.1927 163.449 73.609 163.189C70.505 162.669 67.2743 162.019 64.2971 160.978C63.7903 160.783 63.2835 160.588 62.7767 160.393C62.65 160.328 62.46 160.263 62.3967 160.133C62.3333 160.068 62.3333 160.003 62.3333 160.003C62.3967 159.613 61.6998 159.483 61.5098 159.808Z" fill="#664B36"/>
<path d="M70.2515 165.464C73.8622 165.855 77.4096 166.18 81.0204 166.05C83.0475 165.985 85.0112 165.855 86.975 165.464C88.7487 165.139 90.5224 164.684 92.0427 163.644C92.4228 163.384 91.9794 163.059 91.6626 163.189C88.0519 164.424 84.3778 165.009 80.577 165.139C77.1562 165.204 73.7355 165.074 70.3148 164.879C69.9347 164.814 69.808 165.399 70.2515 165.464Z" fill="#664B36"/>
<path d="M86.1517 165.399C86.7218 165.855 87.3552 166.05 88.1154 165.985C88.8756 165.92 89.5724 165.529 90.2058 165.074C91.6628 164.034 92.8664 162.539 93.8166 161.043C94.3234 160.263 94.7668 159.483 95.1469 158.703C95.3369 158.313 94.7668 158.248 94.5768 158.443C93.3098 159.938 92.2329 161.694 90.8393 163.124C89.8258 164.229 88.1154 165.855 86.5951 164.814C86.2783 164.684 85.8349 165.139 86.1517 165.399Z" fill="#664B36"/>
<path d="M95.6537 153.632C94.5134 154.802 95.2736 156.557 95.7804 157.858C96.2238 159.093 96.9206 160.783 95.9071 161.889C95.5903 162.279 95.0835 162.474 94.6401 162.669C94.3234 162.799 93.9433 162.929 93.6266 162.994C93.1832 163.124 92.6764 163.124 92.2963 163.449C91.9796 163.709 92.0429 164.164 92.423 164.294C93.1198 164.554 94.1334 164.099 94.8302 163.839C95.4003 163.644 95.9704 163.384 96.4138 162.994C97.1106 162.474 97.6174 161.694 97.6808 160.783C97.8708 159.093 96.8573 157.598 96.4138 156.037C96.2238 155.322 96.0971 154.607 96.4772 153.957C96.8573 153.502 95.9704 153.307 95.6537 153.632Z" fill="#664B36"/>
<path d="M97.0471 161.173C96.6037 162.019 95.9702 162.734 95.2734 163.319C94.5766 163.969 93.7531 164.424 92.9296 164.944C92.8029 165.009 92.7396 165.204 92.8663 165.334C92.993 165.464 93.1197 165.464 93.3097 165.399C94.2599 165.074 95.1467 164.424 95.8436 163.774C96.6037 163.124 97.2372 162.279 97.6806 161.368C97.8073 160.978 97.1738 160.848 97.0471 161.173Z" fill="#664B36"/>
<path d="M61.8897 160.328C61.573 161.759 61.6997 163.254 62.0164 164.619C62.3965 166.115 63.03 167.48 64.2969 168.39C65.057 168.91 66.0706 169.235 66.9574 169.04C67.4642 168.975 67.6543 168.26 67.0841 168.065C66.2606 167.87 65.4371 167.805 64.8037 167.22C64.2335 166.7 63.7268 165.985 63.41 165.269C62.7766 163.709 62.7132 162.019 62.7766 160.328C62.7132 159.873 61.9531 159.938 61.8897 160.328Z" fill="#664B36"/>
<path d="M61.763 167.415C61.8263 167.935 62.7765 168.195 63.1566 168.325C64.1701 168.715 65.1837 169.04 66.2606 169.365C67.5275 169.755 68.7311 170.146 69.998 170.471C71.0749 170.796 72.1518 171.056 73.2287 171.121C73.6088 171.121 73.9889 170.666 73.5454 170.406C72.6586 169.885 71.7084 169.625 70.7582 169.365C69.6179 169.04 68.4144 168.715 67.2741 168.39C66.2606 168.065 65.1837 167.805 64.1701 167.48C63.7901 167.35 63.4733 167.22 63.0932 167.09C63.0299 167.09 62.7132 166.96 62.8399 167.025C62.6498 166.96 62.8399 166.96 62.8399 167.155C62.6498 166.635 61.6996 166.83 61.763 167.415Z" fill="#664B36"/>
<path d="M95.6535 161.564C95.02 162.604 94.8933 163.709 95.5268 164.814C96.1602 165.92 97.2371 166.7 98.2507 167.35C98.314 167.025 98.4407 166.7 98.5041 166.375C96.9837 166.83 95.5268 167.35 94.0698 167.87C92.6128 168.39 91.0925 168.91 89.6355 169.43C88.9387 169.69 89.3188 170.666 90.0156 170.471C91.5359 170.081 92.9929 169.495 94.4499 168.975C95.9068 168.455 97.3638 167.87 98.8841 167.415C99.3276 167.285 99.3909 166.7 99.0108 166.505C97.4272 165.53 95.4634 163.969 96.5403 161.889C96.7303 161.303 95.9068 161.173 95.6535 161.564Z" fill="#664B36"/>
<path d="M95.7169 165.66C93.8798 167.35 91.9161 168.78 89.6989 169.951C87.5451 171.121 85.2013 171.901 83.0475 173.136C82.6674 173.396 83.0475 173.851 83.3643 173.786C85.8348 173.266 88.3053 172.096 90.4591 170.861C92.6129 169.625 94.7033 168.195 96.3503 166.31C96.9204 165.79 96.0969 165.334 95.7169 165.66Z" fill="#664B36"/>
<path d="M62.0165 167.935C62.5232 168.455 62.84 169.235 63.0934 169.886C63.3468 170.666 63.4734 171.446 63.6635 172.226C64.0436 173.852 64.5503 175.412 66.0073 176.322C67.0209 177.037 68.2878 177.297 69.5547 177.102C69.8715 177.037 69.9348 176.647 69.6181 176.582C68.6679 176.322 67.6543 176.127 66.8308 175.607C66.1973 175.217 65.7539 174.632 65.4372 173.982C64.7404 172.616 64.6137 171.056 64.1069 169.626C63.7902 168.78 63.3468 168.195 62.6499 167.61C62.2699 167.35 61.7631 167.61 62.0165 167.935Z" fill="#664B36"/>
<path d="M64.9305 174.502C66.5141 176.192 68.5412 177.167 70.4416 178.468C71.3918 179.118 72.2787 179.768 73.0388 180.613C73.799 181.458 74.1157 182.498 74.6225 183.539C74.7492 183.799 75.3193 183.734 75.3193 183.409C75.446 182.238 74.8125 181.133 74.1157 180.288C73.3556 179.378 72.4687 178.663 71.4552 178.012C69.4914 176.712 67.2743 175.737 65.5639 174.111C65.2472 173.721 64.5504 174.111 64.9305 174.502Z" fill="#664B36"/>
<path d="M75.8894 182.954C75.7628 182.954 75.6361 182.954 75.5094 183.019C75.3827 183.084 75.256 183.214 75.256 183.344C75.256 183.474 75.3193 183.604 75.446 183.669C75.5727 183.734 75.7628 183.734 75.9528 183.799H76.1428C75.8894 183.669 75.8894 183.669 76.0161 183.799C76.0795 183.799 76.1428 183.864 76.2062 183.864C76.3962 183.929 76.5863 183.929 76.7763 183.929C77.7265 183.994 78.6767 183.994 79.6269 183.994C80.7671 183.994 81.844 183.929 82.9843 183.864C83.8078 183.799 84.8847 183.799 85.5181 183.084C85.6448 182.954 85.5815 182.694 85.3914 182.629C84.5679 182.498 83.7444 182.694 82.9209 182.759C81.9074 182.889 80.8938 182.889 79.8803 182.889C78.9934 182.889 78.1066 182.889 77.1564 182.889C76.9663 182.889 76.8396 182.889 76.6496 182.889C76.5229 182.889 76.4596 182.889 76.3329 182.889C75.9528 182.954 76.4596 182.889 76.2695 182.889C76.0161 182.954 75.9528 182.954 75.8894 182.954C75.7628 182.954 75.6994 182.954 75.8894 182.954C75.9528 183.084 76.0795 183.149 76.1428 183.279C76.0795 183.409 75.9528 183.539 75.8894 183.669C75.8261 183.669 75.6994 183.734 75.7628 183.669C76.2695 183.669 76.4596 183.019 75.8894 182.954Z" fill="#664B36"/>
<path d="M86.8483 182.173C87.7352 179.508 89.8256 177.687 91.6627 175.672C91.916 175.347 91.4093 175.152 91.2192 175.347C88.8754 176.842 86.785 179.183 85.8348 181.913C85.6447 182.498 86.6583 182.759 86.8483 182.173Z" fill="#664B36"/>
<path d="M88.3052 179.183C89.8255 177.102 92.106 175.997 94.1331 174.632C95.1466 173.981 96.0968 173.331 96.9203 172.421C97.6171 171.641 98.504 170.536 98.5673 169.43C98.5673 169.3 98.5673 168.975 98.504 168.845C98.4406 168.715 98.2506 168.65 98.1873 168.585C98.0606 168.455 97.8705 168.325 97.7438 168.195C97.1737 167.61 96.6669 166.83 95.9068 166.505C95.4 166.245 94.7032 166.895 95.2733 167.22C96.2235 167.805 96.9203 168.715 97.8705 169.3C97.8072 169.17 97.7438 169.105 97.6805 168.975C97.6171 170.081 96.9203 171.121 96.2235 171.901C95.4 172.811 94.3231 173.591 93.2462 174.242C91.2191 175.542 88.8753 176.712 87.6084 178.923C87.545 179.248 88.1151 179.443 88.3052 179.183Z" fill="#664B36"/>
<path d="M96.8573 165.985C96.8573 167.22 96.8573 168.52 96.6039 169.756C96.4772 170.341 96.3505 170.861 96.0971 171.381C95.9704 171.641 95.8437 171.901 95.6537 172.096C95.4636 172.356 95.2736 172.551 95.2103 172.876C95.1469 173.201 95.527 173.266 95.717 173.201C96.2872 173.006 96.7306 172.356 96.984 171.771C97.2374 171.186 97.4274 170.601 97.5541 169.951C97.8075 168.65 97.8075 167.285 97.7441 165.92C97.8075 165.464 96.9206 165.465 96.8573 165.985Z" fill="#664B36"/>
<path d="M61.4462 168.39C62.2064 168.39 62.9032 168.715 63.6634 168.845C64.6769 169.105 65.6905 169.43 66.6407 169.755C68.6677 170.471 70.6948 171.251 72.7853 171.901C73.0387 171.966 73.4187 171.576 73.102 171.446C71.1383 170.471 68.9845 169.755 66.894 169.105C65.1837 168.585 63.41 168 61.5729 168C61.1928 168 61.1295 168.325 61.4462 168.39Z" fill="#664B36"/>
<path d="M62.9035 169.235C63.4736 169.755 64.1704 170.081 64.9306 170.406C65.9441 170.861 67.021 171.186 68.1613 171.446C70.3784 172.031 72.7856 172.616 75.0661 172.291C75.3828 172.226 75.3828 171.836 75.0661 171.771C72.8489 171.446 70.6951 171.186 68.478 170.601C66.7677 170.146 64.9306 169.69 63.3469 168.78C63.0936 168.65 62.5868 168.975 62.9035 169.235Z" fill="#664B36"/>
<path d="M60.813 161.954C62.3333 162.929 64.1703 163.449 65.944 163.839C68.0345 164.359 70.2516 164.619 72.4054 164.489C72.7221 164.489 72.8488 164.034 72.4687 164.034C70.3783 163.904 68.2879 163.514 66.2608 163.059C64.5504 162.669 62.7767 162.214 61.2564 161.369C60.8763 161.173 60.3695 161.694 60.813 161.954Z" fill="#664B36"/>
<path d="M60.1793 153.307C61.3829 154.607 62.9666 155.517 64.4869 156.362C66.324 157.403 68.161 158.313 70.1881 158.898C70.5048 158.963 70.8849 158.573 70.5048 158.378C68.7311 157.468 66.9574 156.557 65.1837 155.582C63.7267 154.737 62.2064 153.827 60.9395 152.656C60.6228 152.331 59.7993 152.851 60.1793 153.307Z" fill="#664B36"/>
<path d="M73.2923 150.251C74.5592 151.551 76.1429 152.526 77.7899 153.112C79.4369 153.697 81.274 154.022 82.9843 153.762C83.2377 153.697 83.4277 153.242 83.0477 153.177C81.464 152.917 79.817 152.852 78.2967 152.331C76.713 151.811 75.256 150.901 74.0524 149.731C73.7357 149.276 72.8489 149.796 73.2923 150.251Z" fill="#664B36"/>
<path d="M77.3462 152.331C76.3327 152.851 75.1924 152.851 74.2422 153.567C73.8622 153.827 74.1789 154.347 74.6223 154.217C75.3825 154.087 76.0793 153.827 76.7761 153.697C77.4729 153.567 78.2331 153.437 78.9299 153.306C80.3869 153.111 81.8438 152.981 83.3008 152.981C83.9343 152.981 84.1243 152.071 83.4275 152.071C81.3371 152.071 79.31 152.071 77.2195 151.681C77.2195 151.941 77.2195 152.266 77.2195 152.526C78.9299 151.941 80.767 151.746 82.5407 151.486C82.8574 151.421 82.8574 151.031 82.5407 150.966C80.6403 150.706 78.6132 151.096 76.7761 151.681C76.396 151.811 76.3327 152.461 76.7761 152.526C78.9299 152.981 81.0837 152.981 83.2375 152.981C83.3008 152.656 83.3008 152.396 83.3642 152.071C81.8438 152.071 80.3235 152.201 78.8032 152.396C77.2829 152.656 75.6992 152.916 74.2422 153.436C74.4323 153.632 74.6223 153.827 74.8124 154.022C75.5092 153.176 76.6494 153.176 77.5363 152.721C77.9797 152.656 77.7263 152.136 77.3462 152.331Z" fill="#664B36"/>
<path d="M83.0475 147.195C84.8846 149.08 87.6084 150.121 90.2057 149.796C90.5224 149.731 90.5224 149.341 90.2057 149.276C87.8618 148.95 85.518 148.365 83.7443 146.675C83.4276 146.35 82.6674 146.805 83.0475 147.195Z" fill="#664B36"/>
<path d="M73.6088 146.935C72.1518 147.325 70.6948 147.78 69.3012 148.3C67.9709 148.755 66.514 149.276 65.4371 150.121C65.1203 150.381 65.3737 150.771 65.7538 150.706C67.0841 150.316 68.4144 149.666 69.6813 149.146C71.0749 148.625 72.4685 148.17 73.9255 147.715C74.4323 147.585 74.1156 146.805 73.6088 146.935Z" fill="#664B36"/>
<path d="M39.4016 70.2167C38.9582 70.6068 38.3881 70.7368 37.818 70.7368C37.8813 70.8019 37.8813 70.8669 37.9447 70.9319C39.2116 66.8359 41.6821 63.195 44.3427 59.9443C47.3833 56.2384 50.8674 52.8576 54.4781 49.7368C56.3785 48.1114 58.3423 46.6161 60.2427 44.9907C60.4327 44.7957 60.1793 44.6006 59.9893 44.7306C56.1251 47.3313 52.6411 50.452 49.2837 53.7028C45.9263 57.0186 42.6957 60.5294 40.2885 64.6254C39.0849 66.5758 38.0713 68.6563 37.5646 70.8669C37.5646 70.9319 37.6279 70.9969 37.6913 70.9969C38.3247 70.9319 38.9582 70.8019 39.465 70.4118C39.7184 70.2817 39.5283 70.1517 39.4016 70.2167Z" fill="#664B36"/>
<path d="M60.116 40.2446C57.6455 41.87 56.4419 45.3158 55.4917 47.9815C54.3515 51.4923 53.528 55.0681 52.5778 58.644C52.1344 60.3344 51.5009 61.9598 51.0575 63.7152C50.9941 63.9753 51.3742 63.9753 51.5009 63.7802C52.1977 62.5449 52.5145 61.1146 52.8945 59.7493C53.338 58.0589 53.7814 56.3034 54.2248 54.548C55.0483 51.1022 55.9352 47.5914 57.5188 44.3406C58.2157 42.8452 59.1658 41.4799 60.3061 40.3747C60.4328 40.2446 60.1794 40.1796 60.116 40.2446Z" fill="#664B36"/>
<path d="M39.1482 66.8359C39.4016 66.7059 39.5916 66.4458 39.2116 66.3158C38.4514 66.1208 37.3112 66.966 36.8044 67.4211C36.551 67.6161 36.8044 67.8762 37.0578 67.8112C39.845 66.7709 42.8223 66.3158 45.7996 66.1858C48.4602 66.0558 51.1841 66.3158 53.908 65.9907C54.098 65.9907 54.098 65.7307 53.908 65.6657C51.0574 65.3406 48.0801 65.4056 45.1661 65.6006C42.3155 65.7957 39.5283 66.2508 36.8677 67.3561C36.9944 67.4861 37.0578 67.5511 37.1845 67.6811C37.5645 67.291 37.9446 66.901 38.4514 66.7059C38.5781 66.6409 39.2749 66.4458 39.0215 66.5759C38.8315 66.7709 39.0215 66.901 39.1482 66.8359Z" fill="#664B36"/>
<path d="M39.6551 64.6255C41.4922 60.9196 43.9627 57.6688 46.7499 54.6781C46.8766 54.5481 46.6232 54.4831 46.5599 54.5481C43.646 57.4088 41.1121 60.7896 39.275 64.4954C39.2117 64.7555 39.5918 64.8205 39.6551 64.6255Z" fill="#664B36"/>
<path d="M55.4917 47.2012C49.9172 52.0774 45.7364 58.3189 40.5419 63.5851C40.6686 63.6502 40.8587 63.7802 40.9854 63.8452C44.5328 59.3591 49.0937 55.6533 53.528 52.1424C53.4646 52.0774 53.3379 52.0124 53.2746 51.9474C49.6005 55.7183 46.5599 60.0743 42.2523 63.13C42.379 63.195 42.5057 63.2601 42.6324 63.3901C44.0893 60.9195 46.2431 58.969 48.4603 57.2786C50.614 55.5882 52.8945 54.0929 55.2383 52.6625C55.1116 52.5325 55.0483 52.4675 54.9216 52.3375C50.4873 56.4334 46.4332 60.9195 41.8089 64.8855C41.9356 65.0155 42.0622 65.1455 42.1889 65.2755C45.483 62.3498 49.2838 60.0743 53.0846 57.9288C52.9579 57.7988 52.8945 57.7338 52.7678 57.6037C50.1706 60.2694 47.5734 62.935 45.1029 65.7957C44.9128 66.0557 45.2296 66.3158 45.483 66.1858C47.9535 64.8855 50.1706 63.1951 52.2611 61.3096C52.4511 61.1146 52.1977 60.9195 52.0077 61.0495C49.7905 62.6749 47.6368 64.4303 45.2296 65.7307C45.3563 65.8607 45.483 65.9907 45.6097 66.1207C48.0168 63.2601 50.5507 60.5294 53.1479 57.8638C53.3379 57.6687 53.0212 57.4087 52.8312 57.5387C48.967 59.7492 45.1029 61.9598 41.7455 64.8855C41.4288 65.1455 41.8722 65.5356 42.1256 65.2755C46.7499 61.3746 50.7407 56.7585 55.175 52.6625C55.4284 52.4025 55.1116 52.2074 54.8583 52.3375C52.3877 53.8328 49.9806 55.4582 47.7001 57.2786C45.6097 58.969 43.5192 60.9195 42.1256 63.2601C41.9989 63.5201 42.379 63.5851 42.5057 63.5201C46.8766 60.3344 49.9172 55.9133 53.5913 52.0774C53.718 51.9474 53.4646 51.7523 53.3379 51.8824C48.9037 55.5882 44.216 58.969 40.5419 63.5851C40.3519 63.8452 40.7953 64.0402 40.9854 63.8452C46.0531 58.5139 50.0439 52.1424 55.6184 47.2663C55.6184 47.2012 55.5551 47.1362 55.4917 47.2012Z" fill="#664B36"/>
<path d="M38.4517 75.7431C36.1713 79.1239 37.0581 83.74 38.1984 87.3808C39.6553 92.127 41.9992 96.548 44.5964 100.774C45.7366 102.659 46.9402 104.48 48.2705 106.3C48.3338 106.43 48.5872 106.3 48.5238 106.17C46.2434 102.724 44.0896 99.2787 42.2525 95.5728C40.1621 91.4118 38.0717 86.9257 37.6282 82.2446C37.4382 80.0991 37.6282 77.8236 38.8318 76.0031C38.9585 75.7431 38.5784 75.548 38.4517 75.7431Z" fill="#664B36"/>
<path d="M38.9582 75.418C38.2614 77.6936 38.4515 80.1642 38.8949 82.5047C39.465 85.4304 40.4152 88.2261 41.5555 90.9567C44.026 97.0032 47.1933 102.725 50.3606 108.381C51.8176 110.982 53.2746 113.582 54.6049 116.183C54.6682 116.313 54.9216 116.248 54.8582 116.053C52.5144 110.916 49.5371 106.17 46.8766 101.164C43.9626 95.5728 41.0487 89.7865 39.5284 83.61C38.8949 80.9443 38.5148 78.0837 39.2116 75.353C39.2116 75.288 38.9582 75.288 38.9582 75.418Z" fill="#664B36"/>
<path d="M41.8724 90.1116C41.4923 90.6317 41.8724 91.4769 42.0624 91.9971C42.5692 93.2324 43.3294 94.4026 44.0895 95.5079C45.9899 98.3686 48.017 101.099 50.1075 103.83C50.931 104.935 51.7545 105.975 52.4513 107.146C52.5146 107.276 52.8314 107.211 52.7047 107.016C51.5011 104.805 49.8541 102.79 48.3971 100.774C46.4967 98.2385 44.5963 95.7029 43.0126 92.9073C42.6959 92.3872 41.6824 90.8918 42.1258 90.2417C42.2525 90.0466 41.9991 89.9166 41.8724 90.1116Z" fill="#664B36"/>
<path d="M96.7936 123.269C100.278 118.783 104.522 115.077 108.069 110.656C108.259 110.396 107.879 110.266 107.689 110.461C103.762 114.557 99.7075 118.523 96.1601 122.944C95.9067 123.269 96.5402 123.594 96.7936 123.269Z" fill="#664B36"/>
<path d="M113.137 104.285C107.626 110.396 104.395 118.523 97.9339 123.659C97.4905 123.984 98.0606 124.44 98.4407 124.18C101.418 121.839 104.015 119.043 106.486 116.248C107.753 114.817 109.02 113.387 110.223 111.957C111.553 110.461 112.82 108.836 114.277 107.601C114.214 107.536 114.087 107.471 114.024 107.406C111.11 110.396 109.083 114.362 106.929 117.938C104.712 121.644 102.305 125.22 99.5809 128.601C99.3275 128.861 99.8343 129.056 100.024 128.861C103.002 125.87 105.219 122.229 107.373 118.588C108.449 116.768 109.526 114.947 110.667 113.127C111.87 111.241 113.137 109.421 114.341 107.536C114.467 107.341 114.151 107.211 114.024 107.341C112.757 108.706 111.3 109.941 109.97 111.306C108.639 112.672 107.373 114.102 106.042 115.532C103.445 118.393 100.785 121.189 97.8706 123.659C98.0606 123.854 98.1873 123.984 98.3773 124.18C104.712 118.718 108.069 110.721 113.581 104.545C113.897 104.285 113.39 104.09 113.137 104.285Z" fill="#664B36"/>
<path d="M77.7897 150.836C77.853 148.495 77.4729 146.09 77.2195 143.749C76.9661 141.344 76.7128 139.003 76.396 136.663C75.7626 131.916 74.9391 127.3 73.9889 122.619C73.9255 122.359 73.4821 122.424 73.4821 122.684C74.2422 127.3 74.8757 131.981 75.5092 136.663C75.8259 139.003 76.0793 141.279 76.396 143.619C76.6494 146.025 76.7761 148.495 77.2195 150.901C77.2195 151.161 77.7897 151.161 77.7897 150.836Z" fill="#664B36"/>
<path d="M81.6539 151.486C81.8439 151.421 81.6539 151.616 81.7172 151.291C81.7806 151.031 81.7172 150.771 81.7806 150.511C81.8439 149.731 82.034 148.951 82.1607 148.235C82.5407 146.22 83.0475 144.204 83.5543 142.254C83.9344 140.694 84.3144 139.133 84.6312 137.573C84.9479 135.947 85.518 134.322 86.0248 132.762C86.5316 131.006 87.0383 129.251 87.5451 127.43C88.5587 123.92 89.5089 120.409 90.3957 116.833C91.0925 113.777 91.5993 110.721 92.2328 107.666C92.6129 105.715 93.2463 103.57 92.8029 101.619C92.4228 99.7339 90.7125 98.6286 88.8754 98.8236C86.5949 99.1487 84.9479 101.164 83.9344 103.115C82.9208 105.065 82.224 107.666 82.9842 109.811C83.1109 110.071 83.4909 110.071 83.681 109.941C88.1786 107.081 86.8483 98.5636 81.3371 97.9784C81.1471 97.9784 80.8304 98.1085 80.8304 98.3685C80.3869 101.554 80.0702 104.675 81.2738 107.666C81.4005 108.056 82.1607 107.861 82.1607 107.536C82.6041 103.44 81.5905 98.0435 78.1698 95.4428C77.9798 95.3128 77.5364 95.4428 77.473 95.6379C76.7128 97.5233 76.4595 99.6038 76.5228 101.684C76.5228 103.57 76.7128 105.52 77.5364 107.276C77.7264 107.666 78.3599 107.471 78.4232 107.081C79.0567 104.74 78.7399 102.139 77.663 99.9939C76.9029 98.5636 75.5726 96.8082 73.7989 96.8082C71.7085 96.8082 71.0117 99.3438 70.8216 101.034C70.4415 104.285 71.075 107.796 71.5818 111.047C72.2152 114.882 72.912 118.718 74.179 122.359C74.3057 122.749 75.1925 122.554 75.0658 122.099C73.3555 116.248 72.0885 110.136 71.7718 104.025C71.7085 102.595 71.7085 101.229 72.0252 99.8639C72.2152 99.1487 72.532 98.1085 73.2921 97.7834C74.5591 97.1332 75.9527 98.8887 76.5228 99.8639C77.7897 102.009 78.1698 104.61 77.5364 107.016C77.8531 106.951 78.1698 106.886 78.4232 106.821C77.663 105.195 77.473 103.245 77.5364 101.424C77.5364 99.5388 77.7264 97.5883 78.4232 95.8329C78.1698 95.8979 77.9164 95.963 77.7264 96.028C79.3101 97.2633 80.2603 99.2788 80.767 101.164C81.3371 103.18 81.5272 105.26 81.3371 107.341C81.6539 107.276 81.9073 107.211 82.224 107.211C81.0838 104.35 81.4005 101.294 81.8439 98.3035C81.6539 98.4336 81.5272 98.5636 81.3371 98.6936C86.1515 99.2137 87.0383 106.886 83.2375 109.291C83.4909 109.356 83.681 109.356 83.9344 109.421C83.2375 107.471 83.9977 105.065 84.9479 103.31C85.8348 101.619 87.4184 99.5388 89.5089 99.6038C91.8527 99.6038 92.3595 102.009 92.1694 103.895C91.9794 105.91 91.4726 107.861 91.0925 109.876C89.8889 116.898 87.8619 123.725 85.8981 130.551C85.1379 133.152 84.3144 135.752 83.7443 138.418C83.3642 140.108 82.9842 141.799 82.5407 143.489C82.0973 145.505 81.5905 147.585 81.3371 149.666C81.2738 150.056 80.8937 152.201 81.9073 151.941C82.0973 151.876 82.034 151.356 81.6539 151.486Z" fill="#664B36"/>
<path d="M36.7413 59.2292C37.1214 56.1735 39.2118 53.5078 41.1756 51.2973C43.5194 48.6967 46.1799 46.4212 48.8405 44.2756C50.0441 43.3004 51.311 42.3252 52.5146 41.2849C52.578 41.2199 52.5146 41.1549 52.3879 41.1549C49.9174 43.1054 47.3835 44.9908 45.0397 47.0713C42.5058 49.3469 39.972 51.7524 38.1983 54.6781C37.3748 56.0435 36.678 57.5388 36.4879 59.1642C36.5513 59.2942 36.7413 59.2942 36.7413 59.2292Z" fill="#664B36"/>
<path d="M58.1521 37.1888C54.6047 38.4892 51.8175 41.4799 49.0936 44.0155C47.6999 45.3158 46.243 46.4861 44.9127 47.8514C43.5191 49.2817 42.1888 50.8421 41.0485 52.5325C39.7183 54.4179 38.578 56.3684 37.6278 58.4489C37.5645 58.5139 37.7545 58.5789 37.7545 58.5139C39.6549 54.9381 41.872 51.5573 44.596 48.6316C45.8629 47.2662 47.3199 46.0309 48.7135 44.7306C50.1071 43.3653 51.5007 42 52.9577 40.7647C54.5414 39.3994 56.2517 38.0991 58.1521 37.3839C58.3422 37.2539 58.2788 37.1888 58.1521 37.1888Z" fill="#664B36"/>
<path d="M37.4379 59.2291C39.6551 54.0929 44.216 50.452 48.3969 47.0062C49.5371 46.0309 50.6774 45.1207 51.8176 44.1455C51.881 44.0805 51.8176 43.9504 51.6909 44.0155C47.4467 47.5263 42.8224 50.7121 39.5284 55.2631C38.6415 56.4984 37.8814 57.7987 37.3112 59.1641C37.3112 59.2291 37.4379 59.2941 37.4379 59.2291Z" fill="#664B36"/>
<path d="M36.6146 67.6162C36.4879 67.6162 36.4245 68.0063 36.4245 68.1363C36.3612 68.5914 36.2978 69.0466 36.2978 69.5667C36.1711 71.2571 36.0444 72.8825 35.8544 74.5729C35.5377 78.7339 35.2209 82.8948 35.0309 87.0558C34.9675 87.901 34.9042 88.7462 34.9042 89.5914C34.9042 90.1116 34.8408 90.6317 34.9042 91.2168C34.9042 91.3469 35.0942 91.2818 35.0942 91.2168C35.2209 90.1116 35.2209 88.9413 35.2843 87.771C35.411 85.8856 35.5377 83.9351 35.6644 82.0496C35.9177 78.1487 36.1711 74.3128 36.5512 70.4769C36.6146 69.8267 36.6779 69.2416 36.7412 68.5914C36.7412 68.3964 36.8046 68.2013 36.8046 68.0713C36.8046 68.0063 36.8046 67.9413 36.8046 67.9413C36.8046 67.8763 36.8679 67.8763 36.7412 67.9413C36.8046 67.7462 36.7412 67.6162 36.6146 67.6162Z" fill="#664B36"/>
<path d="M37.5013 72.5573C36.4878 73.1424 36.4244 74.7678 36.4244 75.808C36.4244 77.2384 36.6144 78.7337 36.8045 80.1641C36.9312 81.1393 36.9312 82.1145 36.9945 83.0898C37.0579 84.2601 37.0579 85.4303 37.1212 86.6006C37.1846 89.0712 37.3113 91.5418 37.5013 94.0124C37.7547 96.678 38.0081 99.4087 38.7682 101.944C38.7682 102.074 38.9583 102.009 38.9583 101.879C37.9447 97.2631 37.628 92.6471 37.438 87.9659C37.3746 85.6254 37.3113 83.2848 37.1846 80.9443C37.1212 79.5789 36.8678 78.2786 36.7411 76.9133C36.6778 76.0681 36.6778 75.2229 36.8045 74.3777C36.8678 73.7926 37.0579 73.0774 37.628 72.6873C37.6913 72.6223 37.628 72.4923 37.5013 72.5573Z" fill="#664B36"/>
<path d="M37.1845 86.1455C36.9311 86.1455 36.6777 85.9504 36.4244 85.9504C36.361 85.9504 36.2343 86.0155 36.2977 86.0805C36.8044 89.5913 38.5148 92.7771 39.8451 95.9628C41.1754 99.1486 42.1256 102.529 43.4558 105.78C44.1526 107.471 44.9762 109.226 46.1164 110.721C46.1797 110.786 46.3698 110.721 46.3064 110.591C45.4196 109.161 44.6594 107.731 44.026 106.235C43.3291 104.675 42.759 103.05 42.1889 101.424C41.6188 99.7987 41.112 98.1733 40.4785 96.548C39.8451 94.9226 39.0849 93.3622 38.4514 91.8018C37.6913 89.9164 36.9311 88.0309 36.6144 86.0155C36.551 86.0805 36.4877 86.0805 36.4877 86.1455C36.7411 86.1455 36.9945 86.2755 37.2479 86.3405C37.3112 86.3405 37.3746 86.1455 37.1845 86.1455Z" fill="#664B36"/>
<path d="M38.7681 89.2663C38.4514 90.5016 38.9582 91.867 39.4016 93.0372C40.0351 94.5976 40.8586 96.0279 41.6821 97.4583C42.4422 98.7586 43.2024 99.9939 43.8359 101.359C44.7861 103.31 45.6729 105.325 46.6231 107.276C47.7 109.486 48.8403 111.632 50.3606 113.582C50.3606 113.647 50.4873 113.582 50.4239 113.517C47.9534 109.941 46.243 106.04 44.3426 102.139C43.6458 100.709 42.949 99.4088 42.1255 98.0434C41.302 96.6781 40.4785 95.3128 39.845 93.8824C39.2116 92.5821 38.4514 90.8267 38.8315 89.3314C38.9582 89.2013 38.8315 89.2013 38.7681 89.2663Z" fill="#664B36"/>
<path d="M38.3249 89.0713C38.1982 89.0063 37.9448 88.6812 37.7548 88.7462C37.5647 88.8112 37.7548 89.1363 37.7548 89.2013C38.1349 90.1766 38.5783 91.0868 39.0851 91.997C40.0986 93.8824 41.1755 95.6379 42.3157 97.3933C43.456 99.1487 44.5962 100.839 45.5464 102.66C46.56 104.61 47.5102 106.56 48.4604 108.576C49.5373 110.851 50.6141 113.127 51.9444 115.273C51.9444 115.338 52.0711 115.273 52.0078 115.273C49.9807 111.697 48.3337 107.861 46.4966 104.155C44.7229 100.644 42.5058 97.5233 40.4787 94.1425C39.9086 93.2323 39.4018 92.2571 38.895 91.2818C38.6416 90.8267 38.4516 90.3066 38.1982 89.8515C38.1349 89.7215 37.8815 89.2663 37.8815 89.0713C37.8815 88.9413 37.8815 88.9413 38.0082 89.0063C38.0715 89.0063 38.1982 89.1363 38.3249 89.2013C38.3249 89.1363 38.3882 89.0713 38.3249 89.0713Z" fill="#664B36"/>
<path d="M41.4288 85.6904C41.0487 85.3003 40.542 85.1052 40.1619 84.7151C40.1619 84.7151 40.0985 84.7151 40.0985 84.7802C44.2794 91.6068 48.0169 98.6935 52.2611 105.455C53.4647 107.341 54.6683 109.161 55.9352 110.916C55.9352 110.981 56.0619 110.916 55.9985 110.851C51.4376 104.35 47.6368 97.3932 43.646 90.5015C42.5057 88.5511 41.3655 86.6656 40.1619 84.7802C40.1619 84.7802 40.0985 84.7802 40.0985 84.8452C40.542 85.1052 41.0487 85.3003 41.4288 85.6904C41.4288 85.6904 41.4922 85.6904 41.4288 85.6904Z" fill="#664B36"/>
<path d="M35.7277 83.1548C34.9676 83.2199 34.9676 81.7245 34.9042 81.2694C34.8409 79.774 35.0309 78.2137 35.221 76.7183C35.6644 73.1425 36.4246 69.5666 37.2481 66.0558C37.4381 65.3406 37.5648 64.6254 37.7548 63.9753C37.8815 63.5852 37.9449 63.1301 38.1349 62.74C38.1983 62.61 38.0082 62.61 37.9449 62.675C37.5648 63.5852 37.3114 64.6254 37.058 65.6007C36.6146 67.2911 36.2345 69.0465 35.9178 70.7369C35.5377 72.6874 35.221 74.6378 34.9676 76.5883C34.7775 78.1486 34.5875 79.709 34.6509 81.2694C34.7142 81.9195 34.7142 83.4149 35.6644 83.4149C35.8544 83.2849 35.8544 83.0898 35.7277 83.1548Z" fill="#664B36"/>
<path d="M40.7322 59.2942C40.0988 59.0991 41.6824 56.9536 41.8725 56.7586C42.8227 55.4583 43.8362 54.288 44.8498 53.0527C47.7637 49.7369 50.8677 46.6812 54.2884 43.9505C56.8223 41.9351 59.4828 40.1146 62.2701 38.6193C62.3334 38.6193 62.2701 38.5543 62.2067 38.5543C57.0123 41.3499 52.3247 45.0558 48.2071 49.2168C45.8633 51.6224 43.5195 54.158 41.5557 56.8886C41.3657 57.2137 39.782 59.1642 40.6055 59.4892C40.7322 59.4892 40.7956 59.3592 40.7322 59.2942Z" fill="#664B36"/>
<path d="M63.7901 152.591C63.03 152.136 62.9033 154.477 62.9033 154.802C62.7766 156.232 62.9033 157.663 62.7132 159.093C62.8399 159.093 62.9033 159.093 63.03 159.093C62.8399 157.858 62.8399 156.622 62.8399 155.322C62.8399 155.192 62.5865 155.192 62.5865 155.322C62.5865 156.362 62.5232 157.468 62.5232 158.508C62.5232 159.483 62.5232 160.458 62.7766 161.434C62.7766 161.499 62.9666 161.564 62.9666 161.499C63.0933 161.239 63.1567 160.978 63.2834 160.718C63.3467 160.653 63.22 160.588 63.1567 160.653C62.9666 160.848 62.9666 161.174 62.7766 161.369C62.8399 161.369 62.9033 161.369 62.9666 161.434C62.8399 160.458 62.7766 159.418 62.7766 158.443C62.7766 157.468 62.8399 156.427 62.8399 155.452C62.7766 155.452 62.6499 155.452 62.5865 155.452C62.5865 156.687 62.5865 157.988 62.7766 159.288C62.7766 159.418 63.03 159.418 63.0933 159.288C63.22 158.118 63.22 156.882 63.22 155.712C63.22 155.062 63.2834 154.412 63.41 153.827C63.41 153.697 63.5367 152.786 63.7901 152.917C63.7901 152.721 63.8535 152.656 63.7901 152.591Z" fill="#664B36"/>
<path d="M63.41 157.403C63.41 157.012 63.41 156.622 63.6 156.297C63.5367 156.297 63.4733 156.297 63.4733 156.297C63.5367 156.492 63.5367 156.687 63.5367 156.947C63.5367 157.273 63.6 157.663 63.6 157.988C63.6 158.703 63.6 159.483 63.6634 160.198C63.6634 160.328 63.6634 160.523 63.7267 160.718C63.7267 160.783 63.8534 160.783 63.8534 160.718C63.8534 160.653 63.8534 160.588 63.8534 160.458C63.8534 160.393 63.7267 160.393 63.7267 160.458C63.7267 160.523 63.7267 160.588 63.7267 160.653C63.7901 160.653 63.7901 160.653 63.8534 160.653C63.8534 160.653 63.8534 160.588 63.8534 160.523C63.8534 160.458 63.8534 160.328 63.8534 160.263C63.8534 159.938 63.8534 159.613 63.8534 159.288C63.8534 158.508 63.8534 157.728 63.7901 157.012C63.7901 156.752 63.7901 156.492 63.6634 156.232C63.6634 156.167 63.5367 156.167 63.5367 156.232C63.41 156.622 63.3466 157.012 63.3466 157.403C63.3466 157.403 63.41 157.403 63.41 157.403Z" fill="#664B36"/>
<path d="M63.6002 156.427C63.9803 156.037 64.2971 157.142 64.3604 157.338C64.6138 158.053 64.8038 158.833 65.0572 159.548C65.1839 159.873 65.3106 160.263 65.5006 160.523C65.5006 160.588 65.6273 160.523 65.564 160.458C65.3739 160.133 65.2473 159.808 65.1206 159.483C64.9939 159.028 64.8672 158.638 64.6771 158.183C64.5504 157.793 64.4237 157.403 64.2971 157.012C64.1704 156.752 64.107 156.492 63.917 156.297C63.8536 156.232 63.6636 156.297 63.6002 156.427C63.5369 156.427 63.5369 156.492 63.6002 156.427Z" fill="#664B36"/>
<path d="M62.9034 157.142C62.7133 157.403 64.3604 157.923 64.5504 157.923C65.8173 158.313 67.0843 158.703 68.3512 159.028C68.9213 159.158 69.4914 159.288 70.0615 159.353C70.1249 159.353 70.1882 159.223 70.1249 159.223C68.7946 158.963 67.4643 158.573 66.1974 158.248C65.5006 158.053 64.8671 157.858 64.2337 157.598C63.9803 157.533 63.7902 157.403 63.5369 157.338C63.4735 157.338 63.4102 157.272 63.3468 157.272C63.2201 157.207 63.3468 157.207 63.2835 157.338C63.2201 157.077 62.9667 157.012 62.9034 157.142Z" fill="#664B36"/>
<path d="M61.953 157.533C61.5095 158.313 63.9167 158.508 64.2968 158.573C64.8036 158.638 65.247 158.833 65.6904 158.898C66.1338 159.028 66.5773 159.093 67.084 159.158C68.0976 159.353 69.1111 159.418 70.1247 159.483C70.188 159.483 70.2514 159.353 70.1247 159.353C68.4143 159.093 66.704 158.963 64.9936 158.443C64.4235 158.248 63.79 158.248 63.2199 158.118C63.0299 158.053 61.8896 157.923 62.143 157.533C62.2697 157.468 62.0163 157.402 61.953 157.533Z" fill="#664B36"/>
<path d="M64.3604 163.254C64.2337 163.254 64.2337 162.929 64.0436 162.864C63.7903 162.799 63.7269 163.124 63.7903 163.254C63.8536 163.449 64.0436 163.644 64.1703 163.774C64.297 163.969 64.4237 164.164 64.6138 164.294C64.9305 164.619 65.2472 164.944 65.564 165.269C66.8942 166.57 68.4779 167.545 69.9982 168.52C70.0616 168.585 70.1883 168.455 70.1249 168.39C69.048 167.545 67.9078 166.765 66.8309 165.92C66.3241 165.529 65.8173 165.074 65.3739 164.554C65.1205 164.294 64.9305 164.034 64.7405 163.774C64.6138 163.644 64.4871 163.449 64.4237 163.319C64.3604 163.254 64.297 163.189 64.297 163.124C64.297 163.059 64.297 162.994 64.2337 162.994C64.1703 162.994 64.107 162.994 64.0436 162.994C63.9803 162.994 64.0436 162.994 64.0436 163.059C64.0436 163.124 64.107 163.189 64.107 163.189C64.1703 163.254 64.2337 163.319 64.297 163.384C64.4237 163.579 64.5504 163.319 64.3604 163.254Z" fill="#664B36"/>
<path d="M64.1703 164.554C64.1069 164.944 64.6137 165.204 64.8671 165.4C65.5005 165.79 66.134 165.985 66.8308 166.245C67.6543 166.505 68.4145 166.765 69.238 166.895C69.8714 167.025 70.5049 167.155 71.1384 167.09C71.2651 167.09 71.2651 166.96 71.1384 166.96C69.8081 166.895 68.4778 166.505 67.2109 166.115C66.5774 165.92 65.8806 165.66 65.2471 165.334C65.0571 165.204 64.3603 164.944 64.4236 164.619C64.487 164.424 64.1703 164.424 64.1703 164.554Z" fill="#664B36"/>
<path d="M68.9847 164.619C68.2879 164.229 67.5277 164.034 66.7675 163.839C66.6409 163.839 66.3875 163.969 66.5775 164.099C67.5911 164.944 68.9847 165.139 70.2516 165.009C70.3783 165.009 70.3783 164.814 70.2516 164.814C69.1114 164.749 67.8444 164.619 66.8942 163.839C66.8309 163.904 66.7675 164.034 66.7042 164.099C67.4644 164.294 68.1612 164.489 68.858 164.814C68.9847 164.944 69.1747 164.749 68.9847 164.619Z" fill="#664B36"/>
<path d="M66.7043 152.787C66.5777 152.982 66.3243 152.982 66.2609 153.177C66.1976 153.437 66.3876 153.567 66.5143 153.632C67.0844 154.022 67.7179 154.347 68.288 154.672C69.4916 155.257 70.7585 155.777 72.0255 156.167C74.686 156.948 77.4733 157.338 80.2605 157.403C81.7808 157.403 83.2378 157.338 84.6948 157.078C84.8215 157.078 84.7581 156.883 84.6948 156.948C79.627 157.468 74.3059 156.948 69.5549 154.867C68.9215 154.607 68.288 154.282 67.6545 153.892C67.4012 153.762 67.0844 153.567 66.831 153.372C66.641 153.242 66.7043 153.242 66.831 153.112C66.9577 153.047 67.0211 152.917 67.0844 152.852C67.2111 152.657 66.7677 152.591 66.7043 152.787Z" fill="#664B36"/>
<path d="M68.7313 153.632C68.4146 153.632 68.0979 153.827 67.7811 153.827C67.5911 153.827 67.5277 154.022 67.7178 154.087C72.5321 154.542 77.0931 156.557 81.9708 156.427C83.3644 156.362 84.6947 156.167 86.0249 155.777C86.1516 155.712 86.0883 155.582 85.9616 155.647C83.5544 156.232 81.1473 156.297 78.7401 155.972C76.3329 155.647 74.0524 154.997 71.7086 154.477C70.4417 154.217 69.1114 153.957 67.7811 153.892C67.7811 153.957 67.7811 154.022 67.7811 154.152C68.0979 154.152 68.4146 153.957 68.7313 153.957C68.858 153.892 68.858 153.632 68.7313 153.632Z" fill="#664B36"/>
<path d="M82.1606 148.82C84.4411 148.95 86.4048 150.446 87.6084 152.331C88.8753 154.282 89.3188 156.622 88.5586 158.898C88.5586 158.963 88.6853 159.028 88.6853 158.963C90.3957 155.517 88.0518 151.161 85.0112 149.471C84.1243 148.95 83.1741 148.69 82.1606 148.625C81.9706 148.495 81.9706 148.82 82.1606 148.82Z" fill="#664B36"/>
<path d="M83.9342 148.625C85.5812 149.016 87.1015 150.056 88.3685 151.031C89.6987 152.071 90.9657 153.307 91.5992 154.932C91.6625 154.997 91.7892 154.997 91.7892 154.867C91.6625 154.087 91.1557 153.372 90.7123 152.786C90.0788 152.006 89.382 151.356 88.5585 150.771C87.2282 149.731 85.6446 148.69 83.9976 148.3C83.8709 148.3 83.7442 148.56 83.9342 148.625Z" fill="#664B36"/>
<path d="M86.9119 148.235C89.6991 148.43 92.7397 150.901 92.7397 153.957C92.7397 154.087 92.9298 154.087 92.9298 153.957C93.1198 152.331 92.233 150.901 91.0927 149.861C89.9525 148.821 88.4955 148.04 86.9119 147.975C86.7852 147.975 86.7218 148.235 86.9119 148.235Z" fill="#664B36"/>
<path d="M95.0201 149.731C94.5133 148.69 93.4998 148.17 92.4862 147.78C91.346 147.39 90.1424 147.26 89.0021 147.195C88.8754 147.195 88.8121 147.39 89.0021 147.39C90.079 147.585 91.1559 147.65 92.2328 147.975C93.2464 148.3 94.2599 148.82 94.7667 149.796C94.83 149.991 95.0834 149.926 95.0201 149.731Z" fill="#664B36"/>
<path d="M51.2476 110.461C51.1209 111.046 51.4376 111.632 51.691 112.087C52.1345 112.932 52.7046 113.647 53.338 114.362C54.7317 116.053 56.3153 117.678 57.9623 119.173C58.5958 119.759 59.2926 120.344 59.9894 120.929C60.0528 120.994 60.1795 120.864 60.1161 120.799C58.8492 119.629 57.5823 118.393 56.3153 117.158C54.8584 115.663 53.4014 114.167 52.2612 112.412C51.9444 111.892 51.4376 111.177 51.501 110.461C51.501 110.331 51.311 110.331 51.2476 110.461Z" fill="#664B36"/>
<path d="M51.4375 106.951C51.2475 106.886 51.1841 106.56 50.9941 106.56C50.8674 106.56 50.8041 106.56 50.7407 106.69C50.6774 106.951 50.9941 107.211 51.1208 107.341C51.4375 107.731 51.8176 108.121 52.1343 108.446C52.7678 109.226 53.4646 109.941 54.0981 110.721C55.4284 112.282 56.6953 113.907 58.0889 115.468C58.1523 115.533 58.3423 115.468 58.2789 115.338C57.0754 113.842 55.8718 112.347 54.6048 110.851C54.0347 110.136 53.4013 109.421 52.8311 108.706C52.5144 108.316 52.1977 107.991 51.8809 107.601C51.7543 107.406 51.5642 107.276 51.4375 107.081C51.3742 107.016 51.1208 106.755 51.1208 106.625C51.0574 106.69 50.9941 106.69 50.8674 106.755C50.8041 106.755 50.8674 106.755 50.8674 106.82C50.8674 106.886 50.9941 106.951 50.9941 107.016C51.0574 107.081 51.1208 107.146 51.2475 107.211C51.5009 107.211 51.6909 106.951 51.4375 106.951Z" fill="#664B36"/>
<path d="M52.1344 103.18C53.4647 105.91 55.8719 107.991 57.899 110.201C57.9623 110.266 58.2157 110.201 58.089 110.071C56.1886 107.796 53.7814 105.78 52.4512 103.05C52.3878 102.855 52.0711 102.985 52.1344 103.18Z" fill="#664B36"/>
<path d="M54.0346 121.124C54.2246 121.059 54.7314 121.449 54.9214 121.514C55.3648 121.774 55.8083 122.099 56.2517 122.424C57.2019 123.139 58.0254 123.855 58.5955 124.96C59.9891 127.56 60.1792 130.551 60.3692 133.477C60.4959 135.102 60.5592 136.728 60.876 138.288C60.876 138.418 61.1294 138.353 61.066 138.223C60.6859 135.102 60.8126 131.981 60.2425 128.926C59.9891 127.43 59.5457 125.935 58.7222 124.635C58.1521 123.594 57.2019 122.944 56.315 122.229C55.8083 121.839 55.3015 121.514 54.7314 121.189C54.5413 121.059 54.1612 120.864 53.9079 120.929C53.7812 120.994 53.9079 121.189 54.0346 121.124Z" fill="#664B36"/>
<path d="M60.306 128.861C61.3195 131.006 61.7629 133.412 62.0797 135.752C62.4597 138.353 62.5864 140.954 62.7765 143.619C62.9032 144.985 63.0299 146.415 63.2199 147.78C63.2199 147.91 63.4733 147.845 63.4099 147.715C63.1565 145.18 63.0299 142.579 62.8398 140.043C62.6498 137.443 62.3964 134.842 61.7629 132.307C61.4462 131.071 61.0661 129.836 60.496 128.731C60.496 128.666 60.2426 128.731 60.306 128.861Z" fill="#664B36"/>
<path d="M95.9069 151.486C95.9703 145.7 97.6806 140.173 98.1241 134.452C98.1241 134.322 97.934 134.322 97.934 134.452C97.2372 140.108 95.6536 145.7 95.7169 151.486C95.7169 151.616 95.9069 151.616 95.9069 151.486Z" fill="#664B36"/>
<path d="M99.391 127.235C97.8073 128.731 97.3639 131.201 96.9838 133.282C96.7938 134.387 96.6037 135.427 96.287 136.533C95.8436 138.158 95.2734 139.718 94.83 141.344C94.2599 143.229 93.7531 145.05 93.373 147C93.373 147.065 93.4997 147.065 93.4997 147C94.3233 143.684 95.3368 140.368 96.4137 137.118C97.1105 134.972 97.3005 132.632 97.9974 130.486C98.3774 129.381 98.8209 128.211 99.6444 127.365C99.7077 127.235 99.5177 127.17 99.391 127.235Z" fill="#664B36"/>
<path d="M93.4999 147.91C94.4501 141.994 95.6537 135.882 98.3142 130.486C99.0744 128.991 99.9612 127.56 100.911 126.195C100.975 126.065 100.848 126 100.785 126.13C98.821 128.341 97.4907 131.201 96.4772 133.932C95.4003 136.793 94.7035 139.848 94.1967 142.839C93.88 144.53 93.6266 146.22 93.3732 147.91C93.3098 147.975 93.4999 147.975 93.4999 147.91Z" fill="#664B36"/>
<path d="M102.052 124.245C101.228 124.375 100.785 124.83 100.468 125.61C100.024 126.715 99.4543 127.82 99.0742 128.926C98.124 131.396 97.5539 134.062 96.9204 136.663C96.5404 138.158 96.1603 139.653 95.7169 141.149C95.7169 141.214 95.8435 141.214 95.8435 141.149C97.4272 136.338 97.9973 131.266 100.214 126.715C100.468 126.26 100.595 125.675 100.848 125.22C101.101 124.635 101.545 124.375 102.052 124.245C102.115 124.31 102.115 124.245 102.052 124.245Z" fill="#664B36"/>
<path d="M100.214 134.387C99.8344 134.582 99.4543 134.907 98.9475 134.972L99.0108 135.037C99.2009 132.047 100.341 129.186 101.671 126.52C103.065 123.66 104.775 120.929 106.422 118.263C107.246 116.898 108.069 115.533 108.766 114.102C108.83 114.037 108.64 113.972 108.64 114.037C105.599 119.434 101.798 124.44 99.8344 130.356C99.3276 131.852 98.9475 133.412 98.8842 135.037C98.8842 135.102 98.9475 135.102 98.9475 135.102C99.4543 135.102 99.8344 134.777 100.278 134.517C100.404 134.517 100.278 134.322 100.214 134.387Z" fill="#664B36"/>
<path d="M106.422 118.783C106.232 119.173 105.979 119.433 105.662 119.693C105.726 119.693 105.789 119.758 105.852 119.758C109.21 115.923 112.82 112.217 115.481 107.796C116.241 106.56 116.875 105.325 117.445 104.025C117.508 103.96 117.318 103.895 117.318 103.96C115.164 108.641 111.807 112.607 108.513 116.378C107.563 117.483 106.612 118.523 105.726 119.628C105.662 119.758 105.789 119.824 105.916 119.693C106.232 119.368 106.486 119.108 106.676 118.718C106.612 118.718 106.486 118.653 106.422 118.783Z" fill="#664B36"/>
<path d="M97.744 133.867C96.9205 135.947 96.4771 138.223 96.097 140.433C95.7169 142.774 95.4002 145.18 95.0834 147.585C94.8934 148.885 94.7034 150.186 94.5767 151.486C94.5767 151.616 94.7667 151.616 94.8301 151.486C95.4635 148.56 95.6536 145.505 96.097 142.579C96.287 141.084 96.5404 139.588 96.8571 138.093C97.1739 136.663 97.554 135.297 97.934 133.932C97.9974 133.802 97.744 133.802 97.744 133.867Z" fill="#664B36"/>
<path d="M95.3369 148.235C94.1333 149.536 94.1333 151.616 94.1966 153.306C94.26 155.582 94.5767 157.858 94.5134 160.133C94.5134 160.653 94.45 161.238 94.3233 161.758C94.1966 162.279 94.0066 162.734 93.8799 163.254C93.8799 163.384 94.0699 163.384 94.1333 163.319C94.7034 162.669 94.7667 161.628 94.8934 160.848C95.0201 159.808 94.9568 158.703 94.8934 157.663C94.7667 155.517 94.45 153.306 94.64 151.096C94.7667 150.121 94.9568 149.145 95.5902 148.365C95.6536 148.235 95.4002 148.17 95.3369 148.235Z" fill="#664B36"/>
<path d="M94.7032 156.232C94.5132 157.663 94.7666 159.158 94.5765 160.588C94.5132 161.238 94.3231 161.954 93.9431 162.474C93.4996 163.189 92.7395 163.579 92.0427 163.904C91.916 163.969 91.9793 164.099 92.106 164.099C93.6263 163.644 94.5765 162.539 94.8299 160.978C95.0833 159.418 94.8299 157.793 95.02 156.232C95.0833 156.037 94.7666 156.037 94.7032 156.232Z" fill="#664B36"/>
<path d="M94.45 161.043C91.5994 163.319 87.862 163.384 84.3779 163.514C84.2512 163.514 84.2512 163.644 84.3779 163.644C87.862 163.774 91.7895 163.514 94.5767 161.173C94.7034 161.108 94.5767 160.978 94.45 161.043Z" fill="#664B36"/>
<path d="M80.8304 173.396C82.4141 173.786 84.0611 173.201 85.4547 172.421C87.1017 171.511 88.6221 170.341 90.079 169.105C90.7758 168.52 91.4093 167.87 92.0428 167.285C92.1061 167.22 91.9794 167.155 91.9161 167.22C90.3324 168.65 88.6854 170.081 86.975 171.316C85.328 172.421 83.0476 173.786 81.0205 173.266C80.7671 173.136 80.6404 173.331 80.8304 173.396Z" fill="#664B36"/>
<path d="M95.1466 163.709C93.1829 165.724 90.9024 167.48 88.4952 168.975C86.0881 170.471 83.5542 171.576 80.8303 172.356C80.6403 172.421 80.7036 172.616 80.8936 172.616C82.9841 172.226 85.0745 171.251 86.9749 170.276C89.002 169.17 90.9024 167.87 92.6761 166.375C93.6263 165.594 94.5132 164.749 95.4 163.839C95.5267 163.709 95.2733 163.644 95.1466 163.709Z" fill="#664B36"/>
<path d="M97.1737 165.594C96.4769 166.115 96.1602 166.765 96.2235 167.675C96.2235 168.65 96.4136 169.625 96.0968 170.601C95.8434 171.316 95.3367 171.771 94.6398 172.096C93.943 172.421 93.3096 172.746 92.6761 173.266C90.2689 175.347 88.9387 178.468 86.9116 180.873C85.8347 182.173 84.5677 183.149 82.9207 183.604C82.794 183.669 82.794 183.799 82.9207 183.799C84.3144 183.799 85.5813 182.889 86.5315 181.913C87.6717 180.743 88.6219 179.378 89.5088 178.012C90.3956 176.647 91.3458 175.217 92.4227 174.046C92.9928 173.461 93.563 173.006 94.3231 172.616C94.8932 172.291 95.5267 172.096 95.9701 171.511C96.6036 170.731 96.7936 169.69 96.7303 168.78C96.6669 167.675 96.4136 166.57 97.4271 165.79C97.6171 165.659 97.3638 165.464 97.1737 165.594Z" fill="#664B36"/>
<path d="M67.0843 171.316C66.7042 171.121 66.5775 170.731 66.1341 170.731C66.0708 170.731 65.9441 170.796 66.0074 170.861C67.0843 172.876 68.9847 174.307 70.7584 175.542C72.6588 176.907 74.6859 178.142 76.5863 179.573C76.6496 179.638 76.7763 179.508 76.713 179.443C75.0026 177.947 73.0389 176.777 71.2018 175.477C69.3648 174.177 67.401 172.746 66.2608 170.731C66.1974 170.796 66.1975 170.796 66.1341 170.861C66.5775 170.861 66.7042 171.186 67.021 171.381C67.0843 171.511 67.211 171.381 67.0843 171.316Z" fill="#664B36"/>
<path d="M75.9528 126.65C73.5456 125.48 74.8126 122.164 74.6859 120.084C74.6859 120.019 74.4958 120.019 74.4958 120.084C74.3691 122.229 73.3556 125.61 75.8261 126.78C75.9528 126.845 76.0795 126.715 75.9528 126.65Z" fill="#664B36"/>
<path d="M74.179 119.954C74.369 120.994 74.6224 121.969 74.8124 123.009C75.0025 123.985 75.1925 125.025 75.3192 126C75.6359 128.016 75.8893 130.096 76.0794 132.111C76.5228 136.142 76.8395 140.238 77.5363 144.204C77.7264 145.31 77.9164 146.415 78.1698 147.52C78.4232 148.625 78.6766 149.731 79.12 150.771C79.1833 150.901 79.3734 150.836 79.3734 150.706C79.1834 149.731 78.8666 148.69 78.6766 147.715C78.4232 146.74 78.2331 145.765 78.0431 144.789C77.663 142.774 77.4096 140.759 77.1563 138.678C76.6495 134.647 76.3328 130.551 75.6993 126.52C75.5093 125.415 75.3192 124.245 75.1292 123.139C74.8758 122.034 74.6857 120.864 74.3057 119.824C74.3057 119.824 74.1156 119.824 74.179 119.954Z" fill="#664B36"/>
<path d="M76.7762 148.365C77.3463 147.78 78.2332 147.52 78.93 147.26C79.6901 147 80.7037 146.74 81.4638 147.13C81.6539 147.195 81.7806 147.325 81.9073 147.52C82.034 147.715 82.034 147.91 82.0973 148.17C82.0973 148.235 82.224 148.235 82.2873 148.17C82.414 147.78 82.224 147.325 81.9073 147.065C81.5905 146.805 81.1471 146.675 80.767 146.675C79.6901 146.675 78.6132 147 77.663 147.455C77.283 147.65 76.8395 147.845 76.5228 148.17C76.3328 148.365 76.6495 148.495 76.7762 148.365Z" fill="#664B36"/>
<path d="M81.4006 147.781C81.4647 147.781 81.4647 147.715 81.4006 147.781C81.4006 147.715 81.4006 147.781 81.4006 147.781Z" fill="#664B36"/>
<path d="M80.7039 147.26C79.2469 146.87 77.7266 146.675 76.3963 147.39C76.2062 147.455 76.3329 147.65 76.4596 147.65C78.2967 147.455 80.1337 146.935 81.9074 147.65C81.9074 147.585 81.8441 147.52 81.8441 147.455C81.0206 148.365 79.7537 148.495 78.6134 148.625C77.5365 148.755 76.3963 148.755 75.3194 148.885C75.3827 148.95 75.3827 149.08 75.4461 149.146C77.3465 147.39 79.9437 147.39 82.3509 147.65C82.4776 147.65 82.5409 147.455 82.4142 147.455C81.1473 147.195 79.817 147.13 78.4867 147.39C77.2831 147.585 76.0795 148.105 75.1927 149.015C75.066 149.146 75.256 149.276 75.3827 149.276C76.523 149.015 77.7266 149.015 78.9301 148.885C80.0704 148.755 81.1473 148.365 82.0975 147.715C82.1608 147.65 82.1608 147.585 82.0975 147.52C80.3238 146.675 78.2967 147.195 76.4596 147.455C76.523 147.52 76.523 147.65 76.5863 147.715C77.8533 146.935 79.3102 147.13 80.7039 147.52C80.7672 147.455 80.8305 147.325 80.7039 147.26Z" fill="#664B36"/>
<path d="M82.1607 147.065C77.9165 146.87 73.6722 148.17 70.1882 150.511C69.238 151.161 68.2244 151.811 67.5276 152.721C67.4009 152.851 67.6543 152.981 67.7177 152.851C68.7312 152.071 69.6814 151.226 70.7583 150.511C71.8985 149.796 73.1021 149.145 74.3691 148.69C76.8396 147.715 79.5001 147.13 82.1607 147.195C82.2874 147.26 82.2874 147.065 82.1607 147.065Z" fill="#664B36"/>
<path d="M72.6587 149.731C72.4686 149.666 72.4053 149.666 72.5953 149.601C72.8487 149.471 73.0387 149.406 73.2921 149.341C73.9256 149.146 74.6224 149.016 75.2559 148.885C77.0296 148.495 78.7399 147.91 80.577 147.78C81.9706 147.65 83.3642 147.715 84.6945 148.04C84.7579 148.04 84.9479 147.91 84.8212 147.845C83.6176 147.26 82.3507 147.26 81.0838 147.325C79.6901 147.39 78.2965 147.715 76.9029 148.105C76.2061 148.3 75.5093 148.495 74.8124 148.625C74.1156 148.82 73.3555 148.95 72.6587 149.211C72.2152 149.406 71.9618 149.731 72.5953 149.926C72.6587 149.926 72.7854 149.731 72.6587 149.731Z" fill="#664B36"/>
<path d="M76.0794 151.941C75.3826 152.136 74.6224 152.071 74.6224 152.981C74.6224 153.047 74.6858 153.112 74.7491 153.177C76.5228 153.762 78.6133 153.437 80.2603 152.591C80.1969 152.461 80.1336 152.396 80.0702 152.266C79.3101 152.656 78.6133 153.047 77.8531 153.372C77.6631 153.502 77.7264 153.762 77.9798 153.697C79.6902 153.502 81.4639 153.177 83.1109 152.721C83.3643 152.656 83.3009 152.396 83.0475 152.396C82.7308 152.396 82.2874 152.591 82.034 152.786C82.1607 152.851 82.224 152.916 82.3507 152.981C82.7308 151.941 83.4276 151.161 84.4412 150.836C84.3778 150.771 84.2511 150.706 84.1878 150.706C84.1244 151.031 84.1244 151.356 84.0611 151.616C83.9977 152.006 83.8077 152.396 83.491 152.656C83.6177 152.721 83.681 152.786 83.8077 152.851C84.2511 152.201 84.6312 151.551 85.0746 150.966C85.0113 150.966 84.8846 150.901 84.8212 150.901C84.8212 152.136 84.5679 153.372 83.871 154.412C83.9977 154.412 84.1244 154.477 84.2511 154.477C83.9977 153.697 83.7443 152.981 83.5543 152.201C83.4276 152.266 83.3009 152.331 83.1742 152.396C84.3778 153.372 85.8981 154.022 87.4185 153.892C87.6085 153.892 87.5451 153.632 87.4185 153.632C86.0248 153.502 84.6312 153.047 83.491 152.136C83.3643 152.071 83.0475 152.071 83.1109 152.331C83.3643 153.112 83.6177 153.827 83.871 154.607C83.9344 154.802 84.1878 154.802 84.2511 154.607C84.9479 153.437 85.138 152.266 85.138 150.966C85.138 150.836 84.9479 150.771 84.8846 150.901C84.4412 151.551 83.9977 152.136 83.5543 152.786C83.4276 152.981 83.7443 153.112 83.871 152.981C84.1244 152.656 84.3778 152.331 84.4412 151.941C84.5045 151.551 84.5679 151.161 84.6312 150.771C84.6946 150.641 84.4412 150.576 84.3778 150.641C83.2376 151.031 82.4141 151.876 82.034 152.981C81.9706 153.177 82.224 153.242 82.3507 153.177C82.5408 152.981 82.8575 152.851 83.1109 152.851C83.1109 152.721 83.1109 152.656 83.1109 152.526C81.4005 152.916 79.6902 153.242 77.9165 153.437C77.9798 153.567 77.9798 153.697 78.0431 153.762C78.8033 153.372 79.5001 152.981 80.2603 152.656C80.5137 152.526 80.3236 152.201 80.0702 152.331C78.4866 153.112 76.5862 153.437 74.8758 152.916C74.9392 152.981 74.9392 153.047 75.0025 153.112C75.0025 152.786 75.0025 152.526 75.3826 152.461C75.636 152.396 75.8894 152.396 76.1428 152.331C76.3328 152.136 76.2694 151.876 76.0794 151.941Z" fill="#664B36"/>
<path d="M44.9129 61.1796C44.5962 61.3096 44.3428 61.5047 44.0261 61.5697C44.0894 61.5697 44.0894 61.6347 44.1527 61.6347C44.3428 58.839 46.3065 56.4334 48.0802 54.548C50.234 52.2074 52.7679 50.1269 55.2384 48.1115C56.3786 47.2012 57.5189 46.291 58.6591 45.3808C58.7225 45.3158 58.6591 45.3158 58.5958 45.3158C56.3153 47.0712 53.9715 48.8266 51.7543 50.7771C49.4105 52.7926 47.0667 55.0031 45.4197 57.6687C44.6595 58.839 44.0894 60.2043 43.9627 61.6347C43.9627 61.6997 44.0261 61.6997 44.0261 61.6997C44.4061 61.6997 44.6595 61.5047 44.9763 61.3096C45.1029 61.3096 44.9763 61.1796 44.9129 61.1796Z" fill="#664B36"/>
<path d="M57.0754 44.6006C55.7451 44.9257 54.6048 45.7709 53.6546 46.7461C52.5144 47.9164 51.5642 49.2817 50.6774 50.582C49.7272 52.0124 48.777 53.3127 47.7001 54.613C46.3064 56.3034 44.8495 57.9938 43.3925 59.6842C41.7455 61.6347 40.0985 63.5201 38.5782 65.6006C38.5148 65.6656 38.6415 65.7306 38.6415 65.6656C40.0351 63.9752 41.3654 62.2198 42.759 60.5944C44.1527 58.969 45.5463 57.2786 46.9399 55.6532C48.0801 54.2879 49.157 52.9226 50.1706 51.4922C51.0574 50.1919 51.8809 48.8916 52.8945 47.6563C53.9714 46.356 55.3017 45.0557 57.012 44.6656C57.2021 44.6656 57.1387 44.5356 57.0754 44.6006Z" fill="#664B36"/>
<path d="M43.0124 62.8051C43.0124 60.3995 44.6594 58.189 46.0531 56.4335C47.8268 54.288 49.7905 52.4026 51.8176 50.5171C52.7044 49.6719 53.6546 48.8917 54.5415 48.0465C54.6048 47.9815 54.5415 47.9165 54.4781 47.9815C52.6411 49.6069 50.804 51.2323 49.0937 52.9227C47.13 54.8081 45.2296 56.8886 43.8993 59.2942C43.3292 60.3345 42.8857 61.5047 42.8857 62.74C42.8224 62.8701 43.0124 62.8701 43.0124 62.8051Z" fill="#664B36"/>
<path d="M41.3654 50.7771C40.0351 51.8174 39.275 53.5078 38.7048 55.0681C38.008 56.9536 37.5646 58.9041 37.1212 60.8545C36.9311 61.6997 36.8044 62.5449 36.6144 63.3901C36.4244 64.2353 36.171 65.0155 35.9809 65.7957C35.3475 67.8762 34.7774 69.8917 34.3339 72.0372C33.9539 74.1177 33.6371 76.5232 34.5873 78.4737C34.5873 78.5387 34.714 78.4737 34.714 78.4087C34.0172 76.5883 34.2072 74.5078 34.524 72.6223C34.8407 70.5418 35.4742 68.5263 36.0443 66.5109C36.2977 65.6657 36.5511 64.8205 36.7411 63.9753C36.9311 63.1951 37.0578 62.4799 37.1845 61.6997C37.5646 59.8143 38.008 57.8638 38.5781 55.9784C39.1483 54.1579 39.9718 52.0774 41.4921 50.8421C41.6188 50.8421 41.4921 50.7121 41.3654 50.7771Z" fill="#664B36"/>
<path d="M35.2208 77.6935C33.9539 77.1083 33.3837 75.808 33.2571 74.4427C33.067 72.6223 33.4471 70.7368 33.9539 68.9814C35.0308 64.8204 36.8045 60.8544 38.6415 57.0185C39.275 55.6532 39.9718 54.2879 40.6686 52.9876C40.732 52.9226 40.5419 52.8575 40.5419 52.9226C38.8949 55.9133 37.3746 59.034 36.0443 62.2198C35.2208 64.3003 34.3973 66.3808 33.8272 68.5913C33.3837 70.4117 32.9403 72.2972 33.067 74.1826C33.1304 75.678 33.7005 77.1733 35.2208 77.6935C35.2208 77.7585 35.2208 77.7585 35.2208 77.6935Z" fill="#664B36"/>
<path d="M39.9086 53.7029C38.2616 55.6534 37.4381 58.0589 36.6146 60.3995C36.1712 61.5698 35.6644 62.7401 35.1576 63.9103C34.5875 65.1456 33.954 66.3809 33.4473 67.6812C32.8771 68.9815 32.4337 70.4119 32.4971 71.9072C32.4971 72.0373 32.6871 71.9722 32.6871 71.9072C32.9405 69.1766 34.1441 66.836 35.221 64.4305C36.2345 62.1549 36.9947 59.8144 37.8815 57.4738C38.4516 56.1735 39.0851 54.8732 39.972 53.7679C40.0987 53.6379 39.972 53.5729 39.9086 53.7029Z" fill="#664B36"/>
<path d="M34.2073 75.808C34.0172 76.1981 33.9539 76.5882 33.6372 76.9133C33.7005 76.9133 33.7639 76.9133 33.8272 76.9133C33.5738 72.6223 34.7774 68.5263 36.4244 64.6904C38.2615 60.5944 40.6686 56.6935 43.3925 53.1827C44.7228 51.4272 46.1164 49.8018 47.6368 48.2415C47.7635 48.1114 47.5101 48.0464 47.4467 48.1114C44.4694 51.0371 41.9356 54.3529 39.7184 57.8638C37.3113 61.6347 35.2842 65.7957 34.2073 70.2167C33.7005 72.3622 33.3204 74.7028 33.6372 76.9783C33.6372 77.0433 33.7639 77.0433 33.8272 76.9783C34.1439 76.6532 34.2073 76.1981 34.3973 75.808C34.3973 75.808 34.2073 75.743 34.2073 75.808Z" fill="#664B36"/>
<path d="M38.895 62.74C38.6417 63 38.515 63.3901 38.1349 63.4551C38.1982 63.5201 38.1982 63.5201 38.2616 63.5852C37.6915 61.6347 38.5783 59.7492 39.5285 58.1889C40.4787 56.4985 41.4923 54.8731 42.6325 53.3127C44.7229 50.257 47.1935 47.5263 49.854 44.9907C51.3743 43.4954 52.958 42.065 54.605 40.6347C54.6684 40.5697 54.5417 40.4396 54.4783 40.5047C51.5644 42.9102 48.7138 45.5109 46.1799 48.3715C44.913 49.8019 43.7094 51.2972 42.6325 52.8576C41.4923 54.418 40.5421 56.1084 39.5285 57.7338C38.4516 59.4892 37.4381 61.5047 38.0082 63.6502C38.0082 63.7152 38.0715 63.7802 38.1349 63.7802C38.705 63.7802 38.8317 63.3901 39.2118 63C39.3385 62.74 39.0217 62.6099 38.895 62.74Z" fill="#664B36"/>
<path d="M43.5191 50.777C43.0123 51.4922 42.5055 52.2074 41.7454 52.5975C41.8087 52.6625 41.9354 52.7275 41.9987 52.7925C44.0258 49.0866 47.1298 45.9659 50.4238 43.3003C53.8446 40.5696 57.6454 38.229 61.6995 36.3436C63.79 35.3684 65.8804 34.5882 68.0342 33.938C68.1609 33.873 68.0976 33.743 67.9709 33.743C63.9167 34.7832 59.9892 36.6037 56.3784 38.7492C52.5143 41.0247 48.9035 43.7554 45.8629 47.0712C44.2792 48.7616 42.8856 50.647 41.682 52.7275C41.6187 52.8575 41.8087 52.9876 41.9354 52.9226C42.7589 52.4674 43.329 51.7523 43.8358 50.9721C43.9625 50.777 43.6458 50.647 43.5191 50.777Z" fill="#664B36"/>
</svg>
